<svg width="60" height="60" viewBox="0 0 60 60" fill="none" xmlns="http://www.w3.org/2000/svg">
<path d="M30 60C13.4579 60 0 46.5421 0 30C0 13.4579 13.4579 0 30 0C46.5421 0 60 13.4579 60 30C60 46.5421 46.5421 60 30 60ZM30 0.975019C14.0017 0.975019 0.981656 13.9951 0.981656 29.9933C0.981656 45.9982 14.0017 59.0117 30 59.0117C46.0049 59.0117 59.0183 45.9916 59.0183 29.9933C59.0183 13.9951 45.9982 0.975019 30 0.975019Z" fill="white"/>
<path d="M30.0001 44.2804C37.6745 44.2804 43.8957 41.2692 43.8957 37.5547C43.8957 33.8403 37.6745 30.8291 30.0001 30.8291C22.3257 30.8291 16.1045 33.8403 16.1045 37.5547C16.1045 41.2692 22.3257 44.2804 30.0001 44.2804Z" fill="#EE7120"/>
<path d="M29.9999 45.2288C21.6758 45.2288 15.1558 41.8593 15.1558 37.5547C15.1558 33.2501 21.6758 29.8806 29.9999 29.8806C38.324 29.8806 44.844 33.2501 44.844 37.5547C44.844 41.8593 38.324 45.2288 29.9999 45.2288ZM29.9999 31.7776C22.2595 31.7776 17.0527 34.7623 17.0527 37.5547C17.0527 40.3471 22.2528 43.3319 29.9999 43.3319C37.747 43.3319 42.947 40.3471 42.947 37.5547C42.947 34.7623 37.7403 31.7776 29.9999 31.7776Z" fill="white"/>
<path d="M30.2722 28.0633C33.6826 28.0633 36.4473 25.2986 36.4473 21.8881C36.4473 18.4777 33.6826 15.713 30.2722 15.713C26.8619 15.713 24.0972 18.4777 24.0972 21.8881C24.0972 25.2986 26.8619 28.0633 30.2722 28.0633Z" fill="#F2F7FF"/>
<path d="M30.272 29.0051C26.3454 29.0051 23.1484 25.8082 23.1484 21.8815C23.1484 17.9549 26.3454 14.7579 30.272 14.7579C34.1987 14.7579 37.3956 17.9549 37.3956 21.8815C37.3956 25.8082 34.1987 29.0051 30.272 29.0051ZM30.272 16.6615C27.3934 16.6615 25.0455 19.0029 25.0455 21.8882C25.0455 24.7734 27.3868 27.1148 30.272 27.1148C33.1573 27.1148 35.4987 24.7734 35.4987 21.8882C35.4987 19.0029 33.1573 16.6615 30.272 16.6615Z" fill="white"/>
</svg>
