<svg width="60" height="60" viewBox="0 0 60 60" fill="none" xmlns="http://www.w3.org/2000/svg">
<path d="M30 60C13.4579 60 0 46.5421 0 30C0 13.4579 13.4579 0 30 0C46.5421 0 60 13.4579 60 30C60 46.5421 46.5421 60 30 60ZM30 0.981656C13.9951 0.981656 0.981638 14.0017 0.981638 30C0.981638 45.9982 14.0017 59.0183 30 59.0183C45.9982 59.0183 59.0183 45.9982 59.0183 30C59.0183 14.0017 46.0048 0.981656 30 0.981656Z" fill="white"/>
<path d="M36.1748 46.489H23.8312C22.4714 46.489 21.3638 45.3814 21.3638 44.0216V15.9783C21.3638 14.6185 22.4714 13.5109 23.8312 13.5109H36.1748C37.5344 13.5109 38.6422 14.6185 38.6422 15.9783V44.0216C38.6355 45.3814 37.5279 46.489 36.1748 46.489ZM23.8312 15.0829C23.3403 15.0829 22.9358 15.4875 22.9358 15.9783V44.0216C22.9358 44.5124 23.3403 44.917 23.8312 44.917H36.1748C36.6656 44.917 37.0702 44.5124 37.0702 44.0216V15.9783C37.0702 15.4875 36.6656 15.0829 36.1748 15.0829H23.8312Z" fill="white"/>
<path d="M37.5149 19.5337H22.4453V40.0289H37.5149V19.5337Z" fill="#EE7120"/>
<path d="M37.5144 40.8115H22.4448C22.0137 40.8115 21.6621 40.46 21.6621 40.0289V19.5336C21.6621 19.1024 22.0137 18.751 22.4448 18.751H37.5144C37.9455 18.751 38.2971 19.1024 38.2971 19.5336V40.0289C38.2971 40.46 37.9455 40.8115 37.5144 40.8115ZM23.2275 39.2396H36.7251V20.3162H23.2275V39.2396Z" fill="white"/>
<path d="M29.9935 43.5577C30.3048 43.5577 30.5573 43.3053 30.5573 42.9939C30.5573 42.6826 30.3048 42.4302 29.9935 42.4302C29.6821 42.4302 29.4297 42.6826 29.4297 42.9939C29.4297 43.3053 29.6821 43.5577 29.9935 43.5577Z" fill="white"/>
<path d="M29.9936 44.811C28.9921 44.811 28.1763 43.9951 28.1763 42.9936C28.1763 41.9921 28.9921 41.1763 29.9936 41.1763C30.9951 41.1763 31.8111 41.9921 31.8111 42.9936C31.8177 43.9951 31.0018 44.811 29.9936 44.811ZM29.9936 42.2971C29.609 42.2971 29.2972 42.609 29.2972 42.9936C29.2972 43.3784 29.609 43.6901 29.9936 43.6901C30.3784 43.6901 30.6901 43.3784 30.6901 42.9936C30.6901 42.609 30.3784 42.2971 29.9936 42.2971Z" fill="#11A452"/>
</svg>
