<svg width="60" height="60" viewBox="0 0 60 60" fill="none" xmlns="http://www.w3.org/2000/svg">
<path d="M30 60C13.4579 60 0 46.5421 0 30C0 13.4579 13.4579 0 30 0C46.5421 0 60 13.4579 60 30C60 46.5421 46.5421 60 30 60ZM30 0.981656C14.0017 0.981656 0.981656 14.0017 0.981656 30C0.981656 45.9982 14.0017 59.0183 30 59.0183C46.0049 59.0183 59.0183 45.9982 59.0183 30C59.0183 14.0017 45.9982 0.981656 30 0.981656Z" fill="white"/>
<path d="M39.6374 24.0103C40.0552 23.6787 40.4532 23.3138 40.818 22.9093C42.4298 21.1317 40.0486 18.9097 38.2445 20.3358C37.1103 21.2312 33.449 20.6939 32.1158 20.7138C30.1592 20.7403 28.2025 20.7668 26.2459 20.8C23.9045 20.8332 23.8978 24.4746 26.2459 24.4415C27.9439 24.4149 29.6484 24.395 31.3464 24.3684C31.3464 24.4348 31.3398 24.5011 31.3398 24.5608C29.5291 24.5276 27.7448 24.7598 25.9606 25.0782C23.9642 25.4297 24.3953 28.8589 26.4448 28.6533C27.4729 28.5472 28.5275 28.3813 29.5623 28.3282C29.728 28.3216 29.8939 28.3216 30.0597 28.3149C30.7694 28.3349 31.3531 28.514 32.0164 28.7196C31.9633 28.7925 31.9102 28.8655 31.8638 28.9385C30.65 29.6216 29.3499 29.7676 27.7051 30.0925C26.2193 30.3844 25.1249 31.2599 25.4299 32.8916C25.8014 34.888 27.851 35.7967 29.025 37.236C30.0597 38.5029 30.577 39.7763 31.7577 40.6585C31.7842 40.7116 31.8173 40.7713 31.8439 40.8244C32.1225 41.4478 32.1092 42.1178 32.5138 42.6682C33.3031 43.7295 35.1736 43.9816 36.3143 44.3662C38.165 44.9963 39.1864 42.5953 38.0853 41.3218C37.5746 40.7315 37.0639 40.1478 36.5531 39.5575C36.0889 39.0203 35.5317 38.8876 35.0144 39.007C34.948 38.7218 34.8352 38.4564 34.6495 38.2376C34.1786 37.6605 33.7144 37.0901 33.2434 36.5131C33.0311 36.2543 32.7791 36.1018 32.5138 36.0157C32.3347 35.6973 32.1755 35.3988 32.0296 35.1732C32.2618 34.4768 32.096 33.6344 31.552 33.137C31.8904 33.0243 32.2286 32.9048 32.5602 32.7589C33.4888 32.3477 34.3246 31.8104 35.074 31.1604C35.1337 31.1206 35.1935 31.0875 35.2465 31.041C35.2929 31.0079 35.3328 30.9681 35.3792 30.9349C35.4653 30.8619 35.5384 30.7691 35.6046 30.6696C35.7771 30.4972 35.9495 30.3247 36.1087 30.1389C36.3475 29.8736 36.4802 29.5884 36.5465 29.3032C37.7073 28.5073 39.1333 27.9037 40.2012 27.2737C41.8328 26.3119 41.0634 24.3619 39.6374 24.0103Z" fill="#EE7120"/>
<path d="M40.9907 20.9065L39.2529 23.5264H36.0758C36.3942 23.9974 36.633 24.5479 36.7788 25.1448H40.9973L39.2595 27.7648H36.8319C36.2482 31.048 33.164 32.7725 30.1461 33.0909L38.3641 43.3584H34.139L26.0868 33.2965V30.9949H28.3353C32.0629 30.9949 33.2303 29.0715 33.363 27.7582H25.0985L26.8364 25.1383H32.9318C32.0032 23.6525 30.0466 23.5199 27.944 23.5199H25.0919L26.8297 20.8999H40.9907V20.9065ZM40.9907 19.4142H26.8364C26.3323 19.4142 25.8679 19.6662 25.5894 20.0841L23.8516 22.7041C23.5465 23.1617 23.52 23.752 23.7786 24.2428C24.0373 24.7337 24.548 25.0322 25.0985 25.0322H25.1251L23.8516 26.9423C23.5465 27.4 23.52 27.9903 23.7786 28.4811C24.0373 28.972 24.548 29.2704 25.0985 29.2704H30.1859C29.6951 29.423 29.0849 29.5092 28.3353 29.5092H26.0868C25.6889 29.5092 25.3108 29.6684 25.0256 29.947C24.7471 30.2255 24.5879 30.6103 24.5879 31.0082V33.3098C24.5879 33.6481 24.7006 33.9797 24.9128 34.2451L32.965 44.307C33.2502 44.6651 33.6813 44.8707 34.1324 44.8707H38.3574C38.9345 44.8707 39.4585 44.5391 39.7039 44.0217C39.9559 43.5044 39.883 42.8875 39.5248 42.4365L32.7992 34.0328C33.7079 33.7144 34.5436 33.2899 35.2666 32.766C36.5401 31.8439 37.4554 30.6567 37.9595 29.2771H39.2462C39.7503 29.2771 40.2146 29.0251 40.4932 28.6072L42.231 25.9873C42.5361 25.5296 42.5627 24.9392 42.3039 24.4485C42.0452 23.9642 41.5346 23.6591 40.984 23.6591H40.9575L42.2111 21.7755C42.3835 21.53 42.4764 21.2382 42.4764 20.9198C42.4896 20.084 41.8198 19.4142 40.9907 19.4142Z" fill="white"/>
<path d="M24.0706 24.6275H13.0139C12.4501 24.6275 11.999 24.1698 11.999 23.6126C11.999 23.0555 12.4567 22.5979 13.0139 22.5979H24.0706C24.6345 22.5979 25.0855 23.0555 25.0855 23.6126C25.0855 24.1698 24.6345 24.6275 24.0706 24.6275Z" fill="white"/>
<path d="M25.098 33.3694H19.6989C19.1351 33.3694 18.6841 32.9118 18.6841 32.3547C18.6841 31.7975 19.1418 31.3398 19.6989 31.3398H25.098C25.6618 31.3398 26.1128 31.7975 26.1128 32.3547C26.1128 32.9118 25.6618 33.3694 25.098 33.3694Z" fill="white"/>
<path d="M16.6945 33.482C16.071 33.482 15.5669 32.9779 15.5669 32.3543C15.5669 31.7309 16.071 31.2268 16.6945 31.2268C17.318 31.2268 17.8221 31.7309 17.8221 32.3543C17.8221 32.9779 17.3113 33.482 16.6945 33.482ZM16.6945 31.4457C16.197 31.4457 15.7858 31.8502 15.7858 32.3543C15.7858 32.8584 16.1904 33.2631 16.6945 33.2631C17.1986 33.2631 17.6032 32.8584 17.6032 32.3543C17.6032 31.8502 17.192 31.4457 16.6945 31.4457Z" fill="white"/>
<path d="M24.0702 28.7398H6.84489C6.28111 28.7398 5.83008 28.2821 5.83008 27.7249C5.83008 27.1678 6.28774 26.7101 6.84489 26.7101H24.0702C24.6339 26.7101 25.085 27.1678 25.085 27.7249C25.085 28.2821 24.6339 28.7398 24.0702 28.7398Z" fill="white"/>
</svg>
