<svg width="60" height="60" viewBox="0 0 60 60" fill="none" xmlns="http://www.w3.org/2000/svg">
<path d="M30 60C13.4579 60 0 46.5421 0 30C0 13.4579 13.4579 0 30 0C46.5421 0 60 13.4579 60 30C60 46.5421 46.5421 60 30 60ZM30 0.975019C14.0017 0.975019 0.981647 13.9951 0.981647 29.9933C0.981647 45.9982 14.0017 59.0117 30 59.0117C46.0048 59.0117 59.0183 45.9916 59.0183 29.9933C59.0183 13.9951 45.9982 0.975019 30 0.975019Z" fill="white"/>
<path d="M33.6814 39.2396C33.4691 39.2396 33.2503 39.16 33.0844 39.0074C32.7262 38.6759 32.6997 38.1187 33.0314 37.7605L44.9837 24.8067C45.3153 24.4485 45.8724 24.422 46.2305 24.7536C46.5888 25.0853 46.6153 25.6424 46.2836 26.0006L34.3314 38.9544C34.1589 39.1401 33.9201 39.2396 33.6814 39.2396Z" fill="white"/>
<path d="M36.1554 29.0251C37.7013 29.0251 38.9544 27.772 38.9544 26.2261C38.9544 24.6803 37.7013 23.4271 36.1554 23.4271C34.6095 23.4271 33.3564 24.6803 33.3564 26.2261C33.3564 27.772 34.6095 29.0251 36.1554 29.0251Z" fill="white"/>
<path d="M36.1548 29.9073C34.1252 29.9073 32.4736 28.2557 32.4736 26.2261C32.4736 24.1964 34.1252 22.5449 36.1548 22.5449C38.1844 22.5449 39.836 24.1964 39.836 26.2261C39.836 28.2557 38.1844 29.9073 36.1548 29.9073ZM36.1548 24.3159C35.1002 24.3159 34.2446 25.1715 34.2446 26.2261C34.2446 27.2807 35.1002 28.1364 36.1548 28.1364C37.2094 28.1364 38.0651 27.2807 38.0651 26.2261C38.0651 25.1715 37.2028 24.3159 36.1548 24.3159Z" fill="white"/>
<path d="M44.2209 38.709C45.7667 38.709 47.0199 37.4558 47.0199 35.91C47.0199 34.3641 45.7667 33.111 44.2209 33.111C42.675 33.111 41.4219 34.3641 41.4219 35.91C41.4219 37.4558 42.675 38.709 44.2209 38.709Z" fill="white"/>
<path d="M44.2207 39.5913C42.1911 39.5913 40.5396 37.9398 40.5396 35.9101C40.5396 33.8805 42.1911 32.2289 44.2207 32.2289C46.2503 32.2289 47.9019 33.8805 47.9019 35.9101C47.9019 37.9398 46.2503 39.5913 44.2207 39.5913ZM44.2207 33.9999C43.1661 33.9999 42.3105 34.8555 42.3105 35.9101C42.3105 36.9648 43.1661 37.8203 44.2207 37.8203C45.2753 37.8203 46.1309 36.9648 46.1309 35.9101C46.1309 34.8555 45.2753 33.9999 44.2207 33.9999Z" fill="white"/>
<path d="M23.4402 40.9708C27.6528 40.9708 31.0679 36.5668 31.0679 31.1343C31.0679 25.7019 27.6528 21.298 23.4402 21.298C19.2275 21.298 15.8125 25.7019 15.8125 31.1343C15.8125 36.5668 19.2275 40.9708 23.4402 40.9708Z" fill="#EE7120"/>
<path d="M23.4405 41.8593C18.7445 41.8593 14.9307 37.0506 14.9307 31.1342C14.9307 25.2178 18.7512 20.4091 23.4405 20.4091C28.1298 20.4091 31.9503 25.2178 31.9503 31.1342C31.9503 37.0506 28.1365 41.8593 23.4405 41.8593ZM23.4405 22.18C19.7262 22.18 16.7016 26.1994 16.7016 31.1342C16.7016 36.069 19.7262 40.0884 23.4405 40.0884C27.1548 40.0884 30.1794 36.069 30.1794 31.1342C30.1794 26.1994 27.1615 22.18 23.4405 22.18Z" fill="white"/>
</svg>
