<svg width="59" height="60" viewBox="0 0 59 60" fill="none" xmlns="http://www.w3.org/2000/svg">
<path d="M29.5 59.6283C13.2336 59.6283 0 46.3371 0 30C0 13.6629 13.2336 0.371704 29.5 0.371704C45.7664 0.371704 59 13.6629 59 30C59 46.3371 45.7664 59.6283 29.5 59.6283ZM29.5 1.3412C13.7684 1.3412 0.965289 14.2 0.965289 30C0.965289 45.8 13.7684 58.6588 29.5 58.6588C45.2381 58.6588 58.0348 45.8 58.0348 30C58.0348 14.2 45.2316 1.3412 29.5 1.3412Z" fill="white"/>
<path d="M34.9594 22.2114C35.3051 21.9362 35.6312 21.6349 35.9377 21.2943C37.2748 19.8204 35.2985 17.9731 33.805 19.1523C32.8657 19.8924 29.8395 19.4535 28.7307 19.4667C27.1131 19.4929 25.4956 19.5125 23.8781 19.5387C21.9411 19.5649 21.9345 22.5913 23.8781 22.5651C25.2869 22.5454 26.6892 22.5258 28.098 22.5061C28.098 22.5585 28.0915 22.6175 28.0915 22.6699C26.5914 22.6371 25.1174 22.8401 23.6368 23.0957C21.9801 23.3904 22.3454 26.24 24.0347 26.0696C24.8891 25.9844 25.7565 25.847 26.6109 25.801C26.7479 25.7945 26.8849 25.7945 27.0218 25.788C27.6089 25.801 28.0915 25.9582 28.6394 26.122C28.6002 26.181 28.5546 26.24 28.5155 26.3055C27.511 26.8753 26.4348 26.9998 25.0782 27.2618C23.8455 27.5042 22.9455 28.2313 23.1998 29.5872C23.5129 31.2446 25.2022 31.9979 26.174 33.1966C27.0284 34.2513 27.4589 35.3125 28.4372 36.0396C28.4633 36.0855 28.4894 36.1313 28.5089 36.1771C28.7372 36.6947 28.7242 37.2514 29.0633 37.71C29.7155 38.5943 31.2613 38.804 32.2071 39.125C33.7398 39.649 34.5811 37.651 33.6745 36.5964C33.2505 36.1051 32.8332 35.6204 32.4092 35.1291C32.0244 34.6837 31.5614 34.5723 31.1374 34.6705C31.0852 34.4347 30.9874 34.212 30.8373 34.0286C30.4525 33.5504 30.0612 33.0722 29.6764 32.594C29.5003 32.3779 29.2916 32.2534 29.0698 32.1813C28.9264 31.9128 28.7894 31.6638 28.6655 31.4804C28.8546 30.8974 28.7242 30.2031 28.2676 29.7904C28.5481 29.6986 28.8285 29.5938 29.1024 29.476C29.8721 29.1353 30.5634 28.6899 31.183 28.1462C31.2287 28.1134 31.2809 28.0872 31.3266 28.0479C31.3656 28.0152 31.3982 27.989 31.4374 27.9562C31.5091 27.8972 31.5678 27.8186 31.6265 27.74C31.7701 27.5959 31.9136 27.4518 32.0439 27.2946C32.2397 27.0719 32.3505 26.8361 32.4092 26.6003C33.3745 25.9386 34.5485 25.4342 35.4355 24.9101C36.7726 24.1241 36.1334 22.5061 34.9594 22.2114Z" fill="#EE7120"/>
<path d="M36.0744 19.6367L34.633 21.8115H32.0046C32.2655 22.2045 32.4676 22.6565 32.585 23.1609H36.0744L34.633 25.3357H32.6242C32.1415 28.0673 29.5914 29.4953 27.0933 29.7639L33.896 38.2993H30.4001L23.7409 29.9277V28.0149H25.5998C28.6848 28.0149 29.6501 26.4165 29.7609 25.3292H22.9257L24.3671 23.1544H29.4153C28.6457 21.9163 27.0282 21.8049 25.2932 21.8049H22.9321L24.3736 19.6302H36.0744V19.6367ZM36.0744 18.3921H24.3671C23.9496 18.3921 23.5648 18.6017 23.3366 18.9489L21.8952 21.1236C21.6408 21.5036 21.6212 21.9949 21.8365 22.4011C22.0516 22.8072 22.4691 23.0561 22.9257 23.0561H22.9452L21.8952 24.6479C21.6408 25.0278 21.6212 25.5191 21.8365 25.9253C22.0516 26.3314 22.4691 26.5803 22.9257 26.5803H27.1325C26.7281 26.7048 26.2194 26.7834 25.5998 26.7834H23.7409C23.4148 26.7834 23.0952 26.9144 22.867 27.1502C22.6322 27.386 22.5017 27.7005 22.5017 28.0279V29.9407C22.5017 30.2224 22.5996 30.4976 22.7757 30.7138L29.4348 39.0723C29.6696 39.3671 30.0283 39.5373 30.4001 39.5373H33.896C34.3722 39.5373 34.8091 39.2623 35.0113 38.8299C35.22 38.3976 35.1613 37.8866 34.8613 37.5133L29.2979 30.5303C30.0479 30.2683 30.7393 29.908 31.3394 29.4757C32.3959 28.7092 33.1525 27.7201 33.5699 26.5738H34.633C35.0505 26.5738 35.4353 26.3641 35.6635 26.0169L37.1049 23.8421C37.3594 23.4622 37.3789 22.971 37.1636 22.5648C36.9485 22.1587 36.531 21.9097 36.0744 21.9097H36.0549L37.092 20.3441C37.2289 20.1411 37.3137 19.8987 37.3137 19.6302C37.3137 18.9489 36.7593 18.3921 36.0744 18.3921Z" fill="white"/>
<path d="M30.0216 48.2564C29.8652 48.2564 29.7151 48.191 29.6042 48.0796L13.5269 31.9324C13.3574 31.7621 13.3052 31.5066 13.3966 31.2839C13.4878 31.0612 13.703 30.917 13.9444 30.917H19.4948V16.3486C19.4948 16.021 19.7622 15.7524 20.0883 15.7524C20.4144 15.7524 20.6819 16.021 20.6819 16.3486V31.5132C20.6819 31.8407 20.4144 32.1093 20.0883 32.1093H15.3728L30.0021 46.8022L43.3205 32.1093H38.9701C38.644 32.1093 38.3766 31.8407 38.3766 31.5132V16.3748C38.3766 16.0472 38.644 15.7786 38.9701 15.7786C39.2963 15.7786 39.5637 16.0472 39.5637 16.3748V30.917H44.664C44.8988 30.917 45.1076 31.0546 45.2054 31.2708C45.3032 31.487 45.2576 31.7359 45.101 31.9127L30.4586 48.0665C30.3477 48.1844 30.1977 48.2564 30.0347 48.263C30.0282 48.2564 30.0282 48.2564 30.0216 48.2564Z" fill="white"/>
</svg>
