<svg width="59" height="60" viewBox="0 0 59 60" fill="none" xmlns="http://www.w3.org/2000/svg">
<path d="M26.0234 39.842C24.9407 39.842 24.0537 40.7225 24.0537 41.8117C24.0537 42.8944 24.9342 43.7814 26.0234 43.7814C27.1061 43.7814 27.9932 42.9009 27.9932 41.8117C27.9932 40.7291 27.1061 39.842 26.0234 39.842Z" fill="#F8F8F9"/>
<path d="M28.9785 18.1818C30.6091 18.1818 31.9331 19.5058 31.9331 21.1364C31.9331 22.767 30.6091 24.091 28.9785 24.091C28.6328 24.091 28.3002 24.0258 27.9937 23.9214V27.1173L28.9785 28.1021L32.4613 24.6193C33.3941 23.6866 33.9028 22.4539 33.9028 21.1364C33.9028 19.8189 33.3875 18.5863 32.4613 17.6535C31.5352 16.7208 30.296 16.2122 28.9785 16.2122C28.6459 16.2122 28.3133 16.2448 27.9937 16.31V18.3515C28.3002 18.2406 28.6328 18.1818 28.9785 18.1818Z" fill="white"/>
<path d="M25.4953 24.6126L27.9933 27.1106V23.9147C26.8454 23.5103 26.0236 22.4147 26.0236 21.1363C26.0236 19.8514 26.8454 18.7622 27.9933 18.3513V16.3098C27.0541 16.499 26.1932 16.962 25.4953 17.6534C23.5777 19.5709 23.5777 22.6951 25.4953 24.6126Z" fill="#F8F8F9"/>
<path d="M22.1627 20.1515H19.1299C18.5885 20.1515 18.145 20.595 18.145 21.1363V38.8637C18.145 39.405 18.5885 39.8486 19.1299 39.8486H22.6192C23.3041 38.6745 24.5694 37.8789 26.0238 37.8789C26.7413 37.8789 27.4131 38.0745 27.9936 38.4136V29.8956L24.1063 26.0084C22.5083 24.4105 21.8692 22.2255 22.1627 20.1515Z" fill="#EE7120"/>
<path d="M29.4278 39.842H36.4C36.7653 39.2094 37.3066 38.6811 37.9588 38.3354C37.8805 38.1985 37.8349 38.0419 37.8349 37.8723V21.1363C37.8349 20.595 37.3914 20.1515 36.8501 20.1515H35.787C35.8326 20.4776 35.8652 20.8037 35.8652 21.1363C35.8652 22.9756 35.1477 24.7105 33.8498 26.0084L29.6691 30.1891C29.4799 30.3783 29.2256 30.4761 28.9712 30.4761C28.7168 30.4761 28.469 30.3783 28.2733 30.1891L27.9863 29.9022V38.4136C28.5864 38.7528 29.0821 39.2485 29.4278 39.842Z" fill="#FFA062"/>
<path d="M39.8047 39.842C38.722 39.842 37.835 40.7225 37.835 41.8117C37.835 42.8944 38.7155 43.7814 39.8047 43.7814C40.8874 43.7814 41.7744 42.9009 41.7744 41.8117C41.7744 40.7291 40.8939 39.842 39.8047 39.842Z" fill="white"/>
<path d="M41.7753 28.0238H39.8057V37.8723C41.2601 37.8723 42.5319 38.668 43.2102 39.8421H44.7299C45.2713 39.8421 45.7148 39.3985 45.7148 38.8572V31.9632C45.7148 29.7913 43.9473 28.0238 41.7753 28.0238Z" fill="white"/>
<path d="M26.0238 43.7815C24.9411 43.7815 24.0541 42.901 24.0541 41.8118C24.0541 40.7291 24.9346 39.8421 26.0238 39.8421C27.1064 39.8421 27.9935 40.7226 27.9935 41.8118V38.4072C27.413 38.068 26.7412 37.8724 26.0238 37.8724C24.5694 37.8724 23.2974 38.6681 22.6192 39.8421H19.1298C18.5884 39.8421 18.1449 39.3986 18.1449 38.8573V21.1363C18.1449 20.595 18.5884 20.1515 19.1298 20.1515H22.1626C21.8626 22.2256 22.5083 24.417 24.0997 26.0084L27.9869 29.8957V27.1107L25.4889 24.6127C23.5714 22.6952 23.5714 19.571 25.4889 17.6469C26.1803 16.9556 27.0478 16.4926 27.9869 16.3034V14.3141C26.5195 14.5228 25.1629 15.1881 24.0997 16.2578C23.5258 16.8317 23.0823 17.484 22.7561 18.1753H19.1298C17.4992 18.1753 16.1752 19.4993 16.1752 21.1299V22.1147H11.2509C10.7096 22.1147 10.2661 22.5582 10.2661 23.0996C10.2661 23.6409 10.7096 24.0844 11.2509 24.0844H16.1752V26.0541H13.2207C12.6793 26.0541 12.2358 26.4976 12.2358 27.039C12.2358 27.5803 12.6793 28.0238 13.2207 28.0238H16.1752V29.9935H9.28125C8.7399 29.9935 8.29639 30.437 8.29639 30.9784C8.29639 31.5198 8.7399 31.9633 9.28125 31.9633H16.1752V38.8573C16.1752 40.4878 17.4992 41.8118 19.1298 41.8118H22.0843C22.0843 43.9837 23.8519 45.7512 26.0238 45.7512C26.7412 45.7512 27.413 45.5556 27.9935 45.2164V41.8118C27.9935 42.901 27.1064 43.7815 26.0238 43.7815Z" fill="white"/>
<path d="M41.7744 26.0606H39.8046V21.1363C39.8046 19.5057 38.4806 18.1817 36.8501 18.1817H35.1934C34.8608 17.4773 34.4107 16.825 33.8433 16.2642C32.5388 14.9597 30.8105 14.2423 28.9712 14.2423C28.6386 14.2423 28.3125 14.2749 27.9863 14.3206V16.3098C28.3059 16.2446 28.6386 16.212 28.9712 16.212C30.2887 16.212 31.5213 16.7272 32.4541 17.6534C33.3868 18.5861 33.8955 19.8187 33.8955 21.1363C33.8955 22.4537 33.3802 23.6865 32.4541 24.6191L28.9712 28.102L27.9863 27.1171V29.9021L28.2733 30.1891C28.4625 30.3783 28.7168 30.4761 28.9712 30.4761C29.2256 30.4761 29.4734 30.3783 29.6691 30.1891L33.8498 26.0084C35.1543 24.7039 35.8652 22.9755 35.8652 21.1363C35.8652 20.8037 35.8326 20.4775 35.787 20.1514H36.8501C37.3914 20.1514 37.8349 20.5949 37.8349 21.1363V37.8788C37.8349 38.0483 37.8805 38.2049 37.9588 38.3419C37.3066 38.6876 36.7718 39.2158 36.4 39.8485H29.4278C29.0821 39.255 28.5864 38.7593 27.9929 38.4136V41.8183V45.2228C29.1669 44.538 29.9626 43.2727 29.9626 41.8183H35.8717C35.8717 43.9901 37.6392 45.7576 39.8111 45.7576C41.9831 45.7576 43.7506 43.9901 43.7506 41.8183H44.7354C46.3659 41.8183 47.6899 40.4942 47.6899 38.8637V31.9631C47.6835 28.7086 45.0354 26.0606 41.7744 26.0606ZM39.8046 43.7814C38.7219 43.7814 37.8349 42.9009 37.8349 41.8117C37.8349 40.729 38.7154 39.8419 39.8046 39.8419C40.8873 39.8419 41.7744 40.7225 41.7744 41.8117C41.7744 42.9009 40.8938 43.7814 39.8046 43.7814ZM45.7137 38.8571C45.7137 39.3984 45.2702 39.8419 44.7289 39.8419H43.2092C42.5244 38.6679 41.259 37.8723 39.8046 37.8723V28.0237H41.7744C43.9462 28.0237 45.7137 29.7912 45.7137 31.9631V38.8571Z" fill="white"/>
<path d="M31.9331 21.1363C31.9331 19.5058 30.6091 18.1818 28.9785 18.1818C28.6328 18.1818 28.3002 18.2469 27.9937 18.3513V21.1363C27.9937 20.595 28.4372 20.1514 28.9785 20.1514C29.5198 20.1514 29.9633 20.595 29.9633 21.1363C29.9633 21.6776 29.5198 22.1211 28.9785 22.1211C28.4372 22.1211 27.9937 21.6776 27.9937 21.1363V23.9148C28.3002 24.0256 28.6328 24.0843 28.9785 24.0843C30.6026 24.0909 31.9331 22.7603 31.9331 21.1363Z" fill="#43B877"/>
<path d="M27.9931 18.3513C26.8453 18.7557 26.0234 19.8515 26.0234 21.1363C26.0234 22.4212 26.8453 23.5104 27.9931 23.9148V21.1363V18.3513Z" fill="#43B877"/>
<path d="M29.5 59.5C13.2336 59.5 0 46.2664 0 30C0 13.7336 13.2336 0.5 29.5 0.5C45.7664 0.5 59 13.7336 59 30C59 46.2664 45.7664 59.5 29.5 59.5ZM29.5 1.45877C13.7618 1.45877 0.965295 14.2618 0.965295 29.9935C0.965295 45.7316 13.7684 58.5282 29.5 58.5282C45.2316 58.5282 58.0347 45.7251 58.0347 29.9935C58.0347 14.2618 45.2316 1.45877 29.5 1.45877Z" fill="white"/>
</svg>
