<svg width="60" height="60" viewBox="0 0 60 60" fill="none" xmlns="http://www.w3.org/2000/svg">
<path d="M30 60C13.4579 60 0 46.5421 0 30C0 13.4579 13.4579 0 30 0C46.5421 0 60 13.4579 60 30C60 46.5421 46.5421 60 30 60ZM30 0.975019C13.9951 0.975019 0.981638 13.9951 0.981638 29.9933C0.981638 45.9982 14.0017 59.0117 30 59.0117C45.9982 59.0117 59.0183 45.9916 59.0183 29.9933C59.0183 13.9951 46.0048 0.975019 30 0.975019Z" fill="white"/>
<path d="M40.3734 41.9987H20.0837C19.0557 41.9987 18.2266 41.1695 18.2266 40.1415V19.8518C18.2266 18.8238 19.0557 17.9946 20.0837 17.9946H40.3734C41.4015 17.9946 42.2305 18.8238 42.2305 19.8518V40.1415C42.2372 41.1695 41.4015 41.9987 40.3734 41.9987Z" fill="#EE7120"/>
<path d="M40.3736 42.9011H20.084C18.565 42.9011 17.3247 41.6606 17.3247 40.1418V19.8521C17.3247 18.3332 18.565 17.0929 20.084 17.0929H40.3736C41.8991 17.0929 43.1328 18.3332 43.1328 19.8521V40.1418C43.1394 41.6606 41.8991 42.9011 40.3736 42.9011ZM20.084 18.897C19.56 18.897 19.1288 19.3282 19.1288 19.8521V40.1418C19.1288 40.6658 19.56 41.0969 20.084 41.0969H40.3736C40.8976 41.0969 41.3287 40.6658 41.3287 40.1418V19.8521C41.3287 19.3282 40.8976 18.897 40.3736 18.897H20.084Z" fill="white"/>
<path d="M29.768 41.3953H20.1107C19.401 41.3953 18.8306 40.8249 18.8306 40.1152V30.4579H29.768V41.3953Z" fill="white"/>
<path d="M31.0942 17.9946H29.29V41.9987H31.0942V17.9946Z" fill="white"/>
<path d="M26.7105 35.5714H22.0344C21.5369 35.5714 21.1323 35.1668 21.1323 34.6693C21.1323 34.1719 21.5369 33.7673 22.0344 33.7673H26.7105C27.2079 33.7673 27.6125 34.1719 27.6125 34.6693C27.6125 35.1668 27.2145 35.5714 26.7105 35.5714Z" fill="#43B877"/>
<path d="M26.7105 37.9595H22.0344C21.5369 37.9595 21.1323 37.5549 21.1323 37.0575C21.1323 36.56 21.5369 36.1554 22.0344 36.1554H26.7105C27.208 36.1554 27.6125 36.56 27.6125 37.0575C27.6125 37.5549 27.2145 37.9595 26.7105 37.9595Z" fill="#43B877"/>
<path d="M34.6431 38.2116C34.4109 38.2116 34.1788 38.1254 34.0063 37.9463C33.6548 37.5948 33.6548 37.0243 34.0063 36.6662L37.3161 33.3564C37.6677 33.0049 38.238 33.0049 38.5962 33.3564C38.9477 33.708 38.9477 34.2784 38.5962 34.6365L35.2865 37.9463C35.1073 38.1254 34.8752 38.2116 34.6431 38.2116Z" fill="white"/>
<path d="M37.9528 38.2116C37.7206 38.2116 37.4885 38.1254 37.3161 37.9463L34.0063 34.6365C33.6548 34.285 33.6548 33.7146 34.0063 33.3564C34.3579 33.0049 34.9283 33.0049 35.2865 33.3564L38.5962 36.6662C38.9477 37.0178 38.9477 37.5881 38.5962 37.9463C38.4104 38.1254 38.185 38.2116 37.9528 38.2116Z" fill="white"/>
<path d="M41.7735 29.2839H17.7695V31.0881H41.7735V29.2839Z" fill="white"/>
<path d="M23.9509 27.7716C23.4535 27.7716 23.0488 27.367 23.0488 26.8695V22.1934C23.0488 21.696 23.4535 21.2914 23.9509 21.2914C24.4484 21.2914 24.853 21.696 24.853 22.1934V26.8695C24.853 27.367 24.4484 27.7716 23.9509 27.7716Z" fill="white"/>
<path d="M26.2925 25.4302H21.6164C21.119 25.4302 20.7144 25.0256 20.7144 24.5282C20.7144 24.0307 21.119 23.6261 21.6164 23.6261H26.2925C26.79 23.6261 27.1945 24.0307 27.1945 24.5282C27.1945 25.0256 26.79 25.4302 26.2925 25.4302Z" fill="white"/>
<path d="M38.2183 25.4302H33.5422C33.0448 25.4302 32.6401 25.0256 32.6401 24.5282C32.6401 24.0306 33.0448 23.6261 33.5422 23.6261H38.2183C38.7157 23.6261 39.1203 24.0306 39.1203 24.5282C39.1203 25.0256 38.7157 25.4302 38.2183 25.4302Z" fill="white"/>
</svg>
