<svg width="60" height="58" viewBox="0 0 60 58" fill="none" xmlns="http://www.w3.org/2000/svg">
<path d="M30 57.4348C13.4579 57.4348 0 44.679 0 29C0 13.3209 13.4579 0.565186 30 0.565186C46.5422 0.565186 60 13.3209 60 29C60 44.679 46.5422 57.4348 30 57.4348ZM30 1.49563C13.9952 1.49563 0.981649 13.8364 0.981649 29C0.981649 44.1635 14.0017 56.5043 30 56.5043C45.9983 56.5043 59.0184 44.1635 59.0184 29C59.0184 13.8364 45.9983 1.49563 30 1.49563Z" fill="white"/>
<path d="M22.9828 38.0023C23.6262 38.0023 24.1502 37.5057 24.1502 36.8959V28.5974C24.1502 27.9876 23.6262 27.491 22.9828 27.491C22.3394 27.491 21.8154 27.9876 21.8154 28.5974V36.8959C21.8154 37.5057 22.3394 38.0023 22.9828 38.0023Z" fill="#EE7120"/>
<path d="M17.145 31.917V34.6832C17.145 35.601 17.9277 36.3429 18.8961 36.3429H20.6471V30.2573H18.8961C17.9277 30.2573 17.145 30.9992 17.145 31.917Z" fill="#EE7120"/>
<path d="M41.0831 30.2573H39.332V36.3429H41.0831C42.0515 36.3429 42.8341 35.601 42.8341 34.6832V31.917C42.8341 30.9992 42.0449 30.2573 41.0831 30.2573Z" fill="#EE7120"/>
<path d="M36.9975 27.491C36.3541 27.491 35.8301 27.9876 35.8301 28.5974V36.8959C35.8301 37.5057 36.3541 38.0023 36.9975 38.0023C37.6408 38.0023 38.1648 37.5057 38.1648 36.8959V28.5974C38.1648 27.9876 37.6408 27.491 36.9975 27.491Z" fill="#EE7120"/>
<path d="M18.3127 25.8315V29.1509C18.3127 29.1697 18.3194 29.1885 18.3194 29.2075C16.9862 29.4652 15.978 30.5779 15.978 31.917V34.6831C15.978 36.2109 17.2847 37.4493 18.8964 37.4493H20.6475C20.674 37.4493 20.6939 37.443 20.7204 37.443C20.9791 38.3986 21.8944 39.109 22.9822 39.109C24.269 39.109 25.3169 38.1157 25.3169 36.8961V28.5976C25.3169 27.378 24.269 26.3847 22.9822 26.3847C21.6955 26.3847 20.6475 27.378 20.6475 28.5976V29.1509H19.4801V25.8315C19.4801 20.3369 24.196 15.8733 29.9864 15.8733V14.7669C23.5526 14.7605 18.3127 19.727 18.3127 25.8315ZM21.8148 28.5976C21.8148 27.9878 22.3388 27.4912 22.9822 27.4912C23.6256 27.4912 24.1496 27.9878 24.1496 28.5976V36.8961C24.1496 37.5059 23.6256 38.0025 22.9822 38.0025C22.3388 38.0025 21.8148 37.5059 21.8148 36.8961V28.5976ZM20.6475 30.2573V36.3428H18.8964C17.928 36.3428 17.1454 35.601 17.1454 34.6831V31.917C17.1454 30.9991 17.928 30.2573 18.8964 30.2573H20.6475Z" fill="white"/>
<path d="M41.6602 29.2012C41.6602 29.1824 41.6668 29.1635 41.6668 29.1446V25.8252C41.6668 19.7209 36.427 14.7606 29.9932 14.7606V15.8671C35.7902 15.8671 40.4995 20.3369 40.4995 25.8252V29.1446H39.3321V28.5914C39.3321 27.3718 38.2841 26.3785 36.9974 26.3785C35.7106 26.3785 34.6626 27.3718 34.6626 28.5914V36.8899C34.6626 38.1095 35.7106 39.1028 36.9974 39.1028C38.0852 39.1028 39.0005 38.3924 39.2592 37.4368C39.2857 37.4368 39.3056 37.4431 39.3321 37.4431H41.0832C42.6949 37.4431 44.0016 36.2046 44.0016 34.677V31.9108C44.0016 30.578 42.9934 29.459 41.6602 29.2012ZM38.1647 36.8961C38.1647 37.506 37.6408 38.0026 36.9974 38.0026C36.354 38.0026 35.83 37.506 35.83 36.8961V28.5977C35.83 27.9879 36.354 27.4912 36.9974 27.4912C37.6408 27.4912 38.1647 27.9879 38.1647 28.5977V36.8961ZM42.8342 34.6832C42.8342 35.6011 42.0516 36.3429 41.0832 36.3429H39.3321V30.2574H41.0832C42.0516 30.2574 42.8342 30.9992 42.8342 31.9171V34.6832Z" fill="white"/>
<path d="M36.9974 43.8494H33.5152C32.7392 43.8494 32.1157 43.2522 32.1157 42.5229C32.1157 41.7936 32.7458 41.1964 33.5152 41.1964H36.9974C37.7734 41.1964 38.397 41.7936 38.397 42.5229C38.397 43.2522 37.7668 43.8494 36.9974 43.8494Z" fill="white"/>
<path d="M37.6537 42.9627C37.3951 42.9627 37.1895 42.7615 37.1895 42.5227C37.1895 42.2837 37.4017 42.0827 37.6537 42.0827C39.1528 42.0827 40.3533 41.6111 41.2222 40.6806C43.4973 38.2352 42.8937 33.4132 42.887 33.3629C42.8538 33.1178 43.0396 32.8977 43.2916 32.8663C43.5437 32.8285 43.7824 33.0046 43.8156 33.2497C43.8421 33.4635 44.4789 38.5181 41.9253 41.2653C40.8773 42.3906 39.438 42.9627 37.6537 42.9627Z" fill="white"/>
</svg>
