<svg width="50" height="51" viewBox="0 0 50 51" fill="none" xmlns="http://www.w3.org/2000/svg">
<path d="M29.83 2.20459H10.76C8.79382 2.20459 7.19995 3.79846 7.19995 5.76459V45.6046C7.19995 47.5707 8.79382 49.1646 10.76 49.1646H29.83C31.7961 49.1646 33.3899 47.5707 33.3899 45.6046V5.76459C33.3899 3.79846 31.7961 2.20459 29.83 2.20459Z" stroke="#313131" stroke-linecap="round" stroke-linejoin="round"/>
<path d="M7.19995 7.36475H33.4" stroke="#313131" stroke-linecap="round" stroke-linejoin="round"/>
<path d="M7.19995 42.2446H33.4" stroke="#313131" stroke-linecap="round" stroke-linejoin="round"/>
<path d="M20.3001 47.7745C21.3826 47.7745 22.2601 46.897 22.2601 45.8145C22.2601 44.732 21.3826 43.8545 20.3001 43.8545C19.2176 43.8545 18.3401 44.732 18.3401 45.8145C18.3401 46.897 19.2176 47.7745 20.3001 47.7745Z" stroke="#313131" stroke-linecap="round" stroke-linejoin="round"/>
<path d="M35.25 10.9048H28.9C27.188 10.9048 25.8 12.2927 25.8 14.0048V20.3548C25.8 22.0669 27.188 23.4548 28.9 23.4548H35.25C36.9621 23.4548 38.35 22.0669 38.35 20.3548V14.0048C38.35 12.2927 36.9621 10.9048 35.25 10.9048Z" fill="white" stroke="#313131" stroke-linecap="round" stroke-linejoin="round"/>
<path d="M22.87 25.2246H17.72C16.3282 25.2246 15.2 26.3529 15.2 27.7446V32.8946C15.2 34.2864 16.3282 35.4146 17.72 35.4146H22.87C24.2617 35.4146 25.39 34.2864 25.39 32.8946V27.7446C25.39 26.3529 24.2617 25.2246 22.87 25.2246Z" stroke="#313131" stroke-linecap="round" stroke-linejoin="round"/>
<path d="M39.5401 26.2446H32.8501C31.0496 26.2446 29.5901 27.7042 29.5901 29.5046V36.1946C29.5901 37.9951 31.0496 39.4546 32.8501 39.4546H39.5401C41.3405 39.4546 42.8001 37.9951 42.8001 36.1946V29.5046C42.8001 27.7042 41.3405 26.2446 39.5401 26.2446Z" fill="#11A452"/>
<path d="M39.5401 26.2446H32.8501C31.0496 26.2446 29.5901 27.7042 29.5901 29.5046V36.1946C29.5901 37.9951 31.0496 39.4546 32.8501 39.4546H39.5401C41.3405 39.4546 42.8001 37.9951 42.8001 36.1946V29.5046C42.8001 27.7042 41.3405 26.2446 39.5401 26.2446Z" stroke="#313131" stroke-linecap="round" stroke-linejoin="round"/>
</svg>
