<svg width="50" height="51" viewBox="0 0 50 51" fill="none" xmlns="http://www.w3.org/2000/svg">
<path d="M13.6201 34.0146H6.3501V40.5746H13.6201V34.0146Z" fill="#11A452"/>
<path d="M47.56 32.3344V16.0144L25.39 3.54443L3.22998 16.0144V36.7844" stroke="#313131" stroke-linecap="round" stroke-linejoin="round"/>
<path d="M10.16 40.9443H3.22998V47.8743H10.16V40.9443Z" stroke="#313131" stroke-linecap="round" stroke-linejoin="round"/>
<path d="M39.4199 44.8047H41.0699" stroke="#313131" stroke-linecap="round" stroke-linejoin="round"/>
<path d="M43.36 43.2144C42.08 43.2144 41.04 44.2544 41.04 45.5344C41.04 46.8144 42.08 47.8544 43.36 47.8544C44.64 47.8544 45.68 46.8144 45.68 45.5344C45.68 44.2544 44.64 43.2144 43.36 43.2144Z" stroke="#313131" stroke-linecap="round" stroke-linejoin="round"/>
<path d="M23.22 45.5446C23.22 46.8246 24.26 47.8646 25.54 47.8646C26.82 47.8646 27.86 46.8246 27.86 45.5446C27.86 44.2646 26.82 43.2246 25.54 43.2246C24.26 43.2246 23.22 44.2646 23.22 45.5446Z" stroke="#313131" stroke-linecap="round" stroke-linejoin="round"/>
<path d="M39.42 28.4946H21.24V44.8046H39.42V28.4946Z" fill="#11A452"/>
<path d="M27.82 44.8046H39.42V28.1846H21.24V44.8046H23.26" stroke="#313131" stroke-linecap="round" stroke-linejoin="round"/>
<path d="M6.69995 40.9443V42.5543" stroke="#313131" stroke-linecap="round" stroke-linejoin="round"/>
<path d="M13.63 34.0146H6.69995V40.9446H13.63V34.0146Z" stroke="#313131" stroke-linecap="round" stroke-linejoin="round"/>
<path d="M10.1599 34.0146V35.6346" stroke="#313131" stroke-linecap="round" stroke-linejoin="round"/>
<path d="M17.0899 40.9443H10.1599V47.8743H17.0899V40.9443Z" stroke="#313131" stroke-linecap="round" stroke-linejoin="round"/>
<path d="M13.6201 40.9443V42.5543" stroke="#313131" stroke-linecap="round" stroke-linejoin="round"/>
<path d="M7.38989 31.2447V21.5547H25.3899H43.2499V30.3647" stroke="#313131" stroke-linecap="round" stroke-linejoin="round"/>
<path d="M23.78 17.3945H25.39H27.01" stroke="#313131" stroke-linecap="round" stroke-linejoin="round"/>
<path d="M45.6399 44.8046H46.6599C47.1599 44.8046 47.5599 44.4046 47.5599 43.9046V41.1946C47.5599 41.0046 47.5199 40.8246 47.4499 40.6446L45.7799 36.2346C45.3799 35.2646 44.5099 34.5646 43.4799 34.3946L39.4299 33.7246" stroke="#313131" stroke-linecap="round" stroke-linejoin="round"/>
<path d="M3.22998 47.8647H47.56" stroke="#313131" stroke-linecap="round" stroke-linejoin="round"/>
<path d="M25.5599 48.4343C27.145 48.4343 28.4299 47.1494 28.4299 45.5643C28.4299 43.9793 27.145 42.6943 25.5599 42.6943C23.9749 42.6943 22.6899 43.9793 22.6899 45.5643C22.6899 47.1494 23.9749 48.4343 25.5599 48.4343Z" fill="#313131"/>
<path d="M43.4901 48.4343C45.0752 48.4343 46.3601 47.1494 46.3601 45.5643C46.3601 43.9793 45.0752 42.6943 43.4901 42.6943C41.9051 42.6943 40.6201 43.9793 40.6201 45.5643C40.6201 47.1494 41.9051 48.4343 43.4901 48.4343Z" fill="#313131"/>
</svg>
