<svg width="45" height="46" viewBox="0 0 45 46" fill="none" xmlns="http://www.w3.org/2000/svg">
<g clip-path="url(#clip0_4032_839)">
<path d="M23.0492 11.2413C23.0132 11.1063 22.9412 10.9893 22.8422 10.8903C22.8782 10.9353 22.9142 10.9893 22.9592 11.0343C22.8872 10.9443 22.8422 10.8453 22.7882 10.7463C22.7612 10.6563 22.7342 10.5753 22.7162 10.4853C22.7162 10.3863 22.6982 10.2783 22.7162 10.1793C22.7162 10.0713 22.6982 9.96332 22.6442 9.87332C22.6082 9.77432 22.5542 9.68432 22.4732 9.61232C22.3292 9.46832 22.1042 9.36932 21.9062 9.37832C21.6992 9.38732 21.4832 9.45932 21.3392 9.61232C21.3392 9.61232 21.3302 9.62132 21.3212 9.63032C21.1952 9.40532 21.0872 9.18032 20.9792 8.94632C20.9792 8.92832 20.9612 8.91032 20.9522 8.89232C20.9522 8.88332 20.9522 8.89232 20.9432 8.86532C20.9252 8.81132 20.8982 8.75732 20.8802 8.70332C20.8262 8.56832 20.7812 8.42432 20.7362 8.28932C20.6462 8.02832 20.5742 7.75832 20.5112 7.49732C20.4842 7.36232 20.4572 7.22732 20.4302 7.09232C20.4212 7.02032 20.4032 6.95732 20.3942 6.88532C20.3942 6.84032 20.3492 6.57032 20.3852 6.80432C20.3582 6.57932 20.3132 6.39932 20.1512 6.23732C20.0072 6.06632 19.8092 5.95832 19.5662 5.96732C18.6662 6.02132 17.7752 6.14732 16.8932 6.32732C16.5152 6.30032 16.1372 6.50732 16.0382 6.89432C15.7592 7.95632 15.6242 9.06332 15.6332 10.1613C15.6332 10.1613 15.6332 10.1613 15.6242 10.1613C15.6152 10.1613 15.6242 10.1613 15.6062 10.1613C15.5972 10.1613 15.6062 10.1613 15.5792 10.1613C15.5342 10.1793 15.4802 10.1973 15.4352 10.2153C15.3272 10.2513 15.2192 10.2873 15.1112 10.3143C14.9312 10.3683 14.7872 10.4853 14.6792 10.6383C14.5172 10.6923 14.3552 10.7373 14.1842 10.7913C13.6802 10.9443 13.1762 11.0973 12.6722 11.2503C12.3032 11.0253 11.9342 10.8003 11.5832 10.5573C11.3762 10.4133 11.1692 10.2693 10.9712 10.1073C10.9532 10.0983 10.9442 10.0893 10.9262 10.0713C10.8722 10.0263 10.8092 9.98132 10.7552 9.93632C10.6472 9.84632 10.5392 9.76532 10.4402 9.67532C10.2692 9.53132 10.0982 9.44132 9.87322 9.44132C9.71122 9.44132 9.52222 9.51332 9.38722 9.62132C9.37822 9.62132 9.36022 9.62132 9.35122 9.63032C8.63122 10.0983 7.98322 10.6743 7.45222 11.3493C7.37122 11.4213 7.31722 11.5113 7.28122 11.6103C7.22722 11.7093 7.20922 11.8083 7.20922 11.9163C7.20922 12.1053 7.29022 12.3213 7.42522 12.4563C7.55122 12.9873 7.75822 13.5183 8.06422 13.9683C8.25322 14.2473 8.46922 14.5173 8.71222 14.7603C8.76622 14.8143 8.81122 14.8593 8.86522 14.9133C8.51422 15.3633 8.16322 15.8223 7.84822 16.2993C7.65922 16.5873 7.47922 16.8663 7.30822 17.1633C7.18222 17.3703 7.07422 17.5773 6.99322 17.7933C6.73222 17.7753 6.46222 17.7663 6.20122 17.7483C5.59822 17.7213 4.97722 17.6313 4.37422 17.6583C3.58222 17.6853 3.35722 18.3063 3.23122 18.9723C3.16822 19.2963 3.11422 19.6293 3.06022 19.9533C3.00622 20.2953 2.92522 20.6373 3.01522 20.9793C3.18622 21.6093 3.84322 21.8613 4.37422 22.1133C4.93222 22.3833 5.49922 22.6263 6.07522 22.8513C6.09322 22.8513 6.12022 22.8693 6.13822 22.8783C6.14722 22.9413 6.16522 23.0043 6.16522 23.0313C6.19222 23.3373 6.21022 23.6343 6.21922 23.9403C6.24622 24.5703 6.23722 25.2003 6.21022 25.8303C6.21022 25.9923 6.26422 26.1363 6.35422 26.2623L5.72422 26.6583C5.22022 26.9733 4.70722 27.2793 4.25722 27.6753C4.00522 27.8913 3.78922 28.1523 3.70822 28.4763C3.60922 28.9083 3.81622 29.2773 3.99622 29.6463C4.26622 30.1773 4.56322 30.6993 4.87822 31.2033C5.05822 31.4913 5.44522 31.6893 5.78722 31.5723C5.93122 31.5273 6.05722 31.4373 6.16522 31.3203C6.28222 31.3203 6.39022 31.3203 6.50722 31.3203C6.77722 31.3203 7.03822 31.2933 7.30822 31.2663C7.65922 31.2303 8.00122 31.1583 8.34322 31.0953C9.06322 31.8423 9.77422 32.5983 10.4762 33.3723C10.1612 34.2543 9.87322 35.1993 9.79222 36.1353C9.69322 37.3323 11.0072 37.7013 11.8802 38.1333C12.3122 38.3493 12.8162 38.7003 13.3202 38.5743C13.8242 38.4483 14.0042 38.0253 14.2382 37.6203C14.4722 37.2153 14.7422 36.8463 15.0752 36.5223C15.2282 36.3693 15.3812 36.2343 15.5612 36.1173C15.5972 36.0903 15.6422 36.0903 15.6782 36.0813C15.6782 36.0993 15.6782 36.0993 15.6962 36.1173C15.9662 36.7203 17.0732 36.5943 17.1722 35.9283C17.2982 35.0373 17.3162 34.0473 16.4702 33.4893C16.0562 33.2103 15.5522 33.1383 15.1112 32.9313C14.6522 32.7153 14.2202 32.4363 13.7972 32.1393C12.2312 31.0323 10.5392 29.7993 10.0262 27.8553C10.0262 27.8373 10.0082 27.8193 9.99922 27.8013C9.99922 27.6033 9.91822 27.3963 9.77422 27.2253C9.77422 27.2253 9.77422 27.2253 9.76522 27.2163C9.65722 27.0723 9.56722 26.9103 9.48622 26.7483C9.42322 26.5863 9.37822 26.4153 9.35122 26.2443C9.33322 26.0733 9.33322 25.9023 9.35122 25.7313C9.38722 25.6053 9.40522 25.4613 9.35122 25.3083C8.81122 23.3643 8.93722 21.4653 9.59422 19.5663C10.2332 17.7033 10.9622 16.0923 12.4472 14.7513C14.9402 12.5103 18.3782 11.5563 21.6722 11.9973C21.6722 11.9973 21.6722 11.9973 21.6902 11.9973C21.6902 11.9973 21.6902 11.9973 21.6902 12.0063C21.7622 12.0873 21.8522 12.1413 21.9512 12.1773C22.0502 12.2313 22.1492 12.2493 22.2572 12.2493C22.4552 12.2493 22.6892 12.1593 22.8242 12.0153C22.9682 11.8623 23.0672 11.6643 23.0582 11.4483C23.0492 11.3763 23.0402 11.3043 23.0312 11.2323L23.0492 11.2413Z" fill="#11A452"/>
<path d="M41.9489 26.0822C41.4899 24.9212 40.8419 23.8862 40.0139 22.9862C39.1859 22.0862 38.2139 21.3842 37.1339 20.8892C36.0089 20.3762 34.8209 20.1152 33.5969 20.1152H25.9919C24.7679 20.1152 23.5709 20.3762 22.4549 20.8892C21.3749 21.3842 20.4029 22.0862 19.5749 22.9862C18.7469 23.8772 18.0899 24.9212 17.6399 26.0822C17.1719 27.2792 16.9289 28.5482 16.9289 29.8622V33.3452C12.8069 32.1482 9.76487 28.5752 9.26987 24.2822C8.59487 18.4142 12.8249 13.0952 18.6839 12.4292C20.0969 12.2672 21.5009 12.3842 22.8509 12.7712C22.8869 12.7802 22.9139 12.7892 22.9499 12.7892C23.3099 13.8962 23.8679 14.9852 24.5699 15.9392C25.2539 16.8662 26.0369 17.6042 26.8829 18.1352C27.8189 18.7202 28.7999 19.0172 29.7989 19.0172C30.7979 19.0172 31.7699 18.7202 32.7149 18.1352C33.5609 17.6042 34.3439 16.8662 35.0279 15.9392C36.3509 14.1482 37.1339 11.8892 37.1339 9.89116C37.1339 7.89316 37.1339 5.85016 36.2339 4.20316C35.1899 2.29516 33.1289 1.36816 29.9429 1.36816C29.8889 1.36816 29.8349 1.36816 29.7899 1.36816C28.0529 1.38616 26.6849 1.61116 25.5959 2.06116C24.5879 2.48416 23.8499 3.07816 23.3459 3.89716C22.4369 5.34616 22.4369 7.20016 22.4549 9.00016C22.1039 8.93716 21.7529 8.88316 21.4019 8.84716L20.6369 6.42616C20.6369 6.42616 20.6369 6.41716 20.6369 6.40816C20.5289 5.76016 19.9259 5.30116 19.2689 5.38216L16.5239 5.69716C16.2179 5.73316 15.9389 5.87716 15.7319 6.11116C15.6959 6.15616 15.6599 6.20116 15.6239 6.25516C15.4799 6.48016 15.4079 6.75916 15.4259 7.02916L15.2279 9.55816C14.3729 9.85516 13.5449 10.2332 12.7619 10.6832L10.7639 9.21616C10.5389 8.99116 10.2509 8.86516 9.93587 8.84716C9.60287 8.82916 9.28787 8.94616 9.04487 9.17116L7.01087 11.0342C6.51587 11.4842 6.47087 12.2492 6.90287 12.7532L8.18987 14.8862C7.66787 15.6332 7.21787 16.4252 6.84887 17.2532H4.33787C4.11287 17.2172 3.87887 17.2532 3.66287 17.3342C3.28487 17.4962 3.00587 17.8292 2.92487 18.2342L2.37587 20.9432C2.28587 21.4112 2.46587 21.8882 2.84387 22.1762C2.84387 22.1762 2.84387 22.1762 2.85287 22.1762C2.87087 22.1852 2.87987 22.1942 2.89787 22.2122C3.01487 22.2932 3.14987 22.3472 3.29387 22.3832L5.60687 23.3372C5.61587 23.7872 5.64287 24.2462 5.69687 24.6872C5.75087 25.1372 5.82287 25.5872 5.91287 26.0282L3.86987 27.4772C3.27587 27.7742 3.02387 28.4942 3.29387 29.0972L4.43687 31.6082C4.64387 32.0672 5.09387 32.3372 5.57087 32.3372C5.72387 32.3372 5.88587 32.3102 6.03887 32.2472L8.48687 31.6802C9.03587 32.4002 9.64787 33.0752 10.3229 33.6782L9.55787 36.0452C9.41387 36.3242 9.37787 36.6392 9.46787 36.9452C9.55787 37.2602 9.76487 37.5302 10.0529 37.6922L12.4559 39.0512C12.6449 39.1592 12.8609 39.2132 13.0679 39.2132C13.4909 39.2132 13.8959 38.9972 14.1299 38.6192L15.7409 36.7382C16.1279 36.8552 16.5239 36.9542 16.9199 37.0442V41.9762C16.9199 42.1382 17.0189 42.2912 17.1629 42.3632C18.9449 43.2002 20.9159 43.8572 23.0219 44.3072C25.1909 44.7662 27.4679 45.0092 29.7899 45.0092C32.1119 45.0092 34.3799 44.7752 36.5579 44.3072C38.6639 43.8572 40.6349 43.2092 42.4169 42.3632C42.5699 42.2912 42.6599 42.1382 42.6599 41.9762V29.8622C42.6599 28.5482 42.4259 27.2792 41.9489 26.0822ZM24.0659 4.34716C24.9479 2.94316 26.8199 2.24116 29.7899 2.21416C29.8439 2.21416 29.8889 2.21416 29.9429 2.21416C32.7869 2.21416 34.6049 2.99716 35.4869 4.60816C36.2789 6.05716 36.2789 8.00116 36.2789 9.88216C36.2789 11.7632 35.5499 13.7792 34.3349 15.4262C33.0299 17.1902 31.4189 18.1622 29.7899 18.1622C28.1609 18.1622 26.5499 17.1902 25.2449 15.4262C24.0299 13.7792 23.3009 11.7092 23.3009 9.88216C23.3009 9.62116 23.3009 9.36016 23.3009 9.10816C23.2829 7.30816 23.2649 5.60716 24.0569 4.34716H24.0659ZM15.7319 35.8382C15.5699 35.7842 15.3899 35.8382 15.2729 35.9642L13.4549 38.0882C13.4549 38.0882 13.4189 38.1332 13.4099 38.1602C13.3019 38.3402 13.0679 38.4122 12.8879 38.3042L10.4849 36.9452C10.3949 36.8912 10.3319 36.8102 10.3049 36.7112C10.2779 36.6122 10.2869 36.5132 10.3409 36.4232C10.3589 36.3962 10.3679 36.3692 10.3769 36.3422L11.2409 33.6692C11.2949 33.5072 11.2409 33.3272 11.1149 33.2102C10.3319 32.5352 9.62987 31.7702 9.02687 30.9332C8.92787 30.7982 8.74787 30.7262 8.58587 30.7712L5.83187 31.4102C5.83187 31.4102 5.77787 31.4282 5.75087 31.4372C5.56187 31.5272 5.32787 31.4372 5.23787 31.2482L4.09487 28.7372C4.00487 28.5482 4.09487 28.3142 4.28387 28.2242C4.31087 28.2152 4.32887 28.1972 4.35587 28.1882L6.65987 26.5502C6.80387 26.4512 6.86687 26.2712 6.83087 26.1092C6.71387 25.6052 6.62387 25.1012 6.56987 24.5882C6.50687 24.0752 6.47987 23.5532 6.47987 23.0402C6.47987 22.8692 6.37187 22.7072 6.21887 22.6442L3.60887 21.5732C3.60887 21.5732 3.55487 21.5552 3.52787 21.5462C3.48287 21.5372 3.42887 21.5192 3.39287 21.4922C3.39287 21.4922 3.38387 21.4922 3.37487 21.4832C3.25787 21.3932 3.20387 21.2492 3.23087 21.1052L3.77987 18.3962C3.80687 18.2702 3.88787 18.1622 4.01387 18.1172C4.08587 18.0902 4.15787 18.0812 4.23887 18.0992C4.26587 18.0992 4.29287 18.0992 4.31987 18.0992H7.14587C7.31687 18.0992 7.46987 17.9912 7.54187 17.8382C7.94687 16.8932 8.45087 15.9842 9.06287 15.1472C9.16187 15.0122 9.17087 14.8232 9.08087 14.6702L7.63187 12.2672C7.63187 12.2672 7.59587 12.2222 7.57787 12.1952C7.43387 12.0422 7.44287 11.7992 7.60487 11.6552L9.63887 9.79216C9.71087 9.72016 9.80987 9.68416 9.91787 9.69316C10.0169 9.69316 10.1159 9.73816 10.1879 9.81916C10.2059 9.83716 10.2239 9.85516 10.2509 9.87316L12.5099 11.5292C12.6449 11.6282 12.8339 11.6372 12.9869 11.5472C13.8689 11.0162 14.8139 10.5842 15.7949 10.2692C15.9569 10.2152 16.0739 10.0712 16.0919 9.90016L16.3169 7.05616C16.3169 7.05616 16.3169 7.00216 16.3169 6.97516C16.3079 6.85816 16.3439 6.77716 16.3709 6.72316C16.3799 6.70516 16.3889 6.69616 16.4069 6.67816C16.4699 6.60616 16.5599 6.56116 16.6499 6.55216L19.3949 6.23716C19.6019 6.21016 19.7819 6.35416 19.8179 6.56116C19.8179 6.56116 19.8179 6.57016 19.8179 6.57916C19.8179 6.60616 19.8179 6.63316 19.8359 6.66016L20.6999 9.38716C20.7539 9.54916 20.8979 9.66616 21.0689 9.68416C21.5459 9.72016 22.0229 9.79216 22.4819 9.88216C22.4819 9.88216 22.4819 9.89116 22.4819 9.90016C22.4819 10.5302 22.5629 11.1872 22.7069 11.8532C21.3659 11.5202 19.9889 11.4302 18.6029 11.5922C17.0549 11.7722 15.5789 12.2492 14.2379 13.0052C12.9329 13.7432 11.7989 14.7062 10.8719 15.8852C9.93587 17.0642 9.25187 18.3872 8.82887 19.8182C8.38787 21.3032 8.26187 22.8422 8.44187 24.3902C8.72087 26.8022 9.71987 29.0252 11.3489 30.8252C12.1319 31.6892 13.0319 32.4272 14.0399 33.0212C14.9579 33.5612 15.9389 33.9752 16.9559 34.2452V36.1712C16.5509 36.0812 16.1549 35.9732 15.7679 35.8472L15.7319 35.8382ZM41.7959 41.7062C38.3039 43.3082 34.1549 44.1542 29.7899 44.1542C25.4249 44.1542 21.2759 43.3082 17.7839 41.7062V29.8622C17.7839 24.9662 21.4649 20.9792 25.9919 20.9792H33.5969C38.1239 20.9792 41.8049 24.9662 41.8049 29.8622V41.7062H41.7959Z" fill="#020202"/>
</g>
<defs>
<clipPath id="clip0_4032_839">
<rect width="45" height="45" fill="white" transform="translate(0 0.68457)"/>
</clipPath>
</defs>
</svg>
