<svg width="50" height="51" viewBox="0 0 50 51" fill="none" xmlns="http://www.w3.org/2000/svg">
<g clip-path="url(#clip0_4032_611)">
<path d="M7.87012 21.7047L19.1901 21.3047V33.8047L8.14012 33.4347" fill="#11A452"/>
<path d="M35.55 22.9644V14.9744C35.55 14.4244 35.25 13.9344 34.77 13.6944C34.33 13.4744 33.8 13.5244 33.41 13.8244L32.34 14.5944C28.35 17.4644 23.89 19.4544 19.09 20.5044C16.57 21.0544 13.99 21.3344 11.41 21.3344H6.24C4.57 21.3344 3 21.9844 1.82 23.1644C0.65 24.3344 0 25.9044 0 27.5744C0 31.0144 2.8 33.8244 6.24 33.8244H7.54C10.84 36.8944 11.88 43.7344 12.44 47.4344C12.47 47.6344 12.5 47.8344 12.53 48.0144C12.77 49.5644 14.08 50.6844 15.64 50.6844C16.55 50.6844 17.42 50.2944 18.02 49.6044C18.62 48.9144 18.89 48.0044 18.76 47.1044C18.56 45.6644 18.3 43.6244 18.05 41.5644C19.36 41.3944 20.43 40.2844 20.64 38.8044C20.68 38.5144 20.67 38.2044 20.62 37.9044L20.19 34.9144C24.57 36.0144 28.65 37.9044 32.33 40.5444L33.41 41.3144C33.64 41.4844 33.92 41.5744 34.2 41.5744C34.4 41.5744 34.59 41.5344 34.78 41.4344C35.26 41.1944 35.56 40.7044 35.56 40.1544V32.1744C37.57 31.5744 38.98 29.7144 38.98 27.5644C38.98 25.4144 37.57 23.5644 35.56 22.9544H35.55V22.9644ZM7.58 32.7544H6.25C4.75 32.7544 3.15 31.8244 2.18 30.6944C2.14 30.6544 2.11 30.6044 2.07 30.5544C1.97 30.4244 1.86 30.2844 1.78 30.1544H1.81C1.77 30.0844 1.75 29.9944 1.72 29.9244C1.48 29.5544 1.33 29.1344 1.28 28.6944C1.24 28.5044 1.2 28.3044 1.18 28.1044C1.09 27.6244 1.1 27.1144 1.23 26.6444C1.26 26.4844 1.3 26.3244 1.34 26.1644C1.43 25.5844 1.68 25.0344 2.09 24.6144C2.21 24.4644 2.31 24.2944 2.45 24.1544C3.36 23.2344 4.95 22.3144 6.24 22.3144H7.57V32.7644H7.58V32.7544ZM8.59 22.3944H11.41C13.78 22.3944 16.58 22.1644 18.91 21.7144V33.4444C16.59 32.9944 13.79 32.7644 11.42 32.7644H8.58V22.3944H8.59ZM17.09 49.0344C16.76 49.4144 16.28 49.6344 15.77 49.6344C14.9 49.6344 13.76 48.7644 13.63 47.9044C13.6 47.7244 13.57 47.5244 13.54 47.3244C13.01 43.8044 11.96 37.4844 9.04 33.8144H11.42C12.87 33.8144 14.66 33.9044 16.1 34.0844C16.35 36.2544 17.21 43.6644 17.71 47.2944C17.78 47.7944 17.42 48.6444 17.08 49.0344H17.09ZM19.55 38.8544C19.43 39.6844 18.58 40.4644 17.9 40.5544C17.61 38.1644 17.35 35.5244 17.21 34.2944C17.72 34.3744 18.52 34.6044 19.03 34.7144L19.54 38.2644V38.3044C19.58 38.4544 19.57 38.7244 19.54 38.8644H19.55V38.8544ZM34.51 40.1444L33.16 39.8744C29.15 37.0044 24.69 34.9844 19.89 33.8644V21.4044C24.69 20.2844 29.15 18.2644 33.16 15.3844L34.5 14.6644V40.1444H34.51ZM35.56 31.0244V24.0844C36.6 24.0844 38.17 25.5944 38.17 27.5844C38.17 29.5744 36.66 31.0244 35.56 31.0244Z" fill="#2D3C49"/>
<path d="M49.3999 26.9644H41.9799C41.5899 26.9644 41.1799 27.1844 41.1799 27.5644C41.1799 27.9444 41.4899 28.0844 41.8799 28.0844H49.2999C49.6899 28.0844 49.9999 27.9444 49.9999 27.5644C49.9999 27.1844 49.7799 26.9644 49.3999 26.9644Z" fill="#2D3C49"/>
<path d="M41.5101 23.7545C41.6301 23.7545 41.7501 23.7245 41.8601 23.6645L48.2901 19.9545C48.6201 19.7645 48.9001 19.4245 48.7101 19.0845C48.5201 18.7545 48.1701 18.8445 47.8401 19.0345L41.4101 22.7445C41.0801 22.9345 40.8801 23.1545 41.0701 23.4845C41.2001 23.7045 41.2701 23.7445 41.5101 23.7445V23.7545Z" fill="#2D3C49"/>
<path d="M48.41 35.2142L41.98 31.5042C41.65 31.3142 41.27 31.3142 41.08 31.6542C40.89 31.9842 41.17 32.2442 41.5 32.4342L47.93 36.1442C48.04 36.2042 48.16 36.2342 48.28 36.2342C48.52 36.2342 48.59 36.2842 48.72 36.0542C48.91 35.7242 48.75 35.4042 48.41 35.2142Z" fill="#2D3C49"/>
<path d="M34.8799 23.6245V31.3745C34.8799 31.3745 38.1399 31.3645 38.5799 27.3945C38.5799 27.3945 37.7299 23.7845 34.8799 23.6245Z" fill="#2D3C49"/>
</g>
<defs>
<clipPath id="clip0_4032_611">
<rect width="50" height="50" fill="white" transform="translate(0 0.68457)"/>
</clipPath>
</defs>
</svg>
