<svg width="50" height="51" viewBox="0 0 50 51" fill="none" xmlns="http://www.w3.org/2000/svg">
<g clip-path="url(#clip0_4032_666)">
<path d="M11.1201 11.2943L9.93007 38.2643C9.93007 38.2643 8.95007 43.2943 13.2101 43.4043L37.3101 43.2843C37.3101 43.2843 41.1701 43.5143 41.0801 39.0343L39.7301 11.1943" fill="#11A452"/>
<path d="M37.6899 43.4046H13.1999C11.1799 43.4046 9.61992 41.6246 9.84992 39.6046L11.1199 11.1846H39.7499L41.0199 39.6046C41.2599 41.6246 39.6899 43.4046 37.6699 43.4046H37.6899Z" stroke="#313131" stroke-linecap="round" stroke-linejoin="round"/>
<path d="M32.3498 14.4844V8.29441C32.3498 4.41441 29.2098 1.27441 25.3298 1.27441C21.4498 1.27441 18.3098 4.41441 18.3098 8.29441V14.4944" stroke="#313131" stroke-linecap="round" stroke-linejoin="round"/>
<path d="M41.49 8.06475C41.39 8.16475 41.39 8.31475 41.49 8.41475L42.36 9.28475C42.36 9.28475 42.47 9.35475 42.53 9.35475C42.59 9.35475 42.66 9.33475 42.7 9.28475C42.8 9.18475 42.8 9.03475 42.7 8.93475L41.83 8.06475C41.73 7.96475 41.58 7.96475 41.48 8.06475H41.49Z" fill="#313131"/>
<path d="M37.5502 10.2247C37.6102 10.2247 37.6802 10.2047 37.7202 10.1547L38.5902 9.28475L39.4602 8.41475C39.5602 8.31475 39.5602 8.16475 39.4602 8.06475C39.3602 7.96475 39.2102 7.96475 39.1102 8.06475L38.2402 8.93475L37.3702 9.80475C37.2702 9.90475 37.2702 10.0547 37.3702 10.1547C37.4202 10.2047 37.4802 10.2247 37.5402 10.2247H37.5502Z" fill="#313131"/>
<path d="M39.12 6.02449C39.12 6.02449 39.23 6.09449 39.29 6.09449C39.35 6.09449 39.42 6.07449 39.46 6.02449C39.56 5.92449 39.56 5.77449 39.46 5.67449L38.59 4.80449C38.49 4.70449 38.34 4.70449 38.24 4.80449C38.14 4.90449 38.14 5.05449 38.24 5.15449L39.11 6.02449H39.12Z" fill="#313131"/>
<path d="M41.49 6.02438C41.49 6.02438 41.6 6.09437 41.66 6.09437C41.72 6.09437 41.79 6.07438 41.83 6.02438L42.7 5.15437L43.57 4.28437C43.67 4.18437 43.67 4.03438 43.57 3.93438C43.47 3.83438 43.32 3.83438 43.22 3.93438L42.35 4.80437L41.48 5.67437C41.38 5.77437 41.38 5.92438 41.48 6.02438H41.49Z" fill="#313131"/>
<path d="M41.79 10.9847L41.47 9.79467L41.15 8.60467C41.11 8.47467 40.98 8.39467 40.85 8.43467C40.72 8.47467 40.64 8.60467 40.68 8.73467L41 9.92467L41.32 11.1147C41.35 11.2247 41.45 11.2947 41.56 11.2947C41.58 11.2947 41.6 11.2947 41.62 11.2947C41.75 11.2547 41.83 11.1247 41.79 10.9947V10.9847Z" fill="#313131"/>
<path d="M38.79 7.24449L37.6 7.56449C37.47 7.60449 37.39 7.73449 37.43 7.86449C37.46 7.97449 37.56 8.04449 37.67 8.04449C37.69 8.04449 37.71 8.04449 37.73 8.04449L38.92 7.72449C39.05 7.68449 39.13 7.55449 39.09 7.42449C39.05 7.29449 38.92 7.21449 38.79 7.25449V7.24449Z" fill="#313131"/>
<path d="M39.49 4.29455L39.81 5.48455C39.84 5.59455 39.94 5.66455 40.05 5.66455C40.07 5.66455 40.09 5.66455 40.11 5.66455C40.24 5.62455 40.32 5.49455 40.28 5.36455L39.96 4.17455L39.64 2.98455C39.6 2.85455 39.47 2.77455 39.34 2.81455C39.21 2.85455 39.13 2.98455 39.17 3.11455L39.49 4.30455V4.29455Z" fill="#313131"/>
<path d="M43.2302 6.05455L42.0402 6.37455C41.9102 6.41455 41.8302 6.54455 41.8702 6.67455C41.9002 6.78455 42.0002 6.85455 42.1102 6.85455C42.1302 6.85455 42.1502 6.85455 42.1702 6.85455L43.3602 6.53455C43.4902 6.49455 43.5702 6.36455 43.5302 6.23455C43.4902 6.10455 43.3602 6.02455 43.2302 6.06455V6.05455Z" fill="#313131"/>
<path d="M44.5402 7.87447L43.3502 7.55447L42.1602 7.23447C42.0302 7.19447 41.8902 7.27447 41.8602 7.40447C41.8202 7.53447 41.9002 7.67447 42.0302 7.70447L43.2202 8.02447L44.4102 8.34447C44.4102 8.34447 44.4502 8.34447 44.4702 8.34447C44.5802 8.34447 44.6802 8.27447 44.7102 8.16447C44.7502 8.03447 44.6702 7.89447 44.5402 7.86447V7.87447Z" fill="#313131"/>
<path d="M37.6001 6.52471L38.7901 6.84471C38.7901 6.84471 38.8301 6.84471 38.8501 6.84471C38.9601 6.84471 39.0601 6.77471 39.0901 6.66471C39.1301 6.53471 39.0501 6.39471 38.9201 6.36471L37.7301 6.04471L36.5401 5.72471C36.4101 5.68471 36.2701 5.76471 36.2401 5.89471C36.2001 6.02471 36.2801 6.16471 36.4101 6.19471L37.6001 6.51471V6.52471Z" fill="#313131"/>
<path d="M40.85 5.65447C40.85 5.65447 40.89 5.65447 40.91 5.65447C41.02 5.65447 41.12 5.58447 41.15 5.47447L41.47 4.28447C41.51 4.15447 41.43 4.01447 41.3 3.98447C41.17 3.94447 41.03 4.02447 41 4.15447L40.68 5.34447C40.64 5.47447 40.72 5.61447 40.85 5.64447V5.65447Z" fill="#313131"/>
<path d="M6.98008 46.2747L8.15008 46.6547C8.28008 46.6947 8.42008 46.6247 8.46008 46.4947C8.48008 46.4347 8.47008 46.3647 8.45008 46.3047C8.43008 46.2447 8.37008 46.2047 8.31008 46.1847L7.14008 45.8047C7.01008 45.7647 6.87008 45.8347 6.83008 45.9647C6.79008 46.0947 6.86008 46.2347 6.99008 46.2747H6.98008Z" fill="#313131"/>
<path d="M6.13 42.6747L5.75 43.8447C5.71 43.9747 5.78 44.1147 5.91 44.1547C6.04 44.1947 6.18 44.1247 6.22 43.9947L6.6 42.8247L6.98 41.6547C7 41.5947 6.99 41.5247 6.97 41.4647C6.95 41.4047 6.89 41.3647 6.83 41.3447C6.7 41.3047 6.56 41.3747 6.52 41.5047L6.14 42.6747H6.13Z" fill="#313131"/>
<path d="M4.0902 45.0748C4.1102 45.0148 4.1002 44.9448 4.0802 44.8848C4.0602 44.8248 4.0002 44.7848 3.9402 44.7648L2.7702 44.3848C2.6402 44.3448 2.5002 44.4148 2.4602 44.5448C2.4202 44.6748 2.4902 44.8148 2.6202 44.8548L3.7902 45.2348C3.9202 45.2748 4.0602 45.2048 4.1002 45.0748H4.0902Z" fill="#313131"/>
<path d="M4.78019 48.3648L5.16018 47.1948C5.18018 47.1348 5.17019 47.0648 5.15019 47.0048C5.13019 46.9448 5.07019 46.9048 5.01019 46.8848C4.88019 46.8448 4.74018 46.9148 4.70018 47.0448L4.32019 48.2148L3.94019 49.3848C3.90019 49.5148 3.97018 49.6548 4.10018 49.6948C4.23018 49.7348 4.37018 49.6648 4.41018 49.5348L4.79018 48.3648H4.78019Z" fill="#313131"/>
<path d="M6.86004 45.2245C6.89004 45.3545 7.02004 45.4445 7.15004 45.4145L8.35004 45.1645L9.55004 44.9145C9.68004 44.8845 9.77004 44.7545 9.74004 44.6245C9.74004 44.6045 9.73004 44.5845 9.72004 44.5645C9.67004 44.4645 9.56004 44.4145 9.45004 44.4345L8.25004 44.6845L7.05004 44.9345C6.92004 44.9645 6.83004 45.0945 6.86004 45.2245Z" fill="#313131"/>
<path d="M4.87005 43.9245C4.90005 44.0545 5.03005 44.1445 5.16005 44.1145C5.29005 44.0845 5.38005 43.9545 5.35005 43.8245L5.10005 42.6245C5.10005 42.6245 5.09005 42.5845 5.08005 42.5645C5.03005 42.4645 4.92005 42.4145 4.81005 42.4345C4.68005 42.4645 4.59005 42.5945 4.62005 42.7245L4.87005 43.9245Z" fill="#313131"/>
<path d="M4.0501 45.8145C4.0501 45.8145 4.0401 45.7745 4.0301 45.7545C3.9801 45.6545 3.8701 45.6045 3.7601 45.6245L2.5601 45.8745L1.3601 46.1245C1.2301 46.1545 1.1401 46.2845 1.1701 46.4145C1.2001 46.5445 1.3301 46.6345 1.4601 46.6045L2.6601 46.3545L3.8601 46.1045C3.9901 46.0745 4.0801 45.9445 4.0501 45.8145Z" fill="#313131"/>
<path d="M5.80999 48.4245C5.83999 48.5545 5.96999 48.6445 6.09999 48.6145C6.22999 48.5845 6.31999 48.4545 6.28999 48.3245L6.03999 47.1245C6.03999 47.1245 6.02999 47.0845 6.01999 47.0645C5.96999 46.9645 5.85999 46.9145 5.74999 46.9345C5.61999 46.9645 5.52999 47.0945 5.55999 47.2245L5.80999 48.4245Z" fill="#313131"/>
<path d="M8.44006 48.4944C8.44006 48.4944 8.42006 48.4544 8.40006 48.4444L7.58006 47.5344L6.76006 46.6144C6.67006 46.5144 6.51006 46.5044 6.41006 46.5944C6.31006 46.6844 6.30006 46.8444 6.39006 46.9444L7.21006 47.8544L8.03006 48.7744C8.12006 48.8744 8.28006 48.8844 8.38006 48.7944C8.46006 48.7144 8.48006 48.5944 8.44006 48.5044V48.4944Z" fill="#313131"/>
<path d="M4.15018 44.4343C4.24018 44.5343 4.40018 44.5443 4.50018 44.4543C4.58018 44.3743 4.60018 44.2543 4.56018 44.1643C4.56018 44.1443 4.54018 44.1243 4.52018 44.1143L3.70018 43.2043L2.88018 42.2843C2.79018 42.1843 2.63018 42.1743 2.53018 42.2643C2.43018 42.3543 2.42018 42.5143 2.51018 42.6143L3.33018 43.5243L4.15018 44.4443V44.4343Z" fill="#313131"/>
<path d="M4.37002 46.8245C4.45002 46.7445 4.47002 46.6245 4.43002 46.5345C4.43002 46.5145 4.41002 46.4945 4.39002 46.4845C4.30002 46.3845 4.14002 46.3745 4.04002 46.4645L3.12002 47.2845C3.02002 47.3745 3.01002 47.5345 3.10002 47.6345C3.19002 47.7345 3.35002 47.7445 3.45002 47.6545L4.37002 46.8345V46.8245Z" fill="#313131"/>
<path d="M15.8102 49.0745C15.8702 49.0945 15.9402 49.0845 16.0002 49.0645C16.0602 49.0445 16.1002 48.9845 16.1202 48.9245C16.1402 48.8645 16.1402 48.7945 16.1102 48.7345C16.0802 48.6745 16.0302 48.6345 15.9702 48.6145C15.9102 48.5945 15.8402 48.5945 15.7802 48.6245C15.7202 48.6545 15.6802 48.7045 15.6602 48.7645C15.6202 48.8845 15.6902 49.0345 15.8202 49.0745H15.8102Z" fill="#313131"/>
<path d="M42.9501 16.1144C42.9501 16.1144 42.8801 16.2244 42.8801 16.2844C42.8801 16.3444 42.9101 16.4144 42.9501 16.4544C43.0001 16.5044 43.0601 16.5244 43.1201 16.5244C43.1801 16.5244 43.2501 16.4944 43.2901 16.4544C43.3401 16.4044 43.3601 16.3444 43.3601 16.2844C43.3601 16.2244 43.3301 16.1544 43.2901 16.1144C43.2001 16.0244 43.0301 16.0244 42.9401 16.1144H42.9501Z" fill="#313131"/>
<path d="M12.4202 48.8745L12.5902 49.2045L12.2602 49.3745C12.1402 49.4345 12.0902 49.5845 12.1502 49.7045C12.2102 49.8245 12.3602 49.8745 12.4802 49.8145L12.8102 49.6445L12.9802 49.9745C13.0402 50.0945 13.1902 50.1445 13.3102 50.0845C13.4302 50.0245 13.4802 49.8745 13.4202 49.7545L13.2502 49.4245L13.5802 49.2545C13.7002 49.1945 13.7502 49.0445 13.6902 48.9245C13.6302 48.8045 13.4802 48.7545 13.3602 48.8145L13.0302 48.9845L12.8602 48.6545C12.8002 48.5345 12.6502 48.4845 12.5302 48.5445C12.4102 48.6045 12.3602 48.7545 12.4202 48.8745Z" fill="#313131"/>
<path d="M13.51 46.9344C13.72 47.3544 14.24 47.5244 14.67 47.3144C15.1 47.1044 15.26 46.5844 15.05 46.1544C14.84 45.7244 14.32 45.5644 13.89 45.7744C13.46 45.9844 13.3 46.5044 13.51 46.9344ZM14.61 46.3744C14.7 46.5544 14.63 46.7744 14.45 46.8744C14.27 46.9744 14.05 46.8944 13.95 46.7144C13.85 46.5344 13.93 46.3144 14.11 46.2144C14.29 46.1144 14.51 46.1944 14.61 46.3744Z" fill="#313131"/>
<path d="M42.5101 13.1743C42.0401 13.1743 41.6501 13.5643 41.6501 14.0343C41.6501 14.5043 42.0401 14.8943 42.5101 14.8943C42.9801 14.8943 43.3701 14.5043 43.3701 14.0343C43.3701 13.5643 42.9801 13.1743 42.5101 13.1743ZM42.5101 14.4043C42.3101 14.4043 42.1401 14.2343 42.1401 14.0343C42.1401 13.8343 42.3101 13.6643 42.5101 13.6643C42.7101 13.6643 42.8801 13.8343 42.8801 14.0343C42.8801 14.2343 42.7101 14.4043 42.5101 14.4043Z" fill="#313131"/>
</g>
<defs>
<clipPath id="clip0_4032_666">
<rect width="50" height="50" fill="white" transform="translate(0 0.68457)"/>
</clipPath>
</defs>
</svg>
