<svg width="50" height="51" viewBox="0 0 50 51" fill="none" xmlns="http://www.w3.org/2000/svg">
<g clip-path="url(#clip0_4032_819)">
<path d="M15.4299 42.3047V49.5947L18.1999 46.9647L20.8599 49.7347V42.3047H15.4299Z" fill="#313131"/>
<path d="M8.28001 39.7048L10.38 39.1848L10.18 2.15479L7.76001 4.25479L8.28001 39.7048Z" fill="#11A452"/>
<path d="M16.51 15.9144L23.78 19.0944L30.95 15.9144L23.8 12.2944" fill="#11A452"/>
<path d="M26.2401 17.6645C25.8701 17.9845 25.6601 18.4145 25.4401 18.8345C24.1901 18.6145 22.9401 18.4045 21.6901 18.1945C21.4601 18.1545 21.2301 18.1845 21.0301 18.2545C20.9201 18.1145 20.8401 17.9445 20.7001 17.8245C20.2701 17.4645 19.6401 17.4045 19.2201 17.8245C18.8501 18.1945 18.7901 18.9345 19.2201 19.3045C19.4301 19.4745 19.4601 19.5045 19.5701 19.7145C19.5701 19.7345 19.6301 19.8845 19.6301 19.9045C19.6301 19.9445 19.6401 19.9545 19.6401 19.9745C19.6401 20.0345 19.6401 20.0945 19.6401 20.1645C19.6401 20.4345 19.6101 20.6745 19.6901 20.9345C19.8001 21.3145 20.0901 21.5945 20.4201 21.7945C21.4401 22.4045 22.6201 22.8845 23.8001 22.9945C24.4201 23.0545 25.0601 22.9545 25.6601 22.7745C26.2001 22.6145 26.8201 22.4145 27.3001 22.1245C27.9901 21.7045 28.0001 20.9845 28.0001 20.2645C28.0001 19.6445 28.0001 19.0245 28.0001 18.4045C28.0001 17.4445 26.8801 17.0945 26.2201 17.6645H26.2401Z" fill="#11A452"/>
<path d="M10.3799 39.1846L35.6699 39.1346C37.0299 39.1346 38.1399 37.9146 38.1299 36.4246L38.0799 16.9146" stroke="#313131" stroke-linecap="round" stroke-linejoin="round"/>
<path d="M38.0901 18.4945V4.84453C38.0901 3.35453 36.9901 2.14453 35.6201 2.14453H10.4701C8.95008 2.14453 7.83008 3.63453 7.83008 5.40453V41.3345" stroke="#313131" stroke-linecap="round" stroke-linejoin="round"/>
<path d="M15.8201 31.2246H31.6401" stroke="#313131" stroke-linecap="round" stroke-linejoin="round"/>
<path d="M7.75 41.9245V5.40453C7.75 3.63453 8.87 2.14453 10.39 2.14453L10.36 14.4845V17.3945L10.29 38.9845" stroke="#313131" stroke-linecap="round" stroke-linejoin="round"/>
<path d="M13.57 45.4646H10.4C8.92998 45.4646 7.72998 44.0646 7.72998 42.3446V42.2845C7.72998 40.5545 8.92998 39.1646 10.4 39.1646H36.23V43.8146C36.23 44.7346 35.55 45.4746 34.71 45.4746H23.13" stroke="#313131" stroke-linecap="round" stroke-linejoin="round"/>
<path d="M12.79 42.2847H36.06" stroke="#313131" stroke-linecap="round" stroke-linejoin="round"/>
<path d="M21.0499 49.9444L18.2399 46.9644L15.4299 49.9444V42.2944H21.0499V49.9444Z" stroke="#313131" stroke-linecap="round" stroke-linejoin="round"/>
<path d="M21.0499 49.9444L18.2399 46.9644L15.4299 49.9444V42.2944H21.0499V49.9444Z" stroke="#313131" stroke-linecap="round" stroke-linejoin="round"/>
<path d="M19.3999 17.6143V21.4343C19.3999 21.4343 21.3099 23.2243 23.7799 23.2243C26.2499 23.2243 28.1599 21.4343 28.1599 21.4343V17.6143" stroke="#313131" stroke-linecap="round" stroke-linejoin="round"/>
<path d="M30.56 16.2944L30.5 21.3244" stroke="#313131" stroke-linecap="round" stroke-linejoin="round"/>
<path d="M23.7299 19.1144L16.1799 15.9144L23.7299 12.2544L31.2799 15.9144L23.7299 19.1144Z" stroke="#313131" stroke-linecap="round" stroke-linejoin="round"/>
<path d="M23.7299 19.1144L16.1799 15.9144L23.7299 12.2544L31.2799 15.9144L23.7299 19.1144Z" stroke="#313131" stroke-linecap="round" stroke-linejoin="round"/>
<path d="M15.8201 27.7344H31.6401" stroke="#313131" stroke-linecap="round" stroke-linejoin="round"/>
</g>
<defs>
<clipPath id="clip0_4032_819">
<rect width="50" height="50" fill="white" transform="translate(0 0.68457)"/>
</clipPath>
</defs>
</svg>
