<svg width="42" height="42" viewBox="0 0 42 42" fill="none" xmlns="http://www.w3.org/2000/svg">
<path d="M40.6875 17.7188V24.2812C40.6875 26.0909 39.2159 27.5625 37.4062 27.5625H36.5129C35.2579 34.9995 28.7889 40.6875 21 40.6875C20.2748 40.6875 19.6875 40.1002 19.6875 39.375C19.6875 38.6498 20.2748 38.0625 21 38.0625C28.2368 38.0625 34.125 32.1743 34.125 24.9375V17.0625C34.125 9.8257 28.2368 3.9375 21 3.9375C13.7632 3.9375 7.875 9.8257 7.875 17.0625V26.25C7.875 26.9752 7.28766 27.5625 6.5625 27.5625H4.59375C2.78414 27.5625 1.3125 26.0909 1.3125 24.2812V17.7188C1.3125 15.9091 2.78414 14.4375 4.59375 14.4375H5.48707C6.74215 7.00055 13.2111 1.3125 21 1.3125C28.7889 1.3125 35.2579 7.00055 36.5129 14.4375H37.4062C39.2159 14.4375 40.6875 15.9091 40.6875 17.7188Z" fill="black"/>
<path d="M21 6.5625C15.2102 6.5625 10.5 11.2727 10.5 17.0625V23.625C10.5 29.4148 15.2102 34.125 21 34.125C26.7898 34.125 31.5 29.4148 31.5 23.625V17.0625C31.5 11.2727 26.7898 6.5625 21 6.5625Z" fill="#11A452"/>
</svg>
