<svg width="200" height="272" viewBox="0 0 200 272" fill="none" xmlns="http://www.w3.org/2000/svg">
<g clip-path="url(#clip0_4028_145)">
<path opacity="0.19" d="M192 0H8C3.58172 0 0 3.58172 0 8V264C0 268.418 3.58172 272 8 272H192C196.418 272 200 268.418 200 264V8C200 3.58172 196.418 0 192 0Z" fill="#11A452"/>
<path d="M88.96 197.65H170.05C174.99 197.65 179.03 193.6 179.03 188.67L179.14 26.1602C179.14 21.2202 175.09 17.1802 170.16 17.1802H89.07C84.13 17.1802 80.09 21.2302 80.09 26.1602L79.98 188.67C79.98 193.61 84.03 197.65 88.96 197.65Z" fill="white"/>
<path d="M170.05 197.86H88.96C86.5 197.86 84.2 196.9 82.46 195.16C80.72 193.42 79.76 191.11 79.76 188.66L79.87 26.1502C79.87 21.0802 84 16.9502 89.07 16.9502H170.16C172.62 16.9502 174.92 17.9102 176.66 19.6502C178.4 21.3902 179.36 23.7002 179.36 26.1502L179.25 188.66C179.25 193.73 175.14 197.86 170.05 197.86ZM89.09 17.3902C84.26 17.3902 80.32 21.3302 80.32 26.1602L80.21 188.67C80.21 191 81.12 193.19 82.78 194.87C84.43 196.52 86.63 197.44 88.96 197.44H170.05C174.88 197.44 178.82 193.5 178.82 188.67L178.93 26.1602C178.93 23.8302 178.02 21.6402 176.36 19.9602C174.71 18.3102 172.51 17.3902 170.18 17.3902H89.09Z" fill="black"/>
<path d="M167.38 192.14H91.6599C89.7899 192.14 88.0299 191.4 86.6999 190.07C85.3699 188.74 84.6299 186.98 84.6299 185.11L84.7399 29.2102C84.7399 25.3402 87.8899 22.1802 91.7699 22.1802H167.49C169.36 22.1802 171.12 22.9202 172.45 24.2502C173.78 25.5802 174.52 27.3402 174.52 29.2102L174.41 185.11C174.41 188.98 171.26 192.14 167.38 192.14ZM91.7599 22.6002C88.1299 22.6002 85.1699 25.5602 85.1699 29.1902L85.0599 185.09C85.0599 186.85 85.7299 188.5 86.9999 189.74C88.2399 190.98 89.8899 191.68 91.6499 191.68H167.37C171 191.68 173.96 188.72 173.96 185.09L174.07 29.1902C174.07 27.4302 173.39 25.7702 172.13 24.5302C170.87 23.2902 169.24 22.5902 167.47 22.5902H91.7499L91.7599 22.6002Z" fill="black"/>
<path d="M138.92 27.7198H119.24C119.11 27.7198 119.02 27.6298 119.02 27.4998C119.02 27.3698 119.11 27.2798 119.24 27.2798H138.92C139.05 27.2798 139.14 27.3698 139.14 27.4998C139.14 27.6298 139.03 27.7198 138.92 27.7198Z" fill="black"/>
<path d="M167.46 85.3599H134.29C134.16 85.3599 134.07 85.2699 134.07 85.1399C134.07 85.0099 134.16 84.9199 134.29 84.9199H167.46C167.59 84.9199 167.68 85.0099 167.68 85.1399C167.68 85.2499 167.57 85.3599 167.46 85.3599Z" fill="black"/>
<path d="M167.44 89.4898H134.27C134.14 89.4898 134.05 89.3998 134.05 89.2698C134.05 89.1398 134.14 89.0498 134.27 89.0498H167.44C167.57 89.0498 167.66 89.1398 167.66 89.2698C167.66 89.3998 167.57 89.4898 167.44 89.4898Z" fill="black"/>
<path d="M149.38 93.65H134.26C134.13 93.65 134.04 93.56 134.04 93.43C134.04 93.3 134.13 93.21 134.26 93.21H149.38C149.51 93.21 149.6 93.3 149.6 93.43C149.6 93.54 149.51 93.65 149.38 93.65Z" fill="black"/>
<path d="M149.39 77.7002H134.27V82.0902H149.39V77.7002Z" fill="#D2EEDE"/>
<path d="M129.52 77.7002H107.2V100.02H129.52V77.7002Z" fill="#D2EEDE"/>
<path d="M101.29 95.2798H91.5C91.43 95.2798 91.39 95.2598 91.35 95.2098C91.31 95.1698 91.28 95.1198 91.28 95.0598V85.2698C91.28 85.1398 91.37 85.0498 91.5 85.0498H100.74C100.87 85.0498 100.96 85.1398 100.96 85.2698C100.96 85.3998 100.87 85.4898 100.74 85.4898H91.71V94.8398H101.06V87.8998C101.06 87.7698 101.15 87.6798 101.28 87.6798C101.41 87.6798 101.5 87.7698 101.5 87.8998V95.0598C101.5 95.1898 101.41 95.2798 101.28 95.2798H101.29Z" fill="#11A452"/>
<path d="M96.4001 93.5998C96.3301 93.5998 96.2701 93.5599 96.2301 93.5099L92.4001 88.1398C92.3301 88.0498 92.3601 87.8998 92.4401 87.8398C92.5501 87.7698 92.6801 87.7998 92.7401 87.8798L96.3901 93.0099L102.92 83.9399C102.99 83.8499 103.12 83.8099 103.22 83.8999C103.31 83.9699 103.35 84.0998 103.26 84.1998L96.5601 93.5298C96.5601 93.5298 96.4501 93.5998 96.3901 93.5998H96.4001Z" fill="#EE7120"/>
<path d="M167.44 116.39H134.27C134.14 116.39 134.05 116.3 134.05 116.17C134.05 116.04 134.14 115.95 134.27 115.95H167.44C167.57 115.95 167.66 116.04 167.66 116.17C167.66 116.28 167.55 116.39 167.44 116.39Z" fill="black"/>
<path d="M167.42 120.53H134.25C134.12 120.53 134.03 120.44 134.03 120.31C134.03 120.18 134.12 120.09 134.25 120.09H167.42C167.55 120.09 167.64 120.18 167.64 120.31C167.64 120.44 167.55 120.53 167.42 120.53Z" fill="black"/>
<path d="M149.36 124.66H134.24C134.11 124.66 134.02 124.57 134.02 124.44C134.02 124.31 134.11 124.22 134.24 124.22H149.36C149.49 124.22 149.58 124.31 149.58 124.44C149.58 124.57 149.49 124.66 149.36 124.66Z" fill="black"/>
<path d="M149.37 108.72H134.25V113.11H149.37V108.72Z" fill="#D2EEDE"/>
<path d="M129.5 108.72H107.18V131.04H129.5V108.72Z" fill="#D2EEDE"/>
<path d="M101.27 124.38H91.48C91.41 124.38 91.37 124.36 91.33 124.32C91.29 124.28 91.26 124.23 91.26 124.17V114.38C91.26 114.25 91.35 114.16 91.48 114.16H100.72C100.85 114.16 100.94 114.25 100.94 114.38C100.94 114.51 100.85 114.6 100.72 114.6H91.69V123.95H101.04V117.01C101.04 116.88 101.13 116.79 101.26 116.79C101.39 116.79 101.48 116.88 101.48 117.01V124.17C101.48 124.3 101.39 124.39 101.26 124.39L101.27 124.38Z" fill="#11A452"/>
<path d="M96.3801 122.7C96.3101 122.7 96.2501 122.66 96.2101 122.61L92.3801 117.24C92.3101 117.15 92.3401 117 92.4201 116.94C92.5301 116.87 92.6601 116.9 92.7201 116.98L96.3701 122.11L102.9 113.04C102.97 112.95 103.1 112.91 103.21 113C103.3 113.07 103.34 113.19 103.25 113.3L96.5501 122.63C96.5501 122.63 96.4401 122.7 96.3801 122.7Z" fill="#EE7120"/>
<path d="M167.42 147.57H134.25C134.12 147.57 134.03 147.48 134.03 147.35C134.03 147.22 134.12 147.13 134.25 147.13H167.42C167.55 147.13 167.64 147.22 167.64 147.35C167.64 147.48 167.53 147.57 167.42 147.57Z" fill="black"/>
<path d="M167.4 151.72H134.23C134.1 151.72 134.01 151.63 134.01 151.5C134.01 151.37 134.1 151.28 134.23 151.28H167.4C167.53 151.28 167.62 151.37 167.62 151.5C167.62 151.61 167.53 151.72 167.4 151.72Z" fill="black"/>
<path d="M149.34 155.85H134.22C134.09 155.85 134 155.76 134 155.63C134 155.5 134.09 155.41 134.22 155.41H149.34C149.47 155.41 149.56 155.5 149.56 155.63C149.56 155.76 149.47 155.85 149.34 155.85Z" fill="black"/>
<path d="M149.35 139.91H134.23V144.3H149.35V139.91Z" fill="#D2EEDE"/>
<path d="M129.48 139.91H107.16V162.23H129.48V139.91Z" fill="#D2EEDE"/>
<path d="M101.25 155.57H91.46C91.39 155.57 91.35 155.55 91.31 155.5C91.27 155.46 91.24 155.41 91.24 155.35V145.56C91.24 145.43 91.33 145.34 91.46 145.34H100.7C100.83 145.34 100.92 145.43 100.92 145.56C100.92 145.69 100.83 145.78 100.7 145.78H91.67V155.13H101.02V148.19C101.02 148.06 101.11 147.97 101.24 147.97C101.37 147.97 101.46 148.06 101.46 148.19V155.35C101.46 155.46 101.37 155.57 101.24 155.57H101.25Z" fill="#11A452"/>
<path d="M96.35 153.9C96.28 153.9 96.22 153.86 96.18 153.81L92.35 148.44C92.28 148.35 92.31 148.2 92.39 148.14C92.5 148.07 92.63 148.1 92.69 148.18L96.34 153.31L102.87 144.24C102.94 144.15 103.07 144.11 103.18 144.2C103.27 144.26 103.31 144.4 103.22 144.5L96.52 153.83C96.52 153.83 96.41 153.9 96.35 153.9Z" fill="#EE7120"/>
<path d="M159.91 55.15H144.99L159.63 34.75H174.64L159.91 55.15Z" fill="#11A452"/>
<path d="M159.91 55.1502C159.91 58.8002 156.56 61.7602 152.45 61.7602C148.34 61.7602 144.99 58.8002 144.99 55.1502L152.45 54.4502L159.91 55.1502Z" fill="#11A452"/>
<path d="M129.66 55.15H114.74L129.38 34.75H144.3L129.66 55.15Z" fill="#11A452"/>
<path d="M129.66 55.1502C129.66 58.8002 126.31 61.7602 122.2 61.7602C118.09 61.7602 114.74 58.8002 114.74 55.1502L122.2 54.4502L129.66 55.1502Z" fill="#11A452"/>
<path d="M99.7 55.15H84.78L99.79 34.75H114.89L99.71 55.15H99.7Z" fill="#11A452"/>
<path d="M99.7 55.1502C99.7 58.8002 96.35 61.7602 92.24 61.7602C88.13 61.7602 84.78 58.8002 84.78 55.1502L92.24 54.4502L99.7 55.1502Z" fill="#11A452"/>
<path d="M129.37 34.7398L114.67 55.1398H99.75L114.85 34.7398C114.85 34.7398 128.92 34.7198 129.38 34.7398H129.37Z" fill="white"/>
<path d="M107.25 62.5601H107.14C103.05 62.5601 99.74 59.6201 99.74 55.9701V55.1201L114.66 55.0801V56.0201C114.62 59.6501 111.31 62.5701 107.24 62.5701L107.25 62.5601Z" fill="white"/>
<path d="M107.25 62.7799H107.14C102.96 62.7799 99.53 59.7299 99.53 55.9699V55.1199C99.53 55.0099 99.62 54.8999 99.75 54.8999L114.67 54.8599C114.67 54.8599 114.78 54.8799 114.82 54.9299C114.86 54.9699 114.89 55.0199 114.89 55.0799V56.0199C114.85 59.7599 111.41 62.7799 107.25 62.7799ZM99.94 55.3599V55.9899C99.96 59.4899 103.18 62.3599 107.12 62.3599H107.23C111.17 62.3599 114.39 59.5099 114.43 56.0299V55.3299L99.94 55.3499V55.3599Z" fill="black"/>
<path d="M114.99 35.0899C114.86 35.0899 114.77 34.9999 114.77 34.8699C114.77 34.7399 114.86 34.6499 114.99 34.6499C117.21 34.6499 119.43 34.6499 121.69 34.6299C124.08 34.6299 126.52 34.6099 129.11 34.6099C129.24 34.6099 129.33 34.6999 129.33 34.8299C129.33 34.9599 129.24 35.0499 129.11 35.0499C126.52 35.0499 124.08 35.0499 121.69 35.0699C119.43 35.0899 117.21 35.0899 114.99 35.0899Z" fill="black"/>
<path d="M144.88 55.15H129.72L144.16 34.77L159.71 34.75L144.88 55.15Z" fill="white"/>
<path d="M144.8 55.1499C144.8 58.7999 141.45 61.7599 137.34 61.7599C133.23 61.7599 129.88 58.7999 129.88 55.1499H144.8Z" fill="white"/>
<path d="M137.33 61.9802C135.29 61.9802 133.35 61.2602 131.91 59.9802C130.45 58.7002 129.65 56.9802 129.65 55.1502C129.65 55.0202 129.74 54.9302 129.87 54.9302H144.79C144.86 54.9302 144.9 54.9502 144.94 55.0002C144.98 55.0402 145.01 55.0902 145.01 55.1502C145.01 58.9102 141.57 61.9802 137.33 61.9802ZM130.09 55.3702C130.16 57.0002 130.89 58.5002 132.2 59.6802C133.57 60.9002 135.4 61.5702 137.33 61.5702C141.25 61.5702 144.44 58.8102 144.57 55.3902H130.08V55.3702H130.09Z" fill="black"/>
<path d="M159.3 35.0899H144.38C144.25 35.0899 144.16 34.9999 144.16 34.8699C144.16 34.7399 144.25 34.6499 144.38 34.6499H159.3C159.43 34.6499 159.52 34.7399 159.52 34.8699C159.52 34.9999 159.43 35.0899 159.3 35.0899Z" fill="black"/>
<path d="M77.5 62.5701H77.39C73.3 62.5701 69.99 59.6301 69.99 55.9801V55.1301L74.8 52.5601L84.91 55.0801V56.0201C84.87 59.6501 81.56 62.5701 77.49 62.5701H77.5Z" fill="white"/>
<path d="M77.5 62.7801H77.39C73.21 62.7801 69.78 59.7301 69.78 55.9701V55.1201C69.78 55.0301 69.82 54.9701 69.89 54.9201L74.7 52.3501C74.7 52.3501 74.81 52.3301 74.85 52.3301L84.96 54.8501C85.05 54.8701 85.13 54.9601 85.13 55.0701V56.0101C85.09 59.7501 81.67 62.7701 77.49 62.7701L77.5 62.7801ZM70.21 55.2801V56.0001C70.23 59.5001 73.45 62.3701 77.39 62.3701H77.5C81.44 62.3701 84.66 59.5201 84.7 56.0401V55.2801L74.82 52.8201L70.21 55.2801Z" fill="black"/>
<path d="M99.81 34.7398L84.91 55.1398H69.99L85.17 34.7398C85.17 34.7398 99.35 34.7198 99.81 34.7398Z" fill="white"/>
<path d="M84.9101 55.3601H69.9901C69.9001 55.3601 69.8401 55.3201 69.7901 55.2501C69.7501 55.1801 69.7701 55.1001 69.8101 55.0301L84.7501 34.7101C84.7901 34.6401 84.8601 34.6201 84.9201 34.6201C84.9801 34.6201 90.5501 34.6401 99.3901 34.6401C99.5201 34.6401 99.6101 34.7301 99.6101 34.8601C99.6101 34.9901 99.5201 35.0801 99.3901 35.0801H99.2201C91.1701 35.0801 85.8601 35.0601 85.0401 35.0601L70.4001 54.9401H84.8901C85.0201 54.9401 85.1101 55.0301 85.1101 55.1601C85.1301 55.2501 85.0401 55.3601 84.9101 55.3601Z" fill="black"/>
<path d="M159.91 55.3599H84.69C84.56 55.3599 84.47 55.2699 84.47 55.1399C84.47 55.0099 84.56 54.9199 84.69 54.9199H159.91C160.04 54.9199 160.13 55.0099 160.13 55.1399C160.13 55.2499 160.02 55.3599 159.91 55.3599Z" fill="#7BBEE4"/>
<path d="M14.0601 260.98H44.4701C44.6101 260.98 44.7001 260.89 44.7001 260.75C44.7001 260.61 44.6101 260.52 44.4701 260.52H14.0601C13.9201 260.52 13.8301 260.61 13.8301 260.75C13.8301 260.86 13.9201 260.98 14.0601 260.98Z" fill="black"/>
<path d="M48.46 177.37C48.46 177.37 25.99 168.68 11.81 182.3C-2.37999 195.92 -3.26 255.11 44.48 260.75H115.44L48.47 177.37H48.46Z" fill="white"/>
<path d="M44.47 260.98H115.43C115.52 260.98 115.59 260.94 115.63 260.85C115.67 260.78 115.65 260.67 115.61 260.6L48.64 177.22C48.64 177.22 48.57 177.17 48.55 177.15C48.5 177.13 42.83 174.95 35.47 174.5C28.68 174.07 19.04 175.04 11.64 182.15C7.7 185.93 4.76 193.15 3.61 201.93C2.37 211.32 3.29 221.28 6.21 230.01C8.97 238.25 13.34 245.03 19.17 250.24C25.89 256.19 34.38 259.81 44.42 261.01C44.44 260.99 44.47 260.99 44.47 260.99V260.98ZM114.98 260.52H44.5C26.01 258.32 12.57 247.44 6.67 229.84C0.36 210.99 4.41 189.75 11.99 182.46C19.25 175.49 28.78 174.52 35.48 174.95C42.36 175.38 47.77 177.33 48.35 177.55L114.98 260.52Z" fill="black"/>
<path d="M22.8 214.57C22.87 214.57 22.94 214.55 22.98 214.48C23.05 214.39 23.05 214.23 22.93 214.16C19.45 211.4 16.87 207.51 15.67 203.21C15.65 203.1 15.51 203.03 15.4 203.05C15.29 203.07 15.22 203.21 15.24 203.32C16.46 207.71 19.09 211.67 22.66 214.52C22.68 214.54 22.73 214.57 22.8 214.57Z" fill="black"/>
<path d="M37.5701 221.43C31.7601 219.87 26.7801 217.74 23.1801 214.67C23.1801 214.67 22.6401 190.07 32.7101 171.82C33.6401 170.12 34.9301 168.63 36.4401 167.43C39.9001 164.74 46.9401 160.71 58.0301 160.94C58.0301 160.94 72.3101 163.32 75.8401 169.52C79.4201 175.76 85.3701 193.32 85.3701 193.32L37.5801 221.44L37.5701 221.43Z" fill="#11A452"/>
<path d="M67.2799 193.62C67.3699 193.62 67.4599 193.55 67.5099 193.46L71.4499 179.84C71.4999 179.73 71.3999 179.59 71.2899 179.57C71.1799 179.53 71.0399 179.62 71.0199 179.73L67.0799 193.35C67.0299 193.46 67.1299 193.6 67.2399 193.62H67.2899H67.2799Z" fill="black"/>
<path d="M30.0601 218.83C30.0601 218.83 35.5401 202.63 58.5201 202.45C73.1101 202.34 91.2401 202.54 102.51 202.72C109.07 202.81 115 206.61 117.85 212.54L137.38 253.25L144.1 258.52C145.05 259.27 144.51 260.76 143.33 260.76H104.3C103.01 260.76 101.74 260.42 100.63 259.79C95.2901 256.78 78.8201 246.8 63.5901 230.35C53.0501 223.43 42.2301 223.92 30.0601 218.83Z" fill="white"/>
<path d="M104.28 260.98H143.31C143.94 260.98 144.51 260.59 144.71 259.98C144.91 259.37 144.73 258.74 144.21 258.33L137.53 253.1L118.03 212.44C115.13 206.4 109.18 202.6 102.51 202.51C90.31 202.33 72.78 202.13 58.52 202.24C58.38 202.24 58.29 202.35 58.29 202.47C58.29 202.61 58.4 202.7 58.52 202.7C72.77 202.59 90.31 202.79 102.51 202.97C109.03 203.06 114.82 206.77 117.65 212.65L137.15 253.33C137.15 253.33 137.2 253.4 137.22 253.42L143.94 258.69C144.37 259.03 144.39 259.51 144.28 259.84C144.17 260.18 143.85 260.54 143.31 260.54H104.28C103.04 260.54 101.81 260.22 100.73 259.61C95.93 256.92 79.1 246.8 63.76 230.22C63.76 230.22 63.7433 230.207 63.71 230.18C57.49 226.08 51.2 224.57 44.52 222.96C39.9 221.85 35.13 220.72 30.15 218.64C30.04 218.59 29.9 218.64 29.86 218.75C29.81 218.86 29.86 219 29.97 219.04C34.99 221.14 39.79 222.28 44.41 223.38C51.02 224.96 57.26 226.46 63.42 230.51C78.81 247.12 95.69 257.25 100.48 259.97C101.66 260.63 102.95 260.97 104.28 260.97V260.98Z" fill="black"/>
<path d="M127.7 260.98H129.67C130.53 260.98 131.25 260.44 131.48 259.6C131.71 258.76 131.37 257.93 130.62 257.5L125.35 254.38L83.3301 213.83C77.6501 208.35 70.1601 205.26 62.2601 205.14L58.5501 205.1C58.4401 205.1 58.3201 205.19 58.3201 205.33C58.3201 205.47 58.4101 205.56 58.5501 205.56L62.2601 205.6C70.0401 205.71 77.4201 208.75 83.0301 214.15L125.07 254.7C125.07 254.7 125.09 254.72 125.12 254.72L130.41 257.86C131.09 258.27 131.18 258.97 131.07 259.47C130.94 259.94 130.5 260.51 129.69 260.51H127.72C127.58 260.51 127.49 260.6 127.49 260.74C127.47 260.88 127.56 260.99 127.69 260.99L127.7 260.98Z" fill="black"/>
<path d="M97.0799 227.2C97.0799 227.2 97.1299 227.2 97.1499 227.18C97.2599 227.14 97.3299 227.02 97.2899 226.89L92.9499 213.86C92.8999 213.75 92.7899 213.68 92.6599 213.73C92.5499 213.77 92.4799 213.89 92.5199 214.02L96.8599 227.05C96.9099 227.16 96.9999 227.21 97.0899 227.21L97.0799 227.2Z" fill="black"/>
<path d="M62.78 229.76C62.85 229.76 62.89 229.74 62.94 229.69C63.03 229.6 63.01 229.46 62.92 229.37C60 226.7 57.35 223.71 55 220.55C54.93 220.46 54.77 220.44 54.68 220.51C54.59 220.58 54.57 220.74 54.63 220.83C56.98 224.04 59.68 227.03 62.62 229.72C62.67 229.76 62.71 229.76 62.78 229.76Z" fill="black"/>
<path d="M94.3901 256.25L125.21 254.76C125.35 254.76 125.44 254.65 125.44 254.53C125.44 254.39 125.33 254.3 125.21 254.3L94.4201 255.79C94.2801 255.79 94.1901 255.9 94.1901 256.02C94.1701 256.16 94.2801 256.25 94.3901 256.25Z" fill="black"/>
<path d="M124.35 253.47H137.36C137.5 253.47 137.59 253.38 137.59 253.24C137.59 253.1 137.5 253.01 137.36 253.01H124.35C124.21 253.01 124.12 253.1 124.12 253.24C124.12 253.35 124.23 253.47 124.35 253.47Z" fill="black"/>
<path d="M50.45 174.54L58.05 193.18C58.05 193.18 82.35 193.52 84.66 197.39C86.95 201.26 83.26 202.8 83.26 202.8C83.26 202.8 55.23 206.96 47.44 204.07C39.66 201.15 34.84 183.64 33.77 177.1C32.71 170.54 50.45 174.54 50.45 174.54Z" fill="#11A452"/>
<path d="M47.4399 204.3C47.5299 204.3 47.6199 204.25 47.6399 204.16C47.6899 204.05 47.6199 203.91 47.4999 203.87C41.3499 201.56 37.2999 189.84 35.8199 184.91C35.7699 184.8 35.6599 184.73 35.5499 184.75C35.4399 184.79 35.3699 184.91 35.3899 185.02C37.2199 191.22 41.2299 201.99 47.3399 204.28C47.3899 204.28 47.4099 204.3 47.4299 204.3H47.4399Z" fill="black"/>
<path d="M84.66 197.62C84.66 197.62 84.73 197.62 84.77 197.6C84.88 197.53 84.91 197.4 84.86 197.28C82.6 193.46 60.45 193 58.21 192.96L51.44 176.4C51.39 176.29 51.26 176.22 51.15 176.29C51.04 176.34 50.97 176.47 51.04 176.58L57.85 193.26C57.9 193.35 57.96 193.4 58.05 193.4C58.3 193.4 82.26 193.78 84.45 197.5C84.5 197.59 84.56 197.64 84.65 197.64L84.66 197.62Z" fill="black"/>
<path d="M103.24 206.04H58.1201C56.9901 206.04 56.0801 205.13 56.0801 204C56.0801 202.87 56.9801 201.96 58.1201 201.96H106.72L103.24 206.03V206.04Z" fill="black"/>
<path d="M103.24 206.04L70.1799 205.45L81.9899 177.94C82.4199 176.94 83.4199 176.29 84.4999 176.29H115.05C116.59 176.29 117.65 177.87 117.04 179.3L106.56 203.96C105.99 205.3 104.66 206.11 103.23 206.04H103.24Z" fill="black"/>
<path d="M101.07 185.4C101.07 185.97 100.62 186.44 100.03 186.44C99.44 186.44 98.99 185.99 98.99 185.4C98.99 184.81 99.44 184.36 100.03 184.36C100.62 184.36 101.07 184.81 101.07 185.4Z" fill="#7BBEE4"/>
<path d="M59.93 164.95C60 164.95 60.07 164.93 60.11 164.86C60.36 164.54 60.72 164.14 61.11 163.68C61.7 162.98 62.38 162.21 62.81 161.67C62.88 161.58 62.88 161.42 62.76 161.35C62.67 161.28 62.51 161.28 62.44 161.4C62.01 161.92 61.35 162.71 60.77 163.39C60.39 163.84 60.02 164.27 59.75 164.57C59.66 164.66 59.68 164.82 59.77 164.89C59.84 164.93 59.88 164.96 59.93 164.96V164.95Z" fill="black"/>
<path d="M57.8299 154.07L54.4999 159C54.0499 159.68 53.3899 160.22 52.6199 160.54L50.4299 161.47C50.4299 161.47 54.6799 171.02 62.0599 169.23C62.0599 169.23 66.8599 167.76 62.3099 161.88L63.7999 159.96L57.8299 154.08V154.07Z" fill="white"/>
<path d="M50.4499 161.69C50.4499 161.69 50.5199 161.69 50.5399 161.67L52.7299 160.74C53.5399 160.4 54.2199 159.84 54.6999 159.11L58.0299 154.18C58.0999 154.07 58.0799 153.93 57.9599 153.86C57.8499 153.79 57.7099 153.81 57.6399 153.93L54.3099 158.86C53.8799 159.52 53.2699 160.01 52.5499 160.33L50.3599 161.26C50.2499 161.31 50.1999 161.44 50.2499 161.55C50.2699 161.64 50.3599 161.68 50.4499 161.68V161.69Z" fill="black"/>
<path d="M60.8401 163.91C60.9101 163.91 60.9801 163.89 61.0201 163.82L64.0101 160.09C64.0801 160 64.0801 159.86 63.9901 159.8L58.0201 153.92C57.9301 153.83 57.7901 153.83 57.7001 153.92C57.6101 154.01 57.6101 154.15 57.7001 154.24L63.5401 159.99L60.6701 163.56C60.6001 163.65 60.6001 163.81 60.7201 163.88C60.7401 163.9 60.7901 163.93 60.8601 163.93L60.8401 163.91Z" fill="black"/>
<path d="M57.55 141.76C58.48 141.94 59.22 142.42 59.72 143.16C59.97 142.03 60.72 141.03 61.69 140.38C62.64 139.72 63.79 139.38 64.95 139.25C67.48 138.96 70.18 139.75 71.99 141.54C73.8 143.33 74.64 146.13 73.85 148.55C73.06 150.97 70.57 152.8 68.04 152.6C68.33 154 68.54 155.45 68.31 156.85C68.08 158.25 67.38 159.65 66.18 160.42C64.82 161.3 63.01 161.26 61.52 160.65C60.03 160.04 58.8 158.91 57.72 157.71C57.09 157.01 56.52 156.26 55.91 155.54C55.59 155.18 55.3 154.79 54.96 154.45C54.73 154.22 54.46 154.07 54.3 153.79C53.39 152.34 52.76 151.32 53.01 148.52C53.12 147.5 54.55 141.17 57.56 141.76H57.55Z" fill="black"/>
<path d="M66.1099 147.03C66.1099 147.03 67.4399 150.65 67.8099 153.27C67.8999 153.9 67.5799 154.54 67.0199 154.85C66.1099 155.37 64.4399 155.96 61.7699 155.64C57.3599 155.12 57.3099 151.79 57.0899 150.48C56.8199 148.85 57.5699 147.58 60.1699 148.24C63.8399 149.17 66.1199 147.02 66.1199 147.02L66.1099 147.03Z" fill="white"/>
<path d="M63.21 155.99C65.09 155.99 66.33 155.52 67.12 155.06C67.78 154.7 68.12 153.97 68.03 153.25C67.67 150.63 66.33 146.98 66.33 146.96C66.31 146.89 66.24 146.85 66.17 146.83C66.1 146.81 66.01 146.83 65.97 146.87C65.95 146.89 63.71 148.93 60.22 148.05C58.93 147.73 57.98 147.82 57.39 148.37C56.89 148.85 56.69 149.59 56.87 150.54C56.89 150.65 56.92 150.77 56.92 150.9C57.12 152.35 57.53 155.38 61.74 155.88C62.26 155.95 62.76 155.99 63.21 155.99ZM66.02 147.42C66.34 148.35 67.31 151.18 67.58 153.32C67.65 153.86 67.4 154.41 66.9 154.68C65.99 155.2 64.37 155.77 61.79 155.45C57.92 155 57.56 152.3 57.36 150.86C57.34 150.72 57.31 150.59 57.31 150.48C57.22 149.91 57.22 149.17 57.69 148.72C58.14 148.29 58.98 148.22 60.11 148.49C63.16 149.26 65.29 147.97 66.02 147.43V147.42Z" fill="black"/>
<path d="M57.0099 155.29C57.0099 155.29 56.3299 153.98 55.8799 152.62C55.8799 152.62 53.1199 151.17 52.6899 153.39C52.2599 155.61 55.6099 157.49 57.0099 155.29Z" fill="white"/>
<path d="M55.2901 156.49C55.9701 156.49 56.6901 156.2 57.1901 155.4C57.2401 155.33 57.2401 155.24 57.1901 155.17C57.1901 155.15 56.5101 153.86 56.0601 152.52C56.0401 152.48 55.9901 152.41 55.9501 152.39C55.8801 152.34 54.3401 151.57 53.3001 152.07C52.8501 152.3 52.5501 152.7 52.4401 153.31C52.1901 154.67 53.1601 155.82 54.2701 156.25C54.5901 156.41 54.9501 156.48 55.2901 156.48V156.49ZM56.7401 155.27C56.2201 156.02 55.3601 156.24 54.4501 155.88C53.5401 155.52 52.6901 154.55 52.8901 153.44C52.9801 152.97 53.1801 152.67 53.5001 152.51C54.1601 152.19 55.2201 152.55 55.6701 152.78C56.0501 153.89 56.5801 154.93 56.7301 155.27H56.7401Z" fill="black"/>
<path d="M55.99 155.02C56.06 155.02 56.1 155 56.15 154.95C56.24 154.86 56.24 154.72 56.15 154.63C55.61 154.11 54.81 153.86 54.07 154C53.96 154.02 53.87 154.13 53.89 154.25C53.91 154.36 54.03 154.45 54.14 154.43C54.75 154.34 55.38 154.54 55.84 154.95C55.89 154.99 55.95 155.02 56 155.02H55.99Z" fill="black"/>
</g>
<defs>
<clipPath id="clip0_4028_145">
<rect width="200" height="272" fill="white"/>
</clipPath>
</defs>
</svg>
