<svg width="49" height="49" viewBox="0 0 49 49" fill="none" xmlns="http://www.w3.org/2000/svg">
<path d="M24.521 44.9296L35.1067 41.9829L36.7289 46.2273L36.5317 46.8647L25.8254 47.683L24.521 44.9296Z" fill="#11A452"/>
<path d="M35.8889 41.4582C35.7453 39.7643 35.8697 38.0608 35.8697 36.3572C35.8793 33.2756 35.2955 30.5385 34.5299 27.2942C34.2236 25.983 33.2857 24.892 32.4149 24.002C30.5869 22.1358 28.759 20.2695 26.9406 18.4033C26.577 18.0301 26.2898 17.2166 26.3473 16.6807C26.51 15.1207 26.7971 13.5608 27.1799 12.0391C27.2852 11.6371 27.2182 11.216 27.0076 10.8619C26.7492 10.4313 26.2899 10.1442 25.7922 10.1059C24.9309 10.0389 24.0791 10.1154 23.2465 10.326C23.1029 10.0963 22.9402 9.88576 22.7393 9.70392C22.1459 9.14884 21.2272 9.16798 20.6625 9.73263C20.0309 10.3547 19.4279 10.9385 18.8537 11.5031C18.7006 10.7279 18.3561 9.99103 17.8297 9.41681C17.0832 8.57462 15.3031 7.70373 14.327 8.60334C14.0303 8.8713 13.8484 9.24455 13.8293 9.63693C13.8293 9.69435 13.4082 16.6711 13.4178 16.7285C12.4607 17.542 11.408 18.5469 11.4463 19.9442C11.5037 21.8486 11.5324 23.8201 11.7717 25.7055C11.1688 27.1506 10.6711 28.5861 10.2979 30.0121C10.1352 30.6438 10.2213 31.3041 10.5275 31.8783C11.0443 32.8258 11.542 33.668 12.0397 34.424C12.0875 34.6633 12.1641 34.893 12.2789 35.1131C13.4369 37.4195 14.5662 39.1901 15.8295 40.6639C17.9924 43.2 21.6291 44.1092 24.5002 45.6309C24.7203 46.2338 25.0457 46.8367 25.2371 47.4301C25.3328 47.7363 25.6199 47.9277 25.9166 47.9277C26.3951 47.9373 26.7492 47.4492 26.6057 46.9899C26.3856 46.2721 25.9932 45.5926 25.7731 44.9131C25.7156 44.7408 25.6008 44.5973 25.4381 44.5016C24.4811 43.9656 23.4283 43.5158 22.4139 43.0756C20.3658 42.1856 18.2508 41.2764 16.9205 39.726C15.7338 38.3383 14.6619 36.6731 13.5613 34.4623C13.4273 34.1944 13.3891 33.8881 13.4561 33.601C14.0877 31.0361 15.0256 28.5287 16.2315 26.1744C16.4324 25.782 16.8057 25.5045 17.2268 25.4184C19.1695 25.0547 21.1602 24.8346 23.1412 24.758C23.3518 24.7485 23.5623 24.7867 23.7537 24.8729C25.1223 25.4758 26.5578 26.4807 27.5531 27.744C27.0555 28.4617 26.6248 28.7106 25.8783 28.7106C24.9979 28.7106 24.1652 28.3278 23.7537 27.7248C23.6102 27.5143 23.3613 27.3899 23.1029 27.4186C21.9162 27.5238 20.4998 27.6004 19.026 27.409C18.6527 27.3611 18.3082 27.61 18.2316 27.9736C18.1072 28.567 17.9158 29.1508 17.7053 29.7633C17.4947 30.3949 17.2746 31.0361 17.1406 31.7061C17.0736 32.0219 16.9875 32.4143 17.0449 32.8354C17.1693 33.7828 17.9158 34.4049 18.4039 34.8164C18.7102 35.0748 19.16 35.0365 19.4184 34.7303C19.6768 34.424 19.6385 33.9742 19.3322 33.7158C18.9207 33.3713 18.5188 33.0076 18.4709 32.6344C18.4518 32.4621 18.4996 32.2229 18.5475 31.9932C18.758 30.9787 19.1982 29.9356 19.4854 28.8924C20.6912 28.9977 21.8397 28.9498 22.8445 28.8733C23.5527 29.6676 24.6438 30.127 25.84 30.1461C27.1033 30.1557 27.9742 29.6772 28.759 28.5479C29.027 28.1746 29.0844 27.677 28.9121 27.2463C28.6441 26.6338 28.1082 26.1936 27.6393 25.7342C28.4145 24.9303 28.3283 24.0977 27.5436 23.3416C26.309 22.0879 24.8639 21.1213 23.2369 20.4514C22.7201 20.2408 22.1746 20.2121 21.6195 20.2504C21.476 18.7861 21.5525 17.8578 21.744 16.5371C22.7297 15.0537 23.7729 13.4938 23.7059 11.685C24.3566 11.5319 25.0266 11.4744 25.6965 11.5223C25.7348 11.5223 25.7826 11.5606 25.7922 11.5797C25.8018 11.5988 25.8113 11.6276 25.8018 11.6658C25.3998 13.2545 25.1031 14.8815 24.9309 16.5084C24.8256 17.4654 25.2563 18.7 25.9262 19.3795C27.7541 21.2457 29.582 23.1119 31.4004 24.9781C32.1373 25.7246 32.9125 26.6242 33.1422 27.6004C33.8887 30.7586 34.4533 33.4096 34.4438 36.3381C34.3768 39.8695 34.0897 43.9082 36.1473 46.7889C36.7119 47.5449 37.8412 46.7793 37.3244 45.9658C36.5205 44.8365 36.042 43.3244 35.8889 41.4582ZM15.284 9.67521C15.2936 9.66564 15.3127 9.65607 15.3318 9.65607C15.8869 9.72306 16.3941 9.98146 16.7674 10.393C17.3512 11.0151 17.5904 12.0008 17.4565 12.8717C16.6621 13.6469 15.8295 14.4604 14.9299 15.3408L15.2648 9.72306C15.2648 9.70392 15.2744 9.69435 15.284 9.67521ZM22.0023 21.6764C22.2416 21.6668 22.4713 21.7051 22.6914 21.7912C24.2131 22.4324 25.6199 23.3512 26.7109 24.5953C26.6535 24.6719 26.5865 24.7485 26.5195 24.825C25.8209 24.3082 25.0744 23.8776 24.3184 23.5522C23.926 23.3799 23.5049 23.3033 23.0838 23.3225C21.0357 23.399 18.9781 23.6287 16.9588 24.002C16.0975 24.1647 15.3414 24.7389 14.949 25.5236C13.8676 27.6483 12.9871 29.8877 12.3459 32.1846C12.1641 31.8688 11.9727 31.5338 11.7908 31.1893C11.6568 30.9404 11.6186 30.6533 11.6856 30.3758C12.3076 27.9736 13.3029 25.5236 14.6236 23.0832C14.8533 22.6813 15.2457 22.4037 15.7147 22.3272C17.7818 21.9635 19.8969 21.7434 22.0023 21.6764ZM20.1744 20.3365C19.6002 20.3748 19.026 20.4322 18.4518 20.4897C18.5092 20.2026 18.6623 19.9442 18.892 19.7527C19.2844 19.4274 19.6959 19.035 20.0979 18.5947C20.0979 19.1307 20.117 19.6858 20.1744 20.3365ZM21.7918 13.6373C21.1027 15.1303 19.4088 17.4942 17.9924 18.6426C17.3703 19.1403 17.0162 19.8867 16.9875 20.6715C16.4803 20.7385 15.9731 20.8246 15.4658 20.9108C14.1451 21.15 13.5231 21.9635 12.9775 23.1119C12.9201 22.0401 12.901 20.9777 12.8723 19.9059C12.8531 19.0828 13.7623 18.3076 14.5758 17.6186C16.0592 16.3266 17.466 14.8145 18.7293 13.6182C19.6481 12.7186 20.6051 11.7902 21.6578 10.7471C21.6865 10.7184 21.7248 10.7184 21.7535 10.7471C22.5574 11.5701 22.3086 12.4985 21.7918 13.6373Z" fill="black"/>
<path d="M27.3904 31.2375C26.5195 30.8451 25.9166 32.0605 26.7492 32.5199C28.8546 33.5631 30.3572 35.7547 30.5773 38.0898C30.6156 38.4631 30.9218 38.7406 31.2951 38.7406H31.3621C31.7544 38.7023 32.0416 38.3482 32.0033 37.9558C31.7353 35.1326 29.9265 32.5008 27.3904 31.2375Z" fill="black"/>
<path d="M27.7061 9.12036C27.8879 9.12036 28.0698 9.05337 28.2133 8.90981L29.4001 7.7231C29.6776 7.44556 29.6776 6.98618 29.4001 6.70864C29.1225 6.4311 28.6631 6.4311 28.3856 6.70864L27.1989 7.89536C26.7395 8.34517 27.0745 9.12993 27.7061 9.12036Z" fill="black"/>
<path d="M28.4716 10.6707C28.5291 11.0631 28.9023 11.3406 29.2851 11.2832L30.9503 11.0535C31.8882 10.8812 31.6968 9.54138 30.7494 9.62751L29.0841 9.8572C28.6918 9.91462 28.4142 10.2783 28.4716 10.6707Z" fill="black"/>
<path d="M29.2663 12.5847C28.3858 12.221 27.8212 13.4556 28.6634 13.8863L30.1851 14.5849C30.5392 14.7476 30.9698 14.5945 31.1325 14.2308C31.2952 13.8671 31.1421 13.446 30.7784 13.2833L29.2663 12.5847Z" fill="black"/>
<path d="M8.32659 11.1011C8.34573 10.7183 8.05862 10.3929 7.68538 10.3546C6.06799 10.1919 5.34065 9.37844 5.31194 7.72278C5.31194 7.33997 5.00569 7.03372 4.62288 7.01458C4.24006 6.99544 3.91467 7.28254 3.87639 7.66536C3.7137 9.28274 2.90022 10.0101 1.23499 10.0292C0.852174 10.0292 0.545924 10.3355 0.526783 10.7183C0.507642 11.1011 0.794752 11.4265 1.16799 11.4648C2.78538 11.6275 3.51272 12.4409 3.53186 14.1062C3.54143 14.489 3.83811 14.7952 4.22092 14.8144C4.59417 14.8335 4.92913 14.5464 4.96741 14.1732C5.1301 12.5558 5.94358 11.8284 7.59924 11.8093C8.0012 11.7806 8.30745 11.4839 8.32659 11.1011ZM4.38362 11.7136C4.18264 11.3882 3.92424 11.1011 3.62756 10.8618C3.96252 10.6609 4.24006 10.4025 4.47932 10.1058C4.6803 10.4312 4.9387 10.7183 5.23538 10.9575C4.90999 11.1585 4.62288 11.4073 4.38362 11.7136Z" fill="black"/>
<path d="M32.6157 6.15364C33.946 6.57473 34.3958 7.34993 34.1279 8.74719C33.9843 9.62766 35.2189 9.95305 35.5155 9.1013C35.9366 7.77102 36.7118 7.32122 38.1091 7.58919C38.9991 7.73274 39.315 6.49817 38.4632 6.20149C37.5827 5.92395 36.6831 5.12005 37.554 1.31106C37.7263 0.401881 36.4534 0.0669204 36.1663 0.947389C35.0945 4.66067 33.8886 4.92864 32.9698 4.75637C32.0798 4.62239 31.764 5.86653 32.6157 6.15364ZM35.6687 5.19661C35.7357 5.12962 35.7931 5.06262 35.8601 4.98606C35.9462 5.44544 36.0898 5.8761 36.3099 6.25891C35.9749 6.36419 35.6782 6.52688 35.4103 6.73743C35.2763 6.41204 35.0945 6.11536 34.8552 5.85696C35.1327 5.68469 35.4103 5.46458 35.6687 5.19661Z" fill="black"/>
<path d="M10.4891 18.5853C10.7092 18.2504 10.6135 17.8101 10.2786 17.59L9.57038 17.1306L10.0393 16.4224C10.2594 16.0875 10.1637 15.6472 9.82878 15.4271C9.49382 15.207 9.05358 15.3027 8.83347 15.6377L8.36452 16.3459L7.65632 15.8769C7.32136 15.6568 6.88112 15.7525 6.66101 16.0875C6.44089 16.4224 6.53659 16.8627 6.87155 17.0828L7.57976 17.5422L7.12038 18.2504C6.90026 18.5853 6.99597 19.0256 7.33093 19.2457C7.65632 19.4658 8.10612 19.3701 8.32624 19.0351L8.78562 18.3269L9.49382 18.7863C9.81921 19.016 10.269 18.9203 10.4891 18.5853Z" fill="black"/>
<path d="M34.0418 21.5522C34.3385 21.8106 34.7883 21.7819 35.0563 21.4852L35.6114 20.844L36.2526 21.3991C36.5492 21.6575 36.9991 21.6287 37.267 21.3321C37.5254 21.0354 37.4967 20.576 37.2 20.3176L36.5588 19.7625L37.1139 19.1213C37.3723 18.8246 37.3436 18.3653 37.0469 18.1069C36.7502 17.8485 36.2909 17.8772 36.0325 18.1739L35.4774 18.8151L34.8362 18.26C34.5395 18.0016 34.0801 18.0303 33.8217 18.327C33.5633 18.6237 33.592 19.083 33.8887 19.3414L34.5299 19.8965L33.9748 20.5377C33.7164 20.8344 33.7452 21.2842 34.0418 21.5522Z" fill="black"/>
<path d="M15.734 5.27314L16.5188 5.59853L16.1934 6.3833C16.0403 6.74697 16.2221 7.16806 16.5858 7.32119C16.9399 7.47431 17.3705 7.30205 17.5237 6.92881L17.8395 6.14404L18.6243 6.46943C18.9784 6.62256 19.409 6.45029 19.5621 6.07705C19.7153 5.71338 19.5334 5.29228 19.1698 5.13916L18.385 4.81377L18.7104 4.029C18.8635 3.66533 18.6817 3.24424 18.318 3.09111C17.9543 2.93799 17.5332 3.11982 17.3801 3.48349L17.0547 4.26826L16.27 3.95244C15.3799 3.61748 14.8631 4.88076 15.734 5.27314Z" fill="black"/>
<path d="M39.4492 25.0933C38.3964 25.0933 37.5447 25.945 37.5447 26.9978C37.65 29.5243 41.2484 29.5243 41.3537 26.9978C41.3537 25.9546 40.5019 25.0933 39.4492 25.0933ZM39.4492 27.4667C38.8271 27.4476 38.8271 26.5479 39.4492 26.5288C40.0712 26.5479 40.0712 27.4476 39.4492 27.4667Z" fill="black"/>
</svg>
