<svg width="162" height="163" viewBox="0 0 162 163" fill="none" xmlns="http://www.w3.org/2000/svg">
<path d="M59.8389 68.3606L80.7774 77.3719L101.999 68.3606L82.5391 60.8276" fill="#EE7120"/>
<path d="M81.9922 78.5863L88.6544 86.99L108.985 76.1563L104.004 68.9878" fill="#EE7120"/>
<path d="M59.8593 69.251L52.8325 76.1562L75.5328 86.99L80.98 76.703" fill="#EE7120"/>
<path d="M49.5925 104.709C49.2078 104.709 48.8433 104.527 48.6003 104.203C43.801 97.4593 41.2495 89.4808 41.2495 81.1783C41.2495 59.2678 59.0695 41.4478 80.98 41.4478C90.0723 41.4478 98.6178 44.06 105.037 48.839C105.584 49.244 105.685 49.9933 105.28 50.54C104.875 51.0868 104.106 51.188 103.579 50.8033C97.5648 46.3483 89.5255 43.898 80.9598 43.898C60.3858 43.898 43.6593 60.6448 43.6593 81.1985C43.6593 89.015 46.0488 96.4873 50.5645 102.826C50.9493 103.372 50.8278 104.122 50.281 104.527C50.0583 104.689 49.8153 104.749 49.5723 104.749L49.5925 104.709Z" fill="#333236"/>
<path d="M80.9999 120.909C72.1101 120.909 63.6051 118.216 57.0441 113.315C56.5176 112.91 56.3961 112.161 56.8011 111.614C57.2061 111.068 57.9554 110.966 58.5021 111.371C64.6581 115.968 72.6366 118.479 80.9999 118.479C101.574 118.479 118.3 101.732 118.3 81.1785C118.3 73.038 115.729 65.3025 110.869 58.8225C110.464 58.2758 110.585 57.5265 111.112 57.1215C111.638 56.7165 112.408 56.8178 112.813 57.3645C117.997 64.29 120.73 72.5115 120.73 81.1785C120.73 103.089 102.91 120.909 80.9999 120.909Z" fill="#333236"/>
<path d="M91.1451 53.0107C90.5579 53.0107 90.0314 52.5855 89.9504 51.978C89.8491 51.3097 90.3149 50.7022 90.9629 50.601L102.526 48.8595L97.1391 38.3295C96.8354 37.7422 97.0784 36.993 97.6656 36.6892C98.2529 36.3855 99.0021 36.6082 99.3059 37.2157L105.462 49.2442C105.644 49.5885 105.644 50.0137 105.462 50.358C105.28 50.7022 104.956 50.9452 104.571 51.006L91.3274 53.0107C91.3274 53.0107 91.2059 53.0107 91.1451 53.0107Z" fill="#333236"/>
<path d="M64.7799 126.822C64.3344 126.822 63.9294 126.579 63.7067 126.174L56.7002 112.91C56.5179 112.566 56.5179 112.161 56.7002 111.797C56.8824 111.432 57.2064 111.209 57.5912 111.128L71.3004 108.881C71.9687 108.779 72.5964 109.225 72.6977 109.893C72.7989 110.561 72.3534 111.189 71.7054 111.29L59.6567 113.275L65.8734 125.04C66.1974 125.627 65.9544 126.377 65.3672 126.68C65.1849 126.782 64.9824 126.822 64.8002 126.822H64.7799Z" fill="#333236"/>
<path d="M81.9923 103.757C81.81 103.757 81.648 103.717 81.4658 103.636L58.9478 93.0451C58.5225 92.8426 58.2593 92.4174 58.2593 91.9516V79.8219C58.2593 79.1536 58.806 78.6069 59.4743 78.6069C60.1425 78.6069 60.6893 79.1536 60.6893 79.8219V91.1821L81.972 101.206L101.959 91.2024V79.7004C101.959 79.0321 102.506 78.4854 103.174 78.4854C103.842 78.4854 104.389 79.0321 104.389 79.7004V91.9516C104.389 92.4174 104.126 92.8426 103.721 93.0451L82.5188 103.636C82.3568 103.717 82.1543 103.757 81.972 103.757H81.9923Z" fill="#333236"/>
<path d="M81.9924 78.5858C81.8304 78.5858 81.6684 78.5452 81.5267 78.4845L59.0087 69.21C58.3809 68.9467 58.0974 68.238 58.3404 67.6305C58.6037 67.0028 59.3124 66.7192 59.9199 66.9622L81.9722 76.0342L102.688 66.9622C103.295 66.699 104.024 66.9623 104.288 67.59C104.551 68.1975 104.288 68.9265 103.66 69.1898L82.4582 78.4642C82.2962 78.525 82.1342 78.5655 81.9722 78.5655L81.9924 78.5858Z" fill="#333236"/>
<path d="M81.9921 103.757C81.3239 103.757 80.7771 103.21 80.7771 102.542V77.3712C80.7771 76.703 81.3239 76.1562 81.9921 76.1562C82.6604 76.1562 83.2071 76.703 83.2071 77.3712V102.542C83.2071 103.21 82.6604 103.757 81.9921 103.757Z" fill="#333236"/>
<path d="M75.3706 88.5289C75.1884 88.5289 75.0264 88.4884 74.8441 88.4074L52.3261 77.8167C52.0021 77.6547 51.7591 77.3509 51.6579 77.0067C51.5769 76.6422 51.6579 76.2777 51.8806 75.9739L58.5024 67.3677C58.9074 66.8412 59.6769 66.7399 60.2034 67.1449C60.7299 67.5499 60.8311 68.3194 60.4261 68.8459L54.7156 76.2574L74.9251 85.7749L80.9596 76.7029C81.3241 76.1562 82.0734 75.9942 82.6404 76.3587C83.2074 76.7232 83.3491 77.4927 82.9846 78.0394L76.3629 87.9822C76.1401 88.3264 75.7554 88.5289 75.3504 88.5289H75.3706Z" fill="#333236"/>
<path d="M103.194 69.3323C103.072 69.3323 102.931 69.3323 102.809 69.2716L81.344 62.1233L59.879 69.2716C59.2513 69.4943 58.5628 69.1298 58.34 68.5021C58.1375 67.8743 58.4818 67.1858 59.1095 66.9631L80.9593 59.6731C81.2023 59.5921 81.4858 59.5921 81.7288 59.6731L103.579 66.9631C104.206 67.1656 104.551 67.8541 104.348 68.5021C104.186 69.0083 103.7 69.3323 103.194 69.3323Z" fill="#333236"/>
<path d="M89.2826 87.8612C88.9181 87.8612 88.5738 87.6992 88.3308 87.3954L81.0408 78.1209C80.6156 77.5944 80.7168 76.8249 81.2433 76.4199C81.7698 75.9947 82.5393 76.0959 82.9443 76.6224L89.6268 85.1072L107.366 76.2377L102.202 68.7857C101.817 68.2389 101.959 67.4694 102.506 67.1049C103.053 66.7202 103.822 66.8619 104.187 67.4087L110.14 76.0149C110.343 76.2984 110.403 76.6629 110.322 77.0072C110.241 77.3514 109.998 77.6349 109.695 77.7969L89.8293 87.7397C89.6471 87.8207 89.4648 87.8612 89.2826 87.8612Z" fill="#333236"/>
<path d="M81.3241 71.3168C80.6559 71.3168 80.1091 70.7701 80.1091 70.1018V60.8273C80.1091 60.1591 80.6559 59.6123 81.3241 59.6123C81.9924 59.6123 82.5391 60.1591 82.5391 60.8273V70.1018C82.5391 70.7701 81.9924 71.3168 81.3241 71.3168Z" fill="#333236"/>
</svg>
