<svg width="162" height="163" viewBox="0 0 162 163" fill="none" xmlns="http://www.w3.org/2000/svg">
<path d="M116.863 54.4882C121.907 54.4882 125.995 50.3993 125.995 45.3554C125.995 40.3115 121.907 36.2227 116.863 36.2227C111.819 36.2227 107.73 40.3115 107.73 45.3554C107.73 50.3993 111.819 54.4882 116.863 54.4882Z" fill="#EE7120"/>
<path d="M90.5375 50.4384C95.5814 50.4384 99.6703 46.3495 99.6703 41.3056C99.6703 36.2617 95.5814 32.1729 90.5375 32.1729C85.4937 32.1729 81.4048 36.2617 81.4048 41.3056C81.4048 46.3495 85.4937 50.4384 90.5375 50.4384Z" fill="#EE7120"/>
<path d="M104.51 85.4712C107.508 85.4712 109.937 83.0414 109.937 80.0442C109.937 77.0469 107.508 74.6172 104.51 74.6172C101.513 74.6172 99.0833 77.0469 99.0833 80.0442C99.0833 83.0414 101.513 85.4712 104.51 85.4712Z" fill="#EE7120"/>
<path d="M66.4602 104.223C75.821 104.223 83.4095 96.6348 83.4095 87.274C83.4095 77.9131 75.821 70.3247 66.4602 70.3247C57.0994 70.3247 49.511 77.9131 49.511 87.274C49.511 96.6348 57.0994 104.223 66.4602 104.223Z" fill="#11A452"/>
<path d="M129.964 94.0973C129.276 94.2796 128.871 94.9681 129.053 95.6363C129.195 96.1831 129.073 96.7703 128.729 97.2158C128.385 97.6613 127.838 97.9246 127.271 97.9246H115.526C114.817 97.9246 114.25 98.4916 114.25 99.2003C114.25 99.9091 114.817 100.476 115.526 100.476H123.768V127.51C123.768 127.51 123.768 127.53 123.768 127.55C123.768 129.13 122.512 130.385 120.953 130.385C119.394 130.385 118.138 129.13 118.138 127.571V127.53V104.121C118.138 103.412 117.571 102.845 116.863 102.845C116.154 102.845 115.587 103.412 115.587 104.121V127.51C115.587 127.51 115.587 127.53 115.587 127.55C115.587 129.13 114.331 130.385 112.772 130.385C112.063 130.385 111.496 130.952 111.496 131.661C111.496 132.37 112.063 132.937 112.772 132.937C114.412 132.937 115.87 132.208 116.863 131.033C117.855 132.188 119.313 132.937 120.953 132.937C123.91 132.937 126.319 130.527 126.319 127.571V100.496H127.271C128.628 100.496 129.904 99.8686 130.734 98.7953C131.564 97.7221 131.848 96.3451 131.503 95.0086C131.321 94.3201 130.633 93.9151 129.964 94.0973Z" fill="#333236"/>
<path d="M111.982 107.786V93.9962C111.982 91.1207 109.654 88.792 106.778 88.792H101.169C98.2933 88.792 95.9646 91.1207 95.9646 93.9962V107.786C95.9646 109.447 96.7544 110.986 98.0706 111.958V129.332H98.0908C98.0908 131.317 99.6906 132.917 101.675 132.917H106.292C108.277 132.917 109.876 131.317 109.876 129.332V111.958C111.193 110.986 111.982 109.447 111.982 107.786ZM109.451 107.786C109.451 108.779 108.904 109.69 108.013 110.135C107.548 110.378 107.284 110.885 107.345 111.391V129.332C107.345 129.92 106.879 130.386 106.312 130.386H101.695C101.128 130.386 100.663 129.92 100.663 129.353C100.663 129.353 100.663 129.332 100.663 129.312V111.371C100.683 110.864 100.44 110.378 99.9539 110.115C99.0629 109.649 98.5161 108.758 98.5161 107.766V93.976C98.5161 92.518 99.7108 91.3232 101.169 91.3232H106.778C108.236 91.3232 109.431 92.518 109.431 93.976V107.766L109.451 107.786Z" fill="#333236"/>
<path d="M116.215 55.2586C119.05 55.2586 121.723 54.1448 123.748 52.1401C125.752 50.1353 126.866 47.4623 126.866 44.6071C126.866 41.7518 125.752 39.0991 123.748 37.0741C121.743 35.0693 119.07 33.9556 116.215 33.9556C113.359 33.9556 110.707 35.0693 108.682 37.0741C106.677 39.0788 105.563 41.7518 105.563 44.6071C105.563 47.4623 106.677 50.1151 108.682 52.1401C110.686 54.1448 113.359 55.2586 116.215 55.2586ZM116.215 36.5071C120.69 36.5071 124.315 40.1318 124.315 44.6071C124.315 49.0823 120.69 52.7071 116.215 52.7071C111.739 52.7071 108.115 49.0823 108.115 44.6071C108.115 40.1318 111.739 36.5071 116.215 36.5071Z" fill="#333236"/>
<path d="M91.0846 51.4314C93.9196 51.4314 96.5926 50.3177 98.6176 48.3129C100.622 46.3082 101.736 43.6352 101.736 40.7799C101.736 37.9247 100.622 35.2719 98.6176 33.2469C96.6129 31.2422 93.9399 30.1284 91.0846 30.1284C88.2294 30.1284 85.5766 31.2422 83.5516 33.2469C81.5468 35.2517 80.4331 37.9247 80.4331 40.7799C80.4331 43.6352 81.5468 46.2879 83.5516 48.3129C85.5563 50.3177 88.2294 51.4314 91.0846 51.4314ZM91.0846 32.6799C95.5599 32.6799 99.1846 36.3047 99.1846 40.7799C99.1846 45.2552 95.5599 48.8799 91.0846 48.8799C86.6094 48.8799 82.9846 45.2552 82.9846 40.7799C82.9846 36.3047 86.6094 32.6799 91.0846 32.6799Z" fill="#333236"/>
<path d="M103.963 87.2739C107.77 87.2739 110.869 84.1756 110.869 80.3686C110.869 76.5616 107.77 73.4634 103.963 73.4634C100.156 73.4634 97.0581 76.5616 97.0581 80.3686C97.0581 84.1756 100.156 87.2739 103.963 87.2739ZM103.963 76.0149C106.373 76.0149 108.317 77.9791 108.317 80.3686C108.317 82.7581 106.353 84.7224 103.963 84.7224C101.574 84.7224 99.6096 82.7581 99.6096 80.3686C99.6096 77.9791 101.574 76.0149 103.963 76.0149Z" fill="#333236"/>
<path d="M99.6299 71.0736V66.0111C99.6299 65.3023 99.0629 64.7354 98.3541 64.7354C97.6454 64.7354 97.0784 65.3023 97.0784 66.0111V71.0736C97.0784 71.7824 97.6454 72.3494 98.3541 72.3494C99.0629 72.3494 99.6299 71.7824 99.6299 71.0736Z" fill="#333236"/>
<path d="M85.7587 113.638C86.0017 112.383 85.7587 111.087 85.05 110.034C84.3412 108.961 83.2477 108.232 81.9922 107.989C80.7367 107.746 79.4407 107.989 78.3877 108.697L72.6975 112.504C72.414 112.687 72.2317 112.97 72.1507 113.314C72.09 113.638 72.1507 113.983 72.333 114.266C72.7177 114.853 73.5075 114.995 74.0745 114.61L79.7647 110.803C80.271 110.459 80.8785 110.338 81.486 110.459C82.0935 110.581 82.5997 110.925 82.944 111.431C83.2882 111.937 83.4097 112.545 83.2882 113.152C83.1667 113.76 82.8225 114.266 82.3162 114.61L65.1645 126.072C64.9822 126.193 64.7797 126.295 64.5772 126.355C64.2735 126.457 63.9292 126.477 63.6052 126.436L47.0812 121.718C47.0812 121.718 46.98 121.698 46.9395 121.678C45.7042 121.455 44.4487 121.718 43.3957 122.407L42.4845 123.014L36.2272 113.618L43.8007 108.535C44.8942 107.806 46.1902 107.543 47.4862 107.786L65.286 113.497C66.4807 113.881 67.149 115.137 66.8047 116.311C66.6427 116.878 66.2377 117.344 65.7112 117.628C65.1645 117.911 64.557 117.972 63.9697 117.79L55.2825 115.481C54.9585 115.4 54.6142 115.441 54.3307 115.603C54.0472 115.765 53.8245 116.048 53.7435 116.372C53.6422 116.716 53.703 117.101 53.9055 117.405C54.0675 117.668 54.3307 117.85 54.6345 117.931L63.3217 120.24C64.5367 120.584 65.8125 120.463 66.9262 119.875C68.0602 119.268 68.8905 118.276 69.255 117.061C70.0042 114.59 68.5867 111.917 66.096 111.127L48.3165 105.437C48.3165 105.437 48.1747 105.397 48.0937 105.376C46.1295 104.992 44.1045 105.376 42.444 106.49L34.8705 111.553L34.2427 110.621C34.0605 110.338 33.777 110.155 33.4327 110.074C33.1087 110.014 32.7645 110.074 32.481 110.257L24.6645 115.461C24.0772 115.846 23.9355 116.635 24.3202 117.202L30.699 126.76C31.0837 127.348 31.8735 127.489 32.4405 127.105C33.0277 126.72 33.1695 125.93 32.7847 125.363L27.1147 116.838L32.8252 113.031L41.7555 126.416L36.045 130.223L35.8222 129.879C35.4375 129.292 34.6477 129.15 34.0807 129.535C33.4935 129.919 33.3517 130.709 33.7365 131.276L34.668 132.673C34.911 133.038 35.316 133.24 35.721 133.24C35.964 133.24 36.207 133.18 36.4095 133.038L44.226 127.834C44.8132 127.449 44.955 126.659 44.5702 126.092L43.9222 125.14L44.8335 124.533C45.3195 124.209 45.8865 124.087 46.4737 124.189L63.018 128.927C63.018 128.927 63.0585 128.927 63.099 128.947C63.099 128.947 63.1395 128.947 63.1597 128.947C63.8887 129.069 64.638 129.008 65.3265 128.785C65.7517 128.644 66.177 128.441 66.5617 128.198L83.7135 116.737C84.7867 116.028 85.5157 114.934 85.7587 113.679V113.638Z" fill="#333236"/>
<path d="M52.4678 100.031C54.1688 101.732 56.133 103.048 58.32 103.98C60.588 104.952 63.018 105.438 65.5088 105.438C67.9995 105.438 70.4093 104.952 72.6975 103.98C74.8845 103.048 76.869 101.712 78.5498 100.031C80.2508 98.33 81.567 96.3657 82.4985 94.1787C83.4705 91.9107 83.9565 89.4807 83.9565 86.99C83.9565 84.4992 83.4705 82.0895 82.4985 79.8215C81.567 77.6345 80.2305 75.65 78.5498 73.9692C76.8488 72.2682 74.8845 70.952 72.6975 70.0205C70.4295 69.0485 67.9995 68.5625 65.5088 68.5625C63.018 68.5625 60.6083 69.0485 58.32 70.0205C56.133 70.952 54.1485 72.2885 52.4678 73.9692C50.7668 75.6702 49.4505 77.6345 48.519 79.8215C47.547 82.0895 47.061 84.5195 47.061 86.99C47.061 89.4605 47.547 91.8905 48.519 94.1787C49.4505 96.3657 50.787 98.3503 52.4678 100.031ZM65.5088 70.9925C74.3175 70.9925 81.5063 78.161 81.5063 86.99C81.5063 95.819 74.3378 102.988 65.5088 102.988C56.6798 102.988 49.5113 95.819 49.5113 86.99C49.5113 78.161 56.6798 70.9925 65.5088 70.9925Z" fill="#333236"/>
<path d="M95.0941 130.406C93.5349 130.406 92.2794 129.131 92.2794 127.571C92.2794 127.571 92.2794 127.531 92.2794 127.511L92.2389 99.2416C92.2389 98.5328 91.6719 97.9658 90.9631 97.9658C90.2544 97.9658 89.6874 98.5328 89.6874 99.2416L89.7279 127.511C89.7279 127.511 89.7279 127.531 89.7279 127.551C89.7279 129.131 88.4724 130.406 86.9131 130.406C85.3539 130.406 84.0984 129.131 84.0984 127.571C84.0984 127.571 84.0984 127.531 84.0984 127.511V123.521C84.0984 122.813 83.5314 122.246 82.8226 122.246C82.1139 122.246 81.5469 122.813 81.5469 123.521V127.531C81.5469 130.487 83.9566 132.897 86.9131 132.897C88.5534 132.897 90.0114 132.148 91.0036 130.994C91.9959 132.148 93.4539 132.897 95.0941 132.897C95.8029 132.897 96.3699 132.33 96.3699 131.621C96.3699 130.913 95.8029 130.346 95.0941 130.346V130.406Z" fill="#333236"/>
<path d="M133.731 87.3144L127.656 61.1919C127.656 61.1919 127.616 61.0299 127.575 60.9489C127.008 59.1264 125.307 57.8911 123.404 57.8911H110.403C108.702 57.8911 106.799 58.7821 106.009 60.6046V58.9036C106.009 55.7649 103.437 53.2134 100.298 53.2134H81.6683C78.5295 53.2134 75.978 55.7649 75.9578 58.9036V65.5456C75.9578 66.2544 76.5248 66.8214 77.2335 66.8214C77.9423 66.8214 78.5093 66.2544 78.5093 65.5456V58.8834C78.5093 57.1419 79.9268 55.7446 81.6683 55.7446C81.6683 55.7446 81.6683 55.7446 81.6885 55.7446H100.298C100.298 55.7446 100.298 55.7446 100.319 55.7446C102.06 55.7446 103.478 57.1419 103.478 58.8834V69.9804C103.478 69.9804 103.478 70.1626 103.498 70.2436C103.498 70.2436 103.498 70.2436 103.498 70.2639C103.498 70.2639 103.498 70.2841 103.498 70.3044C103.538 70.4461 103.599 70.5676 103.66 70.6891C103.66 70.6891 103.66 70.7094 103.68 70.7296C103.68 70.7296 103.68 70.7296 103.7 70.7499C103.7 70.7499 103.7 70.7499 103.7 70.7701C103.7 70.7701 103.7 70.7904 103.721 70.8106C103.721 70.8106 103.741 70.8309 103.761 70.8511C103.842 70.9321 103.943 71.0131 104.045 71.0739C104.045 71.0739 104.065 71.0739 104.085 71.0739C104.186 71.1144 104.288 71.1549 104.409 71.1751C104.409 71.1751 104.45 71.1751 104.47 71.1751C104.47 71.1751 104.47 71.1751 104.49 71.1751C104.49 71.1751 104.51 71.1751 104.531 71.1751C104.531 71.1751 104.551 71.1751 104.571 71.1751H104.612C104.632 71.1751 104.652 71.1751 104.672 71.1751C104.672 71.1751 104.693 71.1751 104.713 71.1751C104.733 71.1751 104.774 71.1751 104.794 71.1751C104.794 71.1751 104.794 71.1751 104.814 71.1751C104.834 71.1751 104.875 71.1751 104.895 71.1751C104.936 71.1751 104.956 71.1751 104.996 71.1549C105.098 71.1144 105.179 71.0739 105.26 71.0131C105.28 71.0131 105.32 70.9726 105.341 70.9524C105.361 70.9524 105.381 70.9119 105.401 70.8916C105.422 70.8916 105.442 70.8511 105.462 70.8309C105.462 70.8309 105.503 70.7904 105.523 70.7701C105.523 70.7701 105.523 70.7701 105.523 70.7499C105.523 70.7296 105.563 70.7094 105.563 70.6891C105.563 70.6689 105.584 70.6486 105.604 70.6284C105.604 70.6081 105.624 70.5676 105.644 70.5474C105.644 70.5069 105.665 70.4866 105.685 70.4461C105.685 70.4056 105.705 70.3651 105.725 70.3246L107.791 62.1234C108.074 61.1919 109.046 60.4224 110.14 60.4224H123.14C123.971 60.4224 124.72 60.9894 124.922 61.7994C124.922 61.8399 124.943 61.9006 124.963 61.9411L130.997 87.8611C130.997 87.8611 130.997 87.8814 130.997 87.9016C130.997 87.9016 130.997 87.9016 130.997 87.9219C131.119 88.4686 131.018 89.0154 130.734 89.4811C130.43 89.9469 129.965 90.2911 129.438 90.4126C128.891 90.5341 128.324 90.4531 127.859 90.1494C127.393 89.8456 127.069 89.4001 126.927 88.8534C126.927 88.8534 126.927 88.8534 126.927 88.8331C126.927 88.8331 126.927 88.7926 126.927 88.7724L123.424 73.6254C123.262 72.9369 122.594 72.5116 121.905 72.6736C121.217 72.8356 120.791 73.5039 120.953 74.1924L124.457 89.3799C124.943 91.5264 126.866 92.9844 128.972 92.9844C129.317 92.9844 129.661 92.9439 130.005 92.8629C131.22 92.5794 132.233 91.8504 132.901 90.7974C133.549 89.7444 133.772 88.5091 133.488 87.2941L133.731 87.3144Z" fill="#333236"/>
<path d="M85.1919 70.7091V66.0111C85.1919 65.3023 84.6249 64.7354 83.9161 64.7354C83.2074 64.7354 82.6404 65.3023 82.6404 66.0111V70.7091C82.6404 71.4179 83.2074 71.9849 83.9161 71.9849C84.6249 71.9849 85.1919 71.4179 85.1919 70.7091Z" fill="#333236"/>
<path d="M82.8024 101.145C82.0936 101.145 81.5266 101.712 81.5266 102.42V103.635C81.5266 103.635 81.5266 103.676 81.5266 103.696C81.5266 104.405 82.0936 104.972 82.8024 104.972C83.5111 104.972 84.0781 104.405 84.0781 103.696V102.481C84.0781 102.481 84.0781 102.441 84.0781 102.42C84.0781 101.712 83.5111 101.145 82.8024 101.145Z" fill="#333236"/>
<path d="M67.2096 82.3322C67.7766 82.9195 68.2019 83.6282 68.4449 84.418H70.9559C71.3811 84.418 71.7254 84.7622 71.7254 85.1875C71.7254 85.6127 71.3811 85.957 70.9559 85.957H68.6474C68.6069 88.7312 66.3389 90.9587 63.5646 90.9587H61.6814L66.0554 96.406C66.3186 96.73 66.2579 97.216 65.9339 97.4995C65.6301 97.7425 65.1441 97.7425 64.8404 97.378L59.4741 90.6752C59.2919 90.4525 59.2514 90.1285 59.3729 89.8652C59.4944 89.602 59.7779 89.4197 60.0614 89.4197H63.5444C65.4681 89.4197 67.0476 87.8807 67.0881 85.9772H59.8994C59.4741 85.9772 59.1299 85.633 59.1299 85.2077C59.1299 84.7825 59.4741 84.4382 59.8994 84.4382H66.7641C66.2174 83.203 64.9619 82.3525 63.5241 82.3525H59.8791C59.4539 82.3525 59.1096 82.0082 59.1096 81.583C59.1096 81.1577 59.4539 80.8135 59.8791 80.8135H70.9154C71.3406 80.8135 71.6849 81.1577 71.6849 81.583C71.6849 82.0082 71.3406 82.3525 70.9154 82.3525H67.1691L67.2096 82.3322Z" fill="white"/>
</svg>
