<svg width="162" height="163" viewBox="0 0 162 163" fill="none" xmlns="http://www.w3.org/2000/svg">
<path d="M79.36 32.335C60.5275 32.335 45.2185 47.6035 45.2185 66.4765C45.2185 85.3495 60.487 100.618 79.36 100.618C98.233 100.618 113.502 85.3495 113.502 66.4765C113.502 47.6035 98.233 32.335 79.36 32.335ZM79.36 93.9355C64.1725 93.9355 51.8808 81.6437 51.8808 66.4562C51.8808 51.2687 64.1725 38.977 79.36 38.977C94.5475 38.977 106.839 51.2687 106.839 66.4562C106.839 81.6437 94.5475 93.9355 79.36 93.9355Z" fill="#11A452"/>
<path d="M69.8829 99.4441V115.685H65.0634C63.6257 115.685 62.9169 117.406 63.9294 118.418L78.2259 132.715C78.8739 133.363 79.8864 133.363 80.4939 132.715L94.7904 118.418C95.8029 117.406 95.0739 115.685 93.6564 115.685H88.8369V98.7354C88.8369 98.7354 83.3289 102.542 69.8829 99.4441Z" fill="#11A452"/>
<path d="M79.36 100.618C98.2158 100.618 113.502 85.3323 113.502 66.4765C113.502 47.6206 98.2158 32.335 79.36 32.335C60.5042 32.335 45.2185 47.6206 45.2185 66.4765C45.2185 85.3323 60.5042 100.618 79.36 100.618Z" stroke="#333236" stroke-width="1.782" stroke-miterlimit="10"/>
<path d="M79.3601 93.9561C94.5365 93.9561 106.839 81.6532 106.839 66.4768C106.839 51.3004 94.5365 38.9976 79.3601 38.9976C64.1837 38.9976 51.8809 51.3004 51.8809 66.4768C51.8809 81.6532 64.1837 93.9561 79.3601 93.9561Z" stroke="#333236" stroke-width="1.782" stroke-miterlimit="10"/>
<path d="M69.8829 99.4441V115.685H65.0634C63.6257 115.685 62.9169 117.406 63.9294 118.418L78.2259 132.715C78.8739 133.363 79.8864 133.363 80.4939 132.715L94.7904 118.418C95.8029 117.406 95.0739 115.685 93.6564 115.685H88.8369V98.7354" stroke="#333236" stroke-width="1.782" stroke-miterlimit="10"/>
<path d="M86.6905 59.4505H81.0407C82.033 60.2403 82.7417 61.3743 82.9645 62.9538H86.6905V64.6548H83.005C82.6405 68.158 79.8865 70.3855 75.5125 70.5273C78.1855 73.3015 81.1015 76.7845 83.977 80.308H80.6965C78.0235 77.0883 75.5125 74.1115 72.313 70.6893V68.563H74.1962C77.8817 68.563 79.8662 67.024 80.1295 64.6548H72.3332V62.9538H80.0485C79.5827 60.9693 77.7602 59.977 74.7835 59.977H72.3535V57.7495H86.7715V59.4505H86.731H86.6905Z" fill="#333236"/>
<path d="M122.108 39.8069H125.307V43.0064C125.307 43.5937 125.773 44.0797 126.381 44.0797C126.988 44.0797 127.454 43.6139 127.454 43.0064V39.8069H130.653C131.241 39.8069 131.727 39.3412 131.727 38.7337C131.727 38.1262 131.261 37.6604 130.653 37.6604H127.454V34.4609C127.454 33.8737 126.988 33.3877 126.381 33.3877C125.773 33.3877 125.307 33.8534 125.307 34.4609V37.6604H122.108C121.521 37.6604 121.035 38.1262 121.035 38.7337C121.035 39.3412 121.5 39.8069 122.108 39.8069Z" fill="#333236"/>
<path d="M110.382 28.0831H113.582V31.2826C113.582 31.8698 114.048 32.3558 114.655 32.3558C115.263 32.3558 115.728 31.8901 115.728 31.2826V28.0831H118.928C119.515 28.0831 120.001 27.6173 120.001 27.0098C120.001 26.4023 119.535 25.9366 118.928 25.9366H115.728V22.7168C115.728 22.1296 115.263 21.6436 114.655 21.6436C114.048 21.6436 113.582 22.1093 113.582 22.7168V25.9163H110.382C109.795 25.9163 109.309 26.3821 109.309 26.9896C109.309 27.5971 109.775 28.0628 110.382 28.0628V28.0831Z" fill="#333236"/>
</svg>
