<svg width="200" height="272" viewBox="0 0 200 272" fill="none" xmlns="http://www.w3.org/2000/svg">
<g clip-path="url(#clip0_4028_220)">
<path opacity="0.19" d="M192 0H8C3.58172 0 0 3.58172 0 8V264C0 268.418 3.58172 272 8 272H192C196.418 272 200 268.418 200 264V8C200 3.58172 196.418 0 192 0Z" fill="#11A452"/>
<path d="M178.08 117.24V119.04C178.08 121.76 175.87 123.95 173.16 123.95H28.5599C25.8399 123.95 23.6399 121.74 23.6399 119.04V117.24H178.09H178.08Z" fill="white"/>
<path d="M173.16 124.1H28.56C25.77 124.1 23.49 121.84 23.49 119.04V117.24C23.49 117.15 23.55 117.09 23.64 117.09C23.73 117.09 23.79 117.15 23.79 117.24V119.04C23.79 121.67 25.92 123.8 28.56 123.8H173.17C175.8 123.8 177.94 121.67 177.94 119.04V117.24C177.94 117.15 178 117.09 178.09 117.09C178.18 117.09 178.24 117.15 178.24 117.24V119.04C178.24 121.83 175.96 124.1 173.17 124.1H173.16Z" fill="black"/>
<path d="M178.08 117.24H23.6499V30.8499C23.6499 27.6999 26.1999 25.1499 29.3499 25.1499H172.38C175.53 25.1499 178.08 27.6999 178.08 30.8499V117.24Z" fill="white"/>
<path d="M178.08 117.39H23.65C23.56 117.39 23.5 117.33 23.5 117.24V30.85C23.5 27.62 26.13 25 29.35 25H172.38C175.61 25 178.23 27.63 178.23 30.85V117.23C178.23 117.3 178.16 117.38 178.08 117.38V117.39ZM23.8 117.09H177.93V30.85C177.93 27.79 175.44 25.3 172.38 25.3H29.35C26.29 25.3 23.8 27.79 23.8 30.85V117.08V117.09Z" fill="black"/>
<path d="M172.8 112.11H154.66C154.57 112.11 154.51 112.05 154.51 111.96C154.51 111.87 154.57 111.81 154.66 111.81H172.65V30.99C172.65 30.76 172.46 30.57 172.23 30.57H29.49C29.26 30.57 29.07 30.77 29.07 30.99V111.81H54.77C54.86 111.81 54.92 111.87 54.92 111.96C54.92 112.05 54.86 112.11 54.77 112.11H28.92C28.83 112.11 28.77 112.05 28.77 111.96V30.99C28.77 30.6 29.1 30.27 29.49 30.27H172.23C172.62 30.27 172.95 30.6 172.95 30.99V111.96C172.95 112.05 172.89 112.11 172.8 112.11Z" fill="black"/>
<path d="M124.22 138.87H77.5099C74.8399 138.87 72.6799 136.71 72.6799 134.04V123.96H129.05V134.03C129.05 136.7 126.89 138.88 124.22 138.88V138.87Z" fill="white"/>
<path d="M124.22 139.02H77.51C74.76 139.02 72.53 136.78 72.53 134.04V123.96C72.53 123.87 72.59 123.81 72.68 123.81H129.05C129.14 123.81 129.2 123.87 129.2 123.96V134.03C129.2 136.79 126.96 139.03 124.22 139.03V139.02ZM72.82 124.1V134.03C72.82 136.61 74.92 138.71 77.5 138.71H124.21C126.79 138.71 128.89 136.61 128.89 134.03V124.1H72.82Z" fill="black"/>
<path d="M126.95 127.61H74.7799C74.6899 127.61 74.6299 127.55 74.6299 127.46C74.6299 127.37 74.6899 127.31 74.7799 127.31H126.95C127.04 127.31 127.1 127.37 127.1 127.46C127.1 127.55 127.04 127.61 126.95 127.61Z" fill="black"/>
<path d="M81.96 47.2199H67.64C67.55 47.2199 67.49 47.1599 67.49 47.0699C67.49 46.9799 67.55 46.9199 67.64 46.9199H81.96C82.05 46.9199 82.11 46.9799 82.11 47.0699C82.11 47.1499 82.05 47.2199 81.96 47.2199Z" fill="black"/>
<path d="M98.27 50.57H67.64C67.55 50.57 67.49 50.51 67.49 50.42C67.49 50.33 67.55 50.27 67.64 50.27H98.27C98.36 50.27 98.42 50.33 98.42 50.42C98.42 50.51 98.36 50.57 98.27 50.57Z" fill="black"/>
<path d="M85.79 53.9299H67.65C67.56 53.9299 67.5 53.8699 67.5 53.7799C67.5 53.6899 67.56 53.6299 67.65 53.6299H85.79C85.88 53.6299 85.94 53.6899 85.94 53.7799C85.94 53.8599 85.88 53.9299 85.79 53.9299Z" fill="black"/>
<path d="M85.7899 41.04H67.6499V44.6H85.7899V41.04Z" fill="#D2EEDE"/>
<path d="M63.81 41.04H45.74V59.11H63.81V41.04Z" fill="#D2EEDE"/>
<path d="M42.0701 53.3802H36.4601C36.3701 53.3802 36.3101 53.3202 36.3101 53.2302V47.6202C36.3101 47.5302 36.3701 47.4702 36.4601 47.4702H41.7401C41.8301 47.4702 41.8901 47.5302 41.8901 47.6202C41.8901 47.7102 41.8301 47.7702 41.7401 47.7702H36.6101V53.0802H41.9201V49.1302C41.9201 49.0402 41.9801 48.9802 42.0701 48.9802C42.1601 48.9802 42.2201 49.0402 42.2201 49.1302V53.2302C42.2201 53.3002 42.1601 53.3802 42.0701 53.3802Z" fill="#11A452"/>
<path d="M39.26 52.4198C39.26 52.4198 39.17 52.3898 39.14 52.3598L36.95 49.2798C36.9 49.2198 36.92 49.1098 36.98 49.0698C37.04 49.0198 37.15 49.0398 37.19 49.0998L39.26 52.0098L42.97 46.8498C43.02 46.7898 43.11 46.7598 43.18 46.8198C43.24 46.8698 43.27 46.9598 43.21 47.0298L39.38 52.3598C39.38 52.3598 39.31 52.4198 39.26 52.4198Z" fill="#EE7120"/>
<path d="M90.79 93.2302H67.64C67.55 93.2302 67.49 93.1702 67.49 93.0802C67.49 92.9902 67.55 92.9302 67.64 92.9302H90.79C90.88 92.9302 90.94 92.9902 90.94 93.0802C90.94 93.1702 90.88 93.2302 90.79 93.2302Z" fill="black"/>
<path d="M94.79 96.59H67.63C67.54 96.59 67.48 96.53 67.48 96.44C67.48 96.35 67.54 96.29 67.63 96.29H94.79C94.88 96.29 94.94 96.35 94.94 96.44C94.94 96.52 94.88 96.59 94.79 96.59Z" fill="black"/>
<path d="M90.79 99.9401H67.64C67.55 99.9401 67.49 99.8801 67.49 99.7901C67.49 99.7001 67.55 99.6401 67.64 99.6401H90.79C90.88 99.6401 90.94 99.7001 90.94 99.7901C90.94 99.8801 90.88 99.9401 90.79 99.9401Z" fill="black"/>
<path d="M85.7899 87.0601H67.6299V90.6201H85.7899V87.0601Z" fill="#D2EEDE"/>
<path d="M63.81 87.0601H45.74V105.13H63.81V87.0601Z" fill="#D2EEDE"/>
<path d="M42.0701 99.4002H36.4601C36.3701 99.4002 36.3101 99.3402 36.3101 99.2502V93.6402C36.3101 93.5502 36.3701 93.4902 36.4601 93.4902H42.0701C42.0701 93.4902 42.1501 93.5002 42.1701 93.5402C42.2001 93.5702 42.2201 93.6002 42.2201 93.6402V99.2502C42.2201 99.3302 42.1601 99.4002 42.0701 99.4002ZM36.6101 99.1002H41.9201V93.7902H36.6201V99.1002H36.6101Z" fill="#11A452"/>
<path d="M90.79 70.84H67.64C67.55 70.84 67.49 70.78 67.49 70.69C67.49 70.6 67.55 70.54 67.64 70.54H90.79C90.88 70.54 90.94 70.6 90.94 70.69C90.94 70.77 90.88 70.84 90.79 70.84Z" fill="black"/>
<path d="M98.28 74.1901H67.64C67.55 74.1901 67.49 74.1301 67.49 74.0401C67.49 73.9501 67.55 73.8901 67.64 73.8901H98.28C98.37 73.8901 98.43 73.9501 98.43 74.0401C98.43 74.1301 98.37 74.1901 98.28 74.1901Z" fill="black"/>
<path d="M85.79 77.55H67.63C67.54 77.55 67.48 77.49 67.48 77.4C67.48 77.31 67.54 77.25 67.63 77.25H85.79C85.88 77.25 85.94 77.31 85.94 77.4C85.94 77.47 85.88 77.55 85.79 77.55Z" fill="black"/>
<path d="M85.7899 64.6602H67.6299V68.2202H85.7899V64.6602Z" fill="#D2EEDE"/>
<path d="M63.81 64.6602H45.74V82.7302H63.81V64.6602Z" fill="#D2EEDE"/>
<path d="M42.0701 76.9998H36.4601C36.3701 76.9998 36.3101 76.9398 36.3101 76.8498V71.2398C36.3101 71.1498 36.3701 71.0898 36.4601 71.0898H42.0701C42.0701 71.0898 42.1501 71.0998 42.1701 71.1398C42.2001 71.1698 42.2201 71.1998 42.2201 71.2398V76.8498C42.2201 76.9398 42.1601 76.9998 42.0701 76.9998ZM36.6101 76.6998H41.9201V71.3898H36.6201V76.6998H36.6101Z" fill="#11A452"/>
<path d="M41.3901 83.1598L39.1101 74.0698L47.0801 78.8398L43.3601 80.0598L41.3901 83.1698V83.1598Z" fill="#11A452"/>
<path d="M160.01 61.1499H149.01C148.46 61.1499 148 61.5999 148 62.1599V65.1799C148 65.7399 148.45 66.1899 149.01 66.1899H160.01C160.56 66.1899 161.01 65.7399 161.01 65.1799V62.1599C161.01 61.5999 160.56 61.1499 160.01 61.1499Z" fill="white"/>
<path d="M160 66.32H149C148.35 66.32 147.85 65.79 147.85 65.16V62.14C147.85 61.49 148.37 60.98 149 60.98H160C160.65 60.98 161.15 61.51 161.15 62.14V65.16C161.15 65.79 160.64 66.32 160 66.32ZM148.99 61.3C148.51 61.3 148.13 61.69 148.13 62.16V65.18C148.13 65.66 148.52 66.04 148.99 66.04H159.99C160.47 66.04 160.84 65.65 160.84 65.18V62.16C160.84 61.68 160.45 61.3 159.99 61.3H148.99Z" fill="black"/>
<path d="M165.08 39.54H125.56V44.12H165.08V39.54Z" fill="#D2EEDE"/>
<path d="M165.06 55.6901H125.94C125.85 55.6901 125.79 55.6301 125.79 55.5401C125.79 55.4501 125.85 55.3901 125.94 55.3901H165.06C165.15 55.3901 165.21 55.4501 165.21 55.5401C165.21 55.6101 165.15 55.6901 165.06 55.6901Z" fill="black"/>
<path d="M138.51 51.5598H125.94C125.85 51.5598 125.79 51.4998 125.79 51.4098C125.79 51.3198 125.85 51.2598 125.94 51.2598H138.51C138.6 51.2598 138.66 51.3198 138.66 51.4098C138.66 51.4898 138.6 51.5598 138.51 51.5598Z" fill="black"/>
<path d="M154.04 51.5598H141.92C141.83 51.5598 141.77 51.4998 141.77 51.4098C141.77 51.3198 141.83 51.2598 141.92 51.2598H154.04C154.13 51.2598 154.19 51.3198 154.19 51.4098C154.19 51.4898 154.13 51.5598 154.04 51.5598Z" fill="black"/>
<path d="M159.89 87.8101H152.24C151.67 87.8101 151.2 87.3401 151.2 86.7701V79.1201C151.2 78.5501 151.66 78.0801 152.24 78.0801H159.89C160.46 78.0801 160.93 78.5501 160.93 79.1201V86.7701C160.93 87.3401 160.46 87.8101 159.89 87.8101Z" fill="white"/>
<path d="M159.89 87.9602H152.24C151.6 87.9602 151.06 87.4302 151.06 86.7702V79.1202C151.06 78.4702 151.59 77.9302 152.24 77.9302H159.89C160.54 77.9302 161.08 78.4602 161.08 79.1202V86.7702C161.08 87.4302 160.54 87.9602 159.89 87.9602ZM152.23 78.2502C151.75 78.2502 151.35 78.6402 151.35 79.1402V86.7902C151.35 87.2702 151.74 87.6802 152.23 87.6802H159.88C160.36 87.6802 160.77 87.2902 160.77 86.7902V79.1402C160.77 78.6602 160.38 78.2502 159.88 78.2502H152.23Z" fill="black"/>
<mask id="mask0_4028_220" style="mask-type:luminance" maskUnits="userSpaceOnUse" x="153" y="79" width="7" height="7">
<path d="M159.28 79.5698H153.28V85.5698H159.28V79.5698Z" fill="white"/>
</mask>
<g mask="url(#mask0_4028_220)">
<path d="M158.15 81.4496C158.15 81.4496 158.13 81.5496 158.1 81.5796C158.06 81.6196 158.02 81.6296 157.97 81.6296H157.22C157.22 81.6296 157.22 81.6896 157.22 81.7196C157.22 82.0896 157.07 82.4496 156.81 82.7096C156.55 82.9696 156.19 83.1196 155.82 83.1196H155.46L157.16 84.6696C157.16 84.6696 157.19 84.7096 157.2 84.7296C157.21 84.7496 157.22 84.7796 157.22 84.7996C157.22 84.8196 157.22 84.8496 157.21 84.8696C157.21 84.8896 157.19 84.9096 157.17 84.9296C157.15 84.9496 157.13 84.9596 157.11 84.9696C157.09 84.9796 157.06 84.9896 157.04 84.9896C157.02 84.9896 156.99 84.9896 156.97 84.9796C156.95 84.9796 156.93 84.9596 156.91 84.9396L154.85 83.0596C154.85 83.0596 154.8 82.9996 154.79 82.9596C154.79 82.9196 154.79 82.8796 154.79 82.8496C154.8 82.8096 154.83 82.7796 154.86 82.7596C154.89 82.7396 154.93 82.7296 154.97 82.7296H155.81C156.08 82.7296 156.35 82.6196 156.54 82.4296C156.73 82.2396 156.84 81.9696 156.84 81.6996C156.84 81.6696 156.84 81.6396 156.84 81.6096H154.97C154.97 81.6096 154.87 81.5896 154.84 81.5596C154.81 81.5196 154.79 81.4796 154.79 81.4296C154.79 81.3796 154.81 81.3296 154.84 81.2996C154.88 81.2596 154.92 81.2496 154.97 81.2496H156.73C156.64 81.0796 156.51 80.9396 156.35 80.8396C156.19 80.7396 156 80.6896 155.81 80.6896H154.97C154.97 80.6896 154.87 80.6696 154.84 80.6396C154.81 80.5996 154.79 80.5596 154.79 80.5096C154.79 80.4596 154.81 80.4096 154.84 80.3796C154.88 80.3396 154.92 80.3296 154.97 80.3296H157.97C158.02 80.3296 158.07 80.3496 158.1 80.3796C158.13 80.4196 158.15 80.4596 158.15 80.5096C158.15 80.5596 158.13 80.6096 158.1 80.6396C158.06 80.6796 158.02 80.6896 157.97 80.6896H156.77C156.94 80.8396 157.06 81.0396 157.14 81.2496H157.97C158.02 81.2496 158.07 81.2696 158.1 81.2996C158.13 81.3396 158.15 81.3796 158.15 81.4296V81.4496Z" fill="black"/>
</g>
<mask id="mask1_4028_220" style="mask-type:luminance" maskUnits="userSpaceOnUse" x="161" y="61" width="5" height="5">
<path d="M165.28 61.5698H161.28V65.5698H165.28V61.5698Z" fill="white"/>
</mask>
<g mask="url(#mask1_4028_220)">
<path d="M164.53 62.8201C164.53 62.8201 164.52 62.8801 164.49 62.9101C164.47 62.9301 164.44 62.9501 164.4 62.9501H163.9C163.9 62.9501 163.9 62.9901 163.9 63.0101C163.9 63.2601 163.8 63.5001 163.63 63.6701C163.45 63.8501 163.22 63.9401 162.97 63.9401H162.73L163.87 64.9701C163.87 64.9701 163.89 64.9901 163.9 65.0101C163.9 65.0201 163.91 65.0401 163.91 65.0601C163.91 65.0801 163.91 65.0901 163.91 65.1101C163.91 65.1301 163.9 65.1401 163.88 65.1501C163.87 65.1601 163.86 65.1701 163.84 65.1801C163.83 65.1801 163.81 65.1901 163.79 65.1901C163.77 65.1901 163.76 65.1901 163.74 65.1901C163.72 65.1901 163.71 65.1801 163.7 65.1601L162.32 63.9101C162.32 63.9101 162.29 63.8701 162.28 63.8501C162.28 63.8301 162.28 63.8001 162.28 63.7801C162.28 63.7601 162.31 63.7401 162.33 63.7201C162.35 63.7101 162.38 63.7001 162.4 63.7001H162.96C163.14 63.7001 163.32 63.6301 163.45 63.5001C163.58 63.3701 163.65 63.2001 163.65 63.0101C163.65 62.9901 163.65 62.9701 163.65 62.9501H162.4C162.4 62.9501 162.33 62.9401 162.31 62.9101C162.29 62.8901 162.27 62.8501 162.27 62.8201C162.27 62.7901 162.28 62.7601 162.31 62.7301C162.33 62.7101 162.37 62.6901 162.4 62.6901H163.57C163.51 62.5801 163.43 62.4801 163.32 62.4201C163.21 62.3601 163.09 62.3201 162.96 62.3201H162.4C162.4 62.3201 162.33 62.3101 162.31 62.2801C162.29 62.2601 162.27 62.2201 162.27 62.1901C162.27 62.1601 162.28 62.1301 162.31 62.1001C162.33 62.0801 162.37 62.0601 162.4 62.0601H164.4C164.4 62.0601 164.47 62.0701 164.49 62.1001C164.51 62.1201 164.53 62.1601 164.53 62.1901C164.53 62.2201 164.52 62.2501 164.49 62.2801C164.47 62.3001 164.44 62.3201 164.4 62.3201H163.6C163.71 62.4201 163.8 62.5501 163.85 62.7001H164.4C164.4 62.7001 164.47 62.7101 164.49 62.7401C164.51 62.7601 164.53 62.8001 164.53 62.8301V62.8201Z" fill="black"/>
</g>
<path d="M143.95 87.8099H131.23C130.6 87.8099 130.11 87.2999 130.11 86.6799V79.2399C130.11 78.6099 130.62 78.1099 131.23 78.1099H143.95C144.58 78.1099 145.08 78.6199 145.08 79.2399V86.6799C145.08 87.2999 144.58 87.8099 143.95 87.8099Z" fill="white"/>
<path d="M143.95 87.96H131.22C130.51 87.96 129.95 87.39 129.95 86.68V79.24C129.95 78.53 130.52 77.96 131.22 77.96H143.95C144.66 77.96 145.22 78.53 145.22 79.24V86.68C145.22 87.39 144.65 87.96 143.95 87.96ZM131.22 78.26C130.68 78.26 130.24 78.7 130.24 79.24V86.68C130.24 87.22 130.68 87.66 131.22 87.66H143.95C144.49 87.66 144.92 87.22 144.92 86.68V79.24C144.92 78.7 144.49 78.26 143.95 78.26H131.22Z" fill="black"/>
<path d="M143.21 81.21H141.18C140.83 81.21 140.55 81.51 140.55 81.89V82.96C140.55 83.34 140.83 83.64 141.18 83.64H143.21C143.56 83.64 143.84 83.34 143.84 82.96V81.89C143.84 81.51 143.55 81.21 143.21 81.21Z" fill="white"/>
<path d="M143.21 83.7798H141.18C140.75 83.7798 140.4 83.3998 140.4 82.9498V81.8798C140.4 81.4098 140.75 81.0498 141.18 81.0498H143.21C143.64 81.0498 143.99 81.4298 143.99 81.8798V82.9498C143.99 83.4198 143.63 83.7798 143.21 83.7798ZM141.19 81.3598C140.92 81.3598 140.71 81.5998 140.71 81.8898V82.9598C140.71 83.2598 140.92 83.4898 141.19 83.4898H143.22C143.49 83.4898 143.7 83.2498 143.7 82.9598V81.8898C143.7 81.5898 143.49 81.3598 143.22 81.3598H141.19Z" fill="black"/>
<path d="M133.91 85.0498H131V86.0098H133.91V85.0498Z" fill="#E2EAFF"/>
<path d="M137.33 85.0498H134.42V86.0098H137.33V85.0498Z" fill="#E2EAFF"/>
<path d="M140.75 85.0498H137.84V86.0098H140.75V85.0498Z" fill="#E2EAFF"/>
<path d="M144.16 85.0498H141.25V86.0098H144.16V85.0498Z" fill="#E2EAFF"/>
<path d="M137.34 76.1098C138.75 76.1098 139.89 74.9698 139.89 73.5598C139.89 72.1498 138.75 71.0098 137.34 71.0098C135.93 71.0098 134.79 72.1498 134.79 73.5598C134.79 74.9698 135.93 76.1098 137.34 76.1098Z" fill="white"/>
<path d="M137.34 76.2599C135.85 76.2599 134.64 75.0399 134.64 73.5599C134.64 72.0799 135.85 70.8599 137.34 70.8599C138.83 70.8599 140.04 72.0799 140.04 73.5599C140.04 75.0399 138.83 76.2599 137.34 76.2599ZM137.34 71.1699C136.02 71.1699 134.94 72.2499 134.94 73.5699C134.94 74.8899 136.02 75.9699 137.34 75.9699C138.66 75.9699 139.74 74.8899 139.74 73.5699C139.74 72.2499 138.66 71.1699 137.34 71.1699Z" fill="black"/>
<path d="M156.04 76.1098C157.45 76.1098 158.59 74.9698 158.59 73.5598C158.59 72.1498 157.45 71.0098 156.04 71.0098C154.63 71.0098 153.49 72.1498 153.49 73.5598C153.49 74.9698 154.63 76.1098 156.04 76.1098Z" fill="white"/>
<path d="M156.04 76.2599C154.55 76.2599 153.34 75.0399 153.34 73.5599C153.34 72.0799 154.56 70.8599 156.04 70.8599C157.52 70.8599 158.74 72.0799 158.74 73.5599C158.74 75.0399 157.52 76.2599 156.04 76.2599ZM156.04 71.1699C154.72 71.1699 153.64 72.2499 153.64 73.5699C153.64 74.8899 154.72 75.9699 156.04 75.9699C157.36 75.9699 158.44 74.8899 158.44 73.5699C158.44 72.2499 157.36 71.1699 156.04 71.1699Z" fill="black"/>
<path d="M159.52 93.6401H131.73C130.97 93.6401 130.35 94.2601 130.35 95.0201V98.5201C130.35 99.2901 130.96 99.9001 131.73 99.9001H159.52C160.28 99.9001 160.9 99.2801 160.9 98.5201V95.0201C160.91 94.2501 160.28 93.6401 159.52 93.6401Z" fill="#D2EEDE"/>
<path d="M145.07 61.3701H125.94V65.9501H145.07V61.3701Z" fill="#D2EEDE"/>
<path d="M34 192H12V267H34V192Z" fill="white"/>
<path d="M145.85 271H12.16C12.07 271 12 270.94 12 270.84V192.15C12 192.06 12.06 191.99 12.16 191.99H35.15C35.24 191.99 35.31 192.05 35.31 192.15C35.31 192.25 35.25 192.31 35.15 192.31H12.31V270.68H145.84C145.93 270.68 145.99 270.74 145.99 270.84C145.99 270.92 145.91 271 145.84 271H145.85Z" fill="black"/>
<path d="M31.62 173.75C31.96 173.37 32.31 172.97 32.46 172.48C32.61 171.99 32.49 171.39 32.07 171.1C31.77 170.89 31.37 170.89 31.08 170.67C30.69 170.37 30.63 169.77 30.82 169.3C31.01 168.84 31.37 168.48 31.7 168.12C32.61 167.14 33.42 166.01 33.78 164.72C34.14 163.43 34.02 161.95 33.21 160.87C32.42 159.79 30.87 159.23 29.64 159.77C28.73 160.17 28.13 161.04 27.59 161.87C26.21 163.95 24.83 166.07 23.78 168.33C22.73 170.59 22.03 173.08 22.1 175.59C22.13 176.51 22.25 177.43 22.7 178.23C23.13 179.02 23.93 179.69 24.83 179.76C26.3 179.89 26.85 178.35 27.8 177.52C29.13 176.34 30.41 175.08 31.61 173.76L31.62 173.75Z" fill="white"/>
<path d="M25.0001 179.9C24.9401 179.9 24.8801 179.9 24.8101 179.89C23.9301 179.82 23.0601 179.2 22.5601 178.29C22.1701 177.59 21.9801 176.72 21.9501 175.58C21.8901 173.3 22.4601 170.84 23.6401 168.26C24.6901 165.97 26.1001 163.84 27.4601 161.77C27.9701 161.01 28.6001 160.04 29.5701 159.61C30.8301 159.07 32.4301 159.55 33.3201 160.75C34.1001 161.8 34.3101 163.28 33.9001 164.74C33.5701 165.9 32.8801 167.04 31.7701 168.2L31.6601 168.3C31.3601 168.62 31.0601 168.95 30.9001 169.34C30.7501 169.73 30.7601 170.26 31.1101 170.52C31.2401 170.63 31.4101 170.67 31.5701 170.73C31.7501 170.79 31.9301 170.85 32.0801 170.96C32.6001 171.3 32.6801 172.01 32.5301 172.52C32.3801 173.03 32.0401 173.45 31.6601 173.85C30.4601 175.18 29.1701 176.46 27.8201 177.63C27.5501 177.87 27.3301 178.15 27.0701 178.47C26.5601 179.19 25.9801 179.91 24.9901 179.91L25.0001 179.9ZM30.6701 159.68C30.3401 159.68 30.0101 159.74 29.7101 159.87C28.8101 160.26 28.2101 161.18 27.7201 161.91C26.3701 163.96 24.9601 166.09 23.9301 168.36C22.7601 170.89 22.2101 173.31 22.2701 175.54C22.3001 176.64 22.4801 177.44 22.8401 178.12C23.2901 178.94 24.0701 179.5 24.8501 179.57C25.7901 179.66 26.3501 178.97 26.9201 178.25C27.1601 177.93 27.4101 177.62 27.7001 177.37C29.0301 176.2 30.3101 174.94 31.5101 173.62C31.8501 173.23 32.1801 172.86 32.3201 172.41C32.4401 171.99 32.3701 171.45 31.9901 171.2C31.8701 171.11 31.7101 171.07 31.5601 171.02C31.3701 170.96 31.1701 170.9 31.0101 170.76C30.5501 170.4 30.5001 169.72 30.6901 169.23C30.8701 168.8 31.2001 168.44 31.5101 168.11L31.6101 168.01C32.6701 166.87 33.3501 165.78 33.6601 164.67C34.0501 163.31 33.8401 161.91 33.1201 160.94C32.5201 160.16 31.5801 159.7 30.6801 159.7L30.6701 159.68Z" fill="black"/>
<path d="M15.5399 174.95C14.3599 173.13 14.2499 170.47 15.8099 168.97C16.4499 168.36 17.3999 167.79 17.2899 166.9C17.2499 166.55 17.0399 166.25 16.8099 166C15.9999 165.07 14.9099 164.43 14.0199 163.57C13.1199 162.72 12.3999 161.49 12.6899 160.29C12.9299 159.25 13.8699 158.47 14.9199 158.25C15.9499 158.02 17.0599 158.26 18.0199 158.71C20.9099 160.06 22.7299 163.13 23.3299 166.27C23.9299 169.4 23.5199 172.64 23.0499 175.81C22.9499 176.51 22.8199 177.25 22.4099 177.85C20.7599 180.25 16.5499 176.5 15.5399 174.96V174.95Z" fill="white"/>
<path d="M20.9201 178.77H20.8901C18.9101 178.74 16.2401 176.28 15.4201 175.02C14.2701 173.25 14.0601 170.45 15.7201 168.86C15.8501 168.74 16.0001 168.6 16.1401 168.48C16.6801 168.02 17.2301 167.53 17.1601 166.92C17.1101 166.6 16.9101 166.3 16.7101 166.1C16.2501 165.57 15.6801 165.12 15.1201 164.69C14.7201 164.37 14.3001 164.05 13.9201 163.69C13.3801 163.18 12.1801 161.83 12.5401 160.27C12.7801 159.24 13.7101 158.37 14.8801 158.11C16.0901 157.84 17.2901 158.22 18.0701 158.59C20.7501 159.85 22.7801 162.71 23.4701 166.25C24.0801 169.4 23.6801 172.58 23.1901 175.85C23.0801 176.49 22.9601 177.3 22.5301 177.95C22.1401 178.49 21.6001 178.77 20.9301 178.77H20.9201ZM15.6601 174.86C16.4801 176.12 19.0901 178.46 20.8901 178.48C21.4901 178.49 21.9401 178.24 22.2801 177.76C22.6801 177.17 22.7901 176.44 22.8901 175.78C23.3801 172.54 23.7701 169.39 23.1701 166.29C22.5001 162.84 20.5501 160.05 17.9401 158.84C17.1901 158.49 16.0701 158.13 14.9301 158.39C13.8701 158.63 13.0301 159.39 12.8201 160.32C12.5101 161.73 13.6101 162.99 14.1101 163.47C14.4901 163.83 14.8901 164.15 15.2901 164.46C15.8601 164.89 16.4301 165.36 16.9101 165.92C17.1201 166.16 17.3701 166.51 17.4201 166.9C17.5101 167.68 16.8701 168.23 16.3001 168.73C16.1501 168.85 16.0201 168.97 15.9001 169.09C14.3701 170.59 14.5801 173.21 15.6601 174.88V174.86Z" fill="black"/>
<path d="M19.9299 176.75C19.9299 176.75 19.8599 176.74 19.8299 176.71C18.2399 175.25 18.2599 172.79 18.4199 171.46C18.4999 170.86 18.5999 170.26 18.6999 169.68C18.9099 168.48 19.1299 167.25 19.0299 166.04C18.8799 164.29 17.7999 162.4 16.0199 162.17C15.9499 162.16 15.8899 162.08 15.8899 162C15.8999 161.93 15.9799 161.87 16.0499 161.87C17.9799 162.12 19.1499 164.15 19.3199 166.01C19.4199 167.27 19.1999 168.51 18.9899 169.73C18.8899 170.3 18.7799 170.9 18.7199 171.48C18.5699 172.76 18.5399 175.11 20.0399 176.47C20.0999 176.53 20.0999 176.62 20.0499 176.68C20.0199 176.74 19.9699 176.75 19.9299 176.75Z" fill="black"/>
<path d="M20.74 170.01C21.19 168.96 21.88 167.96 21.88 166.82C21.88 165.17 20.49 163.91 19.5 162.59C17.73 160.2 17.16 156.88 18.39 154.18C19.62 151.48 22.75 149.67 25.65 150.31C26.7 150.54 27.73 151.12 28.23 152.07C28.8 153.17 28.55 154.5 28.18 155.68C27.81 156.86 27.33 158.06 27.48 159.29C27.73 161.47 29.86 163.03 30.31 165.17C30.77 167.41 29.32 169.55 27.79 171.24C26.94 172.2 26.04 173.13 25.33 174.21C24.54 175.45 24.43 176.56 24.16 177.96C23.86 179.44 22.87 179.62 21.9 178.55C20.97 177.54 20.46 176.1 20.22 174.77C19.94 173.18 20.1 171.5 20.74 170.02V170.01Z" fill="white"/>
<path d="M23.08 179.37C22.66 179.37 22.21 179.11 21.78 178.63C20.66 177.4 20.22 175.69 20.07 174.78C19.79 173.12 19.98 171.4 20.62 169.94C20.74 169.68 20.86 169.41 21 169.16C21.37 168.41 21.76 167.62 21.76 166.79C21.76 165.55 20.91 164.51 20.08 163.51C19.85 163.22 19.61 162.94 19.41 162.66C17.52 160.11 17.07 156.75 18.29 154.1C19.58 151.25 22.85 149.51 25.71 150.14C26.95 150.41 27.93 151.08 28.39 151.97C29.02 153.17 28.7 154.59 28.36 155.69C28.3 155.85 28.26 156.04 28.2 156.2C27.87 157.19 27.54 158.23 27.66 159.24C27.8 160.35 28.41 161.28 29.07 162.25C29.65 163.13 30.27 164.05 30.49 165.1C31 167.54 29.28 169.81 27.94 171.31C27.79 171.47 27.66 171.64 27.51 171.79C26.81 172.57 26.09 173.38 25.5 174.27C24.84 175.29 24.68 176.22 24.47 177.3C24.42 177.51 24.39 177.74 24.35 177.96C24.2 178.71 23.86 179.19 23.39 179.33C23.27 179.39 23.18 179.39 23.09 179.39L23.08 179.37ZM20.89 170.07C20.28 171.48 20.1 173.14 20.37 174.75C20.52 175.62 20.94 177.27 22 178.45C22.45 178.95 22.91 179.16 23.27 179.07C23.61 178.97 23.88 178.58 24.02 177.95C24.07 177.73 24.11 177.5 24.14 177.29C24.35 176.18 24.53 175.22 25.2 174.16C25.78 173.24 26.52 172.43 27.24 171.65C27.39 171.48 27.52 171.32 27.67 171.17C28.96 169.72 30.62 167.53 30.14 165.22C29.93 164.23 29.35 163.33 28.76 162.48C28.12 161.51 27.44 160.5 27.31 159.33C27.17 158.25 27.52 157.18 27.86 156.16C27.92 156 27.96 155.81 28.02 155.65C28.35 154.6 28.65 153.25 28.08 152.16C27.66 151.35 26.75 150.73 25.61 150.48C22.87 149.88 19.76 151.54 18.52 154.27C17.37 156.83 17.79 160.07 19.61 162.53C19.82 162.81 20.06 163.1 20.28 163.37C21.13 164.42 22.02 165.5 22.02 166.85C22.02 167.75 21.62 168.56 21.23 169.34C21.11 169.55 20.98 169.82 20.87 170.07H20.89Z" fill="black"/>
<path d="M23.1301 177.98C23.1301 177.98 23.0401 177.97 23.0101 177.94C21.8301 176.58 21.9501 174.55 22.4601 173.1C22.8201 172.08 23.3701 171.14 23.9001 170.24C24.1801 169.74 24.4801 169.23 24.7501 168.71C25.6601 166.93 25.9201 165.37 25.5001 164.06C25.2301 163.2 24.6801 162.52 24.1101 161.77C23.7401 161.29 23.3501 160.79 23.0501 160.26C21.9001 158.21 22.0801 155.45 23.4701 153.54C23.5101 153.48 23.6201 153.46 23.6801 153.51C23.7401 153.55 23.7601 153.66 23.7101 153.72C22.3801 155.52 22.2101 158.14 23.3101 160.11C23.5901 160.63 23.9801 161.11 24.3401 161.6C24.9101 162.33 25.4901 163.08 25.7801 163.98C26.2301 165.36 25.9701 166.99 25.0201 168.85C24.7501 169.37 24.4501 169.89 24.1501 170.39C23.6301 171.29 23.0901 172.22 22.7301 173.21C22.2501 174.58 22.1301 176.5 23.2201 177.75C23.2801 177.81 23.2701 177.9 23.2001 177.96C23.2001 177.97 23.1701 177.99 23.1401 177.99L23.1301 177.98Z" fill="black"/>
<path d="M32.77 177.48H14.52L15.75 191.44H31.53L32.77 177.48Z" fill="#EE7120"/>
<path d="M112.5 210.21L92.6499 209.79L95.7099 189.58H110.19L112.5 210.2V210.21Z" fill="white"/>
<path d="M112.5 210.42L92.65 209.98C92.59 209.98 92.52 209.96 92.5 209.9C92.46 209.86 92.44 209.8 92.46 209.73L95.52 189.52C95.54 189.42 95.62 189.33 95.73 189.33H110.21C110.32 189.33 110.4 189.41 110.42 189.52L112.73 210.17C112.73 210.23 112.71 210.3 112.67 210.34C112.61 210.4 112.56 210.42 112.5 210.42ZM92.9 209.58L112.27 210L110 189.77H95.88L92.9 209.58Z" fill="black"/>
<path d="M119.05 184.84C119.05 183.67 118.53 182.64 117.73 182.01C118.44 181 118.88 179.72 118.88 178.36C118.88 175.07 116.45 172.38 113.45 172.38C113.26 172.38 113.07 172.4 112.88 172.42C112.31 169.59 110 167.49 107.28 167.49C105.98 167.49 104.76 167.97 103.8 168.79C103 167.13 101.43 166 99.6199 166C97.3299 166 95.4199 167.8 94.9799 170.18C94.3899 169.99 93.7599 169.89 93.1099 169.89C89.5199 169.89 86.6299 173.08 86.6299 177C86.6299 178.7 87.1799 180.25 88.0799 181.49C87.9099 182.01 87.8099 182.58 87.8099 183.15C87.8099 184.96 88.7099 186.53 90.0299 187.37C89.6299 188.04 89.3799 188.86 89.3799 189.74C89.3799 192.13 91.1399 194.06 93.2999 194.06H93.4699C93.4099 194.33 93.3699 194.61 93.3699 194.9C93.3699 196.81 94.7799 198.36 96.5199 198.36C97.1699 198.36 97.7799 198.13 98.2799 197.75C98.9099 198.63 99.8999 199.22 101.01 199.22C101.95 199.22 102.79 198.8 103.42 198.13C104.01 198.63 104.72 198.93 105.52 198.93C106.59 198.93 107.53 198.38 108.16 197.54C108.64 197.92 109.25 198.15 109.88 198.15C111.52 198.15 112.86 196.68 112.86 194.9V194.69C114.89 194.5 116.51 192.63 116.51 190.35C116.51 189.64 116.34 188.96 116.07 188.38C117.73 188.25 119.05 186.72 119.05 184.85V184.84Z" fill="black"/>
<path d="M66.7 206.47C86.61 202.09 120.31 202.13 138.33 207.04C160.4 213.08 204.32 240.15 193.24 258.19C182.9 275.04 146.09 252.78 146.09 252.78V266.25C146.09 268.83 144.01 270.91 141.43 270.91H60.99C58.41 270.91 56.33 268.83 56.33 266.25V251.35C56.33 251.35 19.51 275.63 7.84003 259.43C-6.92997 238.91 51.38 209.83 66.69 206.47H66.7Z" fill="#11A452"/>
<path d="M146.09 252.99C145.99 252.99 145.88 252.91 145.88 252.8C144.64 237.69 139.75 221.92 139.71 221.75C139.67 221.65 139.73 221.52 139.86 221.48C139.96 221.44 140.09 221.5 140.13 221.63C140.17 221.8 145.08 237.62 146.32 252.77C146.3 252.9 146.21 253 146.09 253V252.99Z" fill="black"/>
<path d="M56.46 251.35C56.33 251.35 56.25 251.24 56.25 251.12C57.49 235.97 62.38 220.13 62.44 219.98C62.48 219.88 62.59 219.81 62.71 219.83C62.81 219.87 62.88 219.98 62.86 220.1C62.82 220.27 57.93 236.05 56.69 251.15C56.65 251.26 56.56 251.34 56.46 251.34V251.35Z" fill="black"/>
</g>
<defs>
<clipPath id="clip0_4028_220">
<rect width="200" height="272" fill="white"/>
</clipPath>
</defs>
</svg>
