<svg width="200" height="272" viewBox="0 0 200 272" fill="none" xmlns="http://www.w3.org/2000/svg">
<g clip-path="url(#clip0_4029_299)">
<path opacity="0.19" d="M192 0H8C3.58172 0 0 3.58172 0 8V264C0 268.418 3.58172 272 8 272H192C196.418 272 200 268.418 200 264V8C200 3.58172 196.418 0 192 0Z" fill="#11A452"/>
<path d="M172.61 229.19H125.18V269.56H172.61V229.19Z" fill="white"/>
<path d="M172.61 269.75H125.18C125.07 269.75 125 269.68 125 269.57V229.2C125 229.09 125.07 229.02 125.18 229.02H172.61C172.72 229.02 172.79 229.09 172.79 229.2V269.57C172.79 269.68 172.72 269.75 172.61 269.75ZM125.37 269.38H172.43V229.38H125.37V269.38Z" fill="black"/>
<path d="M188.92 229.21H167.28V269.58H188.92V229.21Z" fill="white"/>
<path d="M188.92 269.76H167.28C167.17 269.76 167.1 269.69 167.1 269.58V229.21C167.1 229.1 167.17 229.03 167.28 229.03H188.92C189.03 229.03 189.1 229.1 189.1 229.21V269.58C189.1 269.69 189.03 269.76 188.92 269.76ZM167.47 269.4H188.74V229.4H167.47V269.4Z" fill="black"/>
<path opacity="0.19" d="M143.49 229.47L143.47 252.41H149.54L149.52 229.45L143.49 229.47Z" fill="#11A452"/>
<path opacity="0.19" d="M176.33 229.45V252.39H180.98V229.43L176.33 229.45Z" fill="#11A452"/>
<path d="M141.47 202.04H165.07V212.32H141.41C141.41 212.32 141.46 201.9 141.46 202.04H141.47Z" fill="white"/>
<path d="M165.07 212.5H141.41C141.35 212.5 141.32 212.48 141.28 212.45C141.24 212.41 141.22 212.38 141.22 212.32L141.26 202.15V202.04C141.28 201.95 141.32 201.86 141.44 201.86H165.06C165.17 201.86 165.24 201.93 165.24 202.04V212.32C165.24 212.43 165.17 212.5 165.06 212.5H165.07ZM141.62 212.13H164.89V202.22H141.64C141.64 203.47 141.62 210.86 141.62 212.13Z" fill="black"/>
<path d="M141.47 202.04H165.07V212.32H141.41C141.41 212.32 141.46 201.9 141.46 202.04H141.47Z" fill="white"/>
<path d="M165.07 212.5H141.41C141.35 212.5 141.32 212.48 141.28 212.45C141.24 212.41 141.22 212.38 141.22 212.32L141.26 202.15V202.04C141.28 201.95 141.32 201.86 141.44 201.86H165.06C165.17 201.86 165.24 201.93 165.24 202.04V212.32C165.24 212.43 165.17 212.5 165.06 212.5H165.07ZM141.62 212.13H164.89V202.22H141.64C141.64 203.47 141.62 210.86 141.62 212.13Z" fill="black"/>
<path d="M150.94 202.04H171.53V212.32H150.9C150.9 212.32 150.94 201.9 150.94 202.04Z" fill="white"/>
<path d="M171.53 212.5H150.9C150.85 212.5 150.81 212.48 150.77 212.45C150.73 212.41 150.71 212.38 150.71 212.32L150.75 202.15V202.04C150.77 201.95 150.81 201.86 150.93 201.86H171.52C171.63 201.86 171.7 201.93 171.7 202.04V212.32C171.7 212.43 171.61 212.5 171.52 212.5H171.53ZM151.09 212.13H171.35V202.22H151.13C151.11 203.47 151.09 210.86 151.09 212.13Z" fill="black"/>
<path d="M146.16 206.84C146.1 206.84 146.07 206.82 146.03 206.79L141.4 202.21C141.33 202.14 141.33 202.03 141.4 201.95C141.47 201.88 141.58 201.88 141.66 201.95L146.16 206.4L150.79 201.91C150.85 201.86 150.92 201.84 150.99 201.87C151.06 201.91 151.1 201.96 151.1 202.03L151.14 205.54H171.51C171.62 205.54 171.69 205.61 171.69 205.72C171.69 205.83 171.62 205.9 171.51 205.9H150.96C150.87 205.9 150.78 205.83 150.78 205.72L150.74 202.47L146.27 206.79C146.27 206.79 146.22 206.83 146.16 206.83V206.84Z" fill="black"/>
<path d="M141.44 212.5C141.44 212.5 141.37 212.5 141.35 212.46C141.26 212.41 141.24 212.3 141.3 212.2L145.29 205.82C145.34 205.73 145.46 205.71 145.55 205.77C145.64 205.82 145.66 205.93 145.61 206.03L141.62 212.41C141.56 212.48 141.51 212.5 141.45 212.5H141.44Z" fill="black"/>
<path d="M150.9 212.5C150.84 212.5 150.77 212.46 150.75 212.41L146.78 206.03C146.73 205.94 146.76 205.83 146.84 205.77C146.93 205.71 147.04 205.75 147.1 205.82L151.07 212.2C151.12 212.29 151.09 212.4 151.02 212.46C150.96 212.5 150.93 212.5 150.91 212.5H150.9Z" fill="black"/>
<path d="M130.61 212.32H169.32V229.18H130.53C130.53 229.18 130.6 212.08 130.6 212.32H130.61Z" fill="white"/>
<path d="M169.34 229.38H130.55C130.5 229.38 130.46 229.36 130.42 229.32C130.38 229.28 130.37 229.25 130.37 229.19L130.42 213.05C130.42 212.72 130.42 212.52 130.44 212.39V212.34H130.46C130.48 212.16 130.52 212.16 130.63 212.16H169.36C169.47 212.16 169.54 212.23 169.54 212.34V229.2C169.52 229.29 169.43 229.38 169.34 229.38ZM130.74 229.01H169.16V212.52H130.8C130.8 214.21 130.74 227.28 130.74 229.01Z" fill="black"/>
<path d="M130.61 212.32H169.32V229.18H130.53C130.53 229.18 130.6 212.08 130.6 212.32H130.61Z" fill="white"/>
<path d="M169.34 229.38H130.55C130.5 229.38 130.46 229.36 130.42 229.32C130.38 229.28 130.37 229.25 130.37 229.19L130.42 213.05C130.42 212.72 130.42 212.52 130.44 212.39V212.34H130.46C130.48 212.16 130.52 212.16 130.63 212.16H169.36C169.47 212.16 169.54 212.23 169.54 212.34V229.2C169.52 229.29 169.43 229.38 169.34 229.38ZM130.74 229.01H169.16V212.52H130.8C130.8 214.21 130.74 227.28 130.74 229.01Z" fill="black"/>
<path d="M146.12 212.32H179.89V229.18H146.07C146.07 229.18 146.12 212.08 146.12 212.32Z" fill="white"/>
<path d="M179.9 229.38H146.08C146.02 229.38 145.99 229.36 145.95 229.32C145.91 229.28 145.9 229.25 145.9 229.19L145.95 213.05C145.95 212.72 145.95 212.52 145.97 212.39V212.34H145.99C146.01 212.16 146.05 212.16 146.16 212.16H179.93C180.04 212.16 180.11 212.23 180.11 212.34V229.2C180.09 229.29 180 229.38 179.91 229.38H179.9ZM146.25 229.01H179.71V212.52H146.31C146.31 214.21 146.25 227.28 146.25 229.01Z" fill="black"/>
<path opacity="0.19" d="M161.22 212.63L161.2 222.02H166.86V212.63H161.22Z" fill="#11A452"/>
<path opacity="0.19" d="M136.4 212.63L136.38 222.01H140.15V212.62L136.4 212.64V212.63Z" fill="#11A452"/>
<path d="M169.42 132.34H27.6301C25.9601 132.34 24.6001 130.98 24.6001 129.31V28.03C24.6001 26.36 25.9601 25 27.6301 25H169.42C171.09 25 172.45 26.36 172.45 28.03V129.28C172.45 130.97 171.09 132.33 169.42 132.33V132.34Z" fill="white"/>
<path d="M111.08 114H110.63C110.38 113.88 110.07 113.81 109.88 113.62C109.49 113.25 109.14 112.84 108.82 112.41C108.58 112.09 108.36 111.73 108.23 111.37C108.04 110.83 107.97 110.26 107.81 109.72C107.48 108.6 107.13 107.48 106.76 106.37C106.62 105.95 106.4 105.55 106.2 105.16C106.14 105.05 106.01 104.98 105.92 104.88C105.7 104.64 105.44 104.42 105.3 104.14C105.06 103.65 104.88 103.13 104.71 102.6C104.58 102.2 104.49 101.78 104.38 101.37C104.28 101.03 104.18 100.72 104.18 100.34C104.18 99.96 104.13 99.47 103.75 99.17C103.72 99.15 103.73 99.08 103.71 99.04C103.63 98.74 103.56 98.43 103.47 98.14C103.4 97.89 103.29 97.66 102.98 97.59C102.92 97.58 102.88 97.41 102.85 97.3C102.83 97.23 102.87 97.13 102.84 97.06C102.63 96.6 102.41 96.14 102.19 95.68C101.99 95.28 101.72 94.9 101.6 94.47C101.47 94 101.46 93.48 101.41 92.99C101.31 92.1 101.34 91.17 101.09 90.32C100.81 89.36 100.8 88.37 100.63 87.4C100.53 86.86 100.5 86.29 100.52 85.74C100.53 85.3 100.56 84.77 100.81 84.44C101.23 83.87 101.21 83.27 100.99 82.66C100.91 82.45 100.9 82.2 100.89 81.97C100.89 81.79 101 81.6 100.81 81.43C100.74 81.36 100.75 81.18 100.75 81.05C100.75 80.76 100.75 80.46 100.75 80.17C100.75 80.12 100.72 80.04 100.69 80.03C100.61 80.02 100.46 80.01 100.45 80.04C100.37 80.23 100.25 80.44 100.26 80.64C100.33 81.79 99.99 82.32 98.89 82.7C98.65 82.78 98.42 82.91 98.17 82.97C97.8 83.07 97.42 83.2 97.04 83.23C96.42 83.3 95.94 82.95 95.54 82.55C94.83 81.84 94.14 81.11 93.48 80.36C93.2 80.04 92.98 79.67 92.73 79.32C92.57 79.1 92.7 78.89 92.87 78.78C92.95 78.73 93.27 78.85 93.29 78.93C93.37 79.4 93.68 79.11 93.89 79.13C94 79.13 94.11 79.12 94.22 79.09C94.44 79.03 94.75 79.02 94.87 78.87C95.03 78.67 95.13 78.62 95.35 78.69C95.41 78.71 95.53 78.7 95.56 78.67C95.78 78.36 96 78.04 96.21 77.71C96.23 77.67 96.21 77.58 96.18 77.56C96.15 77.54 96.05 77.56 96.02 77.58C95.67 77.98 95.15 78.01 94.69 78.14C94.42 78.21 94.07 78.23 93.83 78.11C93.3 77.85 92.8 77.51 92.32 77.17C92.16 77.06 92.08 76.84 91.97 76.66C91.78 76.34 91.72 75.89 91.18 75.94C91.13 75.94 91.07 75.9 91.01 75.87V75.72C91.06 75.62 91.14 75.53 91.16 75.43C91.25 75.02 91.52 74.94 91.9 74.96C92.57 75 92.56 74.98 92.69 74.33C92.7 74.27 92.81 74.18 92.86 74.18C93.29 74.22 93.73 74.28 94.16 74.34C94.43 74.38 94.71 74.32 94.92 74.6C95.11 74.84 95.39 74.79 95.65 74.64C95.91 74.49 96.19 74.35 96.49 74.27C96.71 74.21 96.99 74.15 97.04 74.56C97.04 74.63 97.37 74.77 97.43 74.72C97.62 74.58 97.93 74.48 97.82 74.13C97.8 74.06 97.81 73.92 97.86 73.89C98.1 73.7 97.93 73.56 97.83 73.4C97.49 72.83 97.07 72.28 97.04 71.57C97.04 71.5 96.85 71.37 96.74 71.36C95.95 71.24 95.63 70.61 96.03 69.94C96.25 69.58 96.07 69.12 95.72 69.17C95.27 69.22 95.09 68.85 94.79 68.68C94.72 68.64 94.69 68.42 94.72 68.31C94.85 67.84 94.96 67.35 95.51 67.16C95.65 67.11 95.76 66.96 95.86 66.84C96.03 66.63 96.19 66.41 96.34 66.19C96.53 65.92 96.77 65.76 97.11 65.78C97.42 65.8 97.42 66.05 97.5 66.27C97.58 66.51 97.79 66.72 98.07 66.55C98.52 66.29 98.98 66.3 99.47 66.3C99.63 66.3 99.86 66.27 99.94 66.16C100.19 65.84 100.32 65.43 100.73 65.23C100.76 65.22 100.74 65.11 100.77 65.05C100.88 64.69 101.07 64.41 101.45 64.25C101.81 64.1 102.21 63.93 102.46 63.66C102.86 63.23 103.22 62.72 103.31 62.1C103.37 61.64 103.59 61.47 104.05 61.5C104.42 61.52 104.7 61.05 104.64 60.68C104.62 60.55 104.68 60.36 104.77 60.26C105.1 59.92 105.48 59.61 105.82 59.28C105.97 59.14 106.1 58.99 106.03 58.74C105.99 58.61 106.08 58.44 106.1 58.28C106.13 58.1 106.22 57.87 106.14 57.74C105.97 57.45 106.11 57.23 106.3 57.11C106.61 56.92 106.86 56.57 107.32 56.65C107.54 56.69 107.7 56.57 107.73 56.33C107.76 56.12 107.73 55.95 107.46 55.89C107.18 55.83 106.92 55.7 106.64 55.68C106.39 55.67 106.32 55.58 106.39 55.37C106.46 55.16 106.36 55.03 106.17 55.05C105.75 55.09 105.56 54.77 105.28 54.59C105.17 54.52 105.05 54.44 104.92 54.43C104.57 54.38 104.36 54.21 104.35 53.86C104.35 53.65 104.39 53.45 104.37 53.25C104.3 52.55 104.18 51.85 104.13 51.15C104.12 50.97 104.2 50.66 104.32 50.62C104.54 50.54 104.72 50.49 104.76 50.22C104.76 50.16 104.91 50.08 104.99 50.07C105.32 50.05 105.52 49.86 105.52 49.57C105.52 49.44 105.27 49.28 105.1 49.19C104.88 49.07 104.75 48.93 104.86 48.7C104.98 48.46 104.83 48.51 104.68 48.44C104.37 48.3 104.01 48.15 103.81 47.9C103.63 47.68 103.48 47.58 103.25 47.64C102.97 47.7 102.75 47.62 102.63 47.39C102.48 47.09 102.66 46.74 102.93 46.56C103.18 46.4 103.44 46.21 103.61 45.97C103.89 45.57 104.24 45.52 104.67 45.59C104.86 45.62 105.05 45.61 105.23 45.63C105.23 45.6 105.25 45.57 105.26 45.54C105.16 45.46 105.06 45.38 104.95 45.3C104.95 45.25 104.95 45.2 104.95 45.15C105.65 45.49 106.23 45.15 106.85 44.98H107.22C107.55 45.05 107.87 45.13 108.2 45.17C108.42 45.19 108.55 45.24 108.53 45.49C108.53 45.54 108.65 45.65 108.69 45.64C109.02 45.56 109.27 45.73 109.34 45.99C109.53 46.67 110.2 46.75 110.65 47.1C110.83 47.24 111.01 47.33 111.03 47.58C111.04 47.87 111.21 47.95 111.49 47.99C111.78 48.03 112.06 48.17 112.32 48.31C112.41 48.36 112.41 48.56 112.45 48.69C112.44 48.73 112.42 48.78 112.41 48.82C112.93 48.67 113.44 48.52 113.97 48.38C114.44 48.25 114.85 47.86 115.4 47.99C115.59 48.03 115.74 48.05 115.89 47.87C115.95 47.8 116.17 47.83 116.3 47.87C116.61 47.96 116.89 48.16 117.2 48.16C117.68 48.16 117.82 48.56 118.13 48.78C118.17 48.8 118.17 48.9 118.17 48.95C118.08 49.35 118.02 49.76 117.87 50.14C117.77 50.43 117.76 50.84 117.28 50.88C117.21 50.88 117.15 51.01 117.1 51.09C117.05 51.16 117 51.27 116.95 51.28C116.61 51.28 116.65 51.54 116.63 51.74C116.57 52.21 116.34 52.39 115.86 52.3C115.47 52.23 115.43 52.29 115.54 52.68C115.6 52.9 115.81 53.11 115.46 53.33C115.28 53.45 115.48 53.84 115.76 53.93C115.88 53.96 116.01 53.95 116.12 54C116.2 54.04 116.31 54.19 116.3 54.22C116.06 54.58 116.34 54.81 116.51 55.07C116.64 55.25 116.72 55.43 116.45 55.59C116.18 55.75 115.88 55.91 115.67 56.13C115.39 56.44 115.21 56.28 115.02 56.08C114.95 56.01 114.92 55.88 114.85 55.8C114.8 55.74 114.69 55.66 114.64 55.67C114.56 55.7 114.43 55.82 114.44 55.87C114.53 56.26 114.65 56.64 114.77 57.03C114.87 57.37 114.97 57.7 115.04 58.05C115.08 58.24 115.05 58.45 115.05 58.73C115.53 58.3 115.71 58.34 115.92 58.81C115.96 58.9 115.99 59 116.05 59.07C116.26 59.3 116.39 59.7 116.85 59.49C116.92 59.46 117.06 59.58 117.16 59.64C117.26 59.7 117.37 59.77 117.45 59.85C117.61 60 117.75 60.17 117.89 60.34C117.95 60.41 118 60.55 118.06 60.55C118.59 60.56 118.93 60.95 119.34 61.2C119.51 61.31 119.65 61.41 119.38 61.66C119 62.01 118.42 62.27 118.45 62.93C118.45 62.98 118.35 63.03 118.32 63.09C118.28 63.17 118.19 63.3 118.22 63.35C118.38 63.64 118.2 63.84 118.05 64.06C117.95 64.2 117.89 64.36 117.78 64.5C117.65 64.66 117.67 64.76 117.83 64.9C118 65.04 118.13 65.18 118.37 65.06C118.42 65.03 118.53 65.07 118.6 65.11C118.97 65.32 119.35 65.52 119.71 65.75C119.83 65.82 119.92 65.95 120.03 66.03C120.44 66.32 120.82 66.73 121.28 66.85C121.59 66.93 121.91 67 122.19 67.14C122.4 67.24 122.58 67.37 122.84 67.29C122.91 67.27 123.09 67.39 123.11 67.47C123.16 67.76 123.4 67.76 123.59 67.83C123.8 67.9 124.01 67.99 124.22 68.06C124.28 68.07 124.38 68.07 124.41 68.04C124.62 67.78 124.86 67.87 125.11 67.93C125.27 67.97 125.46 67.96 125.63 67.94C125.84 67.92 126.07 67.81 126.28 67.84C126.58 67.89 126.86 68.03 127.15 68.15C127.21 68.17 127.3 68.25 127.29 68.3C127.2 68.83 127.51 69 127.96 69.04C128 69.04 128.03 69.1 128.08 69.12C128.42 69.3 128.72 69.66 129.16 69.25C129.34 69.08 129.57 69.18 129.55 69.49C129.55 69.71 129.65 69.89 129.88 69.8C130.41 69.59 130.89 69.73 131.35 69.95C131.66 70.1 131.89 70.13 132.14 69.87C132.27 69.73 132.38 69.69 132.48 69.94C132.53 70.06 132.77 70.19 132.9 70.18C133.2 70.14 133.92 70.03 134.21 70.04C134.25 70.04 134.31 69.99 134.34 69.95C134.41 69.86 134.5 69.78 134.55 69.68C134.64 69.5 134.76 69.34 134.62 69.11C134.34 68.65 134.13 68.17 134.29 67.62C134.37 67.33 134.59 67.03 134.54 66.77C134.45 66.31 134.75 66.31 135 66.19C135.13 66.13 135.26 66.06 135.4 66.01C135.5 65.98 135.61 65.96 135.7 65.99C136.1 66.1 136.3 66.58 136.12 67.06C136.02 67.32 135.96 67.54 136.19 67.77C136.23 67.81 136.19 67.95 136.19 68.04C136.19 68.23 136.14 68.5 136.24 68.6C136.43 68.77 136.72 68.86 136.97 68.95C137.13 69.01 137.33 68.95 137.47 69.03C138.1 69.37 138.67 69.08 139.17 68.79C139.45 68.63 139.63 68.61 139.9 68.72C140.1 68.8 140.32 68.89 140.52 68.88C141.13 68.86 141.73 68.8 142.34 68.73C142.54 68.71 142.73 68.57 142.92 68.53C143.2 68.49 143.16 68.32 143.03 68.21C142.82 68.03 142.85 67.88 142.94 67.67C143.05 67.43 142.9 67.28 142.63 67.33C142.58 67.33 142.53 67.37 142.49 67.36C142.32 67.29 142.1 67.25 142.02 67.12C141.93 66.99 141.92 66.75 141.97 66.58C141.99 66.51 142.24 66.48 142.39 66.45C142.53 66.43 142.68 66.45 142.81 66.41C143.07 66.34 143.34 66.26 143.58 66.14C143.77 66.04 144.08 65.85 144.06 65.76C143.99 65.45 144.16 65.34 144.35 65.21C144.67 65 144.99 64.79 145 64.34C145 64.26 145.16 64.13 145.27 64.1C146.02 63.97 146.51 63.5 146.96 62.93C147.18 62.64 147.49 62.42 147.82 62.24C147.93 62.18 148.18 62.39 148.38 62.45C148.47 62.48 148.57 62.45 148.67 62.47C148.85 62.5 149.04 62.51 149.2 62.58C149.45 62.7 149.52 62.58 149.68 62.39C149.97 62.04 150.35 61.77 150.72 61.51C150.76 61.48 150.99 61.72 151.14 61.83C151.2 61.87 151.31 61.85 151.34 61.9C151.38 61.98 151.43 62.1 151.4 62.18C151.36 62.28 151.25 62.36 151.18 62.45C151.18 62.48 151.2 62.51 151.21 62.54C151.56 62.3 151.82 62.3 151.94 62.73C151.94 62.76 151.98 62.79 152.01 62.81C152.2 62.93 152.14 63.05 152.03 63.2C151.88 63.42 151.77 63.68 151.64 63.91C151.67 63.93 151.7 63.95 151.73 63.97C151.99 63.73 152.26 63.56 152.61 63.79C152.66 63.83 152.75 63.79 152.83 63.79C153.16 63.84 153.56 63.64 153.8 64.03C153.89 64.17 153.96 64.31 154.04 64.45V64.96C153.62 64.89 153.51 65.26 153.3 65.46C153.1 65.64 153.11 65.86 153.3 66.07C153.44 66.22 153.59 66.38 153.71 66.55C153.75 66.61 153.75 66.73 153.71 66.81C153.69 66.85 153.55 66.87 153.49 66.84C153.33 66.74 153.19 66.62 153.04 66.52C152.97 66.48 152.88 66.39 152.82 66.4C152.38 66.56 151.92 66.71 151.51 66.94C151.27 67.07 151.13 67.37 150.92 67.56C150.6 67.85 150.26 68.11 149.93 68.4C149.75 68.56 149.52 68.74 149.69 69.02C149.93 69.42 149.82 69.75 149.6 70.1C149.5 70.26 149.39 70.46 149.41 70.64C149.43 70.96 149.34 71.17 149.04 71.32C148.84 71.41 148.82 71.73 148.97 71.85C149.35 72.13 149.39 72.33 149.14 72.72C148.75 73.35 148.43 74 148.34 74.75C148.29 75.17 148.22 75.18 147.85 75C147.8 74.97 147.73 74.94 147.67 74.94C147.34 74.94 147 74.98 146.66 74.97C146.38 74.97 146.43 75.06 146.53 75.25C146.83 75.83 146.89 76.44 146.69 77.07C146.63 77.25 146.59 77.46 146.31 77.45C146.27 77.45 146.19 77.52 146.2 77.55C146.27 77.9 146.38 78.24 146.44 78.59C146.47 78.8 146.45 79.05 146.37 79.24C146.3 79.4 146.1 79.5 145.99 79.65C145.84 79.86 145.72 79.88 145.57 79.68C145.53 79.62 145.41 79.55 145.39 79.56C144.97 79.89 145 79.45 144.98 79.29C144.91 78.71 144.73 78.17 144.45 77.66C144.36 77.49 144.33 77.29 144.3 77.1C144.24 76.75 144.2 76.39 144.13 76.03C144.13 75.98 143.97 75.91 143.91 75.93C143.5 76.03 143.14 76.61 143.26 77C143.35 77.3 143.21 77.49 143.05 77.69C142.92 77.84 142.81 77.85 142.7 77.69C142.58 77.51 142.48 77.34 142.37 77.16C142.37 77.19 142.37 77.22 142.37 77.26C142.34 77.41 142.3 77.55 142.27 77.69C142.19 77.56 142.08 77.44 142.02 77.3C141.89 76.96 141.79 76.62 141.66 76.28C141.56 76.03 141.78 75.18 142.01 75.03C142.05 75 142.1 74.99 142.14 74.98C142.49 74.85 142.89 74.79 143.16 74.58C143.57 74.26 144.01 73.89 143.88 73.26C143.88 73.23 143.99 73.14 144.06 73.14C144.14 73.14 144.22 73.18 144.35 73.21C143.97 72.69 143.55 72.55 142.99 72.71C142.89 72.74 142.78 72.78 142.67 72.78C141.76 72.78 140.85 72.78 139.95 72.74C139.58 72.73 139.21 72.55 138.84 72.53C138.46 72.52 138.39 72.35 138.37 72.02C138.36 71.6 138.31 71.17 138.27 70.75C138.27 70.67 138.18 70.59 138.14 70.51C138.07 70.58 137.97 70.62 137.93 70.7C137.79 71.05 137.53 71.02 137.26 70.9C136.99 70.78 136.76 70.64 136.73 70.3C136.73 70.21 136.61 70.13 136.55 70.04C136.57 70.25 136.89 70.5 136.36 70.48C136.26 70.48 136.15 70.65 135.99 70.79C135.95 70.61 135.95 70.43 135.88 70.29C135.83 70.2 135.67 70.16 135.56 70.11C135.38 70.49 134.91 70.67 134.86 71.15C134.85 71.34 134.83 71.45 135.07 71.53C135.25 71.59 135.38 71.77 135.53 71.91C135.6 71.98 135.67 72.1 135.74 72.1C136.07 72.1 136.35 72.17 136.56 72.42C136.62 72.49 136.71 72.55 136.71 72.62C136.71 72.97 136.44 72.95 136.2 72.95C135.91 72.95 135.69 72.95 135.61 73.33C135.58 73.49 135.48 73.87 135.1 73.65C135.09 73.65 135.02 73.69 135 73.72C134.76 74.05 134.82 74.37 135.19 74.58C135.4 74.7 135.63 74.81 135.87 74.87C136.43 75.02 136.6 75.56 136.2 76C135.96 76.27 135.95 76.46 136.24 76.65C136.47 76.79 136.57 76.92 136.45 77.18C136.39 77.31 136.4 77.42 136.61 77.39C136.94 77.35 137.08 77.44 136.83 77.76C136.8 77.8 136.78 77.89 136.8 77.94C136.89 78.3 136.99 78.65 137.07 79.01C137.17 79.43 137.26 79.85 137.32 80.27C137.36 80.56 137.2 80.88 137.42 81.17C137.43 81.19 137.3 81.33 137.24 81.41C136.97 81.16 136.86 81.45 136.69 81.63C136.6 81.43 136.55 81.17 136.3 81.48C136.26 81.53 135.97 81.48 135.89 81.39C135.82 81.32 135.89 81.13 135.89 80.99C135.89 80.93 135.93 80.87 135.95 80.82C135.88 80.83 135.78 80.82 135.74 80.86C135.57 81.03 135.51 80.96 135.44 80.77C135.34 80.48 135.17 80.52 135 80.72C134.9 80.84 134.81 80.98 134.69 81.09C134.42 81.33 134.14 81.55 133.86 81.77C133.83 81.79 133.76 81.77 133.72 81.77C133.25 81.67 132.98 81.99 132.74 82.29C132.52 82.56 132.61 82.87 132.77 83.15C132.82 83.24 132.85 83.33 132.92 83.41C133.14 83.63 133.02 83.81 132.85 83.96C132.76 84.04 132.64 84.09 132.55 84.18C132.49 84.25 132.42 84.36 132.44 84.43C132.51 84.68 132.38 84.78 132.19 84.89C132 84.99 131.74 85.1 131.66 85.27C131.47 85.7 131.09 85.79 130.7 85.92C129.74 86.25 128.76 86.58 128.22 87.56C128.06 87.83 127.84 88.07 127.63 88.3C127.32 88.66 126.93 88.96 126.69 89.36C126.47 89.71 126.18 89.89 125.87 90.1C125.43 90.39 124.91 90.61 124.7 91.17C124.65 91.31 124.47 91.47 124.33 91.51C123.69 91.66 123.25 92.14 122.75 92.5C122.68 92.55 122.62 92.71 122.64 92.8C122.69 93.07 122.51 93.73 122.31 93.84C122.05 93.99 121.8 94.14 121.52 94.24C121.36 94.29 121.15 94.21 120.96 94.24C120.71 94.27 120.37 94.24 120.22 94.39C119.95 94.68 119.8 95.09 119.57 95.42C119.49 95.54 119.3 95.6 119.15 95.63C119.1 95.64 118.96 95.52 118.94 95.44C118.87 95.18 118.73 95.25 118.54 95.3C118.04 95.44 117.84 95.86 117.66 96.26C117.5 96.61 117.32 96.99 117.47 97.42C117.65 97.93 117.85 98.46 117.55 99.02C117.53 99.06 117.55 99.12 117.55 99.17C117.62 99.81 117.62 100.47 117.79 101.08C118 101.79 117.66 102.37 117.55 103.01C117.5 103.3 117.34 103.6 117.13 103.81C116.63 104.35 116.55 104.99 116.58 105.66C116.62 106.5 116.73 107.34 116.79 108.18C116.83 108.72 116.8 108.72 116.25 108.7C116.12 108.7 115.98 108.68 115.85 108.66C115.47 108.61 115.34 108.72 115.32 109.11C115.32 109.19 115.3 109.28 115.25 109.34C115.07 109.59 114.86 109.82 114.72 110.08C114.62 110.26 114.48 110.6 114.56 110.69C114.71 110.85 115.01 110.97 115.24 110.95C115.54 110.93 115.56 111.06 115.6 111.27C115.35 111.23 115.13 111.18 114.9 111.15C114.26 111.05 113.73 111.41 113.16 111.57C112.87 111.65 112.65 111.88 112.63 112.31C112.61 112.82 112.49 113.35 111.84 113.55C111.58 113.6 111.37 113.83 111.13 113.98L111.08 114Z" stroke="black" stroke-width="0.5" stroke-miterlimit="10"/>
<path d="M131.49 77.98C132.31 77.98 132.98 77.31 132.98 76.49C132.98 75.67 132.31 75 131.49 75C130.67 75 130 75.67 130 76.49C130 77.31 130.67 77.98 131.49 77.98Z" fill="#11A452"/>
<path d="M169.42 25.37C170.89 25.37 172.09 26.56 172.09 28.04V129.29C172.09 130.76 170.9 131.96 169.42 131.96H27.6301C26.1601 131.96 24.9601 130.76 24.9601 129.29V28.03C24.9601 26.56 26.1501 25.36 27.6301 25.36H169.42V25.37ZM169.42 25H27.6301C25.9601 25 24.6001 26.36 24.6001 28.03V129.28C24.6001 130.95 25.9601 132.31 27.6301 132.31H169.42C171.09 132.31 172.45 130.95 172.45 129.28V28.03C172.45 26.36 171.09 25 169.42 25Z" fill="black"/>
<path d="M39.98 32.9399C40.94 32.9399 41.73 32.1599 41.73 31.1899C41.73 30.2199 40.95 29.4399 39.98 29.4399C39.01 29.4399 38.23 30.2199 38.23 31.1899C38.23 32.1599 39.01 32.9399 39.98 32.9399Z" fill="white"/>
<path d="M39.98 29.8202C40.73 29.8202 41.36 30.4402 41.36 31.2002C41.36 31.9602 40.74 32.5802 39.98 32.5802C39.22 32.5802 38.6 31.9502 38.6 31.2002C38.6 30.4502 39.21 29.8202 39.98 29.8202ZM39.98 29.4502C39.02 29.4502 38.23 30.2402 38.23 31.2002C38.23 32.1602 39 32.9502 39.98 32.9502C40.96 32.9502 41.73 32.1602 41.73 31.2002C41.71 30.2302 40.94 29.4502 39.98 29.4502Z" fill="black"/>
<path d="M45.0601 32.9399C46.0201 32.9399 46.8101 32.1599 46.8101 31.1899C46.8101 30.2199 46.0301 29.4399 45.0601 29.4399C44.0901 29.4399 43.3101 30.2199 43.3101 31.1899C43.3101 32.1599 44.0901 32.9399 45.0601 32.9399Z" fill="white"/>
<path d="M45.0601 29.8202C45.8101 29.8202 46.4401 30.4402 46.4401 31.2002C46.4401 31.9602 45.8201 32.5802 45.0601 32.5802C44.3001 32.5802 43.6801 31.9502 43.6801 31.2002C43.6801 30.4502 44.3001 29.8202 45.0601 29.8202ZM45.0601 29.4502C44.1001 29.4502 43.3101 30.2402 43.3101 31.2002C43.3101 32.1602 44.0801 32.9502 45.0601 32.9502C46.0401 32.9502 46.8101 32.1602 46.8101 31.2002C46.8101 30.2402 46.0401 29.4502 45.0601 29.4502Z" fill="black"/>
<path d="M50.1499 32.9399C51.1099 32.9399 51.8999 32.1599 51.8999 31.1899C51.8999 30.2199 51.1199 29.4399 50.1499 29.4399C49.1799 29.4399 48.3999 30.2199 48.3999 31.1899C48.3999 32.1599 49.1799 32.9399 50.1499 32.9399Z" fill="white"/>
<path d="M50.1499 29.8202C50.8999 29.8202 51.5299 30.4402 51.5299 31.2002C51.5299 31.9602 50.9099 32.5802 50.1499 32.5802C49.3899 32.5802 48.7699 31.9502 48.7699 31.2002C48.7699 30.4502 49.3899 29.8202 50.1499 29.8202ZM50.1499 29.4502C49.1899 29.4502 48.3999 30.2402 48.3999 31.2002C48.3999 32.1602 49.1699 32.9502 50.1499 32.9502C51.1299 32.9502 51.8999 32.1602 51.8999 31.2002C51.8999 30.2402 51.1099 29.4502 50.1499 29.4502Z" fill="black"/>
<path d="M131.11 30.0902C131.83 30.0902 132.41 30.6802 132.41 31.4002V31.5802C132.41 32.3002 131.82 32.8902 131.11 32.8902H67.3599C66.6399 32.8902 66.0499 32.3002 66.0499 31.5802V31.4002C66.0499 30.6802 66.6399 30.0902 67.3599 30.0902H131.11ZM131.11 29.7202H67.3599C66.4399 29.7202 65.6899 30.4702 65.6899 31.3902V31.5702C65.6899 32.4902 66.4399 33.2402 67.3599 33.2402H131.11C132.03 33.2402 132.78 32.4902 132.78 31.5702V31.3902C132.78 30.4702 132.03 29.7202 131.11 29.7202Z" fill="black"/>
<path d="M29.67 107.37C29.56 107.37 29.49 107.3 29.49 107.19V38.9902H167.38V65.2602C167.38 65.3702 167.31 65.4402 167.2 65.4402C167.09 65.4402 167.02 65.3702 167.02 65.2602V39.3602H29.85V107.19C29.85 107.3 29.76 107.37 29.67 107.37Z" fill="black"/>
<path d="M72.85 126H46.73C46.62 126 46.55 125.93 46.55 125.82C46.55 125.71 46.62 125.64 46.73 125.64H72.85C72.96 125.64 73.03 125.71 73.03 125.82C73.03 125.93 72.96 126 72.85 126Z" fill="black"/>
<path d="M121.51 126H86.0501C85.9401 126 85.8701 125.93 85.8701 125.82C85.8701 125.71 85.9401 125.64 86.0501 125.64H121.51C121.62 125.64 121.69 125.71 121.69 125.82C121.69 125.93 121.62 126 121.51 126Z" fill="black"/>
<path opacity="0.19" d="M40.58 58.3299C43.13 58.3299 45.19 56.2599 45.19 53.7199C45.19 51.1799 43.12 49.1099 40.58 49.1099C38.04 49.1099 35.97 51.1799 35.97 53.7199C35.97 56.2599 38.04 58.3299 40.58 58.3299Z" fill="#11A452"/>
<path d="M40.02 56.42C39.93 56.42 39.84 56.36 39.8 56.29L37.98 53.55C37.89 53.42 37.92 53.26 38.05 53.16C38.18 53.07 38.34 53.1 38.44 53.23L40.04 55.64L42.94 51.36C43.03 51.23 43.2 51.19 43.33 51.29C43.46 51.39 43.5 51.55 43.4 51.68L40.27 56.29C40.2 56.38 40.1 56.42 40.01 56.42H40.02Z" fill="#EE7120"/>
<path opacity="0.19" d="M40.58 83.22C43.13 83.22 45.19 81.15 45.19 78.61C45.19 76.07 43.12 74 40.58 74C38.04 74 35.97 76.07 35.97 78.61C35.97 81.15 38.04 83.22 40.58 83.22Z" fill="#11A452"/>
<path d="M40.02 81.3101C39.93 81.3101 39.84 81.2501 39.8 81.1801L37.98 78.4401C37.89 78.3101 37.92 78.1501 38.05 78.0501C38.18 77.9601 38.34 77.9901 38.44 78.1201L40.04 80.5301L42.94 76.2501C43.03 76.1201 43.2 76.0801 43.33 76.1801C43.46 76.2701 43.5 76.4401 43.4 76.5701L40.27 81.1801C40.2 81.2701 40.1 81.3101 40.01 81.3101H40.02Z" fill="white"/>
<path opacity="0.19" d="M40.58 70.7698C43.13 70.7698 45.19 68.6998 45.19 66.1598C45.19 63.6198 43.12 61.5498 40.58 61.5498C38.04 61.5498 35.97 63.6198 35.97 66.1598C35.97 68.6998 38.04 70.7698 40.58 70.7698Z" fill="#11A452"/>
<path d="M40.02 68.8599C39.93 68.8599 39.84 68.7999 39.8 68.7299L37.98 65.9899C37.89 65.8599 37.92 65.6999 38.05 65.5999C38.18 65.5099 38.34 65.5399 38.44 65.6699L40.04 68.0799L42.94 63.7999C43.03 63.6699 43.2 63.6299 43.33 63.7299C43.46 63.8299 43.5 63.9899 43.4 64.1199L40.27 68.7299C40.2 68.8199 40.1 68.8599 40.01 68.8599H40.02Z" fill="white"/>
<path opacity="0.19" d="M40.58 95.99C43.13 95.99 45.19 93.92 45.19 91.38C45.19 88.84 43.12 86.77 40.58 86.77C38.04 86.77 35.97 88.84 35.97 91.38C35.97 93.92 38.04 95.99 40.58 95.99Z" fill="#11A452"/>
<path d="M40.02 94.0801C39.93 94.0801 39.84 94.0201 39.8 93.9501L37.98 91.2101C37.89 91.0801 37.92 90.9201 38.05 90.8201C38.18 90.7301 38.34 90.7601 38.44 90.8901L40.04 93.3001L42.94 89.0201C43.03 88.8901 43.2 88.8501 43.33 88.9501C43.46 89.0401 43.5 89.2101 43.4 89.3401L40.27 93.9501C40.2 94.0201 40.1 94.0801 40.01 94.0801H40.02Z" fill="white"/>
<path opacity="0.19" d="M40.58 108.44C43.13 108.44 45.19 106.37 45.19 103.83C45.19 101.29 43.12 99.2202 40.58 99.2202C38.04 99.2202 35.97 101.29 35.97 103.83C35.97 106.37 38.04 108.44 40.58 108.44Z" fill="#11A452"/>
<path d="M40.02 106.53C39.93 106.53 39.84 106.47 39.8 106.4L37.98 103.66C37.89 103.53 37.92 103.36 38.05 103.27C38.18 103.18 38.34 103.21 38.44 103.34L40.04 105.75L42.94 101.47C43.03 101.34 43.2 101.3 43.33 101.4C43.46 101.49 43.5 101.66 43.4 101.79L40.27 106.4C40.2 106.47 40.1 106.53 40.01 106.53H40.02Z" fill="white"/>
<path d="M71.5599 52.4498H49.3299C49.2199 52.4498 49.1499 52.3798 49.1499 52.2698C49.1499 52.1598 49.2199 52.0898 49.3299 52.0898H71.5599C71.6699 52.0898 71.7399 52.1598 71.7399 52.2698C71.7399 52.3598 71.6699 52.4498 71.5599 52.4498Z" fill="black"/>
<path d="M71.5599 55.1998H49.3299C49.2199 55.1998 49.1499 55.1298 49.1499 55.0198C49.1499 54.9098 49.2199 54.8398 49.3299 54.8398H71.5599C71.6699 54.8398 71.7399 54.9098 71.7399 55.0198C71.7399 55.1298 71.6699 55.1998 71.5599 55.1998Z" fill="black"/>
<path d="M71.5599 77.34H49.3299C49.2199 77.34 49.1499 77.27 49.1499 77.16C49.1499 77.05 49.2199 76.98 49.3299 76.98H71.5599C71.6699 76.98 71.7399 77.05 71.7399 77.16C71.7399 77.25 71.6699 77.34 71.5599 77.34Z" fill="black"/>
<path d="M71.5599 80.09H49.3299C49.2199 80.09 49.1499 80.02 49.1499 79.91C49.1499 79.8 49.2199 79.73 49.3299 79.73H71.5599C71.6699 79.73 71.7399 79.8 71.7399 79.91C71.7399 80.02 71.6699 80.09 71.5599 80.09Z" fill="black"/>
<path d="M71.5599 64.8898H49.3299C49.2199 64.8898 49.1499 64.8198 49.1499 64.7098C49.1499 64.5998 49.2199 64.5298 49.3299 64.5298H71.5599C71.6699 64.5298 71.7399 64.5998 71.7399 64.7098C71.7399 64.8198 71.6699 64.8898 71.5599 64.8898Z" fill="black"/>
<path d="M71.5599 67.65H49.3299C49.2199 67.65 49.1499 67.58 49.1499 67.47C49.1499 67.36 49.2199 67.29 49.3299 67.29H71.5599C71.6699 67.29 71.7399 67.36 71.7399 67.47C71.7399 67.58 71.6699 67.65 71.5599 67.65Z" fill="black"/>
<path d="M71.5599 90.11H49.3299C49.2199 90.11 49.1499 90.04 49.1499 89.93C49.1499 89.82 49.2199 89.75 49.3299 89.75H71.5599C71.6699 89.75 71.7399 89.82 71.7399 89.93C71.7399 90.02 71.6699 90.11 71.5599 90.11Z" fill="black"/>
<path d="M71.5599 92.8698H49.3299C49.2199 92.8698 49.1499 92.7998 49.1499 92.6898C49.1499 92.5798 49.2199 92.5098 49.3299 92.5098H71.5599C71.6699 92.5098 71.7399 92.5798 71.7399 92.6898C71.7399 92.7798 71.6699 92.8698 71.5599 92.8698Z" fill="black"/>
<path d="M71.5599 102.56H49.3299C49.2199 102.56 49.1499 102.49 49.1499 102.38C49.1499 102.27 49.2199 102.2 49.3299 102.2H71.5599C71.6699 102.2 71.7399 102.27 71.7399 102.38C71.7399 102.47 71.6699 102.56 71.5599 102.56Z" fill="black"/>
<path d="M71.5599 105.32H49.3299C49.2199 105.32 49.1499 105.25 49.1499 105.14C49.1499 105.03 49.2199 104.96 49.3299 104.96H71.5599C71.6699 104.96 71.7399 105.03 71.7399 105.14C71.7399 105.25 71.6699 105.32 71.5599 105.32Z" fill="black"/>
<path d="M117.37 70.4199C118.19 70.4199 118.86 69.7499 118.86 68.9299C118.86 68.1099 118.19 67.4399 117.37 67.4399C116.55 67.4399 115.88 68.1099 115.88 68.9299C115.88 69.7499 116.55 70.4199 117.37 70.4199Z" fill="#11A452"/>
<path d="M102.85 70.1499C103.67 70.1499 104.34 69.4799 104.34 68.6599C104.34 67.8399 103.67 67.1699 102.85 67.1699C102.03 67.1699 101.36 67.8399 101.36 68.6599C101.36 69.4799 102.03 70.1499 102.85 70.1499Z" fill="#11A452"/>
<path d="M111.51 99.0698C112.33 99.0698 113 98.3998 113 97.5798C113 96.7598 112.33 96.0898 111.51 96.0898C110.69 96.0898 110.02 96.7598 110.02 97.5798C110.02 98.3998 110.69 99.0698 111.51 99.0698Z" fill="#11A452"/>
<path d="M113.18 84.6201C114 84.6201 114.67 83.9501 114.67 83.1301C114.67 82.3101 114 81.6401 113.18 81.6401C112.36 81.6401 111.69 82.3101 111.69 83.1301C111.69 83.9501 112.36 84.6201 113.18 84.6201Z" fill="#11A452"/>
<path d="M113.18 83.3099C113.18 83.3099 113.11 83.2899 113.07 83.2699C113.03 83.2299 113 83.1799 113 83.1199V82.1499C113 82.0399 113.09 81.9699 113.18 81.9699C113.29 81.9699 113.36 82.0599 113.36 82.1499V82.8699C113.58 82.8099 113.78 82.7599 114 82.7199C114.09 82.6999 114.2 82.7599 114.22 82.8699C114.24 82.9599 114.18 83.0699 114.07 83.0899C113.78 83.1499 113.5 83.2199 113.22 83.2899C113.2 83.3099 113.18 83.3099 113.16 83.3099H113.18ZM113.25 80.8799C113.14 80.8799 113.07 80.7899 113.07 80.6799C113.13 80.0699 113.18 79.4499 113.27 78.8399C113.29 78.7499 113.38 78.6699 113.47 78.6899C113.56 78.7099 113.64 78.7999 113.62 78.8899C113.53 79.4999 113.45 80.0999 113.42 80.7099C113.42 80.7999 113.35 80.8799 113.25 80.8799ZM113.71 77.6099H113.67C113.58 77.5899 113.5 77.4999 113.52 77.3899C113.65 76.7799 113.8 76.1799 113.96 75.5899C114 75.4999 114.09 75.4399 114.18 75.4599C114.27 75.4999 114.33 75.5899 114.31 75.6799C114.14 76.2699 114 76.8599 113.87 77.4399C113.87 77.5499 113.8 77.6099 113.7 77.6099H113.71ZM114.61 74.4299C114.61 74.4299 114.57 74.4299 114.55 74.4099C114.46 74.3699 114.4 74.2599 114.44 74.1699C114.64 73.5799 114.88 73.0099 115.12 72.4399C115.16 72.3499 115.27 72.3099 115.36 72.3499C115.45 72.3899 115.49 72.4999 115.45 72.5899C115.21 73.1399 114.97 73.7099 114.77 74.2799C114.73 74.3699 114.68 74.4299 114.6 74.4299H114.61ZM115.92 71.3999C115.92 71.3999 115.86 71.3999 115.83 71.3799C115.74 71.3199 115.7 71.2099 115.76 71.1399C116.04 70.5899 116.35 70.0599 116.66 69.5199C116.72 69.4299 116.83 69.4099 116.92 69.4599C117.01 69.5199 117.03 69.6299 116.98 69.7199C116.67 70.2299 116.36 70.7699 116.08 71.3199C116.06 71.3599 115.99 71.3899 115.93 71.3899L115.92 71.3999Z" fill="#11A452"/>
<path d="M111.25 97.2101C111.14 97.2301 111.05 97.1401 111.03 97.0101C110.97 96.3201 110.92 95.6101 110.9 94.9201C110.9 94.8101 110.98 94.7201 111.08 94.7201C111.18 94.7201 111.27 94.8201 111.27 94.9201C111.29 95.6101 111.32 96.3101 111.4 96.9901C111.42 97.0901 111.36 97.1901 111.26 97.2001L111.25 97.2101ZM111.12 93.4601C111.12 93.4601 111.1 93.4601 111.08 93.4601C110.98 93.4601 110.89 93.3601 110.89 93.2401C110.91 92.5401 110.95 91.8301 111.01 91.1501C111.03 91.0401 111.11 90.9601 111.21 90.9701C111.31 91.0001 111.38 91.0901 111.38 91.2001C111.32 91.8901 111.28 92.5701 111.26 93.2501C111.28 93.3701 111.22 93.4501 111.12 93.4601ZM111.44 89.7501C111.44 89.7501 111.4 89.7501 111.38 89.7401C111.28 89.7101 111.21 89.6001 111.23 89.4901C111.33 88.8001 111.46 88.1201 111.6 87.4401C111.62 87.3301 111.72 87.2701 111.82 87.3001C111.92 87.3301 111.98 87.4401 111.96 87.5501C111.82 88.2101 111.68 88.8901 111.58 89.5601C111.56 89.6701 111.51 89.7401 111.44 89.7501ZM112.21 86.1401C112.21 86.1401 112.15 86.1401 112.11 86.1401C112.01 86.0901 111.95 85.9801 111.99 85.8801C112.17 85.2201 112.38 84.5701 112.6 83.9201C112.64 83.8101 112.75 83.7701 112.85 83.8201C112.95 83.8701 112.99 83.9901 112.95 84.1001C112.73 84.7301 112.51 85.3801 112.33 86.0401C112.32 86.0801 112.25 86.1401 112.2 86.1501L112.21 86.1401Z" fill="#11A452"/>
<path d="M113.22 84.6098C113.22 84.6098 113.16 84.6198 113.13 84.6098C113.09 84.5798 113.07 84.5198 113.11 84.4798C113.31 84.1998 113.52 83.9398 113.75 83.6698C113.79 83.6298 113.85 83.6198 113.9 83.6498C113.95 83.6898 113.95 83.7398 113.91 83.7898C113.69 84.0498 113.48 84.3198 113.28 84.5898C113.28 84.5998 113.26 84.6198 113.23 84.6298L113.22 84.6098ZM114.4 83.1798C114.4 83.1798 114.32 83.1798 114.3 83.1598C114.26 83.1198 114.25 83.0698 114.29 83.0198C114.52 82.7698 114.77 82.5098 115.02 82.2698C115.06 82.2298 115.13 82.2198 115.17 82.2598C115.21 82.2998 115.21 82.3598 115.17 82.3998C114.92 82.6398 114.68 82.8898 114.45 83.1398C114.43 83.1698 114.42 83.1698 114.4 83.1798ZM130.73 77.1098C130.73 77.1098 130.7 77.1098 130.68 77.1098C130.33 77.0698 130 77.0398 129.65 77.0198C129.59 77.0198 129.56 76.9698 129.56 76.9198C129.56 76.8698 129.62 76.8298 129.68 76.8298C130.03 76.8498 130.38 76.8798 130.72 76.9198C130.78 76.9298 130.82 76.9798 130.8 77.0198C130.8 77.0598 130.78 77.0898 130.74 77.0998L130.73 77.1098ZM115.73 81.8798C115.73 81.8798 115.65 81.8798 115.62 81.8598C115.58 81.8198 115.59 81.7598 115.63 81.7298C115.89 81.4998 116.16 81.2698 116.44 81.0598C116.48 81.0298 116.55 81.0198 116.59 81.0598C116.62 81.0998 116.62 81.1598 116.58 81.1898C116.31 81.4098 116.04 81.6298 115.79 81.8598C115.77 81.8798 115.76 81.8798 115.74 81.8898L115.73 81.8798ZM128.87 76.9898C128.87 76.9898 128.85 76.9898 128.83 76.9898C128.48 76.9898 128.14 76.9898 127.79 76.9998C127.73 76.9998 127.69 76.9598 127.68 76.9098C127.68 76.8598 127.73 76.8098 127.79 76.7998C128.14 76.7798 128.5 76.7798 128.84 76.7798C128.9 76.7798 128.94 76.8298 128.94 76.8798C128.94 76.9398 128.91 76.9698 128.87 76.9798V76.9898ZM117.19 80.6998C117.19 80.6998 117.1 80.6998 117.08 80.6698C117.04 80.6298 117.06 80.5698 117.1 80.5298C117.38 80.3298 117.68 80.1198 117.98 79.9298C118.03 79.8998 118.09 79.8998 118.12 79.9498C118.15 79.9898 118.14 80.0498 118.08 80.0798C117.78 80.2698 117.51 80.4698 117.23 80.6698C117.21 80.6898 117.2 80.6898 117.19 80.6898V80.6998ZM126.98 77.0598C126.98 77.0598 126.96 77.0598 126.95 77.0598C126.6 77.0898 126.25 77.1298 125.91 77.1698C125.86 77.1698 125.8 77.1498 125.79 77.0898C125.79 77.0398 125.82 76.9898 125.89 76.9798C126.24 76.9298 126.6 76.8898 126.95 76.8598C127 76.8598 127.06 76.8898 127.06 76.9498C127.06 76.9998 127.03 77.0398 126.99 77.0498L126.98 77.0598ZM118.77 79.6598C118.72 79.6798 118.67 79.6598 118.65 79.6198C118.62 79.5798 118.64 79.5098 118.68 79.4898C118.98 79.3098 119.3 79.1398 119.61 78.9798C119.67 78.9498 119.73 78.9798 119.75 79.0098C119.78 79.0498 119.75 79.1198 119.71 79.1398C119.4 79.2998 119.09 79.4698 118.79 79.6398C118.79 79.6398 118.79 79.6498 118.77 79.6598ZM125.1 77.3098C125.1 77.3098 125.09 77.3098 125.08 77.3098C124.73 77.3698 124.39 77.4498 124.05 77.5298C123.99 77.5398 123.94 77.5198 123.93 77.4598C123.93 77.4098 123.95 77.3498 124.01 77.3398C124.35 77.2598 124.71 77.1798 125.05 77.1198C125.1 77.1198 125.16 77.1398 125.16 77.1898C125.18 77.2398 125.14 77.2898 125.1 77.2998V77.3098ZM120.46 78.7798C120.41 78.7998 120.36 78.7798 120.33 78.7298C120.3 78.6898 120.33 78.6298 120.39 78.5998C120.58 78.5198 120.77 78.4298 120.96 78.3498C121.1 78.2898 121.24 78.2398 121.37 78.1798C121.42 78.1598 121.48 78.1798 121.51 78.2198C121.53 78.2698 121.5 78.3198 121.45 78.3498C121.31 78.4098 121.18 78.4598 121.05 78.5098C120.86 78.5898 120.67 78.6798 120.48 78.7598H120.46V78.7798ZM123.23 77.7498C122.9 77.8498 122.56 77.9498 122.22 78.0698C122.16 78.0898 122.11 78.0698 122.09 78.0098C122.07 77.9598 122.1 77.9098 122.16 77.8898C122.5 77.7698 122.83 77.6698 123.18 77.5698C123.24 77.5498 123.3 77.5798 123.31 77.6298C123.31 77.6798 123.29 77.7398 123.23 77.7598V77.7498Z" fill="#11A452"/>
<path d="M113.54 82.82C113.54 82.82 113.45 82.82 113.42 82.78C113.34 82.71 113.33 82.61 113.39 82.52C113.72 82.04 114.07 81.55 114.42 81.09C114.48 81.01 114.58 81 114.65 81.06C114.72 81.13 114.74 81.23 114.68 81.32C114.33 81.79 113.98 82.27 113.64 82.74C113.61 82.8 113.57 82.82 113.53 82.83L113.54 82.82ZM115.44 80.31C115.39 80.31 115.34 80.31 115.3 80.27C115.22 80.2 115.23 80.09 115.29 80.01C115.66 79.56 116.05 79.11 116.44 78.69C116.5 78.63 116.62 78.61 116.68 78.69C116.74 78.76 116.75 78.88 116.68 78.95C116.29 79.37 115.9 79.82 115.53 80.27C115.53 80.27 115.48 80.29 115.45 80.3L115.44 80.31ZM117.55 77.99C117.5 77.99 117.45 77.99 117.41 77.93C117.35 77.86 117.35 77.73 117.41 77.67C117.82 77.25 118.24 76.85 118.67 76.47C118.75 76.41 118.85 76.41 118.91 76.5C118.97 76.59 118.97 76.7 118.89 76.76C118.48 77.14 118.05 77.54 117.64 77.94C117.61 77.96 117.58 77.98 117.54 77.99H117.55ZM119.84 75.87C119.79 75.87 119.72 75.85 119.68 75.8C119.62 75.71 119.64 75.6 119.7 75.54C120.15 75.17 120.6 74.81 121.06 74.47C121.14 74.41 121.24 74.43 121.28 74.52C121.34 74.61 121.32 74.72 121.24 74.77C120.79 75.1 120.34 75.47 119.89 75.83C119.88 75.87 119.86 75.87 119.83 75.87H119.84ZM122.32 74.03C122.25 74.03 122.2 74.01 122.16 73.94C122.12 73.85 122.14 73.74 122.22 73.69C122.69 73.38 123.18 73.06 123.67 72.78C123.75 72.73 123.85 72.76 123.9 72.86C123.94 72.95 123.92 73.06 123.83 73.11C123.36 73.39 122.87 73.7 122.4 74.02C122.38 74.02 122.35 74.02 122.33 74.02L122.32 74.03ZM144.27 70.88C144.27 70.88 144.22 70.88 144.2 70.87C143.66 70.69 143.11 70.55 142.58 70.41C142.49 70.38 142.43 70.3 142.45 70.18C142.47 70.08 142.55 70.02 142.65 70.05C143.19 70.19 143.75 70.35 144.29 70.51C144.38 70.54 144.44 70.64 144.4 70.74C144.4 70.83 144.33 70.88 144.27 70.89V70.88ZM124.96 72.46C124.89 72.46 124.82 72.42 124.79 72.35C124.75 72.26 124.79 72.15 124.86 72.1C125.37 71.84 125.88 71.59 126.4 71.37C126.48 71.34 126.59 71.39 126.61 71.47C126.64 71.56 126.61 71.67 126.52 71.7C126.01 71.93 125.49 72.17 125 72.43C124.99 72.45 124.97 72.45 124.95 72.45L124.96 72.46ZM141.3 70.13C141.3 70.13 141.27 70.13 141.25 70.13C140.7 70.03 140.14 69.93 139.6 69.86C139.51 69.86 139.44 69.75 139.44 69.66C139.44 69.57 139.54 69.48 139.62 69.49C140.17 69.56 140.74 69.66 141.29 69.76C141.38 69.79 141.44 69.87 141.43 69.97C141.44 70.06 141.38 70.12 141.3 70.13ZM127.74 71.23C127.66 71.23 127.58 71.19 127.56 71.1C127.53 71.01 127.57 70.9 127.67 70.87C128.21 70.68 128.74 70.49 129.28 70.33C129.36 70.3 129.47 70.36 129.48 70.45C129.51 70.54 129.45 70.66 129.37 70.67C128.85 70.82 128.31 71.02 127.78 71.21C127.77 71.23 127.75 71.23 127.75 71.23H127.74ZM138.3 69.72H138.27C137.71 69.68 137.15 69.65 136.61 69.66C136.53 69.66 136.45 69.57 136.44 69.48C136.44 69.39 136.52 69.3 136.6 69.29C137.16 69.29 137.74 69.32 138.3 69.37C138.38 69.37 138.46 69.46 138.46 69.57C138.46 69.64 138.39 69.71 138.31 69.72H138.3ZM130.63 70.34C130.55 70.34 130.47 70.28 130.44 70.19C130.41 70.1 130.47 70 130.57 69.97C131.11 69.83 131.68 69.73 132.22 69.63C132.3 69.6 132.4 69.68 132.41 69.79C132.42 69.9 132.37 69.98 132.26 69.99C131.71 70.09 131.17 70.19 130.63 70.33V70.34ZM135.27 69.67C134.7 69.7 134.15 69.75 133.6 69.81C133.5 69.82 133.42 69.74 133.41 69.65C133.4 69.54 133.45 69.46 133.55 69.45C134.1 69.39 134.67 69.34 135.24 69.31C135.34 69.3 135.42 69.38 135.41 69.49C135.42 69.58 135.36 69.66 135.26 69.67H135.27Z" fill="#11A452"/>
<path d="M113 83.3999C112.91 83.3999 112.83 83.3399 112.82 83.2499C112.71 82.6999 112.56 82.1699 112.41 81.6299C112.37 81.5399 112.45 81.4299 112.54 81.4099C112.63 81.3699 112.74 81.4499 112.76 81.5399C112.92 82.0699 113.05 82.6199 113.16 83.1899C113.18 83.2799 113.12 83.3899 113.01 83.4099C113.01 83.4099 113.003 83.4032 112.99 83.3899L113 83.3999ZM112.13 80.3699C112.06 80.3699 111.98 80.3099 111.96 80.2399C111.76 79.6699 111.52 79.0999 111.28 78.5499C111.24 78.4599 111.28 78.3499 111.37 78.3099C111.46 78.2699 111.57 78.3099 111.61 78.3999C111.87 78.9499 112.11 79.5399 112.31 80.1099C112.35 80.1999 112.29 80.3099 112.2 80.3499C112.16 80.3699 112.14 80.3699 112.13 80.3699ZM110.79 77.3499C110.72 77.3499 110.66 77.3099 110.62 77.2599C110.33 76.7299 110.03 76.1899 109.7 75.6999C109.64 75.6099 109.66 75.4999 109.76 75.4399C109.85 75.3799 109.96 75.3999 110.02 75.4999C110.35 76.0099 110.66 76.5499 110.96 77.0999C111.02 77.1899 110.98 77.2999 110.89 77.3599C110.85 77.3399 110.82 77.3599 110.8 77.3599L110.79 77.3499ZM109.03 74.5599C108.97 74.5599 108.92 74.5399 108.88 74.4899C108.51 74.0099 108.14 73.5299 107.74 73.0699C107.67 72.9999 107.68 72.8899 107.76 72.8099C107.83 72.7399 107.94 72.7499 108.02 72.8299C108.42 73.2899 108.81 73.7899 109.18 74.2799C109.24 74.3499 109.22 74.4799 109.14 74.5399C109.1 74.5399 109.07 74.5599 109.03 74.5599ZM106.86 72.0399C106.8 72.0399 106.77 72.0199 106.73 71.9799C106.31 71.5599 105.85 71.1299 105.39 70.7499C105.32 70.6799 105.3 70.5699 105.37 70.4899C105.44 70.4199 105.55 70.3999 105.63 70.4699C106.09 70.8699 106.55 71.2999 106.99 71.7399C107.06 71.8099 107.06 71.9199 106.99 71.9999C106.97 72.0199 106.92 72.0399 106.86 72.0399ZM104.38 69.8699C104.38 69.8699 104.31 69.8499 104.27 69.8299C103.79 69.4599 103.28 69.1099 102.76 68.7999C102.67 68.7399 102.65 68.6299 102.7 68.5399C102.76 68.4499 102.87 68.4299 102.96 68.4799C103.47 68.8099 103.99 69.1599 104.49 69.5299C104.56 69.5899 104.58 69.7099 104.53 69.7899C104.49 69.8499 104.44 69.8599 104.38 69.8599V69.8699Z" fill="#11A452"/>
<path d="M148.15 63.7301C148.45 61.8901 147.2 60.1501 145.35 59.8501C143.51 59.5501 141.77 60.8001 141.47 62.6501C141.17 64.4901 142.42 66.2301 144.27 66.5301C146.11 66.8301 147.85 65.5801 148.15 63.7301Z" fill="white"/>
<path d="M144.81 58.3701C142.2 58.3701 140.1 60.4801 140.1 63.0801C140.1 67.6201 144.81 72.4001 144.81 72.4001C144.81 72.4001 149.52 67.5801 149.52 63.0801C149.52 60.4701 147.41 58.3701 144.81 58.3701ZM144.81 65.3701C143.6 65.3701 142.62 64.3801 142.62 63.1801C142.62 61.9801 143.59 60.9901 144.81 60.9901C146.03 60.9901 147 61.9801 147 63.1801C147 64.3801 146.02 65.3701 144.81 65.3701Z" fill="#EE7120"/>
<path d="M15.23 271.54H46.33C46.47 271.54 46.56 271.45 46.56 271.31C46.56 271.17 46.47 271.08 46.33 271.08H15.23C15.09 271.08 15 271.17 15 271.31C15 271.43 15.09 271.54 15.23 271.54Z" fill="black"/>
<path d="M50.4001 186.05C50.4001 186.05 27.4201 177.17 12.9201 191.09C-1.5899 205.02 -2.4899 265.55 46.3301 271.31H118.89L50.4001 186.05Z" fill="white"/>
<path d="M46.3199 271.54H118.88C118.97 271.54 119.04 271.49 119.09 271.4C119.14 271.33 119.11 271.21 119.07 271.14L50.5799 185.88C50.5799 185.88 50.5099 185.83 50.4899 185.81C50.4399 185.79 44.6399 183.57 37.1199 183.1C30.1799 182.66 20.3199 183.66 12.7599 190.92C8.72992 194.78 5.72992 202.16 4.54992 211.14C3.27992 220.74 4.22992 230.92 7.20992 239.85C10.0299 248.27 14.4999 255.21 20.4699 260.53C27.3399 266.62 36.0199 270.32 46.2899 271.54C46.3099 271.52 46.3399 271.52 46.3399 271.52L46.3199 271.54ZM118.42 271.08H46.3499C27.4499 268.84 13.6999 257.71 7.65992 239.7C1.19992 220.43 5.34992 198.7 13.0999 191.25C20.5299 184.12 30.2699 183.13 37.1199 183.57C44.1499 184.01 49.6799 186 50.2899 186.23L118.43 271.08H118.42Z" fill="black"/>
<path d="M24.16 224.09C24.23 224.09 24.3 224.07 24.35 224C24.42 223.91 24.42 223.75 24.3 223.68C20.74 220.86 18.1 216.88 16.87 212.48C16.85 212.36 16.71 212.3 16.59 212.32C16.47 212.34 16.4 212.48 16.43 212.6C17.68 217.09 20.36 221.14 24.02 224.05C24.04 224.07 24.09 224.1 24.16 224.1V224.09Z" fill="black"/>
<path d="M39.2701 231.1C33.3201 229.5 28.2301 227.33 24.5501 224.18C24.5501 224.18 23.9901 199.03 34.2901 180.36C35.2401 178.62 36.5601 177.1 38.1101 175.87C41.6501 173.12 48.8501 169 60.1801 169.23C60.1801 169.23 74.7801 171.66 78.3901 178C82.0501 184.39 88.1301 202.34 88.1301 202.34L39.2601 231.1H39.2701Z" fill="#11A452"/>
<path d="M69.65 202.66C69.74 202.66 69.84 202.59 69.88 202.5L73.91 188.57C73.96 188.45 73.86 188.31 73.75 188.29C73.63 188.24 73.5 188.34 73.47 188.45L69.44 202.38C69.39 202.5 69.49 202.63 69.6 202.66H69.65Z" fill="black"/>
<path d="M31.5901 228.44C31.5901 228.44 37.1901 211.87 60.7001 211.69C75.6201 211.57 94.1601 211.78 105.68 211.97C112.39 212.06 118.45 215.95 121.37 222.01L141.34 263.63L148.21 269.02C149.18 269.78 148.63 271.31 147.42 271.31H107.51C106.19 271.31 104.9 270.96 103.76 270.32C98.3001 267.24 81.4601 257.04 65.8801 240.22C55.1001 233.14 44.0401 233.65 31.5901 228.44Z" fill="white"/>
<path d="M107.48 271.54H147.39C148.04 271.54 148.62 271.15 148.82 270.52C149.03 269.9 148.84 269.25 148.31 268.83L141.48 263.48L121.53 221.9C118.57 215.72 112.48 211.84 105.66 211.74C93.1901 211.56 75.2601 211.35 60.6801 211.46C60.5401 211.46 60.4501 211.58 60.4501 211.69C60.4501 211.83 60.5701 211.92 60.6801 211.92C75.2601 211.8 93.1901 212.01 105.66 212.2C112.32 212.29 118.25 216.09 121.14 222.1L141.08 263.7C141.08 263.7 141.13 263.77 141.15 263.79L148.02 269.18C148.46 269.53 148.48 270.01 148.37 270.36C148.25 270.71 147.93 271.08 147.38 271.08H107.47C106.2 271.08 104.95 270.76 103.84 270.13C98.9401 267.38 81.7201 257.03 66.0301 240.08C66.0301 240.08 66.0134 240.063 65.9801 240.03C59.6201 235.84 53.1801 234.29 46.3601 232.65C41.6401 231.52 36.7601 230.36 31.6701 228.23C31.5501 228.18 31.4201 228.23 31.3701 228.35C31.3201 228.47 31.3701 228.61 31.4901 228.65C36.6301 230.8 41.5301 231.96 46.2501 233.09C53.0101 234.71 59.3901 236.24 65.6901 240.38C81.4201 257.36 98.6801 267.73 103.59 270.5C104.79 271.17 106.11 271.52 107.48 271.52V271.54Z" fill="black"/>
<path d="M131.43 271.54H133.44C134.32 271.54 135.06 270.99 135.29 270.13C135.52 269.27 135.17 268.42 134.41 267.98L129.02 264.79L86.05 223.33C80.24 217.73 72.58 214.56 64.51 214.44L60.72 214.39C60.6 214.39 60.49 214.48 60.49 214.62C60.49 214.76 60.58 214.85 60.72 214.85L64.51 214.9C72.47 215.02 80.01 218.12 85.75 223.65L128.74 265.11C128.74 265.11 128.76 265.13 128.79 265.13L134.2 268.35C134.89 268.77 134.99 269.48 134.87 269.99C134.73 270.48 134.29 271.05 133.46 271.05H131.45C131.31 271.05 131.22 271.14 131.22 271.28C131.2 271.42 131.29 271.53 131.43 271.53V271.54Z" fill="black"/>
<path d="M100.12 237C100.12 237 100.17 237 100.19 236.98C100.31 236.93 100.38 236.82 100.33 236.68L95.8899 223.35C95.8399 223.23 95.7299 223.16 95.5899 223.21C95.4699 223.26 95.3999 223.37 95.4499 223.51L99.8899 236.84C99.9399 236.96 100.03 237 100.12 237Z" fill="black"/>
<path d="M65.0501 239.61C65.1201 239.61 65.1701 239.59 65.2101 239.54C65.3001 239.45 65.2801 239.31 65.1901 239.22C62.2101 236.49 59.5001 233.43 57.0901 230.2C57.0201 230.11 56.8601 230.08 56.7701 230.15C56.6801 230.22 56.6501 230.38 56.7201 230.47C59.1301 233.76 61.8801 236.81 64.8901 239.56C64.9401 239.61 64.9801 239.61 65.0501 239.61Z" fill="black"/>
<path d="M97.3701 266.71L128.88 265.18C129.02 265.18 129.11 265.06 129.11 264.95C129.11 264.81 128.99 264.72 128.88 264.72L97.3901 266.25C97.2501 266.25 97.1601 266.37 97.1601 266.48C97.1401 266.62 97.2501 266.71 97.3701 266.71Z" fill="black"/>
<path d="M128 263.86H141.3C141.44 263.86 141.53 263.77 141.53 263.63C141.53 263.49 141.44 263.4 141.3 263.4H128C127.86 263.4 127.77 263.49 127.77 263.63C127.77 263.75 127.89 263.86 128 263.86Z" fill="black"/>
<path d="M52.43 183.15L60.2 202.22C60.2 202.22 85.05 202.57 87.41 206.52C89.75 210.48 85.98 212.05 85.98 212.05C85.98 212.05 57.31 216.31 49.35 213.35C41.39 210.36 36.46 192.46 35.37 185.77C34.28 179.06 52.42 183.16 52.42 183.16L52.43 183.15Z" fill="#11A452"/>
<path d="M49.3599 213.58C49.4499 213.58 49.5499 213.53 49.5699 213.44C49.6199 213.32 49.5499 213.19 49.4299 213.14C43.1399 210.78 38.9899 198.79 37.4899 193.75C37.4399 193.63 37.3299 193.57 37.2099 193.59C37.0899 193.64 37.0199 193.75 37.0499 193.87C38.9199 200.21 43.0199 211.22 49.2699 213.56C49.3199 213.56 49.3399 213.58 49.3599 213.58Z" fill="black"/>
<path d="M87.4201 206.76C87.4201 206.76 87.4901 206.76 87.5401 206.74C87.6601 206.67 87.6801 206.53 87.6301 206.42C85.3201 202.51 62.6601 202.05 60.3701 202L53.4501 185.06C53.4001 184.94 53.2601 184.87 53.1501 184.94C53.0301 184.99 52.9601 185.12 53.0301 185.24L59.9901 202.29C60.0401 202.38 60.1101 202.43 60.2001 202.43C60.4501 202.43 84.9601 202.82 87.2001 206.62C87.2501 206.71 87.3201 206.76 87.4101 206.76H87.4201Z" fill="black"/>
<path d="M106.42 215.36H60.2799C59.1199 215.36 58.2 214.44 58.2 213.28C58.2 212.12 59.1299 211.2 60.2799 211.2H109.98L106.42 215.36Z" fill="black"/>
<path d="M106.42 215.36L72.6201 214.76L84.7001 186.63C85.1401 185.61 86.1601 184.94 87.2701 184.94H118.51C120.08 184.94 121.17 186.56 120.55 188.02L109.84 213.24C109.26 214.61 107.9 215.44 106.44 215.37L106.42 215.36Z" fill="black"/>
<path d="M104.19 194.26C104.19 194.84 103.73 195.32 103.13 195.32C102.53 195.32 102.07 194.86 102.07 194.26C102.07 193.66 102.53 193.2 103.13 193.2C103.73 193.2 104.19 193.66 104.19 194.26Z" fill="#7BBEE4"/>
<path d="M62.1299 173.35C62.1999 173.35 62.2699 173.33 62.3199 173.26C62.5699 172.94 62.9399 172.52 63.3399 172.06C63.9399 171.34 64.6399 170.56 65.0799 170C65.1499 169.91 65.1499 169.74 65.0299 169.68C64.9399 169.61 64.7799 169.61 64.7099 169.73C64.2699 170.26 63.5999 171.07 62.9999 171.77C62.6099 172.23 62.2399 172.67 61.9599 172.97C61.8699 173.06 61.8899 173.23 61.9799 173.29C62.0499 173.34 62.0999 173.36 62.1399 173.36L62.1299 173.35Z" fill="black"/>
<path d="M59.9799 162.22L56.5799 167.26C56.1199 167.95 55.4499 168.51 54.6599 168.83L52.4199 169.78C52.4199 169.78 56.7699 179.54 64.3099 177.72C64.3099 177.72 69.2199 176.22 64.5599 170.2L66.0899 168.23L59.9799 162.21V162.22Z" fill="white"/>
<path d="M52.4301 170.01C52.4301 170.01 52.5001 170.01 52.5201 169.99L54.7601 169.04C55.5901 168.69 56.2901 168.11 56.7701 167.37L60.1701 162.33C60.2401 162.21 60.2201 162.08 60.1001 162.01C59.9801 161.94 59.8501 161.96 59.7801 162.08L56.3801 167.12C55.9401 167.79 55.3201 168.3 54.5801 168.62L52.3401 169.57C52.2201 169.62 52.1801 169.75 52.2201 169.87C52.2401 169.96 52.3401 170.01 52.4301 170.01Z" fill="black"/>
<path d="M63.06 172.28C63.13 172.28 63.2 172.26 63.25 172.19L66.3 168.37C66.37 168.28 66.37 168.14 66.28 168.07L60.17 162.05C60.08 161.96 59.94 161.96 59.85 162.05C59.76 162.14 59.76 162.28 59.85 162.37L65.82 168.25L62.88 171.9C62.81 171.99 62.81 172.15 62.93 172.22C62.95 172.24 63 172.27 63.07 172.27L63.06 172.28Z" fill="black"/>
<path d="M59.7001 149.63C60.6501 149.81 61.4101 150.3 61.9201 151.06C62.1701 149.9 62.9401 148.89 63.9301 148.21C64.9001 147.54 66.0801 147.19 67.2601 147.05C69.8501 146.75 72.6001 147.56 74.4601 149.39C76.3101 151.22 77.1701 154.09 76.3601 156.56C75.5501 159.03 73.0101 160.91 70.4101 160.7C70.7101 162.13 70.9201 163.62 70.6901 165.05C70.4601 166.48 69.7401 167.92 68.5201 168.71C67.1301 169.61 65.2801 169.57 63.7501 168.94C62.2201 168.32 60.9701 167.16 59.8601 165.93C59.2101 165.21 58.6301 164.45 58.0101 163.71C57.6901 163.34 57.3901 162.95 57.0401 162.6C56.8101 162.37 56.5301 162.21 56.3701 161.93C55.4401 160.45 54.8001 159.41 55.0501 156.54C55.1701 155.5 56.6201 149.02 59.7001 149.62V149.63Z" fill="black"/>
<path d="M68.4499 155.02C68.4499 155.02 69.8199 158.72 70.1899 161.41C70.2799 162.06 69.9599 162.7 69.3799 163.03C68.4499 163.56 66.7399 164.16 64.0099 163.84C59.4999 163.31 59.4499 159.91 59.2199 158.56C58.9399 156.89 59.7099 155.6 62.3699 156.27C66.1199 157.22 68.4599 155.02 68.4599 155.02H68.4499Z" fill="white"/>
<path d="M65.48 164.18C67.4 164.18 68.67 163.69 69.48 163.23C70.15 162.86 70.5 162.12 70.41 161.38C70.04 158.7 68.67 154.97 68.67 154.95C68.65 154.88 68.58 154.83 68.51 154.81C68.44 154.79 68.35 154.81 68.3 154.86C68.28 154.88 65.99 156.97 62.42 156.06C61.1 155.74 60.13 155.83 59.53 156.38C59.02 156.87 58.81 157.63 59 158.6C59.02 158.72 59.05 158.83 59.05 158.97C59.26 160.45 59.67 163.55 63.98 164.06C64.51 164.13 65.02 164.18 65.48 164.18ZM68.35 155.41C68.67 156.36 69.67 159.25 69.95 161.45C70.02 162.01 69.76 162.56 69.26 162.84C68.33 163.37 66.67 163.95 64.03 163.63C60.07 163.17 59.7 160.41 59.5 158.93C59.48 158.79 59.45 158.65 59.45 158.54C59.36 157.96 59.36 157.2 59.84 156.73C60.3 156.29 61.16 156.22 62.32 156.5C65.44 157.29 67.62 155.97 68.36 155.41H68.35Z" fill="black"/>
<path d="M59.1399 163.47C59.1399 163.47 58.4499 162.13 57.9799 160.74C57.9799 160.74 55.1599 159.26 54.7199 161.53C54.2799 163.8 57.6999 165.72 59.1399 163.47Z" fill="white"/>
<path d="M57.3799 164.69C58.0699 164.69 58.8099 164.39 59.3199 163.58C59.3699 163.51 59.3699 163.42 59.3199 163.35C59.3199 163.33 58.6299 162.01 58.1599 160.64C58.1399 160.59 58.0899 160.52 58.0399 160.5C57.9699 160.45 56.3999 159.67 55.3299 160.18C54.8699 160.41 54.5699 160.83 54.4499 161.45C54.1999 162.84 55.1899 164.02 56.3199 164.46C56.6399 164.62 57.0099 164.69 57.3599 164.69H57.3799ZM58.8699 163.44C58.3399 164.2 57.4599 164.44 56.5299 164.06C55.5999 163.69 54.7299 162.69 54.9299 161.56C55.0199 161.07 55.2299 160.77 55.5499 160.61C56.2199 160.29 57.3099 160.66 57.7699 160.89C58.1599 162.02 58.6999 163.09 58.8599 163.43L58.8699 163.44Z" fill="black"/>
<path d="M58.1 163.19C58.17 163.19 58.22 163.17 58.26 163.12C58.35 163.03 58.35 162.89 58.26 162.8C57.7 162.27 56.89 162.01 56.13 162.15C56.01 162.17 55.92 162.29 55.94 162.4C55.96 162.52 56.08 162.61 56.19 162.59C56.81 162.5 57.46 162.71 57.93 163.12C57.98 163.17 58.05 163.19 58.09 163.19H58.1Z" fill="black"/>
</g>
<defs>
<clipPath id="clip0_4029_299">
<rect width="200" height="272" fill="white"/>
</clipPath>
</defs>
</svg>
