<svg width="200" height="272" viewBox="0 0 200 272" fill="none" xmlns="http://www.w3.org/2000/svg">
<g clip-path="url(#clip0_4030_470)">
<path opacity="0.19" d="M192 0H8C3.58172 0 0 3.58172 0 8V264C0 268.418 3.58172 272 8 272H192C196.418 272 200 268.418 200 264V8C200 3.58172 196.418 0 192 0Z" fill="#11A452"/>
<path opacity="0.19" d="M111.79 162.16H173.33C177.08 162.16 180.12 159.14 180.12 155.43V27.73C180.12 24.02 177.07 21 173.33 21H111.79C108.04 21 105 24.02 105 27.73V155.43C105 159.14 108.05 162.16 111.79 162.16Z" fill="#11A452"/>
<path d="M166.67 47.5299C171.26 47.5299 174.99 43.8499 174.99 39.3199C174.99 34.7899 171.26 31.1099 166.67 31.1099C162.08 31.1099 158.35 34.7899 158.35 39.3199C158.35 43.8499 162.07 47.5299 166.67 47.5299Z" fill="#EE7120"/>
<path d="M171.24 47.3499H162.12C162.04 47.3499 161.99 47.3199 161.94 47.2699C161.89 47.2199 161.86 47.1399 161.86 47.0899L162.32 38.1599C162.47 35.2399 164.39 32.9399 166.69 32.9399C168.99 32.9399 170.9 35.2199 171.06 38.1599L171.53 47.0899C171.53 47.1699 171.5 47.2199 171.45 47.2699C171.37 47.3199 171.3 47.3499 171.24 47.3499ZM162.38 46.8399H170.96L170.52 38.1699C170.39 35.5299 168.69 33.4399 166.67 33.4399C164.65 33.4399 162.95 35.5099 162.82 38.1699L162.38 46.8399Z" fill="white"/>
<path d="M170.81 42.8001L166.68 41.8501L162.55 42.8001C161.44 43.0601 160.56 43.8701 160.25 44.9501L159.35 49.6101H174L173.1 44.9501C172.82 43.8801 171.94 43.0601 170.83 42.8001H170.81Z" fill="white"/>
<path d="M166.67 44.3598C165.69 44.3598 164.89 43.5698 164.89 42.5898V39.3198H168.46V42.5898C168.46 43.5898 167.66 44.3598 166.68 44.3598H166.67Z" fill="white"/>
<path d="M169.67 37.0701C169.54 37.0401 169.41 37.0401 169.28 37.1001C169.18 35.4901 168.07 34.3901 166.7 34.3901C165.33 34.3901 164.22 35.4901 164.12 37.1001C163.99 37.0501 163.86 37.0501 163.73 37.0701C163.34 37.1701 163.14 37.6101 163.24 38.0401C163.34 38.4701 163.76 38.7801 164.14 38.6801C164.19 38.6501 164.27 38.6301 164.32 38.6001C164.71 39.8001 165.64 40.7201 166.72 40.7201C167.8 40.7201 168.71 39.8001 169.12 38.6001C169.17 38.6301 169.22 38.6501 169.3 38.6801C169.69 38.7801 170.07 38.5001 170.2 38.0401C170.25 37.6001 170.02 37.1401 169.66 37.0701H169.67Z" fill="white"/>
<path d="M166.67 40.9798C165.61 40.9798 164.6 40.1598 164.11 38.9298C163.59 39.0298 163.08 38.6698 162.95 38.0898C162.87 37.7798 162.92 37.4798 163.08 37.2198C163.21 37.0198 163.42 36.8598 163.65 36.8098C163.73 36.7798 163.78 36.7798 163.86 36.7798C164.07 35.2198 165.23 34.0898 166.68 34.0898C168.13 34.0898 169.29 35.1898 169.5 36.7798C169.55 36.7798 169.65 36.7798 169.71 36.8098C169.94 36.8598 170.15 37.0098 170.28 37.2198C170.43 37.4798 170.49 37.7798 170.41 38.0898C170.26 38.6498 169.74 39.0098 169.25 38.9298C168.76 40.1598 167.75 40.9798 166.69 40.9798H166.67ZM164.27 38.3498C164.27 38.3498 164.32 38.3498 164.35 38.3798C164.43 38.4098 164.48 38.4598 164.51 38.5298C164.9 39.6798 165.75 40.4698 166.65 40.4698C167.55 40.4698 168.41 39.6998 168.79 38.5298C168.82 38.4498 168.87 38.3998 168.95 38.3798C169.03 38.3498 169.1 38.3498 169.18 38.4098C169.21 38.4398 169.26 38.4398 169.28 38.4598C169.54 38.5098 169.8 38.3098 169.87 37.9998C169.92 37.8198 169.9 37.6398 169.82 37.5098C169.77 37.4298 169.69 37.3598 169.59 37.3298C169.51 37.2998 169.44 37.3298 169.36 37.3598C169.28 37.3898 169.21 37.3898 169.13 37.3298C169.05 37.2798 169.03 37.1998 169 37.1298C168.9 35.6998 167.92 34.6498 166.65 34.6498C165.38 34.6498 164.4 35.6998 164.3 37.1298C164.3 37.2098 164.25 37.2798 164.17 37.3298C164.09 37.3798 164.02 37.3798 163.94 37.3598C163.86 37.3298 163.79 37.3298 163.71 37.3298C163.58 37.3598 163.5 37.4598 163.48 37.5098C163.4 37.6398 163.38 37.8198 163.43 37.9998C163.51 38.3098 163.77 38.5098 164.03 38.4598C164.05 38.4598 164.11 38.4298 164.13 38.4098C164.21 38.3798 164.26 38.3598 164.28 38.3598L164.27 38.3498Z" fill="#7BBEE4"/>
<path d="M164.04 37.5002C165.33 37.2702 166.7 36.1202 167.5 35.0902C167.66 36.0102 168.48 37.0602 169.33 37.4402C169.33 37.4402 169.74 33.8102 166.67 33.9302C163.6 34.0302 164.04 37.4902 164.04 37.4902V37.5002Z" fill="#7BBEE4"/>
<path d="M111.1 28.8C111.88 28.8 112.52 28.17 112.52 27.39C112.52 26.61 111.88 25.98 111.1 25.98C110.32 25.98 109.68 26.61 109.68 27.39C109.68 28.17 110.32 28.8 111.1 28.8Z" fill="white"/>
<path d="M116.26 28.8C117.04 28.8 117.68 28.17 117.68 27.39C117.68 26.61 117.04 25.98 116.26 25.98C115.48 25.98 114.84 26.61 114.84 27.39C114.84 28.17 115.48 28.8 116.26 28.8Z" fill="white"/>
<path d="M121.43 28.8C122.21 28.8 122.85 28.17 122.85 27.39C122.85 26.61 122.21 25.98 121.43 25.98C120.65 25.98 120.01 26.61 120.01 27.39C120.01 28.17 120.65 28.8 121.43 28.8Z" fill="white"/>
<path d="M142.54 111.32C158.39 111.32 171.24 98.59 171.24 82.89C171.24 67.19 158.39 54.46 142.54 54.46C126.69 54.46 113.84 67.19 113.84 82.89C113.84 98.59 126.69 111.32 142.54 111.32Z" fill="white"/>
<path d="M131.4 76.27H128.35V93.9H131.4V76.27Z" fill="#11A452"/>
<path d="M132.46 95.6802V94.4302H127.29V95.6802H126.23V97.0902H133.54V95.6802H132.45H132.46Z" fill="#11A452"/>
<path d="M129.49 93.4602C129.34 93.4602 129.23 93.3602 129.23 93.2002V76.9802C129.23 76.8302 129.33 76.7202 129.49 76.7202C129.65 76.7202 129.75 76.8202 129.75 76.9802V93.2002C129.75 93.3302 129.65 93.4602 129.49 93.4602Z" fill="#7BBEE4"/>
<path d="M132.18 74.9302H127.61V75.7702H132.18V74.9302Z" fill="#11A452"/>
<path d="M144.09 76.27H141.04V93.9H144.09V76.27Z" fill="#11A452"/>
<path d="M145.12 95.6802V94.4302H139.98V95.6802H138.9V97.0902H146.21V95.6802H145.13H145.12Z" fill="#11A452"/>
<path d="M142.17 93.4602C142.02 93.4602 141.91 93.3602 141.91 93.2002V76.9802C141.91 76.8302 142.01 76.7202 142.17 76.7202C142.33 76.7202 142.43 76.8202 142.43 76.9802V93.2002C142.43 93.3302 142.3 93.4602 142.17 93.4602Z" fill="#7BBEE4"/>
<path d="M144.84 74.9302H140.27V75.7702H144.84V74.9302Z" fill="#11A452"/>
<path d="M156.75 76.27H153.7V93.9H156.75V76.27Z" fill="#11A452"/>
<path d="M157.78 95.6802V94.4302H152.64V95.6802H151.55V97.0902H158.86V95.6802H157.78Z" fill="#11A452"/>
<path d="M154.83 93.4602C154.68 93.4602 154.57 93.3602 154.57 93.2002V76.9802C154.57 76.8302 154.67 76.7202 154.83 76.7202C154.99 76.7202 155.09 76.8202 155.09 76.9802V93.2002C155.09 93.3302 154.96 93.4602 154.83 93.4602Z" fill="#7BBEE4"/>
<path d="M157.49 74.9302H152.92V75.7702H157.49V74.9302Z" fill="#11A452"/>
<path d="M160.54 72.1201H124.55V74.2901H160.54V72.1201Z" fill="#11A452"/>
<path d="M160.54 97.71H124.55V99.88H160.54V97.71Z" fill="#11A452"/>
<path d="M142.54 63.52L124.56 70.86H160.55L142.54 63.52Z" fill="#11A452"/>
<path d="M160.54 157.29H124.55C124.4 157.29 124.29 157.19 124.29 157.03C124.29 156.87 124.39 156.77 124.55 156.77H160.54C160.69 156.77 160.8 156.87 160.8 157.03C160.8 157.19 160.7 157.29 160.54 157.29Z" fill="white"/>
<path d="M170.41 128.23C170.41 129.43 169.43 130.41 168.21 130.41H117.06C115.85 130.41 114.86 129.44 114.86 128.23C114.86 127.02 115.84 126.06 117.06 126.06H168.21C169.42 126.06 170.41 127.03 170.41 128.23Z" fill="white"/>
<path d="M166.64 128.23C166.64 129.43 165.66 130.41 164.44 130.41H117.06C115.85 130.41 114.86 129.44 114.86 128.23C114.86 127.02 115.84 126.06 117.06 126.06H164.44C165.65 126.06 166.64 127.03 166.64 128.23Z" fill="#11A452"/>
<path d="M131.84 128.23C131.84 129.43 130.86 130.41 129.64 130.41H117.06C115.85 130.41 114.86 129.44 114.86 128.23C114.86 127.02 115.84 126.06 117.06 126.06H129.64C130.85 126.06 131.84 127.03 131.84 128.23Z" fill="#EE7120"/>
<path d="M146.88 149.51C150.33 147.2 151.23 142.55 148.9 139.13C146.56 135.71 141.87 134.82 138.42 137.13C134.97 139.44 134.07 144.09 136.4 147.51C138.74 150.93 143.43 151.82 146.88 149.51Z" fill="white"/>
<path d="M142.04 147.68C141.96 147.68 141.88 147.63 141.83 147.58L138.86 143.49C138.78 143.39 138.81 143.21 138.91 143.13C139.01 143.05 139.19 143.08 139.27 143.18L142.01 146.99L146.4 140.93C146.48 140.83 146.63 140.78 146.76 140.88C146.86 140.96 146.91 141.11 146.81 141.24L142.21 147.59C142.18 147.64 142.11 147.69 142.03 147.69L142.04 147.68Z" fill="#EE7120"/>
<path d="M46.65 161.14L44.54 175.28L43.34 175.35C43.34 175.35 46.04 183.79 53.08 184.96C60.11 186.13 59.39 178.02 59.39 178.02L55.26 176.15L56.67 164.75L46.64 161.14H46.65Z" fill="white"/>
<path d="M55.29 176.37H55.27C55.16 176.35 55.07 176.24 55.07 176.13L56.46 164.91L46.85 161.45L44.78 175.33C44.76 175.44 44.65 175.53 44.54 175.5C44.43 175.48 44.34 175.37 44.37 175.26L46.48 161.12C46.48 161.05 46.52 160.99 46.59 160.97C46.66 160.93 46.72 160.93 46.79 160.95L56.82 164.56C56.91 164.6 56.97 164.69 56.97 164.8L55.56 176.2C55.49 176.29 55.39 176.37 55.3 176.37H55.29Z" fill="black"/>
<path d="M48.07 147.37C49.19 147.59 50.1 148.16 50.7 149.05C51 147.69 51.91 146.5 53.08 145.71C54.23 144.92 55.63 144.51 57.03 144.35C60.1 144 63.36 144.95 65.55 147.09C67.74 149.24 68.76 152.61 67.8 155.51C66.84 158.42 63.83 160.62 60.76 160.37C61.12 162.05 61.36 163.79 61.09 165.48C60.82 167.16 59.97 168.85 58.51 169.77C56.87 170.83 54.67 170.78 52.87 170.04C51.06 169.31 49.58 167.95 48.27 166.51C47.5 165.67 46.82 164.77 46.08 163.9C45.7 163.47 45.34 163 44.93 162.6C44.66 162.33 44.33 162.14 44.14 161.81C43.04 160.07 42.28 158.85 42.58 155.48C42.72 154.26 44.44 146.65 48.09 147.36L48.07 147.37Z" fill="black"/>
<path d="M58.45 153.85C58.45 153.85 60.09 158.19 60.54 161.34C60.65 162.1 60.26 162.86 59.57 163.24C58.46 163.86 56.4 164.57 53.12 164.19C47.7 163.57 47.64 159.58 47.36 158.01C47.03 156.06 47.94 154.54 51.14 155.33C55.65 156.44 58.46 153.87 58.46 153.87L58.45 153.85Z" fill="white"/>
<path d="M45.6901 160.53C45.6901 160.53 45.0401 159.27 44.6001 157.96C44.6001 157.96 41.9501 156.57 41.5301 158.7C41.1201 160.83 44.3401 162.64 45.6801 160.53H45.6901Z" fill="white"/>
<path d="M44.07 161.68C44.72 161.68 45.42 161.4 45.9 160.64C45.94 160.57 45.94 160.49 45.9 160.42C45.9 160.4 45.25 159.16 44.81 157.88C44.79 157.84 44.74 157.77 44.7 157.75C44.63 157.71 43.16 156.97 42.16 157.45C41.72 157.67 41.44 158.06 41.33 158.65C41.09 159.95 42.03 161.06 43.09 161.48C43.39 161.63 43.74 161.7 44.07 161.7V161.68ZM45.47 160.51C44.97 161.23 44.14 161.45 43.27 161.1C42.4 160.75 41.57 159.82 41.77 158.75C41.86 158.29 42.05 158.01 42.36 157.86C42.99 157.56 44.01 157.9 44.45 158.12C44.82 159.19 45.32 160.19 45.47 160.51Z" fill="black"/>
<path d="M44.75 160.27C44.82 160.27 44.86 160.25 44.9 160.2C44.99 160.11 44.99 159.98 44.9 159.9C44.38 159.4 43.62 159.16 42.9 159.29C42.79 159.31 42.7 159.42 42.73 159.53C42.75 159.64 42.86 159.73 42.97 159.7C43.56 159.61 44.17 159.81 44.6 160.2C44.64 160.24 44.71 160.27 44.75 160.27Z" fill="black"/>
<path d="M66.25 270.48C66.77 258.6 68.77 226.81 68.79 226.61L22.79 228.42L6.5 270.66L66.25 270.49V270.48Z" fill="black"/>
<path d="M47.4099 270.76C47.2799 270.74 47.1899 270.65 47.1899 270.52L48.7799 253.05C48.7799 252.94 48.8699 252.85 48.9799 252.85C49.0199 252.85 53.0299 252.61 54.7399 249.67C54.8099 249.56 54.9399 249.54 55.0399 249.58C55.1499 249.65 55.1699 249.78 55.1299 249.88C53.4799 252.69 50.0399 253.19 49.1899 253.27L47.6199 270.56C47.6199 270.65 47.5099 270.73 47.3999 270.73L47.4099 270.76Z" fill="white"/>
<path d="M20.86 208.64L22.77 228.41L39.63 228.61L20.86 208.64Z" fill="#11A452"/>
<path d="M147.57 173.15C147.05 171.84 145.57 171.24 144.24 171.65C141.65 172.45 136.8 172.91 130.04 173.04C121.38 173.19 118.51 178.59 116.06 184.31C113.6 190.03 109.95 198.8 100.81 197.51C95.11 196.7 87 189.31 81.69 183.85C77.97 180.02 73.01 177.67 67.71 177.17L56.7 176.15L55.9 173.02L53.75 175.43L52.21 173.52L43.79 170.63L42.05 175.44C42.05 175.44 32.5 174.72 23.13 178.64C11.08 183.69 14.02 201.39 17.67 208.2C21.32 215.01 27.85 238.08 46.66 237.54C65.47 237 76.15 217.9 76.15 217.9L98.79 219.97C125.78 219.17 132.61 193.11 134.09 184.98C134.33 183.61 135.39 182.5 136.77 182.22C145.69 180.37 147.67 174.61 147.67 174.61C147.87 174.2 147.8 173.68 147.58 173.17L147.57 173.15Z" fill="#11A452"/>
<path d="M132.87 190.46C133.41 188.57 133.85 186.72 134.11 185C134.33 183.61 135.42 182.52 136.79 182.24C145.71 180.39 147.69 174.63 147.69 174.63C147.89 174.15 147.82 173.63 147.62 173.13C147.1 171.83 145.62 171.22 144.29 171.63C141.7 172.44 136.85 172.89 130.09 173.02C125.2 173.11 121.69 174.5 119.76 177.28C118.89 178.54 118.09 180.09 117.26 181.76L132.88 190.46H132.87Z" fill="white"/>
<path d="M132.87 190.68H132.8C132.69 190.64 132.63 190.53 132.65 190.42C133.22 188.51 133.63 186.68 133.89 184.98C134.11 183.52 135.26 182.35 136.72 182.04C145.42 180.26 147.42 174.62 147.44 174.58C147.61 174.19 147.59 173.75 147.37 173.23C146.89 172.08 145.54 171.47 144.3 171.86C141.73 172.67 136.93 173.14 130.03 173.25C125.16 173.34 121.74 174.73 119.87 177.4C118.96 178.7 118.11 180.38 117.37 181.84C117.33 181.95 117.2 181.99 117.09 181.93C116.98 181.89 116.94 181.76 117 181.65C117.74 180.17 118.61 178.47 119.52 177.15C121.46 174.34 125 172.89 130.02 172.8C136.87 172.69 141.61 172.23 144.16 171.43C145.62 170.97 147.2 171.69 147.77 173.06C148.03 173.69 148.05 174.24 147.84 174.71C147.82 174.75 145.75 180.6 136.79 182.45C135.48 182.71 134.48 183.76 134.29 185.04C134.03 186.76 133.62 188.61 133.05 190.52C133.03 190.61 132.94 190.67 132.85 190.67L132.87 190.68Z" fill="black"/>
<path d="M50.89 180.3H50.82C47.71 179.41 44.73 178.1 41.95 176.43C41.84 176.36 41.82 176.23 41.88 176.13C41.95 176.02 42.08 176 42.18 176.06C44.88 177.67 47.75 178.93 50.75 179.82L51.4 177.91C51.44 177.8 51.55 177.74 51.68 177.78C51.79 177.82 51.85 177.93 51.81 178.06L51.09 180.17C51.05 180.26 50.96 180.3 50.87 180.3H50.89Z" fill="white"/>
<path d="M55.44 179.52C55.44 179.52 55.35 179.5 55.31 179.48C55.22 179.41 55.2 179.26 55.27 179.18L56.71 177.27C56.78 177.18 56.93 177.16 57.01 177.23C57.1 177.3 57.12 177.45 57.05 177.53L55.61 179.44C55.57 179.51 55.5 179.53 55.44 179.53V179.52Z" fill="white"/>
<path d="M137.94 178.74C137.83 178.74 137.74 178.65 137.72 178.54C137.7 178.43 137.79 178.32 137.92 178.3C140.99 177.93 143.94 177.08 146.75 175.78C146.75 175.76 146.75 175.74 146.77 175.71C146.81 175.6 146.94 175.54 147.05 175.58L147.18 175.62C147.27 175.64 147.31 175.73 147.31 175.82C147.31 175.91 147.27 175.99 147.18 176.02C144.27 177.41 141.16 178.3 137.96 178.69C137.96 178.73 137.94 178.73 137.94 178.73V178.74Z" fill="black"/>
<path d="M61.2701 205.42L54.8501 178.97L54.7401 176.19L53.7201 176.28L52.3101 176.39L53.0701 179.3L57.3301 207.92L61.2701 205.42Z" fill="white"/>
<path d="M45.61 216.19C45.52 216.19 45.46 216.15 45.41 216.08L37.1 200.4C36.51 199.29 36.43 197.99 36.84 196.81C36.88 196.7 37.01 196.64 37.12 196.68C37.23 196.72 37.29 196.85 37.25 196.96C36.88 198.03 36.95 199.2 37.49 200.2L45.8 215.88C45.87 215.99 45.82 216.12 45.71 216.18H45.6L45.61 216.19Z" fill="white"/>
<path d="M44.02 217.6C43.95 217.6 43.89 217.58 43.85 217.51C43.78 217.42 43.78 217.27 43.89 217.21C44.02 217.1 58.05 205.99 67.62 202.44C67.73 202.4 67.86 202.46 67.9 202.57C67.94 202.68 67.88 202.81 67.77 202.85C58.27 206.37 44.3 217.44 44.15 217.55C44.11 217.57 44.06 217.59 44.02 217.59V217.6Z" fill="white"/>
<path d="M28.0101 227.98C27.9201 227.98 27.8601 227.94 27.8101 227.87L19.9801 213.84C19.9101 213.73 19.9601 213.6 20.0701 213.54C20.1801 213.47 20.3101 213.52 20.3701 213.63L28.2001 227.66C28.2701 227.77 28.2201 227.9 28.1101 227.96C28.0901 227.98 28.0401 227.98 28.0001 227.98H28.0101Z" fill="white"/>
<path d="M78.47 226.39V222.11C78.47 220.96 79.41 220.02 80.56 220.02H97.33C98.48 220.02 99.42 220.95 99.42 222.11V226.39H102.01V222.11C102.01 219.52 99.9 217.43 97.33 217.43H80.56C77.97 217.43 75.88 219.54 75.88 222.11V226.39H78.47Z" fill="black"/>
<path d="M78.6899 228.3H75.8599C74.4699 228.3 73.3199 227.15 73.3199 225.76C73.3199 224.37 74.4699 223.22 75.8599 223.22H78.6899C80.0799 223.22 81.2299 224.37 81.2299 225.76C81.2299 227.15 80.0799 228.3 78.6899 228.3Z" fill="white"/>
<path d="M78.69 228.52H75.86C74.34 228.52 73.1 227.28 73.1 225.76C73.1 224.24 74.34 223 75.86 223H78.69C80.21 223 81.45 224.24 81.45 225.76C81.45 227.28 80.21 228.52 78.69 228.52ZM75.86 223.43C74.58 223.43 73.53 224.47 73.53 225.76C73.53 227.05 74.57 228.09 75.86 228.09H78.69C79.97 228.09 81.02 227.05 81.02 225.76C81.02 224.47 79.98 223.43 78.69 223.43H75.86Z" fill="black"/>
<path d="M102.03 228.3H99.2C97.81 228.3 96.66 227.15 96.66 225.76C96.66 224.37 97.81 223.22 99.2 223.22H102.03C103.42 223.22 104.57 224.37 104.57 225.76C104.57 227.15 103.42 228.3 102.03 228.3Z" fill="white"/>
<path d="M102.03 228.52H99.1999C97.6799 228.52 96.4399 227.28 96.4399 225.76C96.4399 224.24 97.6799 223 99.1999 223H102.03C103.55 223 104.79 224.24 104.79 225.76C104.79 227.28 103.55 228.52 102.03 228.52ZM99.1999 223.43C97.9199 223.43 96.8699 224.47 96.8699 225.76C96.8699 227.05 97.9099 228.09 99.1999 228.09H102.03C103.31 228.09 104.36 227.05 104.36 225.76C104.36 224.47 103.32 223.43 102.03 223.43H99.1999Z" fill="black"/>
<path d="M126.3 270.45H61.53L65.66 225.3H120.06L126.3 270.45Z" fill="white"/>
<path d="M126.3 270.67H61.5301C61.4601 270.67 61.4201 270.65 61.3801 270.6C61.3401 270.56 61.3101 270.49 61.3101 270.43L65.4401 225.26C65.4401 225.15 65.5501 225.06 65.6601 225.06H120.06C120.17 225.06 120.25 225.15 120.28 225.26L126.5 270.43C126.5 270.5 126.5 270.56 126.46 270.6C126.42 270.64 126.37 270.67 126.31 270.67H126.3ZM61.7701 270.24H126.04L119.89 225.5H65.8601L61.7701 270.24Z" fill="black"/>
<path d="M122.49 270.67C122.38 270.67 122.3 270.58 122.27 270.47L119.12 245.57C119.1 245.46 119.19 245.35 119.32 245.33C119.43 245.31 119.54 245.4 119.56 245.53L122.71 270.43C122.73 270.54 122.65 270.65 122.51 270.67H122.49Z" fill="black"/>
<path d="M118.34 270.45H53.59L58.72 225.3H114.2L118.33 270.45H118.34Z" fill="white"/>
<path d="M118.34 270.67H53.59C53.52 270.67 53.46 270.65 53.44 270.6C53.4 270.56 53.37 270.49 53.4 270.43L58.55 225.26C58.57 225.15 58.66 225.06 58.77 225.06H114.25C114.36 225.06 114.44 225.15 114.47 225.26L118.6 270.43C118.6 270.5 118.58 270.56 118.53 270.6C118.44 270.64 118.4 270.67 118.34 270.67ZM53.83 270.24H118.1L114.01 225.5H58.92L53.83 270.24Z" fill="black"/>
<path d="M113.01 246.68H56.7899C56.6599 246.68 56.5699 246.59 56.5699 246.46C56.5699 246.33 56.6599 246.24 56.7899 246.24H112.77L112.07 236.54C112.07 236.41 112.16 236.32 112.27 236.3C112.4 236.3 112.49 236.39 112.51 236.5L113.23 246.42C113.23 246.49 113.21 246.53 113.17 246.59C113.15 246.66 113.08 246.68 113.02 246.68H113.01Z" fill="black"/>
<path d="M91.28 245.55H80.88V250.36H91.28V245.55Z" fill="white"/>
<path d="M91.3001 250.57H80.9001C80.7701 250.57 80.6801 250.48 80.6801 250.35V245.54C80.6801 245.41 80.7701 245.32 80.9001 245.32H91.3001C91.4301 245.32 91.5201 245.41 91.5201 245.54V250.35C91.5201 250.48 91.4101 250.57 91.3001 250.57ZM81.1001 250.14H91.0601V245.77H81.1001V250.14Z" fill="black"/>
<path d="M67.6899 202.64L72.8899 200.99C86.4199 197.45 92.6999 204.9 95.8799 214.5C96.4699 216.26 96.9699 217.85 97.2899 219.07C97.6799 220.48 96.2499 221.7 94.9199 221.09C93.8099 220.57 92.6599 219.37 92.0699 216.83C92.0699 216.83 93.1799 222.01 90.9199 222.01C88.9199 222.01 87.7699 218.81 87.7699 218.81C87.7699 218.81 88.3799 222.01 86.6199 222.01C84.6799 222.01 83.3999 218.53 83.3999 218.53C83.3999 218.53 84.2499 222.01 82.5099 222.27C81.5999 222.4 80.7299 221.86 79.6399 219.94C78.9199 218.68 77.5999 217.92 76.1599 217.92C73.9899 217.92 72.0499 216.53 71.3499 214.48L67.6999 202.65L67.6899 202.64Z" fill="white"/>
<path d="M82.28 222.5C81.3 222.5 80.43 221.72 79.47 220.04C78.8 218.87 77.53 218.13 76.16 218.13C73.9 218.13 71.88 216.69 71.14 214.54C71.1 214.43 71.16 214.3 71.27 214.26C71.38 214.22 71.51 214.28 71.55 214.39C72.22 216.37 74.07 217.7 76.16 217.7C77.68 217.7 79.1 218.53 79.84 219.83C81.06 221.96 81.91 222.14 82.49 222.05C82.75 222.01 82.95 221.9 83.1 221.68C83.73 220.77 83.21 218.61 83.21 218.59C83.19 218.48 83.25 218.37 83.36 218.33C83.47 218.29 83.58 218.35 83.62 218.46C83.64 218.5 84.86 221.79 86.62 221.79C86.9 221.79 87.12 221.7 87.27 221.51C87.79 220.88 87.64 219.38 87.55 218.86C87.53 218.75 87.59 218.64 87.7 218.62C87.81 218.6 87.92 218.64 87.96 218.75C87.98 218.77 89.09 221.82 90.92 221.82C91.22 221.82 91.46 221.71 91.64 221.47C92.4 220.51 92.05 217.84 91.84 216.88C91.82 216.77 91.88 216.64 92.01 216.62C92.12 216.6 92.25 216.66 92.27 216.79C92.75 218.9 93.66 220.29 95.01 220.9C95.55 221.16 96.16 221.07 96.6 220.68C97.06 220.29 97.23 219.7 97.06 219.14C96.73 218.01 96.26 216.49 95.65 214.59C91.71 202.63 84.27 198.26 72.92 201.21L67.74 202.86C67.63 202.9 67.5 202.84 67.46 202.71C67.42 202.6 67.48 202.47 67.61 202.43L72.81 200.78C79.12 199.13 84.36 199.76 88.38 202.65C91.73 205.04 94.23 208.91 96.06 214.44C96.69 216.33 97.17 217.88 97.5 219.01C97.72 219.75 97.48 220.51 96.89 221.01C96.3 221.51 95.52 221.62 94.82 221.29C93.86 220.83 93.1 220.03 92.54 218.9C92.58 219.94 92.5 221.1 91.97 221.73C91.71 222.06 91.34 222.23 90.9 222.23C89.57 222.23 88.62 220.97 88.05 219.99C88.05 220.62 87.94 221.34 87.57 221.77C87.33 222.07 86.98 222.23 86.59 222.23C85.33 222.23 84.37 220.97 83.78 219.92C83.82 220.62 83.76 221.4 83.41 221.9C83.19 222.23 82.89 222.42 82.52 222.47C82.43 222.51 82.35 222.51 82.26 222.51L82.28 222.5Z" fill="black"/>
<path d="M92.05 216.95C91.94 216.95 91.85 216.88 91.83 216.78C91.53 215.43 91.11 214.13 90.57 212.87C90.53 212.76 90.57 212.63 90.68 212.59C90.79 212.55 90.92 212.59 90.96 212.7C91.5 213.98 91.94 215.33 92.24 216.7C92.26 216.81 92.2 216.94 92.07 216.96C92.09 216.96 92.07 216.96 92.05 216.96V216.95Z" fill="black"/>
<path d="M87.7201 218.91C87.6101 218.91 87.5201 218.84 87.5001 218.74C87.1501 216.89 86.7201 215.04 86.2201 213.22C86.1801 213.11 86.2601 212.98 86.3701 212.96C86.4801 212.92 86.6101 213 86.6301 213.11C87.1501 214.94 87.5901 216.81 87.9401 218.68C87.9601 218.79 87.8701 218.92 87.7701 218.94C87.7501 218.92 87.7301 218.92 87.7301 218.92L87.7201 218.91Z" fill="black"/>
<path d="M83.4099 218.76C83.3199 218.76 83.2099 218.69 83.1899 218.59C82.9299 217.57 82.5799 216.46 82.2499 215.39C82.0799 214.85 81.8999 214.32 81.7699 213.82C81.7299 213.71 81.7899 213.58 81.9199 213.56C82.0299 213.52 82.1599 213.58 82.1799 213.71C82.3299 214.21 82.4799 214.73 82.6599 215.28C83.0099 216.35 83.3599 217.48 83.6199 218.5C83.6399 218.61 83.5799 218.74 83.4699 218.76C83.4499 218.74 83.4299 218.76 83.3999 218.76H83.4099Z" fill="black"/>
<path d="M70.2501 224.3C70.2501 224.3 70.1401 224.28 70.1001 224.23C65.1401 219.79 62.0701 213.46 61.6801 206.81C61.6801 206.68 61.7701 206.59 61.8801 206.57C62.0101 206.57 62.1001 206.66 62.1201 206.77C62.5101 213.29 65.5101 219.54 70.3801 223.89C70.4701 223.98 70.4701 224.11 70.4001 224.19C70.3801 224.28 70.3101 224.3 70.2501 224.3Z" fill="white"/>
<path d="M128.54 197.05C128.54 197.05 128.45 197.03 128.41 197.01C124.12 193.77 119.54 190.9 114.75 188.49C114.64 188.45 114.6 188.29 114.66 188.21C114.7 188.1 114.86 188.06 114.94 188.12C119.75 190.56 124.36 193.43 128.66 196.69C128.75 196.76 128.77 196.91 128.7 197C128.66 197.04 128.59 197.07 128.53 197.07L128.54 197.05Z" fill="white"/>
</g>
<defs>
<clipPath id="clip0_4030_470">
<rect width="200" height="272" fill="white"/>
</clipPath>
</defs>
</svg>
