<svg width="605" height="577" viewBox="0 0 605 577" fill="none" xmlns="http://www.w3.org/2000/svg">
<path d="M278.999 97.9391C278.999 97.9391 197.384 101.532 154.149 186.87C110.914 272.207 66.2737 245.57 39.9102 322.551C13.5466 399.529 66.7087 487.068 102.344 496.553C137.98 506.037 545.021 496.553 545.021 496.553C545.021 496.553 598.802 459.783 603.02 364.277C607.237 268.771 527.094 236.874 493.877 223.296C460.661 209.717 409.472 95.8303 278.999 97.9391Z" fill="#F3F5F4"/>
<path d="M395.94 331.327C489.956 268.071 508.186 235.59 554.59 229.55C667.615 214.841 584.802 507 325.983 569.431C203.013 599.093 50.6883 518.19 28.9038 455.332C7.84331 394.561 64.5451 371.764 148.271 404.359C232 436.953 348.04 363.557 395.94 331.327Z" stroke="#BBBFBD" stroke-width="1.44537" stroke-miterlimit="10"/>
<path d="M506.274 268.84C511.611 263.007 511.208 253.952 505.375 248.616C499.542 243.279 490.488 243.682 485.151 249.515C479.815 255.348 480.217 264.402 486.05 269.739C491.883 275.075 500.938 274.673 506.274 268.84Z" fill="#D9D9D9"/>
<path d="M500.07 550.584C505.66 544.994 505.66 535.93 500.07 530.34C494.479 524.75 485.416 524.75 479.826 530.34C474.235 535.93 474.235 544.994 479.826 550.584C485.416 556.174 494.479 556.174 500.07 550.584Z" stroke="#BBBFBD" stroke-width="1.44537" stroke-miterlimit="10"/>
<path d="M303.51 229.155C311.416 229.155 317.825 222.746 317.825 214.84C317.825 206.934 311.416 200.525 303.51 200.525C295.605 200.525 289.196 206.934 289.196 214.84C289.196 222.746 295.605 229.155 303.51 229.155Z" stroke="#BBBFBD" stroke-width="1.44537" stroke-miterlimit="10"/>
<path d="M263.003 272.029L248.482 292.241H276.077L263.003 272.029Z" stroke="#BBBFBD" stroke-width="1.44537" stroke-miterlimit="10" stroke-linecap="round" stroke-linejoin="round"/>
<path d="M194.767 528.786L185.639 546.36H213.233L194.767 528.786Z" fill="#D9D9D9"/>
<path d="M59.4294 312.699C62.8952 298.021 53.806 283.312 39.128 279.846C24.45 276.38 9.74145 285.47 6.27556 300.148C2.80966 314.826 11.8989 329.534 26.5769 333C41.2549 336.466 55.9635 327.377 59.4294 312.699Z" stroke="#BBBFBD" stroke-width="1.44537" stroke-miterlimit="10" stroke-linecap="round" stroke-linejoin="round"/>
<path d="M28.6285 314.318C28.3883 313.065 28.2681 311.95 28.2681 310.971C28.2681 309.375 28.4912 308.08 28.9374 307.084C29.3836 306.072 29.95 305.248 30.6364 304.613C31.3229 303.961 32.0265 303.369 32.7473 302.837C33.7084 302.133 34.5579 301.387 35.2958 300.597C36.0338 299.791 36.4028 298.632 36.4028 297.122C36.4028 295.646 35.9651 294.53 35.0899 293.775C34.2146 293.02 33.0906 292.643 31.7176 292.643C30.1044 292.643 28.7658 293.072 27.7018 293.93C26.6378 294.788 25.8827 295.646 25.4365 296.504L21.781 291.51C22.6563 290.429 23.9606 289.399 25.6939 288.421C27.4444 287.426 29.5038 286.928 31.8721 286.928C35.682 286.928 38.5051 287.76 40.3413 289.425C42.1776 291.09 43.0958 293.432 43.0958 296.453C43.0958 297.774 42.8898 298.881 42.478 299.773C42.0832 300.649 41.5598 301.412 40.9077 302.064C40.2555 302.699 39.5605 303.317 38.8225 303.918C38.0331 304.553 37.2694 305.239 36.5315 305.977C35.7935 306.715 35.1843 307.625 34.7038 308.706C34.2232 309.77 33.983 311.126 33.983 312.773V314.318H28.6285ZM28.5771 326.932V319.26H34.3948V326.932H28.5771Z" fill="#99C6AB"/>
<path d="M333.388 126.075C344.052 115.41 344.052 98.1193 333.388 87.4546C322.723 76.79 305.432 76.79 294.768 87.4546C284.103 98.1193 284.103 115.41 294.768 126.075C305.432 136.739 322.723 136.739 333.388 126.075Z" fill="#99C6AB"/>
<path d="M309.844 114.681C309.603 113.428 309.483 112.313 309.483 111.335C309.483 109.739 309.706 108.443 310.153 107.448C310.599 106.435 311.165 105.611 311.852 104.976C312.538 104.324 313.242 103.732 313.962 103.2C314.923 102.496 315.773 101.75 316.511 100.96C317.249 100.154 317.618 98.9954 317.618 97.4852C317.618 96.0093 317.18 94.8938 316.305 94.1387C315.43 93.3836 314.306 93.006 312.933 93.006C311.32 93.006 309.981 93.435 308.917 94.2931C307.853 95.1512 307.098 96.0093 306.652 96.8674L302.996 91.8733C303.871 90.7922 305.176 89.7625 306.909 88.7842C308.659 87.7889 310.719 87.2912 313.087 87.2912C316.897 87.2912 319.72 88.1235 321.556 89.7882C323.393 91.4529 324.311 93.7954 324.311 96.8159C324.311 98.1373 324.105 99.2443 323.693 100.137C323.298 101.012 322.775 101.776 322.123 102.428C321.471 103.063 320.776 103.681 320.038 104.281C319.248 104.916 318.485 105.603 317.747 106.341C317.009 107.079 316.399 107.988 315.919 109.069C315.438 110.133 315.198 111.489 315.198 113.137V114.681H309.844ZM309.792 127.295V119.624H315.61V127.295H309.792Z" fill="white"/>
<path d="M117.269 320.96C119.007 313.565 114.421 306.161 107.027 304.423C99.6316 302.685 92.228 307.271 90.49 314.666C88.752 322.061 93.3377 329.465 100.733 331.203C108.128 332.941 115.531 328.355 117.269 320.96Z" fill="#D9D9D9"/>
<path d="M591.103 72.0127H468.023C460.997 72.0127 455.302 77.7074 455.302 84.7334V158.81C455.302 165.836 460.997 171.531 468.023 171.531H493.076L488.108 184.367C486.67 188.084 490.974 191.377 494.186 189.017L517.977 171.529H591.105C598.131 171.529 603.826 165.834 603.826 158.808V84.7319C603.824 77.7074 598.128 72.0127 591.103 72.0127Z" fill="#AED6BE"/>
<path d="M469.821 92.7783H587.555" stroke="white" stroke-width="1.44537" stroke-miterlimit="10" stroke-linecap="round" stroke-linejoin="round"/>
<path d="M469.821 103.472H587.555" stroke="white" stroke-width="1.44537" stroke-miterlimit="10" stroke-linecap="round" stroke-linejoin="round"/>
<path d="M469.821 114.166H587.555" stroke="white" stroke-width="1.44537" stroke-miterlimit="10" stroke-linecap="round" stroke-linejoin="round"/>
<path d="M469.821 124.859H587.555" stroke="white" stroke-width="1.44537" stroke-miterlimit="10" stroke-linecap="round" stroke-linejoin="round"/>
<path d="M469.821 135.554H587.555" stroke="white" stroke-width="1.44537" stroke-miterlimit="10" stroke-linecap="round" stroke-linejoin="round"/>
<path d="M469.821 146.248H587.555" stroke="white" stroke-width="1.44537" stroke-miterlimit="10" stroke-linecap="round" stroke-linejoin="round"/>
<path d="M206.264 307.494C206.264 307.494 205.011 296.974 203.383 291.963C201.754 286.953 194.866 277.434 194.866 277.434C194.866 277.434 192.111 283.321 196.119 288.205C196.119 288.205 195.869 295.971 196.244 298.725C196.244 298.725 183.223 287.603 180.718 286.476C179.13 285.208 177.192 283.663 174.826 281.777C166.184 274.888 160.422 277.017 161.173 277.519C161.69 277.863 171.573 285.856 177.692 290.811L176.891 291.957C175.032 290.474 172.072 288.111 167.685 284.614C159.044 277.726 153.281 279.855 154.032 280.356C154.661 280.775 169.128 292.493 173.846 296.316L172.454 298.311C170.624 296.851 167.58 294.421 162.924 290.711C154.283 283.822 148.521 285.951 149.271 286.453C149.915 286.882 165.072 299.162 169.407 302.674L167.931 304.789C166.322 303.327 161.853 299.358 157.539 296.348C152.153 292.59 148.27 294.343 148.27 294.343C148.27 294.343 148.27 294.343 150.649 296.472C153.028 298.601 165.428 308.372 165.428 308.372C165.428 308.372 184.359 325.281 189.11 326.909L193.742 331.329L210.788 312.878L206.264 307.494Z" fill="#FF996A"/>
<path d="M342.547 424.288C332.384 438.944 318.167 447.996 299.266 444.15C248.651 433.862 188.886 335.612 188.886 335.612L191.894 332.357L214.2 308.223L291.834 378.77L316.077 343.675L339.758 309.404L351.461 292.469C351.461 292.469 358.315 303.306 362.628 337.755C365.321 359.344 359.635 399.701 342.547 424.288Z" fill="#D3AA7D"/>
<path d="M342.547 424.287C332.384 438.943 318.167 447.996 299.266 444.15C248.651 433.861 188.886 335.611 188.886 335.611L191.894 332.356L193.748 331.326C193.748 331.326 264.967 429.301 294.98 414.728C313.537 405.717 316.518 369.798 316.078 343.673L339.759 309.402L342.547 424.287Z" fill="#C1966B"/>
<path d="M532.663 414.729L528.05 495.939H510.166L517.196 414.729H532.663Z" fill="#649176"/>
<path d="M423.197 414.729L418.584 495.939H400.701L407.731 414.729H423.197Z" fill="#649176"/>
<path d="M534.492 428.785H392.801C378.718 428.785 367.301 417.368 367.301 403.284V324.026C367.301 309.942 378.718 298.525 392.801 298.525H534.492C548.576 298.525 559.993 309.942 559.993 324.026V403.284C559.993 417.368 548.576 428.785 534.492 428.785Z" fill="#649176"/>
<path d="M522.542 428.785H380.852C366.768 428.785 355.351 417.368 355.351 403.284V324.026C355.351 309.942 366.768 298.525 380.852 298.525H522.542C536.626 298.525 548.043 309.942 548.043 324.026V403.284C548.042 417.368 536.625 428.785 522.542 428.785Z" fill="#7EAF92"/>
<path d="M415.742 261.961C415.742 261.961 443.687 257.474 481.282 296.367L489.955 495.939H332.831C332.831 495.939 315.675 361.3 335.673 313.419C355.673 265.537 391.591 259.821 415.742 261.961Z" fill="#FFD294"/>
<path d="M360.925 153.725L367.824 144.279L426.637 163.971L426.127 186.062H430.011C437.898 186.062 444.294 192.456 444.294 200.345C444.294 208.234 437.9 214.628 430.011 214.628H425.467L424.774 244.612V270.961L382.194 276.817L381.15 259.193L380.598 249.934L374.419 246.984C356.734 238.545 345.469 220.692 345.469 201.094C345.469 184.059 350.884 167.473 360.925 153.725Z" fill="#FF996A"/>
<path d="M380.598 249.933L381.151 259.192C382.716 259.005 384.355 258.762 386.056 258.453C412.355 253.659 422.65 229.888 421.582 217.642C421.582 217.642 412.716 247.095 380.598 249.933Z" fill="#D37A57"/>
<path d="M430.45 196.253C429.349 197.087 428.334 198.19 427.972 199.569C427.972 199.569 430.167 200.3 430.367 202.763C430.566 205.225 427.972 206.29 427.972 206.29C427.972 206.29 429.968 209.617 433.295 207.82C436.622 206.024 436.07 199.752 432.763 198.439C432.763 198.439 438.02 197.84 439.948 199.77C439.948 199.77 440.389 197.834 438.192 196.123C435.927 194.355 432.738 194.52 430.45 196.253Z" fill="#D37A57"/>
<path d="M360.926 153.725C360.926 153.725 368.89 167.433 379.181 171.869C389.472 176.305 400.471 169.848 410.762 175.738C421.053 181.628 414.488 192.666 416.795 197.971C419.102 203.274 421.66 203.983 421.66 203.983C421.66 203.983 423.043 188.902 426.129 186.064C426.129 186.064 435.369 185.986 438.246 188.678C438.246 188.678 443.408 178.257 444.296 170.095C445.183 161.933 436.134 159.272 436.134 159.272C436.134 159.272 434.005 139.756 410.052 132.481C386.1 125.206 367.826 136.739 358.245 132.481C348.663 128.223 339.969 134.611 339.437 144.281C338.906 153.949 345.47 157.499 345.47 157.499C345.47 157.499 341.035 161.238 342.809 166.998C344.584 172.758 350.152 174.087 350.152 174.087C350.152 174.087 356.705 159.482 360.926 153.725Z" fill="#3F2D1F"/>
<path d="M365.695 223.873L390.083 222.675C390.083 222.675 384.437 231.458 376.401 231.374C369.001 231.296 365.695 223.873 365.695 223.873Z" fill="white"/>
<path d="M393.726 184.152C393.42 184.152 393.111 184.05 392.855 183.839C387.708 179.598 382.646 183.2 382.594 183.239C381.981 183.689 381.121 183.553 380.675 182.94C380.228 182.327 380.361 181.468 380.974 181.02C383.315 179.311 389.179 177.252 394.601 181.718C395.186 182.201 395.27 183.067 394.787 183.652C394.517 183.982 394.124 184.152 393.726 184.152Z" fill="#3F2D1F"/>
<path d="M363.398 184.152C363.09 184.152 362.783 184.05 362.527 183.839C357.38 179.598 352.317 183.2 352.266 183.239C351.653 183.689 350.793 183.553 350.347 182.94C349.9 182.327 350.033 181.468 350.646 181.02C352.989 179.311 358.851 177.252 364.273 181.718C364.86 182.201 364.942 183.067 364.459 183.652C364.189 183.982 363.796 184.152 363.398 184.152Z" fill="#3F2D1F"/>
<path d="M432.584 264.044L424.866 254.005L394.211 264.808L389.248 273.421L385.89 265.683L381.235 260.6L376.403 269.917C376.403 269.917 376.549 279.26 388.373 281.741C400.196 284.223 426.034 274.588 432.584 264.044Z" fill="#9C897A"/>
<path d="M438.244 188.677C438.244 188.677 433.479 186.857 428.955 191.017C424.431 195.177 425.963 199.264 425.963 199.264C425.963 199.264 428.053 194.336 432.532 194.873C437.011 195.411 440.269 207.512 434.284 209.775C428.299 212.037 420.66 208.59 420.927 199.264C421.195 189.94 424.614 184.666 430.251 183.864C435.888 183.06 438.118 187.797 438.244 188.677Z" fill="#77A58A"/>
<path d="M395.924 235.548C395.346 235.548 394.831 235.139 394.717 234.551C394.59 233.883 395.026 233.238 395.694 233.11C418.879 228.651 426.733 206.817 426.81 206.597C427.032 205.957 427.731 205.617 428.375 205.84C429.017 206.062 429.357 206.762 429.134 207.404C429.052 207.638 420.767 230.793 396.157 235.525C396.08 235.541 396.002 235.548 395.924 235.548Z" fill="#77A58A"/>
<path d="M390.752 234.74C390.752 237.604 393.075 239.927 395.941 239.927C398.807 239.927 401.128 237.604 401.128 234.74C401.128 231.875 398.806 229.551 395.941 229.551C393.076 229.551 390.752 231.873 390.752 234.74Z" fill="#649176"/>
<path d="M431.946 197.109C431.946 197.109 431.29 202.84 432.549 205.907C433.808 208.973 435.78 207.386 436.163 203.662C436.544 199.939 432.822 194.717 431.946 197.109Z" fill="#649176"/>
<path d="M382.615 195.185C382.615 195.185 382.625 200.535 389.626 201.422C396.629 202.31 397.904 195.185 397.904 195.185C397.904 195.185 393.928 191.458 388.786 191.348C383.647 191.237 382.615 195.185 382.615 195.185Z" fill="white"/>
<path d="M350.625 195.185C350.625 195.185 350.633 200.535 357.486 201.422C364.337 202.31 365.255 195.191 365.255 195.191C365.255 195.191 361.693 191.458 356.664 191.348C351.634 191.237 350.625 195.185 350.625 195.185Z" fill="white"/>
<path d="M365.253 195.191C365.253 195.191 361.584 191.16 357.656 190.436C353.729 189.712 351.034 191.624 350.625 195.191C350.625 195.191 351.404 192.246 355.331 191.884C359.259 191.521 365.253 195.191 365.253 195.191Z" fill="#3F2D1F"/>
<path d="M397.905 195.185C397.905 195.185 394.071 190.972 389.966 190.216C385.861 189.46 383.044 191.458 382.616 195.185C382.616 195.185 383.43 192.107 387.535 191.728C391.64 191.351 397.905 195.185 397.905 195.185Z" fill="#3F2D1F"/>
<path d="M371.981 195.339L368.752 214.833C368.752 214.833 366.182 215.031 362.622 213.581C362.622 213.581 371.059 197.529 371.981 195.339Z" fill="#D37A57"/>
<path d="M275.889 495.939C275.889 495.939 275.364 480.372 292.893 475.496C310.424 470.617 331.778 484.879 335.205 495.939H275.889Z" fill="#649176"/>
<path d="M389.337 202.113C391.763 202.113 393.729 199.625 393.729 196.555C393.729 193.486 391.763 190.998 389.337 190.998C386.911 190.998 384.944 193.486 384.944 196.555C384.944 199.625 386.911 202.113 389.337 202.113Z" fill="#3F2D1F"/>
<path d="M362.93 196.729C362.93 199.702 361.012 202.113 358.646 202.113C356.28 202.113 354.362 199.702 354.362 196.729C354.362 193.756 356.28 191.345 358.646 191.345C361.012 191.345 362.93 193.754 362.93 196.729Z" fill="#3F2D1F"/>
<path d="M408.757 210.454C408.757 212.878 405.888 214.842 402.349 214.842C398.809 214.842 395.94 212.878 395.94 210.454C395.94 208.032 398.809 206.067 402.349 206.067C405.888 206.066 408.757 208.03 408.757 210.454Z" fill="#D37A57"/>
<path d="M356.426 208.351C356.426 210.773 353.557 212.738 350.018 212.738C346.478 212.738 343.609 210.773 343.609 208.351C343.609 205.927 346.478 203.963 350.018 203.963C353.557 203.963 356.426 205.927 356.426 208.351Z" fill="#D37A57"/>
<path d="M524.462 446.388C520.024 459.738 511.907 469.834 502.293 476.977C495.741 481.827 488.502 485.301 481.277 487.485C451.114 496.633 339.401 495.932 339.401 495.932L343.604 462.184L468.695 434.067C468.695 434.067 452.514 382.738 453.228 341.269C453.874 302.672 465.384 286.766 478.35 294.28C479.326 294.857 480.3 295.543 481.275 296.367C481.275 296.367 501.028 325.802 521.41 386.253C529.75 410.978 529.598 430.867 524.462 446.388Z" fill="#E5BC89"/>
<path d="M330.899 466.666L304.361 461.83C304.361 461.83 299.484 460.995 294.606 463.105C289.729 465.214 284.192 475.496 284.192 475.496C284.192 475.496 288.674 475.563 291.705 472.828C294.738 470.092 295.132 467.72 295.132 467.72L304.871 468.479L305.045 470.738C301.792 471.449 292.533 473.561 288.015 475.498C282.479 477.871 279.579 485.119 279.579 485.119C279.579 485.119 286.829 484.066 290.519 479.584L305.594 477.874L305.702 479.281C302.595 479.493 297.046 480.189 291.838 482.484C284.061 485.911 281.689 490.525 281.689 490.525C281.689 490.525 289.466 490.525 294.936 486.307L298.618 486.002C294.979 488.335 291.838 493.953 291.838 493.953C291.838 493.953 293.419 494.349 296.979 492.767C300.538 491.186 301.461 489.382 301.461 489.382L311.833 490.158C317.219 490.927 325.366 491.683 330.022 490.13L339.94 491.657L343.053 466.672H330.899V466.666Z" fill="#FF996A"/>
<path d="M551.827 512.27H52.8077C48.2981 512.27 44.6414 508.613 44.6414 504.104C44.6414 499.594 48.2981 495.938 52.8077 495.938H551.828C556.338 495.938 559.994 499.594 559.994 504.104C559.993 508.615 556.338 512.27 551.827 512.27Z" fill="#649176"/>
<path d="M360.535 512.27H49.5412C46.8354 512.27 44.6414 508.613 44.6414 504.104C44.6414 499.594 46.8354 495.938 49.5412 495.938H205.038H360.535C363.241 495.938 365.435 499.594 365.435 504.104C365.435 508.615 363.241 512.27 360.535 512.27Z" fill="#7EAF92"/>
<path d="M266.492 464.466H94.6383C88.8423 464.466 83.8255 460.433 82.5781 454.773L60.3643 353.887C59.2745 348.939 63.0425 344.252 68.1085 344.252H241.901C247.038 344.252 251.484 347.825 252.588 352.842L274.871 454.042C276.049 459.396 271.973 464.466 266.492 464.466Z" fill="#7EAF92"/>
<path d="M122.819 447.378C121.383 454.607 112.947 459.025 103.974 457.242C95.001 455.462 88.8914 448.157 90.3267 440.927C91.7619 433.697 100.199 429.282 109.171 431.062C118.144 432.845 124.254 440.148 122.819 447.378Z" fill="#99C6AB"/>
<path d="M274.87 454.042L252.586 352.84C251.482 347.823 247.036 344.25 241.899 344.25H231.882C237.018 344.25 241.464 347.823 242.569 352.84L264.852 454.042C266.031 459.395 261.955 464.466 256.473 464.466H266.491C271.973 464.466 276.049 459.395 274.87 454.042Z" fill="#649176"/>
<path d="M245.13 491.885C245.13 494.124 243.322 495.932 241.083 495.932H98.4206C96.1326 495.932 94.0527 494.997 92.5524 493.496C91.0391 491.996 90.1169 489.929 90.1169 487.628C90.1169 485.992 90.6084 484.392 91.519 483.027L126.828 430.126C127.837 428.637 129.51 427.739 131.306 427.739H193.04C195.254 427.739 196.645 430.139 195.525 432.058L165.715 483.556C164.608 485.463 165.986 487.838 168.175 487.838H241.081C242.201 487.838 243.21 488.293 243.947 489.032C244.674 489.757 245.13 490.766 245.13 491.885Z" fill="#649176"/>
<path d="M202.775 403.654H115.251C114.232 403.654 113.405 402.828 113.405 401.809C113.405 400.79 114.232 399.963 115.251 399.963H202.775C203.794 399.963 204.621 400.79 204.621 401.809C204.621 402.829 203.794 403.654 202.775 403.654Z" fill="#649176"/>
<path d="M206.994 414.728H119.468C118.449 414.728 117.623 413.901 117.623 412.882C117.623 411.863 118.449 411.036 119.468 411.036H206.993C208.012 411.036 208.838 411.863 208.838 412.882C208.838 413.902 208.013 414.728 206.994 414.728Z" fill="#649176"/>
<path d="M62.1767 350.227H247.519C249.027 350.227 250.475 350.506 251.812 351.003C250.144 346.975 246.188 344.252 241.704 344.252H67.9119C64.0542 344.252 60.9568 346.971 60.1763 350.451C60.8151 350.307 61.4843 350.227 62.1767 350.227Z" fill="#99C6AB"/>
<path d="M252.584 447.378C251.149 454.607 242.712 459.025 233.739 457.242C224.766 455.462 218.657 448.157 220.092 440.927C221.527 433.697 229.964 429.282 238.937 431.062C247.908 432.845 254.018 440.148 252.584 447.378Z" fill="#99C6AB"/>
<path d="M245.12 492.18C244.967 494.335 243.027 495.934 240.866 495.934H159.677C156.399 495.934 153.741 493.276 153.741 489.999C153.741 488.877 154.059 487.779 154.657 486.831L191.958 427.741H193.04C195.255 427.741 196.645 430.141 195.525 432.06L165.716 483.558C164.608 485.465 165.986 487.84 168.176 487.84H241.081C242.202 487.84 243.21 488.295 243.948 489.033C244.738 489.82 245.206 490.944 245.12 492.18Z" fill="#527A62"/>
<path d="M481.277 487.485C451.114 496.633 339.401 495.932 339.401 495.932L483.737 457.525C498.829 453.509 508.441 438.74 505.987 423.316C499.643 383.443 487.365 311.897 478.35 294.278C479.326 294.855 480.3 295.542 481.275 296.365C481.275 296.365 501.028 325.8 521.41 386.251C541.796 446.717 511.455 478.35 481.277 487.485Z" fill="#D3AA7D"/>
<path d="M472.765 435.482C472.765 435.482 493.404 435.191 510.164 450.495" stroke="#9C897A" stroke-width="1.44537" stroke-miterlimit="10" stroke-linecap="round" stroke-linejoin="round"/>
<path d="M429.581 267.646C429.581 267.646 456.738 276.88 470.112 292.712" stroke="#E5BC89" stroke-width="1.44537" stroke-miterlimit="10" stroke-linecap="round" stroke-linejoin="round"/>
<path d="M294.398 383.384C294.398 383.384 309.395 402.81 311.315 425.179" stroke="#9C897A" stroke-width="1.44537" stroke-miterlimit="10" stroke-linecap="round" stroke-linejoin="round"/>
<path d="M371.971 270.06C371.971 270.06 366.269 286.057 390.083 288.02C413.898 289.983 440 266.62 440 266.62" stroke="#E5BC89" stroke-width="1.44537" stroke-miterlimit="10" stroke-linecap="round" stroke-linejoin="round"/>
<path d="M339.401 466.665L333.825 490.71L339.939 491.651L343.051 466.665H339.401Z" fill="#D37A57"/>
<path d="M388.372 281.741C388.372 281.741 381.311 301.861 376.401 353.894" stroke="#E5BC89" stroke-width="1.44537" stroke-miterlimit="10" stroke-linecap="round" stroke-linejoin="round"/>
<path d="M433.977 159.493C433.977 159.493 422.854 156.861 412.788 160.732" stroke="#543E2F" stroke-width="1.44537" stroke-miterlimit="10" stroke-linecap="round" stroke-linejoin="round"/>
<path d="M360.925 153.725C360.925 153.725 359.804 170.014 380.412 172.341" stroke="#543E2F" stroke-width="1.44537" stroke-miterlimit="10" stroke-linecap="round" stroke-linejoin="round"/>
<path d="M435.812 148.756C435.812 148.756 438.21 155.23 436.134 159.271" stroke="#543E2F" stroke-width="1.44537" stroke-miterlimit="10" stroke-linecap="round" stroke-linejoin="round"/>
<path d="M342.481 142.148C342.481 142.148 341.552 152.152 351.772 156.086" stroke="#543E2F" stroke-width="1.44537" stroke-miterlimit="10" stroke-linecap="round" stroke-linejoin="round"/>
<path d="M346.199 160.731C346.199 160.731 344.301 168.218 351.366 171.443" stroke="#543E2F" stroke-width="1.44537" stroke-miterlimit="10" stroke-linecap="round" stroke-linejoin="round"/>
<path d="M379.183 135.18C379.183 135.18 392.364 129.4 411.084 137.812C427.97 145.4 429.58 154.847 429.58 154.847" stroke="#543E2F" stroke-width="1.44537" stroke-miterlimit="10" stroke-linecap="round" stroke-linejoin="round"/>
<path d="M435.812 163.519C435.812 163.519 439.528 165.273 439.528 170.539C439.528 175.804 436.98 181.172 436.98 181.172" stroke="#543E2F" stroke-width="1.44537" stroke-miterlimit="10" stroke-linecap="round" stroke-linejoin="round"/>
<path d="M373.918 161.661C373.918 161.661 376.547 168.629 391.879 169.404C407.212 170.179 412.168 170.179 416.349 175.133C420.531 180.09 419.138 185.51 419.138 185.51" stroke="#543E2F" stroke-width="1.44537" stroke-miterlimit="10" stroke-linecap="round" stroke-linejoin="round"/>
<path d="M368.176 0H228.635C220.554 0 214.003 6.55185 214.003 14.6329V38.5248C214.003 46.6059 220.554 53.1563 228.635 53.1563H247.117L242.817 68.006C242.016 70.771 245.063 73.0561 247.493 71.5139L276.429 53.1563H368.176C376.257 53.1563 382.808 46.6059 382.808 38.5248V14.6329C382.809 6.55185 376.257 0 368.176 0Z" fill="#D9D9D9"/>
<path d="M232.981 14.3018H364.646" stroke="white" stroke-width="1.44537" stroke-miterlimit="10" stroke-linecap="round" stroke-linejoin="round"/>
<path d="M232.981 25.4736H364.646" stroke="white" stroke-width="1.44537" stroke-miterlimit="10" stroke-linecap="round" stroke-linejoin="round"/>
<path d="M232.981 36.6445H364.646" stroke="white" stroke-width="1.44537" stroke-miterlimit="10" stroke-linecap="round" stroke-linejoin="round"/>
<path d="M140.839 263.681C206.454 263.681 259.645 210.49 259.645 144.875C259.645 79.2598 206.454 26.0684 140.839 26.0684C75.2241 26.0684 22.0327 79.2598 22.0327 144.875C22.0327 210.49 75.2241 263.681 140.839 263.681Z" stroke="#BBBFBD" stroke-width="1.44537" stroke-miterlimit="10"/>
<path d="M252.104 144.864C252.104 186.387 229.359 222.595 195.651 241.714C191.875 243.856 187.959 245.794 183.935 247.482C170.68 253.059 156.12 256.136 140.847 256.136C139.831 256.136 138.828 256.121 137.825 256.094C137.206 256.079 136.589 256.052 135.971 256.011C135.531 256.011 135.105 255.998 134.665 255.956C134.006 255.929 133.347 255.887 132.701 255.834C132.427 255.819 132.152 255.806 131.877 255.764C131.094 255.722 130.325 255.641 129.556 255.572C128.663 255.477 127.784 255.38 126.905 255.27L154.418 215.478L81.3299 136.237L33.64 174.766C33.1457 172.981 32.6919 171.194 32.2799 169.367C32.1296 168.681 31.9778 167.98 31.8405 167.293C31.6483 166.387 31.4691 165.466 31.3188 164.56C31.2089 163.956 31.0991 163.352 31.0167 162.748C30.8649 161.882 30.7421 161.003 30.6178 160.124C30.5484 159.63 30.4804 159.149 30.4255 158.654C30.3287 157.898 30.2333 157.129 30.1639 156.361L30.122 155.907C30.0396 155.083 29.9572 154.259 29.9023 153.421C29.8329 152.5 29.765 151.581 29.7231 150.646V150.591C29.6681 149.642 29.6262 148.696 29.6132 147.733C29.5858 146.785 29.5728 145.824 29.5728 144.863C29.5728 126.388 34.078 108.971 42.0448 93.6417C58.5972 61.7771 90.1206 38.9345 127.303 34.4163C131.74 33.8801 136.258 33.6055 140.846 33.6055C159.526 33.6055 177.149 38.2205 192.602 46.3652L144.143 85.4985L176.49 183.584L239.22 92.8742C247.447 108.383 252.104 126.087 252.104 144.864Z" fill="#99C6AB"/>
<path d="M41.7521 93.5469L81.0358 136.14L33.3458 174.67C32.8515 172.885 32.3977 171.098 31.9858 169.271C31.8354 168.585 31.6837 167.884 31.5464 167.197C31.3541 166.291 31.1749 165.37 31.0246 164.464C30.9147 163.86 30.8049 163.255 30.7225 162.651C30.5722 161.786 30.4479 160.907 30.3236 160.028C30.2542 159.534 30.1863 159.052 30.1314 158.558C30.0345 157.802 29.9391 157.033 29.8697 156.264L29.8293 155.81C29.7469 154.987 29.6645 154.163 29.6096 153.324C29.5416 152.404 29.4723 151.484 29.4303 150.549V150.494C29.3754 149.546 29.335 148.599 29.3205 147.637C29.293 146.689 29.28 145.728 29.28 144.766C29.28 126.292 33.7852 108.875 41.7521 93.5469Z" fill="#7EAF92"/>
<path d="M183.641 247.386C170.385 252.962 155.826 256.039 140.551 256.039C139.535 256.039 138.532 256.025 137.529 255.997C136.911 255.983 136.293 255.955 135.675 255.915C135.235 255.915 134.809 255.9 134.37 255.86C133.71 255.832 133.051 255.79 132.405 255.737C132.131 255.723 131.856 255.71 131.581 255.668C130.798 255.627 130.029 255.545 129.26 255.475C128.367 255.38 127.488 255.283 126.609 255.173L154.122 215.381L183.641 247.386Z" fill="#7EAF92"/>
<path d="M192.308 46.2685L143.85 85.4018L127.01 34.3196C131.447 33.7834 135.965 33.5088 140.553 33.5088C159.233 33.5073 176.854 38.1224 192.308 46.2685Z" fill="#7EAF92"/>
<path d="M251.81 144.766C251.81 186.288 229.064 222.496 195.357 241.616L176.196 183.487L238.926 92.7773C247.155 108.285 251.81 125.989 251.81 144.766Z" fill="#7EAF92"/>
<path d="M154.124 215.381L126.611 255.173C125.91 255.091 125.21 254.996 124.509 254.884C123.933 254.802 123.356 254.719 122.779 254.624C122.133 254.529 121.502 254.417 120.855 254.295C120.004 254.144 119.153 253.992 118.3 253.813C117.572 253.663 116.845 253.511 116.129 253.346C115.675 253.25 115.223 253.14 114.769 253.03C114.165 252.893 113.574 252.741 112.97 252.59C111.005 252.096 109.069 251.532 107.146 250.928C106.445 250.709 105.746 250.489 105.059 250.255C104.125 249.938 103.205 249.623 102.298 249.279C101.447 248.977 100.596 248.647 99.7575 248.318C98.9062 247.988 98.0678 247.644 97.244 247.287C96.4201 246.943 95.5963 246.586 94.7854 246.216C94.7854 246.216 94.7724 246.216 94.7579 246.202C93.9341 245.83 93.1232 245.446 92.3124 245.062C89.8394 243.881 87.4357 242.603 85.074 241.243C84.3325 240.803 83.591 240.364 82.8626 239.925C81.3247 239.004 79.8128 238.03 78.3429 237.027C77.6014 236.532 76.873 236.024 76.1459 235.502C75.4175 234.993 74.6905 234.458 73.975 233.922C73.9475 233.908 73.9201 233.88 73.8796 233.853C73.2061 233.344 72.5195 232.822 71.8604 232.3C71.2693 231.834 70.6926 231.38 70.1159 230.9C69.2645 230.213 68.4262 229.499 67.6024 228.784C66.9707 228.235 66.3521 227.685 65.735 227.122C65.1163 226.558 64.4992 225.981 63.8806 225.405C63.8112 225.335 63.7432 225.28 63.6883 225.225C63.0842 224.634 62.48 224.044 61.8758 223.44C61.3541 222.919 60.8323 222.382 60.3105 221.847C59.5965 221.106 58.8825 220.35 58.1945 219.581C57.5903 218.922 56.9992 218.248 56.4225 217.575C55.9556 217.053 55.5162 216.517 55.0768 215.982C54.8022 215.68 54.555 215.378 54.3079 215.061C53.8685 214.525 53.4421 213.99 53.0172 213.454C52.5359 212.85 52.069 212.246 51.6166 211.627C50.998 210.816 50.3938 210.007 49.8171 209.169C49.2953 208.44 48.7866 207.713 48.2923 206.97C47.9353 206.449 47.5913 205.927 47.2487 205.391C47.029 205.074 46.8223 204.744 46.6171 204.415C45.6834 202.959 44.7771 201.462 43.9114 199.95C43.5124 199.236 43.115 198.522 42.716 197.794C41.8098 196.132 40.944 194.442 40.1332 192.725C39.7762 192.011 39.4466 191.282 39.1171 190.555C38.7731 189.786 38.4305 189.017 38.101 188.248C38.0735 188.194 38.0605 188.124 38.033 188.069C37.689 187.258 37.3465 186.435 37.017 185.611C37.017 185.583 37.0025 185.556 36.9895 185.515C36.6599 184.691 36.3434 183.853 36.0413 183.016C35.7392 182.22 35.4502 181.409 35.1756 180.585C34.9284 179.857 34.6812 179.115 34.4471 178.374C34.2823 177.824 34.1031 177.261 33.9383 176.712C33.9253 176.67 33.9109 176.642 33.9109 176.602C33.7186 175.956 33.5264 175.311 33.3472 174.665L81.0371 136.136L154.124 215.381Z" fill="#649176"/>
<path d="M238.926 92.7776L176.195 183.487L143.848 85.4019L192.307 46.2686C212.156 56.707 228.447 72.9558 238.926 92.7776Z" fill="#649176"/>
<path d="M176.195 183.487L154.123 215.381L81.0352 136.14L143.848 85.4004L176.195 183.487Z" fill="#7EAF92"/>
<path d="M161.15 129.289L161.499 123.431L165.409 121.565C176.599 116.224 183.728 104.929 183.728 92.5273C183.728 81.7492 180.302 71.2544 173.948 62.5547L169.583 56.5781L132.369 69.0372L132.693 83.0153H130.236C125.245 83.0153 121.198 87.0609 121.198 92.0532C121.198 97.0441 125.244 101.091 130.236 101.091H133.111L133.549 120.064V126.725C133.549 126.725 126.828 133.2 114.073 138.694C114.073 138.694 128.293 156.55 151.794 157.728C175.294 158.906 176.199 144.774 176.199 144.774C176.199 144.774 166.454 138.941 160.866 134.109L161.15 129.289Z" fill="#FF996A"/>
<path d="M161.499 123.431L161.149 129.289C160.159 129.172 159.121 129.018 158.044 128.821C141.404 125.787 134.89 110.747 135.565 102.998C135.565 102.998 141.177 121.636 161.499 123.431Z" fill="#D37A57"/>
<path d="M129.954 89.465C130.651 89.9926 131.292 90.6907 131.522 91.5622C131.522 91.5622 130.133 92.0247 130.006 93.5829C129.88 95.141 131.522 95.8145 131.522 95.8145C131.522 95.8145 130.259 97.919 128.154 96.7829C126.05 95.6468 126.398 91.6779 128.491 90.8468C128.491 90.8468 125.165 90.4681 123.944 91.6894C123.944 91.6894 123.665 90.4652 125.056 89.3812C126.489 88.2654 128.506 88.368 129.954 89.465Z" fill="#D37A57"/>
<path d="M160.698 78.4554C160.504 78.4612 160.311 78.5321 160.152 78.6694C156.975 81.4474 153.707 79.262 153.674 79.2388C153.278 78.9671 152.737 79.0683 152.465 79.4643C152.194 79.8603 152.295 80.4009 152.689 80.6726C154.203 81.7104 157.949 82.9043 161.295 79.9789C161.656 79.6638 161.694 79.1145 161.377 78.7532C161.201 78.5479 160.948 78.4482 160.698 78.4554Z" fill="#3F2D1F"/>
<path d="M180.252 80.5916C180.081 80.4977 179.879 80.4601 179.673 80.4991C175.525 81.2753 173.821 77.7327 173.805 77.6966C173.603 77.2601 173.085 77.0736 172.65 77.276C172.215 77.4783 172.027 77.9958 172.23 78.4308C173.006 80.0944 175.625 83.0256 179.993 82.209C180.466 82.1208 180.776 81.667 180.687 81.1943C180.636 80.9269 180.471 80.713 180.252 80.5916Z" fill="#3F2D1F"/>
<path d="M160.223 88.788C160.223 88.788 160.217 92.1731 155.786 92.7339C151.354 93.2947 150.548 88.788 150.548 88.788C150.548 88.788 153.064 86.4292 156.317 86.3598C159.57 86.2904 160.223 88.788 160.223 88.788Z" fill="white"/>
<path d="M180.465 88.7884C180.465 88.7884 180.459 92.1735 176.125 92.7343C171.79 93.2965 171.209 88.7913 171.209 88.7913C171.209 88.7913 173.462 86.4282 176.645 86.3588C179.826 86.2909 180.465 88.7884 180.465 88.7884Z" fill="white"/>
<path d="M171.208 88.7928C171.208 88.7928 173.529 86.2417 176.015 85.7836C178.499 85.3254 180.205 86.5352 180.465 88.7928C180.465 88.7928 179.972 86.9283 177.486 86.6999C175.002 86.4716 171.208 88.7928 171.208 88.7928Z" fill="#3F2D1F"/>
<path d="M150.548 88.7879C150.548 88.7879 152.974 86.1226 155.572 85.6442C158.169 85.1658 159.951 86.4305 160.221 88.7879C160.221 88.7879 159.707 86.8395 157.11 86.601C154.512 86.3625 150.548 88.7879 150.548 88.7879Z" fill="#3F2D1F"/>
<path d="M166.951 88.8857L168.995 101.221C168.995 101.221 170.621 101.346 172.873 100.428C172.873 100.428 167.535 90.2718 166.951 88.8857Z" fill="#D37A57"/>
<path d="M153.191 89.6562C153.191 91.5988 154.436 93.1728 155.971 93.1728C157.506 93.1728 158.75 91.5988 158.75 89.6562C158.75 87.7151 157.506 86.1396 155.971 86.1396C154.436 86.1396 153.191 87.7151 153.191 89.6562Z" fill="#3F2D1F"/>
<path d="M172.679 89.7651C172.679 91.647 173.893 93.1719 175.391 93.1719C176.888 93.1719 178.101 91.647 178.101 89.7651C178.101 87.8833 176.887 86.3584 175.391 86.3584C173.892 86.3584 172.679 87.8833 172.679 89.7651Z" fill="#3F2D1F"/>
<path d="M147.736 101.228C149.975 101.228 151.791 99.9848 151.791 98.4514C151.791 96.9179 149.975 95.6748 147.736 95.6748C145.497 95.6748 143.682 96.9179 143.682 98.4514C143.682 99.9848 145.497 101.228 147.736 101.228Z" fill="#D37A57"/>
<path d="M180.848 99.8959C183.088 99.8959 184.904 98.6528 184.904 97.1193C184.904 95.5859 183.088 94.3428 180.848 94.3428C178.608 94.3428 176.792 95.5859 176.792 97.1193C176.792 98.6528 178.608 99.8959 180.848 99.8959Z" fill="#D37A57"/>
<path d="M168.424 105.973C168.424 105.973 161.875 106.194 159.225 108.622C156.576 111.051 166.362 111.786 168.424 110.829C170.483 109.874 171.4 105.667 168.424 105.973Z" fill="white"/>
<path d="M152.461 87.4618C152.461 87.4618 151.156 88.0805 149.734 87.167C149.734 87.167 149.867 88.5054 150.549 88.7887L152.461 87.4618Z" fill="#3F2D1F"/>
<path d="M178.965 86.5547C178.965 86.5547 180.506 87.8295 181.677 87.4378C182.107 87.2933 180.47 88.7936 180.47 88.7936C180.079 87.3713 178.965 86.5547 178.965 86.5547Z" fill="#3F2D1F"/>
<path d="M187.909 151.91C187.909 151.91 208.748 189.999 216.695 221.938L195.208 234.451C195.208 234.451 186.667 217.38 183.726 191.184C180.786 164.986 187.909 151.91 187.909 151.91Z" fill="#847062"/>
<path d="M176.195 65.9084C176.195 65.9084 155.374 85.6146 136.341 83.4567C136.341 83.4567 134.28 97.2903 137.714 102.589C137.714 102.589 136.243 104.047 134.182 98.5102C132.12 92.973 133.748 85.3241 132.688 83.0173C132.688 83.0173 126.338 81.5126 122.165 87.9792C117.992 94.4458 127.125 102.342 133.106 101.092L133.381 112.983C133.381 112.983 126.528 115.539 120.74 110.634C114.951 105.728 117.797 100.724 117.797 100.724C117.797 100.724 109.065 92.1057 108.672 80.1366C108.279 68.1676 118.238 60.6459 118.238 60.6459C118.238 60.6459 121.524 42.9372 143.403 42.7407C165.281 42.5441 171.658 49.1176 171.658 49.1176C171.658 49.1176 185.781 51.5213 189.76 66.5328C193.739 81.5444 183.724 89.572 183.724 89.572C183.724 89.572 180.829 70.3385 176.195 65.9084Z" fill="#3F2D1F"/>
<path d="M121.919 58.5852C121.919 58.5852 120.867 45.7243 108.663 46.2677C96.4593 46.8112 94.1048 60.7922 99.4021 67.2675C104.701 73.7427 111.617 72.2713 116.768 67.2675C121.919 62.2651 121.919 58.5852 121.919 58.5852Z" fill="#3F2D1F"/>
<path d="M137.846 109.192L130.153 125.208C129.879 125.784 129.15 125.949 128.643 125.565L128.326 125.318L103.122 105.84C102.738 105.538 102.613 105.001 102.847 104.562L111.541 88.6428L111.748 88.2713C112.037 87.7221 112.764 87.5847 113.245 87.9822L137.585 107.995C137.928 108.285 138.038 108.78 137.846 109.192Z" fill="white"/>
<path d="M190.894 244.157C175.853 251.752 158.848 256.025 140.84 256.025C126.02 256.025 111.872 253.127 98.9465 247.853L90.718 153.612C90.718 153.612 92.4076 147.115 102.489 143.406C113.945 139.176 114.068 138.694 114.068 138.694C157.734 160.671 176.194 144.765 176.194 144.765L185.809 149.655C186.757 150.136 187.498 150.932 187.91 151.908C190.177 157.334 197.69 176.151 198.446 189.117C199.038 199.449 194.149 227.207 190.894 244.157Z" fill="#9C897A"/>
<path d="M95.5382 147.219C95.5382 147.219 84.8902 151.446 81.0354 179.31C77.1792 207.174 81.2956 221.937 81.2956 221.937L102.492 196.775C102.492 196.775 109.748 158.201 95.5382 147.219Z" fill="#9C897A"/>
<path d="M127.187 106.467C125.155 107.64 119.865 111.34 118.92 112.899C118.466 113.649 118.276 114.503 118.198 115.194L116.869 114.53C117.539 111.663 118.778 108.797 118.778 108.797C118.778 108.797 120.887 107.668 122.065 106C123.243 104.332 122.8 102.999 122.8 102.999C121.997 103.463 120.703 104.309 119.355 105.266C119.373 105.24 119.397 105.216 119.415 105.189C120.592 103.521 120.151 102.188 120.151 102.188C118.041 103.407 112.548 107.249 111.567 108.867C111.038 109.74 110.856 110.746 110.795 111.497L110.424 111.312C111.054 108.278 112.45 105.042 112.45 105.042C112.45 105.042 114.559 103.913 115.737 102.245C116.913 100.577 116.473 99.2441 116.473 99.2441C114.362 100.463 108.87 104.304 107.889 105.923C106.907 107.542 107.104 109.651 107.104 109.651L107.889 123.484L108.662 138.691C108.662 138.691 80.7113 202.66 81.035 218.26C81.3588 233.86 90.719 240.04 90.719 240.04C90.719 240.04 100.727 238.862 107.104 229.011C113.481 219.159 119.368 144.087 119.368 144.087C119.368 144.087 122.704 138.985 123.292 134.105C123.88 129.225 121.64 116.909 121.64 116.909C122.305 114.384 123.313 112.046 123.313 112.046C123.313 112.046 125.346 110.959 126.479 109.353C127.612 107.749 127.187 106.467 127.187 106.467Z" fill="#FF996A"/>
<path d="M137.846 109.192L130.154 125.208C129.879 125.785 129.151 125.95 128.643 125.565L128.327 125.318L136.101 108.602L111.542 88.6447L111.748 88.2733C112.038 87.724 112.765 87.5867 113.246 87.9842L137.586 107.997C137.928 108.286 138.038 108.78 137.846 109.192Z" fill="#D9D9D9"/>
<path d="M111.543 91.8457L110.476 93.9429L115.775 98.2097L116.989 96.1861L111.543 91.8457Z" fill="#D9D9D9"/>
<path d="M264.77 154.993L258.833 156.097L258.672 155.571C260.39 154.984 264.424 153.397 266.057 150.949C268.155 147.801 268.891 144.757 268.891 144.757C268.891 144.757 265.253 146.66 263.853 150.294L261.04 150.817C262.167 150.119 263.212 149.273 263.869 148.289C265.967 145.14 266.703 142.097 266.703 142.097C266.703 142.097 263.065 144.001 261.664 147.634L258.117 148.294C259.589 147.139 261.13 145.633 261.773 144.004C263.163 140.484 263.241 137.354 263.241 137.354C263.241 137.354 260.086 139.98 259.48 143.826L255.581 145.455L238.514 150.785L238.643 148.321C238.643 148.321 239.286 147.935 241.088 146.519C242.89 145.102 245.139 139.224 245.139 139.224C245.139 139.224 236.196 143.428 234.016 148.062C231.836 152.696 229.759 164.154 229.759 164.154C229.759 164.154 209.248 213.511 205.606 227.109C205.606 227.109 198.561 229.834 195.209 234.449C195.209 234.449 202.371 247.596 208.061 248.969C208.061 248.969 224.544 245.83 232.393 226.599C240.241 207.369 243.404 168.527 243.404 168.527L259.879 159.517C259.879 159.517 264.857 158.1 266.573 155.526C268.29 152.952 268.89 150.463 268.89 150.463C268.89 150.463 265.915 152.023 264.77 154.993Z" fill="#FF996A"/>
<path d="M191.388 211.009C191.388 211.009 181.737 209.15 165.219 209.15C148.702 209.15 132.183 212.248 132.183 212.248" stroke="#847062" stroke-width="1.44537" stroke-miterlimit="10" stroke-linecap="round" stroke-linejoin="round"/>
<path d="M173.995 54.29C173.995 54.29 176.653 59.1898 176.424 62.5489" stroke="#543E2F" stroke-width="1.44537" stroke-miterlimit="10" stroke-linecap="round" stroke-linejoin="round"/>
<path d="M169.913 50.5732C169.913 50.5732 159.128 54.084 153.191 62.5496" stroke="#543E2F" stroke-width="1.44537" stroke-miterlimit="10" stroke-linecap="round" stroke-linejoin="round"/>
<path d="M119.896 56.0459C119.896 56.0459 118.141 59.9686 118.037 61.414C118.037 61.414 112.273 66.7821 111.542 69.8795" stroke="#543E2F" stroke-width="1.44537" stroke-miterlimit="10" stroke-linecap="round" stroke-linejoin="round"/>
<path d="M98.2151 70.6016C98.6285 70.9109 104.329 75.2296 110.177 71.5902" stroke="#543E2F" stroke-width="1.44537" stroke-miterlimit="10" stroke-linecap="round" stroke-linejoin="round"/>
<path d="M127.008 54.2907C127.008 54.2907 140.388 41.953 162.534 48.4571" stroke="#543E2F" stroke-width="1.44537" stroke-miterlimit="10" stroke-linecap="round" stroke-linejoin="round"/>
<path d="M129.704 79.7709C129.704 79.7709 135.451 82.0878 147.737 79.7709C160.022 77.454 171.208 64.8721 171.208 64.8721" stroke="#543E2F" stroke-width="1.44537" stroke-miterlimit="10" stroke-linecap="round" stroke-linejoin="round"/>
<path d="M124.742 147.219C124.742 147.219 141.543 154.226 158.75 153.194C175.957 152.162 178.101 149.064 178.101 149.064" stroke="#847062" stroke-width="1.44537" stroke-miterlimit="10" stroke-linecap="round" stroke-linejoin="round"/>
</svg>
