<svg width="200" height="272" viewBox="0 0 200 272" fill="none" xmlns="http://www.w3.org/2000/svg">
<g clip-path="url(#clip0_4029_408)">
<path opacity="0.19" d="M192 0H8C3.58172 0 0 3.58172 0 8V264C0 268.418 3.58172 272 8 272H192C196.418 272 200 268.418 200 264V8C200 3.58172 196.418 0 192 0Z" fill="#11A452"/>
<path d="M179.17 26.9202C179.19 27.0202 179.21 27.1102 179.23 27.1902C178.36 27.5802 177.56 28.1202 176.85 28.7402C176.79 28.6802 176.7 28.6202 176.62 28.5702C175.57 27.8502 174.12 28.1202 173.4 29.1902C172.68 30.2402 172.94 31.6902 174.02 32.4102C174.1 32.4702 174.19 32.5102 174.27 32.5502C173.94 33.4202 173.75 34.3702 173.69 35.3202C173.59 35.3202 173.5 35.3402 173.4 35.3602C172.14 35.6102 171.31 36.8102 171.54 38.0702C171.79 39.3302 172.99 40.1602 174.25 39.9302C174.35 39.9102 174.44 39.8902 174.52 39.8702C174.91 40.7402 175.45 41.5402 176.07 42.2502C176.01 42.3102 175.95 42.3902 175.9 42.4802C175.18 43.5301 175.45 44.9802 176.52 45.7002C177.57 46.4202 179.02 46.1502 179.74 45.0802C179.8 45.0002 179.84 44.9102 179.88 44.8302C180.75 45.1602 181.7 45.3502 182.65 45.4102C182.65 45.5102 182.67 45.6002 182.69 45.7002C182.94 46.9602 184.14 47.7902 185.4 47.5602C186.66 47.3102 187.49 46.1101 187.26 44.8501C187.24 44.7501 187.22 44.6602 187.2 44.5802C188.07 44.1902 188.88 43.6502 189.58 43.0301C189.64 43.0901 189.73 43.1502 189.81 43.2002C190.86 43.9202 192.31 43.6502 193.03 42.5802C193.75 41.5302 193.49 40.0802 192.41 39.3602C192.33 39.3002 192.25 39.2602 192.16 39.2202C192.49 38.3502 192.68 37.4002 192.74 36.4502C192.84 36.4502 192.93 36.4302 193.03 36.4102C194.29 36.1602 195.12 34.9602 194.89 33.7002C194.64 32.4402 193.44 31.6102 192.18 31.8402C192.08 31.8602 191.99 31.8802 191.91 31.9002C191.52 31.0302 190.98 30.2302 190.36 29.5202C190.42 29.4602 190.48 29.3802 190.52 29.2902C191.24 28.2402 190.98 26.7902 189.9 26.0702C188.85 25.3502 187.4 25.6202 186.68 26.6902C186.62 26.7702 186.58 26.8602 186.53 26.9402C185.66 26.6102 184.71 26.4202 183.76 26.3602C183.76 26.2602 183.74 26.1702 183.72 26.0702C183.47 24.8102 182.27 23.9802 181.01 24.2102C179.75 24.4602 178.92 25.6602 179.15 26.9202H179.17ZM187.48 35.0802C187.91 37.4202 186.38 39.6902 184.05 40.1202C181.71 40.5501 179.44 39.0202 179.01 36.6902C178.57 34.3502 180.1 32.0802 182.44 31.6502C184.77 31.2002 187.03 32.7202 187.48 35.0802Z" fill="white"/>
<path d="M95.2 188.41H171.18C176.12 188.41 180.17 184.36 180.17 179.42L180.19 26.2C180.19 21.26 176.14 17.21 171.2 17.21H95.22C90.28 17.21 86.23 21.26 86.23 26.2L86.21 179.4C86.21 184.36 90.26 188.41 95.2 188.41Z" fill="white"/>
<path d="M171.18 188.62H95.2C92.76 188.62 90.45 187.67 88.71 185.91C86.97 184.17 86 181.86 86 179.42L86.02 26.2C86.02 21.14 90.15 17 95.22 17H171.2C173.64 17 175.95 17.95 177.69 19.71C179.43 21.45 180.4 23.76 180.4 26.2L180.38 179.42C180.4 184.48 176.27 188.62 171.18 188.62ZM95.22 17.39C90.38 17.39 86.44 21.34 86.44 26.17L86.42 179.39C86.42 181.72 87.33 183.94 89 185.59C90.67 187.26 92.87 188.17 95.2 188.17H171.18C176.02 188.17 179.97 184.22 179.97 179.39L179.99 26.17C179.99 23.83 179.08 21.62 177.41 19.97C175.73 18.3 173.54 17.39 171.21 17.39H95.23H95.22Z" fill="black"/>
<path d="M168.76 183.18H97.6401C95.7801 183.18 94.0001 182.46 92.6801 181.11C91.3601 179.79 90.6101 178.01 90.6101 176.15L90.6301 28.9602C90.6301 25.0902 93.7701 21.9302 97.6601 21.9302H168.78C170.64 21.9302 172.42 22.6502 173.74 24.0002C175.06 25.3202 175.81 27.1002 175.81 28.9602L175.79 176.15C175.79 180.01 172.63 183.18 168.76 183.18ZM97.6601 22.3702C94.0201 22.3702 91.0501 25.3302 91.0501 28.9802L91.0301 176.17C91.0301 177.93 91.7101 179.58 92.9701 180.84C94.2301 182.1 95.8801 182.78 97.6401 182.78H168.76C172.4 182.78 175.37 179.82 175.37 176.17L175.39 28.9802C175.39 27.2202 174.71 25.5702 173.45 24.3102C172.19 23.0502 170.54 22.3702 168.78 22.3702H97.6601Z" fill="black"/>
<path d="M142.01 27.21H123.32C123.2 27.21 123.11 27.13 123.11 27C123.11 26.87 123.19 26.79 123.32 26.79H142.01C142.13 26.79 142.22 26.87 142.22 27C142.22 27.1 142.14 27.21 142.01 27.21Z" fill="black"/>
<path opacity="0.19" d="M169.46 43.3098L169.44 168.86C169.44 172.73 166.28 175.89 162.41 175.89H104.12C100.26 175.89 97.0901 172.73 97.0901 168.86L97.1101 43.3098C97.1101 39.4398 100.27 36.2798 104.14 36.2798H162.43C166.29 36.2798 169.46 39.4398 169.46 43.3098Z" fill="#11A452"/>
<path d="M169.57 91.5599V83.9899L161.34 74.9999C160.78 74.3799 160.45 73.4299 160.45 72.3799V36.0399L157.21 36.0199V70.4799L153.32 66.2199C152.58 65.4099 151.65 64.9599 150.67 64.9599L110.76 64.8599V35.9399H107.51V64.8599L96.8401 64.8399V72.3999L107.51 72.4199V129.45H96.8401V134.23H144.28C145.5 134.23 146.47 135.59 146.47 137.35V144.92L143.7 147.54C142.69 148.49 141.53 149.01 140.35 149.01H121L96.8401 148.97V156.54L110.25 156.56V176.18H115.36V157.97C115.36 157.21 115.81 156.57 116.33 156.57H140.53C141.58 156.57 142.62 156.11 143.51 155.27L146.47 152.48V163.35C146.47 164.8 147.26 165.93 148.27 165.93H157.18V176.22L160.42 176.26V165.93H169.54V161.15H160.42V139.26L169.54 130.62V123.05L160.42 131.69V81.6099L169.56 91.5699L169.57 91.5599ZM128.46 129.44H110.77V72.4299L128.46 72.4699V129.44ZM157.19 161.15H150.7C150.16 161.15 149.73 160.55 149.73 159.77V149.39L157.19 142.32V161.15ZM157.19 131.86C157.19 133.66 156.53 135.37 155.45 136.39L149.73 141.83V134.08C149.73 131.48 148.3 129.43 146.48 129.45H131.7V72.4799L150.22 72.5199C151.46 72.5199 152.64 73.0799 153.61 74.1299L157.19 78.0399V131.86Z" fill="white"/>
<path d="M137.18 41.4502C125.67 41.4502 116.35 50.7902 116.39 62.3102C116.43 82.3802 137.33 103.53 137.33 103.53C137.33 103.53 158.12 82.2002 158.08 62.3102C158.06 50.7802 148.7 41.4502 137.18 41.4502Z" fill="#EE7120"/>
<path d="M148.67 75.0201C154.92 68.7601 154.91 58.6101 148.63 52.3401C142.36 46.0701 132.2 46.0601 125.95 52.3201C119.7 58.5801 119.71 68.7301 125.99 75.0001C132.27 81.2701 142.42 81.2801 148.67 75.0201Z" fill="white"/>
<path d="M142.68 56.6802H126.47V70.4802H142.68V56.6802Z" fill="white"/>
<path d="M142.68 70.5401H126.47C126.47 70.5401 126.41 70.5101 126.41 70.4801V56.6801C126.41 56.6801 126.44 56.6201 126.47 56.6201H142.68C142.68 56.6201 142.74 56.6501 142.74 56.6801V70.4801C142.74 70.4801 142.71 70.5401 142.68 70.5401ZM126.54 70.4201H142.62V56.7501H126.54V70.4201Z" fill="black"/>
<path d="M148.26 56.6899H140.87V70.4899H148.26V56.6899Z" fill="white"/>
<path d="M148.26 70.5499H140.87C140.87 70.5499 140.81 70.5199 140.81 70.4899V56.6899C140.81 56.6899 140.83 56.6299 140.87 56.6299H148.26C148.26 56.6299 148.32 56.6599 148.32 56.6899V70.4899C148.32 70.4899 148.3 70.5499 148.26 70.5499ZM140.93 70.4299H148.2V56.7599H140.93V70.4299Z" fill="black"/>
<path opacity="0.19" d="M132.73 56.78V64.62H134.8V56.77H132.73V56.78Z" fill="#11A452"/>
<path opacity="0.19" d="M143.95 56.7698V64.6098H145.54V56.7598H143.95V56.7698Z" fill="#11A452"/>
<path d="M153.44 131.38C148.11 131.38 143.79 135.7 143.81 141.03C143.83 150.33 153.5 160.13 153.5 160.13C153.5 160.13 163.13 150.25 163.11 141.03C163.09 135.7 158.77 131.38 153.44 131.38Z" fill="#EE7120"/>
<path d="M157.85 145.99C160.26 143.57 160.25 139.65 157.83 137.24C155.41 134.82 151.49 134.82 149.07 137.24C146.65 139.66 146.67 143.58 149.09 145.99C151.51 148.41 155.43 148.41 157.84 145.99H157.85Z" fill="white"/>
<path d="M111.09 109C105.76 109 101.44 113.32 101.46 118.65C101.48 127.95 111.15 137.75 111.15 137.75C111.15 137.75 120.78 127.87 120.76 118.65C120.76 113.34 116.42 109 111.09 109Z" fill="#EE7120"/>
<path d="M115.49 123.61C117.9 121.2 117.89 117.28 115.47 114.86C113.05 112.44 109.13 112.43 106.72 114.85C104.31 117.27 104.32 121.18 106.74 123.6C109.16 126.02 113.08 126.02 115.49 123.6V123.61Z" fill="white"/>
<path d="M10.9399 225.24C10.8799 225.47 2.06994 249.06 11.7699 260.71C21.4599 272.36 44.5399 264.57 44.5399 264.57L39.5999 230.12L10.9399 225.24Z" fill="white"/>
<path d="M28.74 267.32C21.06 267.32 15.16 265.11 11.62 260.83C2.63001 250.01 9.29001 229.29 10.73 225.26C10.75 225.22 10.75 225.17 10.75 225.17C10.79 225.06 10.88 225 10.98 225.02L39.64 229.9C39.72 229.92 39.81 229.98 39.81 230.07L44.75 264.52C44.77 264.63 44.71 264.71 44.6 264.75C44.54 264.77 38.72 266.72 31.81 267.21C30.75 267.27 29.73 267.32 28.73 267.32H28.74ZM11.09 225.47C10.5 227.17 8.63001 232.85 7.82001 239.43C6.67001 248.79 8.07001 255.89 11.94 260.56C16.88 266.52 25.45 267.22 31.77 266.78C37.99 266.33 43.31 264.72 44.31 264.4L39.43 230.29L11.09 225.47Z" fill="black"/>
<path d="M46.4501 234.42L8.08008 229.6C8.08008 229.6 12.7001 217.25 17.2001 206.22C20.9501 196.99 29.9301 190.97 39.8801 190.99C52.2501 191.01 70.0001 191.46 86.7601 193.37C97.7501 194.62 107.12 201.92 111.01 212.27C112.28 215.66 113.49 219.57 114.43 223.96L75.7201 236.92L46.4701 234.42H46.4501Z" fill="#11A452"/>
<path d="M96.5901 259.6C96.5901 259.6 108.28 261.21 113.3 256.36C118.33 251.5 123.63 220.98 123.63 220.98H105.11L96.5801 259.61L96.5901 259.6Z" fill="white"/>
<path d="M101.07 260.09C98.5899 260.09 96.7599 259.84 96.5699 259.81C96.5099 259.81 96.4599 259.77 96.4199 259.73C96.3799 259.69 96.3799 259.62 96.3799 259.56L104.91 220.93C104.93 220.82 105.02 220.76 105.12 220.76H123.64C123.7 220.76 123.77 220.78 123.81 220.84C123.85 220.88 123.87 220.95 123.85 221.01C123.64 222.26 118.46 251.64 113.46 256.5C110.38 259.49 104.93 260.08 101.07 260.08V260.09ZM96.8499 259.43C98.4999 259.62 108.64 260.57 113.16 256.21C117.83 251.67 122.88 224.12 123.38 221.19H105.29L96.8499 259.43Z" fill="black"/>
<path d="M103.15 204.85H35.1201V262.02H103.15V204.85Z" fill="white"/>
<path d="M103.13 262.23H35.0999C34.9699 262.23 34.8899 262.15 34.8899 262.02V232.96C34.8899 232.83 34.9699 232.75 35.0999 232.75C35.2299 232.75 35.3099 232.83 35.3099 232.96V261.81H102.91V235.78C102.91 235.65 102.99 235.57 103.12 235.57C103.25 235.57 103.33 235.66 103.33 235.78V262.04C103.33 262.15 103.25 262.23 103.12 262.23H103.13Z" fill="black"/>
<path d="M84.99 255.95C84.86 255.95 84.78 255.86 84.78 255.74V206.93C84.78 206.8 84.86 206.72 84.99 206.72C85.12 206.72 85.2 206.8 85.2 206.93V255.74C85.2 255.85 85.12 255.95 84.99 255.95Z" fill="black"/>
<path d="M62.57 222.5H40.17C40.04 222.5 39.96 222.41 39.96 222.29V210.58C39.96 210.45 40.04 210.37 40.17 210.37H62.57C62.7 210.37 62.78 210.46 62.78 210.58V222.29C62.78 222.4 62.7 222.5 62.57 222.5ZM40.4 222.08H62.38V210.8H40.4V222.08Z" fill="black"/>
<path d="M43.3101 220.82C43.1801 220.82 43.1001 220.74 43.1001 220.61V212.25C43.1001 212.12 43.1801 212.04 43.3101 212.04C43.4401 212.04 43.5201 212.13 43.5201 212.25V220.61C43.5201 220.72 43.4401 220.82 43.3101 220.82Z" fill="black"/>
<path d="M46.5301 220.82C46.4001 220.82 46.3201 220.74 46.3201 220.61V212.25C46.3201 212.12 46.4001 212.04 46.5301 212.04C46.6601 212.04 46.7401 212.13 46.7401 212.25V220.61C46.7401 220.72 46.6601 220.82 46.5301 220.82Z" fill="black"/>
<path d="M49.7801 220.82C49.6501 220.82 49.5701 220.74 49.5701 220.61V212.25C49.5701 212.12 49.6501 212.04 49.7801 212.04C49.9101 212.04 49.9901 212.13 49.9901 212.25V220.61C49.9901 220.72 49.8801 220.82 49.7801 220.82Z" fill="black"/>
<path d="M53 220.82C52.87 220.82 52.79 220.74 52.79 220.61V212.25C52.79 212.12 52.87 212.04 53 212.04C53.13 212.04 53.21 212.13 53.21 212.25V220.61C53.21 220.72 53.1 220.82 53 220.82Z" fill="black"/>
<path d="M56.23 220.82C56.1 220.82 56.02 220.74 56.02 220.61V212.25C56.02 212.12 56.1 212.04 56.23 212.04C56.36 212.04 56.44 212.13 56.44 212.25V220.61C56.44 220.72 56.36 220.82 56.23 220.82Z" fill="black"/>
<path d="M59.45 220.82C59.32 220.82 59.24 220.74 59.24 220.61V212.25C59.24 212.12 59.32 212.04 59.45 212.04C59.58 212.04 59.66 212.13 59.66 212.25V220.61C59.66 220.72 59.58 220.82 59.45 220.82Z" fill="black"/>
<path d="M148.8 269.15H113.16L94.4099 220.98H130.05L148.8 269.15Z" fill="white"/>
<path d="M148.79 269.36H113.15C113.07 269.36 112.98 269.3 112.96 269.23L94.2099 221.06C94.1899 221 94.1899 220.91 94.2299 220.87C94.2699 220.81 94.3399 220.79 94.3999 220.79H130.04C130.12 220.79 130.21 220.85 130.23 220.92L148.98 269.09C149 269.15 149 269.24 148.96 269.28C148.92 269.32 148.85 269.36 148.79 269.36ZM113.31 268.93H148.48L129.9 221.18H94.7299L113.31 268.93Z" fill="black"/>
<path opacity="0.19" d="M126.16 232.2H108.51L107.13 228.68H124.78L126.16 232.2Z" fill="#11A452"/>
<path opacity="0.19" d="M135.81 248.42H110.78L105.94 235.78H130.97L135.81 248.42Z" fill="#11A452"/>
<path d="M105.46 220.97C107.92 219.23 110.4 217.47 113.25 216.47C116.09 215.47 119.36 215.3 122.01 216.72C123.37 216.15 125.06 216.51 126.08 217.57C128.92 216.95 132.1 218.65 133.16 221.39C134.22 224.13 133.05 227.52 130.53 229.01C130.11 229.27 129.62 229.48 129.13 229.48C128.64 229.48 128.11 229.25 127.88 228.8C127.12 229.37 125.99 229.39 125.23 228.82C124.87 229.14 124.3 229.14 123.85 228.95C123.41 228.76 123.07 228.38 122.73 228.02C120.97 226.03 119.46 223.42 118.32 221H105.46V220.98V220.97Z" fill="white"/>
<path d="M129.11 229.67C128.58 229.67 128.09 229.44 127.79 229.08C127.01 229.55 125.99 229.55 125.2 229.08C124.75 229.38 124.14 229.33 123.71 229.14C123.22 228.93 122.86 228.52 122.52 228.14C121.01 226.42 119.53 224.09 118.13 221.2H105.42C105.34 221.2 105.25 221.14 105.21 221.05C105.19 220.96 105.21 220.86 105.3 220.82C107.74 219.1 110.26 217.3 113.15 216.28C116.33 215.16 119.56 215.24 122 216.49C123.4 215.96 125.05 216.3 126.11 217.34C129.02 216.77 132.24 218.53 133.32 221.31C134.42 224.11 133.19 227.65 130.61 229.18C130.06 229.5 129.57 229.67 129.1 229.67H129.11ZM127.88 228.55H127.92C127.98 228.57 128.03 228.61 128.07 228.66C128.26 229.04 128.75 229.23 129.13 229.23C129.51 229.23 129.94 229.08 130.42 228.81C132.84 227.39 133.98 224.08 132.97 221.47C131.95 218.84 128.88 217.21 126.12 217.8C126.06 217.82 125.97 217.8 125.93 217.74C124.98 216.74 123.36 216.4 122.09 216.93C122.03 216.95 121.96 216.95 121.9 216.93C119.54 215.68 116.43 215.59 113.31 216.7C110.7 217.63 108.37 219.2 106.12 220.79H118.3C118.38 220.79 118.45 220.83 118.49 220.92C119.89 223.83 121.38 226.18 122.88 227.88C123.2 228.24 123.52 228.58 123.92 228.77C124.28 228.94 124.77 228.96 125.09 228.68C125.15 228.62 125.28 228.62 125.34 228.66C126.04 229.15 127.06 229.15 127.76 228.64C127.78 228.58 127.82 228.56 127.89 228.56L127.88 228.55Z" fill="black"/>
<path d="M125.4 228.14H125.38C125.27 228.12 125.19 228.01 125.21 227.91C125.8 223.71 124.89 220.21 122.47 217.52C122.39 217.44 122.41 217.31 122.49 217.22C122.57 217.13 122.7 217.16 122.79 217.24C125.29 220.04 126.25 223.65 125.63 227.97C125.59 228.06 125.5 228.14 125.4 228.14Z" fill="black"/>
<path d="M128.24 228.14H128.18C128.07 228.1 128.01 227.99 128.03 227.89C128.96 224.62 128.39 220.97 126.48 218.13C126.42 218.02 126.44 217.9 126.54 217.83C126.65 217.77 126.77 217.79 126.84 217.89C128.81 220.82 129.41 224.59 128.43 227.99C128.41 228.08 128.32 228.14 128.24 228.14Z" fill="black"/>
<path d="M131.51 227.63H131.47C131.36 227.61 131.28 227.5 131.3 227.38C131.77 224.98 132 221.65 130.47 219.28C130.41 219.17 130.43 219.05 130.53 218.98C130.64 218.92 130.76 218.94 130.83 219.04C132.42 221.52 132.19 224.98 131.72 227.46C131.7 227.57 131.61 227.63 131.51 227.63Z" fill="black"/>
<path d="M24.6899 245.62C24.6899 245.62 78.2099 243.31 79.7599 244.96C81.3099 246.61 80.5899 248.27 71.9299 249.84C71.9299 249.84 75.2199 258.64 89.9599 262.02H95.8399C95.8399 262.02 94.3099 266.71 86.4899 267.11C79.8099 267.45 40.3999 268.55 29.0099 268.87C25.0399 268.98 21.0999 268.06 17.6599 266.07C13.2499 263.55 9.06988 259.39 7.62988 250.63L24.7099 245.62H24.6899Z" fill="white"/>
<path d="M28.33 269.1C24.47 269.1 20.74 268.12 17.51 266.28C13.93 264.22 8.96004 260.36 7.39004 250.69C7.37004 250.58 7.45004 250.46 7.56004 250.46C7.67004 250.44 7.79004 250.52 7.79004 250.63C9.34004 260.13 14.2 263.91 17.72 265.92C21.07 267.83 24.95 268.81 28.96 268.68C40.78 268.34 79.8 267.26 86.44 266.92C94.01 266.54 95.6 262.02 95.6 261.98C95.64 261.87 95.75 261.81 95.88 261.85C95.99 261.89 96.05 262 96.01 262.13C95.95 262.32 94.33 266.97 86.46 267.37C79.8 267.71 40.77 268.81 28.95 269.13C28.76 269.11 28.53 269.11 28.31 269.11L28.33 269.1Z" fill="black"/>
<path d="M95.83 262.23H89.91C82.25 260.47 77.71 257.22 75.27 254.83C72.6 252.2 71.77 250.02 71.73 249.93C71.71 249.87 71.71 249.8 71.75 249.76C71.77 249.7 71.83 249.67 71.9 249.65C76.99 248.72 79.77 247.66 80.15 246.53C80.28 246.13 80.11 245.66 79.6 245.11C79.3 244.81 75.99 244.22 51.6 244.88C38.19 245.24 24.83 245.81 24.7 245.84C24.59 245.84 24.49 245.75 24.49 245.63C24.49 245.51 24.57 245.42 24.7 245.42C24.83 245.42 38.23 244.85 51.66 244.46C78.9 243.72 79.68 244.55 79.94 244.82C80.56 245.48 80.77 246.09 80.58 246.67C80.16 247.99 77.5 249.05 72.27 250.02C72.93 251.44 76.94 258.82 90.02 261.84H95.87C96 261.84 96.08 261.92 96.08 262.05C96.04 262.16 95.95 262.24 95.83 262.24V262.23Z" fill="black"/>
<path d="M57.3699 170.64L47.1899 178.21C45.6199 179.38 45.9999 181.86 47.8699 182.43C48.3799 182.58 48.9699 182.71 49.6499 182.75C49.4399 184.36 50.6899 185.83 52.3199 185.83C54.7799 185.85 57.9999 185.87 59.0899 185.79L64.2399 173.21L57.3699 170.64Z" fill="black"/>
<path d="M57.86 175.77L56.01 191.91C56.01 191.91 58.83 196.13 65.79 196.28C72.75 196.43 70.5 192.27 70.5 192.27L70.97 182.28C70.97 182.28 63.95 174.79 57.86 175.77Z" fill="white"/>
<path d="M56.01 192.13H55.9901C55.8801 192.11 55.8 192 55.8 191.9L57.6501 175.74C57.6701 175.65 57.73 175.57 57.82 175.55C63.95 174.58 70.8401 181.85 71.1201 182.15C71.2001 182.24 71.2001 182.36 71.1201 182.45C71.0401 182.53 70.91 182.53 70.82 182.45C70.76 182.39 63.93 175.17 58.05 175.96L56.23 191.95C56.21 192.08 56.1201 192.14 56.0201 192.14L56.01 192.13Z" fill="black"/>
<path d="M70.5 192.49C70.37 192.49 70.29 192.38 70.29 192.28L70.76 182.29C70.76 182.16 70.87 182.08 70.97 182.08C71.1 182.08 71.18 182.19 71.18 182.29L70.71 192.28C70.71 192.41 70.63 192.49 70.5 192.49Z" fill="black"/>
<path d="M75 167.84C75 167.84 79.94 180.65 72.26 184.77C64.56 188.89 58.24 178.66 57.86 177.62C57.48 176.6 56.5 172.06 56.5 172.06L70.9 166.91L73.87 167.33L74.99 167.84H75Z" fill="white"/>
<path d="M68.57 185.95C67.62 185.95 66.66 185.76 65.69 185.4C61 183.64 57.88 178.25 57.67 177.7C57.29 176.68 56.33 172.29 56.29 172.1C56.27 171.99 56.33 171.89 56.42 171.85L70.82 166.7C70.82 166.7 70.88 166.68 70.93 166.7L73.9 167.12C73.9 167.12 73.94 167.12 73.96 167.14L75.11 167.67C75.11 167.67 75.19 167.73 75.22 167.78C75.24 167.82 76.47 171.05 76.75 174.76C77.11 179.7 75.6 183.25 72.38 184.96C71.13 185.62 69.86 185.96 68.58 185.96L68.57 185.95ZM56.74 172.19C56.93 173.04 57.74 176.66 58.06 177.54C58.4 178.43 61.6 183.39 65.84 184.98C68 185.79 70.12 185.66 72.16 184.56C79.29 180.74 75.24 169.05 74.83 167.97L73.79 167.5L70.91 167.1L56.74 172.19Z" fill="black"/>
<path d="M74.6599 165.99C74.6599 165.99 78.8399 165.23 78.5199 168.11C78.1999 170.99 72.8399 170.46 70.8999 167.92L74.6499 165.99H74.6599Z" fill="black"/>
<path d="M56.4999 173.23L81.0599 164.87C81.5099 164.72 81.7399 164.23 81.5899 163.79C81.4399 163.34 80.9499 163.11 80.5099 163.28L54.9299 172.46L56.4999 173.22V173.23Z" fill="#11A452"/>
<path d="M75.0001 165.99L72.7701 160.64C70.7801 155.87 65.2601 153.68 60.5301 155.8C59.5501 156.22 58.5601 156.78 57.5401 157.43C53.8901 159.81 52.3201 164.34 53.6401 168.5L54.8901 172.45L75.0001 165.98V165.99Z" fill="#11A452"/>
<path d="M61.11 169.94C61.05 169.94 60.96 169.9 60.92 169.83C58.69 166.14 56.61 161.05 59.29 157.63C59.33 157.59 59.35 157.54 59.37 157.52C59.39 157.46 59.43 157.39 59.5 157.37C59.61 157.33 59.73 157.37 59.78 157.48C59.84 157.63 59.76 157.71 59.63 157.88C57.11 161.08 59.14 166 61.28 169.59C61.34 169.7 61.3 169.82 61.22 169.89C61.2 169.91 61.16 169.93 61.11 169.93V169.94Z" fill="black"/>
<path d="M57.86 174.14C57.86 174.14 56.86 170.43 53.89 172.93C50.94 175.43 55.84 180.91 59.36 178.72L57.85 174.14H57.86Z" fill="white"/>
<path d="M57.5999 179.42C56.0499 179.42 54.5499 178.46 53.6299 177.19C52.4399 175.56 52.4799 173.82 53.7599 172.74C54.6899 171.95 55.5399 171.66 56.3099 171.91C57.5799 172.31 58.0499 173.99 58.0699 174.07C58.0899 174.18 58.0299 174.3 57.9199 174.33C57.8099 174.35 57.6899 174.29 57.6699 174.18C57.6699 174.16 57.2499 172.63 56.2099 172.31C55.5899 172.12 54.8699 172.37 54.0699 173.07C52.7499 174.17 53.1799 175.81 54.0099 176.95C55.1799 178.56 57.4299 179.66 59.2899 178.52C59.3999 178.46 59.5199 178.5 59.5899 178.58C59.6499 178.69 59.6099 178.81 59.5299 178.88C58.8899 179.26 58.2599 179.41 57.6199 179.41L57.5999 179.42Z" fill="black"/>
<path d="M58.05 177.38C57.97 177.38 57.88 177.34 57.86 177.25C57.48 176.32 56.4 175.72 55.4 175.91C55.29 175.93 55.17 175.85 55.15 175.74C55.13 175.63 55.21 175.51 55.32 175.49C56.42 175.3 57.61 175.89 58.14 176.89C58.16 176.91 58.18 176.93 58.2 176.98L58.24 177.11C58.28 177.22 58.22 177.34 58.11 177.39H58.05V177.38Z" fill="black"/>
</g>
<defs>
<clipPath id="clip0_4029_408">
<rect width="200" height="272" fill="white"/>
</clipPath>
</defs>
</svg>
