<svg width="50" height="50" viewBox="0 0 50 50" fill="none" xmlns="http://www.w3.org/2000/svg">
<path d="M9.76856 35.7266C8.51368 35.7237 7.49903 34.7042 7.50196 33.4493C7.50294 32.9473 7.66993 32.46 7.97755 32.0635L12.292 26.128L13.6104 15.2891L12.5547 15.7549L11.2139 18.1094C10.6836 19.0645 9.4795 19.4092 8.52442 18.879C7.58008 18.3546 7.23048 17.17 7.73926 16.2178L9.57618 12.6846C9.7754 12.3018 10.0772 11.9825 10.4482 11.7628L14.4502 9.39362C15.2773 8.90632 16.2842 8.83307 17.1738 9.19538L20.9688 10.7491C21.5225 10.9747 21.9981 11.3594 22.3359 11.8536L23.6572 13.7823L26.332 13.0049C27.4033 12.7032 28.5156 13.3262 28.8184 14.3975C29.1055 15.4161 28.5557 16.4835 27.5596 16.8409L23.9356 18.1026C23.1484 18.3731 22.2774 18.2012 21.6533 17.6514L21.0254 17.0977L20.8135 19.1817C22.8301 20.2344 24.0049 22.4073 23.7793 24.6719L23.3154 30.8204C23.2188 32.085 22.1143 33.0323 20.8496 32.9356C19.585 32.8389 18.6377 31.7344 18.7344 30.4698C18.7354 30.4512 18.7373 30.4337 18.7393 30.4151L19.1445 24.8741C19.1914 24.4229 18.8633 24.0196 18.4121 23.9737C18.21 23.9532 18.0078 24.0079 17.8438 24.127C17.6631 24.2579 17.544 24.4571 17.5137 24.6788L17.1641 27.3526C17.0977 27.8399 16.8926 28.2979 16.5713 28.6719L11.5127 34.9278C11.0772 35.4366 10.4404 35.7296 9.77051 35.7296L9.76856 35.7266ZM14.4248 13.5137C14.7979 13.5137 15.1006 13.8165 15.1006 14.1895C15.1006 14.2169 15.0986 14.2442 15.0957 14.2715L13.6094 26.463C13.5957 26.5772 13.5527 26.6866 13.4854 26.7794L9.05469 32.8721C8.89551 33.0723 8.82618 33.3282 8.86133 33.5811C8.89258 33.8262 9.02247 34.0479 9.22071 34.1964C9.60938 34.4874 10.1572 34.4278 10.4756 34.0616L15.5254 27.8145L15.54 27.7969C15.6924 27.6212 15.79 27.4044 15.8223 27.1739L16.1719 24.5001C16.333 23.3116 17.4268 22.4786 18.6152 22.6387C18.6436 22.6426 18.6709 22.6466 18.6992 22.6514C19.8076 22.8516 20.583 23.8614 20.4883 24.9844L20.083 30.5255C20.0342 31.0382 20.4053 31.4962 20.917 31.5548C21.4356 31.6143 21.9053 31.2432 21.9658 30.7237C21.9658 30.7169 21.9678 30.7091 21.9678 30.7022L22.4316 24.5538C22.6211 22.7296 21.6104 20.9923 19.9316 20.2549L19.8467 20.2198C19.5625 20.1104 19.3867 19.8243 19.418 19.5215L19.8115 15.6465C19.8496 15.2755 20.1807 15.0049 20.5518 15.043C20.6924 15.0577 20.8252 15.1153 20.9307 15.2091L22.5449 16.6339C22.8037 16.8614 23.165 16.9327 23.4912 16.8214L27.1152 15.5596C27.46 15.4366 27.6397 15.0567 27.5166 14.711C27.3984 14.3819 27.0459 14.2003 26.71 14.296L23.5615 15.211C23.2822 15.2911 22.9824 15.1837 22.8184 14.9444L21.2207 12.6124C21.0322 12.336 20.7656 12.1221 20.4561 11.9952L16.6611 10.4415C16.1641 10.2383 15.6006 10.2803 15.1387 10.5528L11.1387 12.9268C10.9844 13.0176 10.8594 13.1505 10.7774 13.3096L8.94044 16.8419C8.78419 17.1514 8.90919 17.5294 9.21876 17.6846C9.51465 17.834 9.87501 17.7276 10.043 17.4415L11.4941 14.8936C11.5664 14.7676 11.6768 14.668 11.8086 14.6094L14.1563 13.5743C14.2412 13.5362 14.333 13.5167 14.4258 13.5157L14.4248 13.5137Z" fill="black"/>
<path d="M20.4971 10.0116C18.1816 10.0106 16.3047 8.13168 16.3066 5.81625C16.3076 3.60238 18.0303 1.77133 20.2393 1.63363C22.5508 1.49496 24.5371 3.25668 24.6758 5.5682C24.8145 7.87289 23.0635 9.85531 20.7598 10.0037C20.6719 10.0096 20.584 10.0116 20.4971 10.0116ZM20.3223 2.9852C18.7559 3.08285 17.5645 4.43148 17.6621 5.99789C17.7598 7.5643 19.1084 8.7557 20.6748 8.65805C22.2412 8.56039 23.4326 7.21176 23.335 5.64535C23.25 4.08969 21.9199 2.8973 20.3652 2.98227C20.3506 2.98227 20.3369 2.98422 20.3223 2.9852Z" fill="black"/>
<path d="M44.8145 22.1367V47.9727C44.8145 48.3457 44.5127 48.6484 44.1396 48.6484H7.21191C6.83887 48.6484 6.53613 48.3457 6.53613 47.9727V36.6416C6.53613 36.2676 6.83887 35.9658 7.21191 35.9658H15.0537V32.335C15.0537 31.9619 15.3564 31.6592 15.7295 31.6592H24.7881V27.3496C24.7881 26.9766 25.0908 26.6738 25.4639 26.6738H33.6045V22.1367C33.6045 21.7637 33.9062 21.4609 34.2793 21.4609H44.1396C44.5127 21.4609 44.8145 21.7637 44.8145 22.1367Z" fill="#11A452"/>
<path d="M44.1396 21.4609H34.2793C33.9062 21.4609 33.6045 21.7637 33.6045 22.1367V26.6738H25.4639C25.0908 26.6738 24.7881 26.9766 24.7881 27.3496V31.6592H15.7295C15.3564 31.6592 15.0537 31.9619 15.0537 32.335V35.9658H7.21191C6.83887 35.9658 6.53613 36.2676 6.53613 36.6416V47.9727C6.53613 48.3457 6.83887 48.6484 7.21191 48.6484H44.1396C44.5127 48.6484 44.8145 48.3457 44.8145 47.9727V22.1367C44.8145 21.7637 44.5127 21.4609 44.1396 21.4609ZM43.4639 47.2969H7.88769V37.3174H15.7295C16.1025 37.3174 16.4053 37.0146 16.4053 36.6416V33.0107H25.4639C25.8369 33.0107 26.1397 32.708 26.1397 32.335V28.0254H34.2793C34.6533 28.0254 34.9551 27.7227 34.9551 27.3496V22.8125H43.4639V47.2969Z" fill="black"/>
</svg>
