<svg width="45" height="39" viewBox="0 0 45 39" fill="none" xmlns="http://www.w3.org/2000/svg">
<path d="M8.65788 22.4609H12.0599C12.4379 22.4609 12.7529 22.7211 12.7529 23.0502V34.4605H7.97388V23.0502C7.97388 22.7288 8.27988 22.4609 8.66688 22.4609H8.65788Z" fill="#7BBEE4"/>
<path d="M34.47 13.0327H37.404C37.908 13.0327 38.322 13.3847 38.322 13.8133V34.4604H33.543V13.8133C33.543 13.3847 33.957 13.0327 34.461 13.0327H34.47Z" fill="#11A452"/>
<path d="M25.9471 19.0327H29.1601C29.5921 19.0327 29.9431 19.3312 29.9431 19.6985V34.4607H25.1641V19.6985C25.1641 19.3312 25.5151 19.0327 25.9471 19.0327Z" fill="#EE7120"/>
<path d="M17.0009 26.8994H20.6819C20.9879 26.8994 21.2309 27.106 21.2309 27.3662V34.468H16.4519V27.3662C16.4519 27.106 16.6949 26.8994 17.0009 26.8994Z" fill="#11A452"/>
<path d="M26.8291 14.1423C28.4744 14.1423 29.8081 13.0082 29.8081 11.6092C29.8081 10.2103 28.4744 9.07617 26.8291 9.07617C25.1838 9.07617 23.8501 10.2103 23.8501 11.6092C23.8501 13.0082 25.1838 14.1423 26.8291 14.1423Z" fill="#7BBEE4"/>
<path d="M9.40503 16.4231C11.0503 16.4231 12.384 15.289 12.384 13.89C12.384 12.491 11.0503 11.3569 9.40503 11.3569C7.75977 11.3569 6.42603 12.491 6.42603 13.89C6.42603 15.289 7.75977 16.4231 9.40503 16.4231Z" fill="#11A452"/>
<path d="M8.65788 22.4609H12.0599C12.4379 22.4609 12.7529 22.7211 12.7529 23.0502V34.4605H7.97388V23.0502C7.97388 22.7288 8.27988 22.4609 8.66688 22.4609H8.65788Z" fill="#EE7120" stroke="#333236" stroke-width="0.594" stroke-miterlimit="10"/>
<path d="M17.0009 26.8994H20.6819C20.9879 26.8994 21.2309 27.106 21.2309 27.3662V34.468H16.4519V27.3662C16.4519 27.106 16.6949 26.8994 17.0009 26.8994Z" stroke="#333236" stroke-width="0.594" stroke-miterlimit="10"/>
<path d="M25.9471 19.0327H29.1601C29.5921 19.0327 29.9431 19.3312 29.9431 19.6985V34.4607H25.1641V19.6985C25.1641 19.3312 25.5151 19.0327 25.9471 19.0327Z" stroke="#333236" stroke-width="0.594" stroke-miterlimit="10"/>
<path d="M34.47 13.0327H37.404C37.908 13.0327 38.322 13.3847 38.322 13.8133V34.4604H33.543V13.8133C33.543 13.3847 33.957 13.0327 34.461 13.0327H34.47Z" stroke="#333236" stroke-width="0.594" stroke-miterlimit="10"/>
<path d="M3.65405 34.4604H40.7521" stroke="#333236" stroke-width="0.594" stroke-miterlimit="10"/>
<path d="M9.40503 16.4231C11.0503 16.4231 12.384 15.289 12.384 13.89C12.384 12.491 11.0503 11.3569 9.40503 11.3569C7.75977 11.3569 6.42603 12.491 6.42603 13.89C6.42603 15.289 7.75977 16.4231 9.40503 16.4231Z" stroke="#333236" stroke-width="0.594" stroke-miterlimit="10"/>
<path d="M18.1169 22.1242C19.7622 22.1242 21.0959 20.9901 21.0959 19.5912C21.0959 18.1922 19.7622 17.0581 18.1169 17.0581C16.4717 17.0581 15.1379 18.1922 15.1379 19.5912C15.1379 20.9901 16.4717 22.1242 18.1169 22.1242Z" stroke="#333236" stroke-width="0.594" stroke-miterlimit="10"/>
<path d="M26.8291 14.1423C28.4744 14.1423 29.8081 13.0082 29.8081 11.6092C29.8081 10.2103 28.4744 9.07617 26.8291 9.07617C25.1838 9.07617 23.8501 10.2103 23.8501 11.6092C23.8501 13.0082 25.1838 14.1423 26.8291 14.1423Z" fill="#11A452" stroke="#333236" stroke-width="0.594" stroke-miterlimit="10"/>
<path d="M35.5413 7.87472C37.1865 7.87472 38.5203 6.74063 38.5203 5.34166C38.5203 3.94268 37.1865 2.80859 35.5413 2.80859C33.896 2.80859 32.5623 3.94268 32.5623 5.34166C32.5623 6.74063 33.896 7.87472 35.5413 7.87472Z" stroke="#333236" stroke-width="0.594" stroke-miterlimit="10"/>
<path d="M11.6731 15.5352L15.6691 18.1524" stroke="#333236" stroke-width="0.594" stroke-miterlimit="10"/>
<path d="M20.0518 17.6626L24.7048 13.4077" stroke="#333236" stroke-width="0.594" stroke-miterlimit="10"/>
<path d="M28.8809 9.78004L33.0389 7.07861" stroke="#333236" stroke-width="0.594" stroke-miterlimit="10"/>
<path d="M18.1169 22.1242C19.7622 22.1242 21.0959 20.9901 21.0959 19.5912C21.0959 18.1922 19.7622 17.0581 18.1169 17.0581C16.4717 17.0581 15.1379 18.1922 15.1379 19.5912C15.1379 20.9901 16.4717 22.1242 18.1169 22.1242Z" fill="#EE7120"/>
</svg>
