<svg width="41" height="29" viewBox="0 0 41 29" fill="none" xmlns="http://www.w3.org/2000/svg">
<path d="M20.2323 0H20.4559C22.5216 0.00753904 32.9883 0.0829299 35.8104 0.84186C36.6636 1.07348 37.441 1.52495 38.065 2.15116C38.689 2.77737 39.1377 3.55638 39.3663 4.41034C39.6202 5.36528 39.7986 6.62933 39.9192 7.93358L39.9443 8.19494L39.9996 8.84832L40.0197 9.10967C40.1831 11.4066 40.2032 13.5577 40.2057 14.0276V14.2161C40.2032 14.7036 40.1806 17.0005 39.9996 19.3929L39.9795 19.6568L39.9569 19.9181C39.8312 21.3556 39.6453 22.783 39.3663 23.8334C39.1377 24.6874 38.689 25.4664 38.065 26.0926C37.441 26.7188 36.6636 27.1703 35.8104 27.4019C32.8953 28.186 21.8155 28.2412 20.28 28.2438H19.9232C19.1466 28.2438 15.935 28.2287 12.5676 28.1131L12.1404 28.098L11.9217 28.0879L11.492 28.0704L11.0623 28.0528C8.27284 27.9296 5.61658 27.7311 4.39275 27.3994C3.5399 27.168 2.76268 26.7169 2.1387 26.0911C1.51473 25.4654 1.06583 24.6869 0.836833 23.8334C0.557889 22.7855 0.371926 21.3556 0.246275 19.9181L0.226171 19.6543L0.206067 19.3929C0.0813297 17.6901 0.0126036 15.9837 0 14.2764L0 13.9673C0.00502603 13.427 0.0251301 11.5599 0.160833 9.49919L0.178424 9.24035L0.185963 9.10967L0.206067 8.84832L0.261353 8.19494L0.286483 7.93358C0.407108 6.62933 0.585532 5.36277 0.839346 4.41034C1.06796 3.55638 1.51668 2.77737 2.14069 2.15116C2.76469 1.52495 3.54211 1.07348 4.39526 0.84186C5.6191 0.515168 8.27535 0.314126 11.0648 0.188476L11.492 0.170885L11.9242 0.155807L12.1404 0.148268L12.5701 0.130677C14.9617 0.0537875 17.3544 0.0110617 19.7473 0.00251313L20.2323 0ZM16.0833 8.06677V20.1745L26.5299 14.1231L16.0833 8.06677Z" fill="white"/>
</svg>
